<svg width="20" height="20" viewBox="0 0 20 20" fill="none" xmlns="http://www.w3.org/2000/svg">
<path d="M15 12.5H4.99996L1.66663 15.8333V2.49996C1.66663 2.27895 1.75442 2.06698 1.9107 1.9107C2.06698 1.75442 2.27895 1.66663 2.49996 1.66663H15C15.221 1.66663 15.4329 1.75442 15.5892 1.9107C15.7455 2.06698 15.8333 2.27895 15.8333 2.49996V11.6666C15.8333 11.8876 15.7455 12.0996 15.5892 12.2559C15.4329 12.4122 15.221 12.5 15 12.5ZM19.1666 7.49996V19.1666L15.8333 15.8333H6.66663C6.44561 15.8333 6.23365 15.7455 6.07737 15.5892C5.92109 15.4329 5.83329 15.221 5.83329 15V14.1666H17.5V6.66663H18.3333C18.5543 6.66663 18.7663 6.75442 18.9225 6.9107C19.0788 7.06698 19.1666 7.27895 19.1666 7.49996ZM6.82496 3.33329C6.09996 3.33329 5.51663 3.49996 5.06663 3.82496C4.63329 4.16663 4.41663 4.64163 4.42496 5.29996L4.43329 5.32496H6.04163C6.04996 5.07496 6.12496 4.88329 6.27496 4.74996C6.42927 4.622 6.62454 4.55395 6.82496 4.55829C7.08329 4.55829 7.29996 4.64163 7.44996 4.79163C7.59996 4.94996 7.66663 5.16663 7.66663 5.41663C7.66663 5.68329 7.60829 5.90829 7.47496 6.09996C7.35829 6.29163 7.18329 6.45829 6.96663 6.59163C6.54163 6.87496 6.24996 7.12496 6.09163 7.34996C5.92496 7.56663 5.83329 7.91663 5.83329 8.33329H7.49996C7.49996 8.07496 7.53329 7.86663 7.60829 7.71663C7.68329 7.56663 7.82496 7.41663 8.03329 7.28329C8.40829 7.08329 8.71663 6.84163 8.95829 6.50829C9.19996 6.17496 9.32496 5.83329 9.32496 5.41663C9.32496 4.78329 9.09996 4.27496 8.64996 3.89996C8.20829 3.52496 7.59996 3.33329 6.82496 3.33329ZM5.83329 9.16663V10.8333H7.49996V9.16663H5.83329ZM10.8333 10.8333H12.5V9.16663H10.8333V10.8333ZM10.8333 3.33329V8.33329H12.5V3.33329H10.8333Z" fill="white"/>
</svg>
