<svg width="20" height="20" viewBox="0 0 20 20" fill="none" xmlns="http://www.w3.org/2000/svg">
<path d="M14.1667 13.3334L17.5 10M17.5 10L14.1667 6.66671M17.5 10H5.83333M10.8333 13.3334V14.1667C10.8333 14.8297 10.5699 15.4656 10.1011 15.9345C9.63226 16.4033 8.99637 16.6667 8.33333 16.6667H5C4.33696 16.6667 3.70107 16.4033 3.23223 15.9345C2.76339 15.4656 2.5 14.8297 2.5 14.1667V5.83337C2.5 5.17033 2.76339 4.53445 3.23223 4.06561C3.70107 3.59677 4.33696 3.33337 5 3.33337H8.33333C8.99637 3.33337 9.63226 3.59677 10.1011 4.06561C10.5699 4.53445 10.8333 5.17033 10.8333 5.83337V6.66671" stroke="white" stroke-width="2" stroke-linecap="round" stroke-linejoin="round"/>
</svg>
