<svg width="20" height="20" viewBox="0 0 20 20" fill="none" xmlns="http://www.w3.org/2000/svg">
<path fill-rule="evenodd" clip-rule="evenodd" d="M12.9066 1.19167C12.969 1.24511 13.0202 1.31032 13.0573 1.38356C13.0945 1.4568 13.1168 1.53664 13.1231 1.61852C13.1293 1.7004 13.1194 1.78271 13.0939 1.86075C13.0683 1.93879 13.0276 2.01103 12.9741 2.07334L11.0016 4.37501H13.3791C14.5183 4.37501 15.4375 4.37501 16.16 4.47251C16.91 4.57251 17.5416 4.78917 18.0433 5.29001C18.545 5.79167 18.76 6.42334 18.8616 7.17334C18.9583 7.89584 18.9583 8.81501 18.9583 9.95417V13.3792C18.9583 14.5183 18.9583 15.4375 18.8616 16.16C18.76 16.91 18.545 17.5417 18.0433 18.0433C17.5416 18.545 16.91 18.76 16.16 18.8617C15.4375 18.9583 14.5183 18.9583 13.3791 18.9583H6.62079C5.48163 18.9583 4.56246 18.9583 3.83996 18.8617C3.08996 18.76 2.45829 18.545 1.95663 18.0433C1.45496 17.5417 1.23996 16.91 1.13913 16.16C1.04163 15.4375 1.04163 14.5183 1.04163 13.3792V9.95417C1.04163 8.81501 1.04163 7.89584 1.13913 7.17334C1.23913 6.42334 1.45579 5.79167 1.95663 5.29001C2.45829 4.78834 3.08996 4.57334 3.83996 4.47251C4.56246 4.37501 5.48163 4.37501 6.62079 4.37501H8.99829L7.02496 2.07334C6.96837 2.01155 6.92479 1.93901 6.8968 1.86004C6.86881 1.78106 6.85698 1.69727 6.86203 1.61363C6.86707 1.53 6.88888 1.44823 6.92615 1.37319C6.96343 1.29815 7.01541 1.23137 7.07901 1.17683C7.14261 1.12228 7.21653 1.08108 7.29637 1.05567C7.37621 1.03027 7.46035 1.02117 7.54378 1.02893C7.6272 1.03669 7.70822 1.06115 7.78201 1.10084C7.85579 1.14054 7.92084 1.19467 7.97329 1.26001L9.99996 3.62334L12.025 1.26001C12.0784 1.19766 12.1436 1.14645 12.2168 1.10931C12.2901 1.07216 12.3699 1.04982 12.4518 1.04355C12.5337 1.03728 12.616 1.04721 12.694 1.07277C12.7721 1.09833 12.8443 1.13902 12.9066 1.19251V1.19167ZM13.9583 5.62501V17.7083C14.83 17.705 15.48 17.6917 15.9933 17.6225C16.605 17.54 16.9283 17.3892 17.1591 17.1592C17.39 16.9283 17.54 16.605 17.6225 15.9925C17.7066 15.3633 17.7083 14.5292 17.7083 13.3333V10C17.7083 8.80417 17.7066 7.96917 17.6225 7.34001C17.54 6.72834 17.3891 6.40501 17.1591 6.17417C16.9283 5.94334 16.605 5.79334 15.9925 5.71084C15.48 5.64167 14.83 5.62751 13.9583 5.62501ZM12.7083 17.7083V5.62501H6.66663C5.47079 5.62501 4.63579 5.62667 4.00663 5.71084C3.39496 5.79334 3.07163 5.94417 2.84079 6.17417C2.60996 6.40501 2.45996 6.72834 2.37746 7.34084C2.29329 7.96917 2.29163 8.80417 2.29163 10V13.3333C2.29163 14.5292 2.29329 15.3633 2.37746 15.9933C2.45996 16.605 2.61079 16.9283 2.84079 17.1592C3.07163 17.39 3.39496 17.54 4.00746 17.6225C4.63579 17.7067 5.47079 17.7083 6.66663 17.7083H12.7083Z" fill="white"/>
<path d="M16.6667 13.3334C16.6667 13.1123 16.5789 12.9004 16.4226 12.7441C16.2663 12.5878 16.0543 12.5 15.8333 12.5C15.6123 12.5 15.4004 12.5878 15.2441 12.7441C15.0878 12.9004 15 13.1123 15 13.3334C15 13.5544 15.0878 13.7663 15.2441 13.9226C15.4004 14.0789 15.6123 14.1667 15.8333 14.1667C16.0543 14.1667 16.2663 14.0789 16.4226 13.9226C16.5789 13.7663 16.6667 13.5544 16.6667 13.3334ZM16.6667 10C16.6667 9.77901 16.5789 9.56705 16.4226 9.41076C16.2663 9.25448 16.0543 9.16669 15.8333 9.16669C15.6123 9.16669 15.4004 9.25448 15.2441 9.41076C15.0878 9.56705 15 9.77901 15 10C15 10.221 15.0878 10.433 15.2441 10.5893C15.4004 10.7456 15.6123 10.8334 15.8333 10.8334C16.0543 10.8334 16.2663 10.7456 16.4226 10.5893C16.5789 10.433 16.6667 10.221 16.6667 10Z" fill="white"/>
</svg>
