<svg width="20" height="20" viewBox="0 0 20 20" fill="none" xmlns="http://www.w3.org/2000/svg">
<path d="M3.75001 14.5166L4.65001 15.4166L2.73335 17.3166C2.50001 17.5583 2.08335 17.5583 1.85001 17.3166C1.61668 17.075 1.60835 16.6666 1.85001 16.4333L3.75001 14.5166ZM15.2417 4.51665V3.33331L10 8.57498L4.75835 3.33331V4.51665L9.40835 9.16665L6.25001 12.3416C5.26668 11.6416 3.90001 11.725 3.02501 12.6L6.56668 16.1416C7.44168 15.2666 7.52501 13.9 6.83335 12.9166L15.2417 4.51665ZM18.15 16.4333L16.25 14.5166L15.35 15.4166L17.2667 17.3166C17.5 17.5583 17.9167 17.5583 18.15 17.3166C18.3833 17.075 18.3917 16.6666 18.15 16.4333ZM13.75 12.3416L11.1833 9.75831L10.5917 10.35L13.175 12.9166C12.475 13.9 12.5583 15.2666 13.4333 16.1416L16.975 12.6C16.1 11.725 14.7333 11.6416 13.75 12.3416Z" fill="white"/>
</svg>
