<?xml version="1.0" encoding="UTF-8"?>
<!DOCTYPE svg PUBLIC "-//W3C//DTD SVG 1.1//EN" "http://www.w3.org/Graphics/SVG/1.1/DTD/svg11.dtd">
<svg xmlns="http://www.w3.org/2000/svg" version="1.1" width="1000px" height="1080px" style="shape-rendering:geometricPrecision; text-rendering:geometricPrecision; image-rendering:optimizeQuality; fill-rule:evenodd; clip-rule:evenodd" xmlns:xlink="http://www.w3.org/1999/xlink">
<g><path style="opacity:0.929" fill="#fcfcfc" d="M 496.5,233.5 C 519.69,233.659 534.857,244.659 542,266.5C 542.733,274.946 542.4,283.28 541,291.5C 558.506,294.671 569.172,305.004 573,322.5C 573.53,342.601 564.03,355.101 544.5,360C 537.778,362.028 531.111,361.861 524.5,359.5C 529.227,390.092 535.727,420.425 544,450.5C 552.871,431.538 561.537,412.538 570,393.5C 573.508,384.305 577.008,375.139 580.5,366C 573.001,351.327 576.001,339.327 589.5,330C 604.872,322.885 617.705,326.051 628,339.5C 633.529,353.752 630.363,365.752 618.5,375.5C 617.539,421.614 619.372,467.614 624,513.5C 641.903,482.343 658.403,450.343 673.5,417.5C 667.63,404.461 669.963,392.961 680.5,383C 689.401,377.434 698.734,376.434 708.5,380C 718.624,384.975 724.291,393.142 725.5,404.5C 724.772,409.747 723.272,414.747 721,419.5C 717.279,423.221 713.613,426.887 710,430.5C 709.011,456.171 708.344,481.838 708,507.5C 727.476,487.689 746.643,467.522 765.5,447C 763.573,429.542 771.24,418.875 788.5,415C 801.633,414.152 811.133,419.652 817,431.5C 822.5,450.835 815.666,463.501 796.5,469.5C 785.014,499.125 775.014,529.292 766.5,560C 767.167,560.667 767.833,560.667 768.5,560C 800.171,537.495 834.171,519.162 870.5,505C 874.876,498.956 880.21,493.956 886.5,490C 900.943,486.303 912.11,490.803 920,503.5C 926.558,522.214 920.725,535.381 902.5,543C 900.2,543.658 897.867,544.158 895.5,544.5C 890.648,543.596 885.982,542.429 881.5,541C 857.602,557.216 835.769,576.049 816,597.5C 788.769,626.721 764.602,658.221 743.5,692C 745.103,695.881 746.436,699.881 747.5,704C 746.282,709.268 744.116,714.101 741,718.5C 740.333,738.833 740.333,759.167 741,779.5C 750.106,792.278 748.606,803.778 736.5,814C 732.326,816.588 727.993,818.921 723.5,821C 697.97,830.201 671.637,835.868 644.5,838C 546.836,847.976 449.17,847.976 351.5,838C 323.503,835.616 296.503,829.283 270.5,819C 260.083,814.248 253.75,806.248 251.5,795C 252.892,789.485 255.059,784.319 258,779.5C 258.667,759.167 258.667,738.833 258,718.5C 250.959,710.368 250.126,701.701 255.5,692.5C 223.368,639.513 183.368,593.013 135.5,553C 129.5,549 123.5,545 117.5,541C 112.873,542.531 108.04,543.698 103,544.5C 83.2409,541.074 74.5742,529.407 77,509.5C 79.9792,500.517 85.8126,494.017 94.5,490C 109.678,486.255 121.012,491.255 128.5,505C 165.079,519.203 199.246,537.703 231,560.5C 230.655,555.107 229.655,549.773 228,544.5C 219.846,520.215 211.846,495.881 204,471.5C 203.692,470.692 203.192,470.025 202.5,469.5C 188.53,465.691 180.864,456.524 179.5,442C 182.436,424.391 192.77,415.391 210.5,415C 227.721,418.9 235.888,429.734 235,447.5C 252.348,467.846 270.682,487.179 290,505.5C 290.345,491.953 290.512,478.453 290.5,465C 289.721,453.856 289.221,442.689 289,431.5C 288.445,428.458 286.612,426.625 283.5,426C 274.12,416.377 271.953,405.211 277,392.5C 287.82,376.671 301.654,373.505 318.5,383C 328.886,392.541 331.552,403.875 326.5,417C 341.15,450.305 357.317,482.805 375,514.5C 379.803,468.62 381.803,422.62 381,376.5C 367.506,365.208 364.839,351.875 373,336.5C 388.999,321.387 404.333,322.054 419,338.5C 421.107,342.928 422.274,347.595 422.5,352.5C 421.485,358.201 420.652,363.867 420,369.5C 431.034,396.94 443.034,423.94 456,450.5C 463.334,420.199 469.501,389.866 474.5,359.5C 460.743,362.661 448.077,359.827 436.5,351C 426.16,339.438 423.66,326.271 429,311.5C 433.55,303.95 439.717,298.116 447.5,294C 451.05,293.216 454.55,292.383 458,291.5C 451.874,268.772 458.707,251.272 478.5,239C 484.34,236.213 490.34,234.38 496.5,233.5 Z"/></g>
<g><path style="opacity:1" fill="#000000" d="M 491.5,244.5 C 519.497,242.714 532.664,255.714 531,283.5C 528.636,290.571 525.969,297.571 523,304.5C 522.219,305.944 522.386,307.277 523.5,308.5C 535.412,300.23 546.578,301.23 557,311.5C 564.601,322.391 564.101,332.891 555.5,343C 549.654,347.544 542.987,350.044 535.5,350.5C 527.529,349.436 519.529,348.769 511.5,348.5C 518.568,393.769 528.068,438.436 540,482.5C 558.52,445.642 575.52,407.976 591,369.5C 591.667,367.167 591.667,364.833 591,362.5C 584.96,352.454 586.793,344.287 596.5,338C 614.113,334.614 621.613,341.78 619,359.5C 616.218,364.281 612.218,367.614 607,369.5C 606.187,420.026 608.52,470.359 614,520.5C 615.777,527.164 617.944,533.664 620.5,540C 621.448,540.483 622.448,540.649 623.5,540.5C 634.033,519.772 644.866,499.105 656,478.5C 666.072,458.742 675.739,438.742 685,418.5C 683.45,414.013 681.95,409.346 680.5,404.5C 684.757,389.811 693.757,385.645 707.5,392C 716.463,401.262 716.13,410.262 706.5,419C 704.541,419.931 702.541,420.764 700.5,421.5C 700.167,422.833 699.833,424.167 699.5,425.5C 697.721,460.956 696.721,496.29 696.5,531.5C 697.552,531.649 698.552,531.483 699.5,531C 725.759,505.744 750.926,479.577 775,452.5C 775.781,451.271 776.281,449.938 776.5,448.5C 773.683,435.47 778.849,427.804 792,425.5C 805.123,427.945 810.123,435.611 807,448.5C 803.327,455.427 797.493,458.927 789.5,459C 780.688,480.462 772.855,502.295 766,524.5C 760.215,545.148 754.048,565.648 747.5,586C 748.833,586.667 750.167,586.667 751.5,586C 789.556,555.878 831.389,532.045 877,514.5C 879.51,511.339 881.843,508.006 884,504.5C 896.488,495.821 905.821,498.488 912,512.5C 912.681,523.163 907.848,529.996 897.5,533C 891.94,532.895 886.94,531.061 882.5,527.5C 866.177,537.654 850.843,549.154 836.5,562C 795.607,600.194 760.774,643.027 732,690.5C 731.333,692.167 731.333,693.833 732,695.5C 738.049,702.37 737.382,708.703 730,714.5C 729.333,737.833 729.333,761.167 730,784.5C 739.169,793.019 738.335,800.519 727.5,807C 719.136,811.121 710.469,814.455 701.5,817C 664.984,825.443 627.984,830.443 590.5,832C 519.115,835.739 447.782,835.073 376.5,830C 349.175,827.698 322.175,823.364 295.5,817C 283.83,814.582 273.663,809.416 265,801.5C 261.186,794.749 262.519,789.082 269,784.5C 269.667,761.167 269.667,737.833 269,714.5C 265.43,711.859 263.264,708.359 262.5,704C 263.652,700.034 265.319,696.367 267.5,693C 262.401,683.307 256.901,673.807 251,664.5C 222.783,623.909 190.283,587.075 153.5,554C 141.863,544.197 129.53,535.364 116.5,527.5C 105.073,536.581 95.5732,534.914 88,522.5C 85.6417,507.197 92.1417,499.697 107.5,500C 114.041,502.374 118.374,506.874 120.5,513.5C 153.949,526.359 185.615,542.525 215.5,562C 226.524,569.513 237.191,577.513 247.5,586C 248.448,586.483 249.448,586.649 250.5,586.5C 240.118,545.52 227.618,505.186 213,465.5C 211.961,463.254 210.794,461.087 209.5,459C 192.831,456.823 187.664,447.99 194,432.5C 202.936,423.279 211.936,423.279 221,432.5C 223.588,437.63 224.088,442.963 222.5,448.5C 222.719,449.938 223.219,451.271 224,452.5C 249.037,479.369 274.537,505.703 300.5,531.5C 301.542,497.753 301.376,464.087 300,430.5C 299.794,427.377 299.127,424.377 298,421.5C 287.42,417.342 283.42,409.676 286,398.5C 292.691,387.758 301.524,385.591 312.5,392C 319.597,399.818 320.264,408.152 314.5,417C 333.179,459.467 354.179,500.634 377.5,540.5C 379.121,538.847 380.288,536.847 381,534.5C 385.265,521.506 387.599,508.173 388,494.5C 391.207,452.898 392.54,411.231 392,369.5C 379.344,363.86 376.011,354.86 382,342.5C 391.322,334.199 400.322,334.532 409,343.5C 412.432,350.305 412.098,356.972 408,363.5C 407.333,365.5 407.333,367.5 408,369.5C 423.269,406.7 439.602,443.366 457,479.5C 458.714,480.925 460.047,480.592 461,478.5C 471.256,435.384 480.423,392.051 488.5,348.5C 479.147,348.89 469.98,349.557 461,350.5C 442.585,347.696 434.918,337.029 438,318.5C 443.973,305.763 453.806,300.93 467.5,304C 471.135,304.816 474.135,306.65 476.5,309.5C 477.614,308.277 477.781,306.944 477,305.5C 471.926,296.111 468.759,286.111 467.5,275.5C 468.761,259.91 476.761,249.577 491.5,244.5 Z"/></g>
<g><path style="opacity:1" fill="#fafafa" d="M 495.5,257.5 C 514.683,258.508 521.516,268.175 516,286.5C 512.055,296.334 507.721,306.001 503,315.5C 500.546,319.336 498.212,319.336 496,315.5C 489.362,302.756 484.196,289.423 480.5,275.5C 481.925,266.417 486.925,260.417 495.5,257.5 Z"/></g>
<g><path style="opacity:1" fill="#f7f7f7" d="M 456.5,316.5 C 459.607,316.351 462.607,316.851 465.5,318C 471.258,321.754 476.425,326.254 481,331.5C 481.749,332.635 481.583,333.635 480.5,334.5C 472.157,336.593 463.823,336.76 455.5,335C 448.631,328.492 448.964,322.326 456.5,316.5 Z"/></g>
<g><path style="opacity:1" fill="#f7f7f7" d="M 535.5,316.5 C 541.204,315.436 545.371,317.436 548,322.5C 549.368,328.269 547.534,332.769 542.5,336C 534.394,336.886 526.394,336.386 518.5,334.5C 517.417,333.635 517.251,332.635 518,331.5C 523.439,325.89 529.273,320.89 535.5,316.5 Z"/></g>
<g><path style="opacity:1" fill="#f3f3f3" d="M 496.5,330.5 C 505.244,330.413 507.577,334.246 503.5,342C 493.446,342.787 491.113,338.954 496.5,330.5 Z"/></g>
<g><path style="opacity:1" fill="#f6f6f6" d="M 443.5,532.5 C 444.5,532.5 445.5,532.5 446.5,532.5C 443.442,548.744 437.942,564.077 430,578.5C 416.248,586.888 404.582,584.554 395,571.5C 392.565,567.628 390.398,563.628 388.5,559.5C 388.833,559.167 389.167,558.833 389.5,558.5C 404.973,571.585 419.139,570.252 432,554.5C 437.154,547.858 440.988,540.525 443.5,532.5 Z"/></g>
<g><path style="opacity:1" fill="#f6f6f6" d="M 552.5,532.5 C 553.675,532.281 554.675,532.614 555.5,533.5C 560.716,548.207 570.049,559.374 583.5,567C 594.082,568.378 603.082,565.211 610.5,557.5C 608.371,567.183 603.038,575.016 594.5,581C 579.561,586.779 569.061,582.279 563,567.5C 558.798,556.059 555.298,544.392 552.5,532.5 Z"/></g>
<g><path style="opacity:1" fill="#f2f2f2" d="M 698.5,559.5 C 699.586,559.62 700.253,560.287 700.5,561.5C 702.743,574.153 708.743,584.653 718.5,593C 723.732,594.945 729.066,596.445 734.5,597.5C 734.439,599.592 733.439,601.092 731.5,602C 717.157,607.331 707.324,602.831 702,588.5C 699.96,578.93 698.793,569.263 698.5,559.5 Z"/></g>
<g><path style="opacity:1" fill="#f3f3f3" d="M 298.5,561.5 C 299.777,562.694 300.444,564.36 300.5,566.5C 299.984,577.347 297.484,587.68 293,597.5C 283.397,606.441 273.564,606.774 263.5,598.5C 280.015,595.822 290.848,586.489 296,570.5C 296.739,567.454 297.572,564.454 298.5,561.5 Z"/></g>
<g><path style="opacity:1" fill="#f3f3f3" d="M 481.5,590.5 C 493.171,590.333 504.838,590.5 516.5,591C 536.05,596.719 548.217,609.552 553,629.5C 555,637.167 555,644.833 553,652.5C 550.452,660.597 547.619,668.597 544.5,676.5C 545.167,676.833 545.833,677.167 546.5,677.5C 562.292,670.297 578.626,664.464 595.5,660C 626.519,656.423 649.352,668.257 664,695.5C 666.511,702.143 668.011,708.976 668.5,716C 678.29,715.313 687.957,713.646 697.5,711C 708.095,708.351 718.428,705.184 728.5,701.5C 728.731,704.785 727.397,707.285 724.5,709C 714.933,713.89 704.933,717.557 694.5,720C 646.339,729.417 597.672,734.75 548.5,736C 477.151,738.41 406.151,735.077 335.5,726C 317.503,722.935 299.836,718.601 282.5,713C 278.658,711.386 275.158,709.219 272,706.5C 271.506,704.866 271.34,703.199 271.5,701.5C 290.205,709.52 309.872,714.353 330.5,716C 334.624,685.205 351.958,666.538 382.5,660C 389.5,659.333 396.5,659.333 403.5,660C 419.583,663.913 434.916,669.58 449.5,677C 451.134,677.494 452.801,677.66 454.5,677.5C 451.574,668.555 448.741,659.555 446,650.5C 443.241,621.663 455.074,601.663 481.5,590.5 Z"/></g>
<g><path style="opacity:1" fill="#050505" d="M 490.5,600.5 C 500.271,600.143 509.938,600.977 519.5,603C 540.424,612.336 549.924,628.503 548,651.5C 546.33,657.504 544.663,663.504 543,669.5C 540.335,674.669 538.168,680.002 536.5,685.5C 553.609,677.621 571.275,670.788 589.5,665C 618.719,661.025 639.219,672.525 651,699.5C 652.875,705.709 654.042,712.043 654.5,718.5C 600.075,725.417 545.409,728.417 490.5,727.5C 442.642,728.082 394.975,725.582 347.5,720C 345.876,718.883 344.876,717.383 344.5,715.5C 348.233,684.601 365.4,667.268 396,663.5C 404,664.125 411.833,665.625 419.5,668C 433.885,673.865 448.219,679.698 462.5,685.5C 457.788,674.531 453.955,663.198 451,651.5C 449.529,628.948 459.029,612.782 479.5,603C 483.392,602.581 487.058,601.748 490.5,600.5 Z"/></g>
<g><path style="opacity:1" fill="#fcfcfc" d="M 500.5,610.5 C 523.519,611.353 536.519,623.187 539.5,646C 536.017,664.459 528.85,681.292 518,696.5C 516.833,702 519,704.167 524.5,703C 543.552,694.091 562.886,685.758 582.5,678C 608.197,669.776 627.697,677.276 641,700.5C 642.899,704.621 643.732,708.954 643.5,713.5C 547.81,723 452.144,722.833 356.5,713C 356.153,707.657 357.32,702.49 360,697.5C 373.876,676.623 392.709,670.123 416.5,678C 436.096,685.8 455.43,694.133 474.5,703C 478.504,704.327 481.171,702.994 482.5,699C 472.328,684.512 464.828,668.678 460,651.5C 458.808,632.034 467.308,618.867 485.5,612C 490.684,611.826 495.684,611.326 500.5,610.5 Z"/></g>
<g><path style="opacity:1" fill="#f5f5f5" d="M 298.5,730.5 C 305.821,731.319 307.154,734.486 302.5,740C 295.075,739.484 293.742,736.318 298.5,730.5 Z"/></g>
<g><path style="opacity:1" fill="#efefef" d="M 696.5,730.5 C 703.821,731.319 705.154,734.486 700.5,740C 693.075,739.484 691.742,736.318 696.5,730.5 Z"/></g>
<g><path style="opacity:1" fill="#f5f5f5" d="M 597.5,744.5 C 605.665,743.175 609.498,746.509 609,754.5C 606.565,759.224 602.731,760.724 597.5,759C 592.214,754.169 592.214,749.335 597.5,744.5 Z"/></g>
<g><path style="opacity:1" fill="#f6f6f6" d="M 394.5,744.5 C 402.113,743.614 405.613,746.947 405,754.5C 400.833,760.759 396.167,761.092 391,755.5C 389.882,751.077 391.049,747.41 394.5,744.5 Z"/></g>
<g><path style="opacity:1" fill="#f7f7f7" d="M 493.5,747.5 C 497.846,747.334 502.179,747.501 506.5,748C 514.5,754.333 514.5,760.667 506.5,767C 502.167,767.667 497.833,767.667 493.5,767C 487.828,764.232 485.994,759.732 488,753.5C 489.36,750.977 491.193,748.977 493.5,747.5 Z"/></g>
<g><path style="opacity:1" fill="#f1f1f1" d="M 271.5,792.5 C 276.899,794.576 282.232,796.742 287.5,799C 309.548,804.876 331.881,809.21 354.5,812C 443.768,819.94 533.101,820.607 622.5,814C 651.863,811.076 680.863,806.076 709.5,799C 715.141,797.329 720.641,795.163 726,792.5C 727.5,792.667 728.333,793.5 728.5,795C 724.579,800.567 719.246,804.233 712.5,806C 694.836,811.533 676.836,815.533 658.5,818C 580.756,827.466 502.756,830.133 424.5,826C 382.96,824.358 341.96,819.025 301.5,810C 294.015,807.966 286.682,805.632 279.5,803C 276.734,801.533 274.234,799.7 272,797.5C 271.506,795.866 271.34,794.199 271.5,792.5 Z"/></g>
</svg>
