<?xml version="1.0" encoding="UTF-8"?>
<!DOCTYPE svg PUBLIC "-//W3C//DTD SVG 1.1//EN" "http://www.w3.org/Graphics/SVG/1.1/DTD/svg11.dtd">
<svg xmlns="http://www.w3.org/2000/svg" version="1.1" width="1000px" height="1080px" style="shape-rendering:geometricPrecision; text-rendering:geometricPrecision; image-rendering:optimizeQuality; fill-rule:evenodd; clip-rule:evenodd" xmlns:xlink="http://www.w3.org/1999/xlink">
<g><path style="opacity:0.929" fill="#020202" d="M 496.5,233.5 C 519.69,233.659 534.857,244.659 542,266.5C 542.733,274.946 542.4,283.28 541,291.5C 558.506,294.671 569.172,305.004 573,322.5C 573.53,342.601 564.03,355.101 544.5,360C 537.778,362.028 531.111,361.861 524.5,359.5C 529.227,390.092 535.727,420.425 544,450.5C 552.871,431.538 561.537,412.538 570,393.5C 573.508,384.305 577.008,375.139 580.5,366C 573.001,351.327 576.001,339.327 589.5,330C 604.872,322.885 617.705,326.051 628,339.5C 633.529,353.752 630.363,365.752 618.5,375.5C 617.539,421.614 619.372,467.614 624,513.5C 641.903,482.343 658.403,450.343 673.5,417.5C 667.63,404.461 669.963,392.961 680.5,383C 689.401,377.434 698.734,376.434 708.5,380C 718.624,384.975 724.291,393.142 725.5,404.5C 724.772,409.747 723.272,414.747 721,419.5C 717.279,423.221 713.613,426.887 710,430.5C 709.011,456.171 708.344,481.838 708,507.5C 727.476,487.689 746.643,467.522 765.5,447C 763.573,429.542 771.24,418.875 788.5,415C 801.633,414.152 811.133,419.652 817,431.5C 822.5,450.835 815.666,463.501 796.5,469.5C 785.014,499.125 775.014,529.292 766.5,560C 767.167,560.667 767.833,560.667 768.5,560C 800.171,537.495 834.171,519.162 870.5,505C 874.876,498.956 880.21,493.956 886.5,490C 900.943,486.303 912.11,490.803 920,503.5C 926.558,522.214 920.725,535.381 902.5,543C 900.2,543.658 897.867,544.158 895.5,544.5C 890.648,543.596 885.982,542.429 881.5,541C 857.602,557.216 835.769,576.049 816,597.5C 788.769,626.721 764.602,658.221 743.5,692C 745.103,695.881 746.436,699.881 747.5,704C 746.282,709.268 744.116,714.101 741,718.5C 740.333,738.833 740.333,759.167 741,779.5C 750.106,792.278 748.606,803.778 736.5,814C 732.326,816.588 727.993,818.921 723.5,821C 697.97,830.201 671.637,835.868 644.5,838C 546.836,847.976 449.17,847.976 351.5,838C 323.503,835.616 296.503,829.283 270.5,819C 260.083,814.248 253.75,806.248 251.5,795C 252.892,789.485 255.059,784.319 258,779.5C 258.667,759.167 258.667,738.833 258,718.5C 250.959,710.368 250.126,701.701 255.5,692.5C 223.368,639.513 183.368,593.013 135.5,553C 129.5,549 123.5,545 117.5,541C 112.873,542.531 108.04,543.698 103,544.5C 83.2409,541.074 74.5742,529.407 77,509.5C 79.9792,500.517 85.8126,494.017 94.5,490C 109.678,486.255 121.012,491.255 128.5,505C 165.079,519.203 199.246,537.703 231,560.5C 230.655,555.107 229.655,549.773 228,544.5C 219.846,520.215 211.846,495.881 204,471.5C 203.692,470.692 203.192,470.025 202.5,469.5C 188.53,465.691 180.864,456.524 179.5,442C 182.436,424.391 192.77,415.391 210.5,415C 227.721,418.9 235.888,429.734 235,447.5C 252.348,467.846 270.682,487.179 290,505.5C 290.345,491.953 290.512,478.453 290.5,465C 289.721,453.856 289.221,442.689 289,431.5C 288.445,428.458 286.612,426.625 283.5,426C 274.12,416.377 271.953,405.211 277,392.5C 287.82,376.671 301.654,373.505 318.5,383C 328.886,392.541 331.552,403.875 326.5,417C 341.15,450.305 357.317,482.805 375,514.5C 379.803,468.62 381.803,422.62 381,376.5C 367.506,365.208 364.839,351.875 373,336.5C 388.999,321.387 404.333,322.054 419,338.5C 421.107,342.928 422.274,347.595 422.5,352.5C 421.485,358.201 420.652,363.867 420,369.5C 431.034,396.94 443.034,423.94 456,450.5C 463.334,420.199 469.501,389.866 474.5,359.5C 460.743,362.661 448.077,359.827 436.5,351C 426.16,339.438 423.66,326.271 429,311.5C 433.55,303.95 439.717,298.116 447.5,294C 451.05,293.216 454.55,292.383 458,291.5C 451.874,268.772 458.707,251.272 478.5,239C 484.34,236.213 490.34,234.38 496.5,233.5 Z"/></g>
<g><path style="opacity:1" fill="#fefefe" d="M 491.5,244.5 C 519.519,242.686 532.686,255.686 531,283.5C 528.636,290.571 525.969,297.571 523,304.5C 522.219,305.944 522.386,307.277 523.5,308.5C 535.412,300.23 546.578,301.23 557,311.5C 565.876,326.463 563.042,338.63 548.5,348C 544.139,348.733 539.806,349.566 535.5,350.5C 527.552,349.173 519.552,348.506 511.5,348.5C 515.345,371.236 519.511,393.902 524,416.5C 529.16,438.143 533.993,459.81 538.5,481.5C 539.675,481.719 540.675,481.386 541.5,480.5C 559.081,444.003 575.581,407.003 591,369.5C 591.667,367.167 591.667,364.833 591,362.5C 584.38,350.803 587.214,342.303 599.5,337C 611.517,335.344 618.517,340.511 620.5,352.5C 619.582,360.927 615.082,366.594 607,369.5C 606.187,420.026 608.52,470.359 614,520.5C 615.788,527.161 617.954,533.661 620.5,540C 621.448,540.483 622.448,540.649 623.5,540.5C 641.588,505.992 659.421,471.325 677,436.5C 679.715,430.012 682.215,423.512 684.5,417C 683.086,412.924 681.753,408.757 680.5,404.5C 684.138,390.182 692.804,385.682 706.5,391C 716.827,400.341 716.827,409.674 706.5,419C 704.541,419.931 702.541,420.764 700.5,421.5C 700.167,422.833 699.833,424.167 699.5,425.5C 697.721,460.956 696.721,496.29 696.5,531.5C 697.552,531.649 698.552,531.483 699.5,531C 725.787,505.717 750.953,479.551 775,452.5C 775.781,451.271 776.281,449.938 776.5,448.5C 773.683,435.47 778.849,427.804 792,425.5C 807.345,429.191 811.679,438.191 805,452.5C 800.814,457.023 795.647,459.19 789.5,459C 773.322,500.701 759.655,543.201 748.5,586.5C 763.904,576.283 779.237,565.783 794.5,555C 821.119,538.612 849.119,524.778 878.5,513.5C 883.96,500.425 892.96,496.925 905.5,503C 915.324,513.075 914.658,522.408 903.5,531C 895.809,534.39 888.809,533.223 882.5,527.5C 866.177,537.654 850.843,549.154 836.5,562C 798.812,598.329 765.645,638.163 737,681.5C 735.008,685.316 733.174,689.149 731.5,693C 733.681,696.367 735.348,700.034 736.5,704C 735.186,707.991 733.019,711.491 730,714.5C 729.333,737.833 729.333,761.167 730,784.5C 738.407,791.178 738.574,798.011 730.5,805C 722.774,810.029 714.441,813.696 705.5,816C 667.705,825.03 629.371,830.363 590.5,832C 527.501,835.276 464.501,835.276 401.5,832C 365.802,829.575 330.468,824.575 295.5,817C 283.862,814.598 273.695,809.431 265,801.5C 261.186,794.749 262.519,789.082 269,784.5C 269.667,761.167 269.667,737.833 269,714.5C 265.43,711.859 263.264,708.359 262.5,704C 263.652,700.034 265.319,696.367 267.5,693C 264.996,686.828 261.83,680.994 258,675.5C 226.102,626.238 187.602,582.738 142.5,545C 134.974,539.409 127.307,534.075 119.5,529C 116.351,527.965 113.684,528.632 111.5,531C 97.8104,535.465 89.8104,530.631 87.5,516.5C 88.5488,504.29 95.2154,498.79 107.5,500C 109.5,501 111.5,502 113.5,503C 116.553,506.387 119.22,510.053 121.5,514C 167.402,531.281 209.402,555.281 247.5,586C 248.448,586.483 249.448,586.649 250.5,586.5C 240.123,545.535 227.623,505.202 213,465.5C 211.961,463.254 210.794,461.087 209.5,459C 193.542,457.249 188.042,448.749 193,433.5C 201.973,423.239 211.306,422.906 221,432.5C 224.725,437.597 225.225,442.93 222.5,448.5C 222.722,450.055 223.389,451.389 224.5,452.5C 249.298,479.626 274.632,505.959 300.5,531.5C 301.542,497.753 301.376,464.087 300,430.5C 299.794,427.377 299.127,424.377 298,421.5C 287.42,417.342 283.42,409.676 286,398.5C 292.691,387.758 301.524,385.591 312.5,392C 319.645,399.923 320.312,408.423 314.5,417.5C 333.373,459.674 354.373,500.674 377.5,540.5C 379.121,538.847 380.288,536.847 381,534.5C 384.713,521.424 387.046,508.091 388,494.5C 391.207,452.898 392.54,411.231 392,369.5C 379.362,363.898 376.029,354.898 382,342.5C 391.291,334.253 400.291,334.586 409,343.5C 412.517,350.336 412.184,357.003 408,363.5C 407.333,365.167 407.333,366.833 408,368.5C 423.074,407.076 440.074,444.409 459,480.5C 459.945,480.095 460.612,479.428 461,478.5C 471.254,435.397 480.421,392.064 488.5,348.5C 479.147,348.89 469.98,349.557 461,350.5C 442.585,347.696 434.918,337.029 438,318.5C 444.876,304.479 455.709,299.979 470.5,305C 472.641,306.308 474.641,307.808 476.5,309.5C 476.833,309 477.167,308.5 477.5,308C 472.428,297.624 469.095,286.79 467.5,275.5C 468.751,259.918 476.751,249.585 491.5,244.5 Z"/></g>
<g><path style="opacity:1" fill="#050505" d="M 495.5,257.5 C 514.683,258.508 521.516,268.175 516,286.5C 511.817,296.234 507.483,305.901 503,315.5C 500.546,319.336 498.212,319.336 496,315.5C 492.328,307.49 488.661,299.49 485,291.5C 481.818,284.48 480.818,277.147 482,269.5C 484.85,263.514 489.35,259.514 495.5,257.5 Z"/></g>
<g><path style="opacity:1" fill="#0a0a0a" d="M 456.5,316.5 C 460.966,316.156 464.966,317.323 468.5,320C 472.967,323.465 477.133,327.298 481,331.5C 481.749,332.635 481.583,333.635 480.5,334.5C 472.157,336.593 463.823,336.76 455.5,335C 448.631,328.492 448.964,322.326 456.5,316.5 Z"/></g>
<g><path style="opacity:1" fill="#090909" d="M 535.5,316.5 C 541.204,315.436 545.371,317.436 548,322.5C 549.463,328.74 547.297,333.24 541.5,336C 533.726,336.868 526.06,336.368 518.5,334.5C 517.417,333.635 517.251,332.635 518,331.5C 523.731,326.261 529.564,321.261 535.5,316.5 Z"/></g>
<g><path style="opacity:1" fill="#0e0e0e" d="M 496.5,330.5 C 505.222,330.395 507.556,334.228 503.5,342C 493.415,342.76 491.082,338.927 496.5,330.5 Z"/></g>
<g><path style="opacity:1" fill="#090909" d="M 443.5,532.5 C 444.675,532.281 445.675,532.614 446.5,533.5C 443.541,545.758 439.708,557.758 435,569.5C 428.107,583.353 417.607,586.853 403.5,580C 396.667,574.498 391.667,567.664 388.5,559.5C 388.833,559.167 389.167,558.833 389.5,558.5C 405.615,571.835 420.115,570.169 433,553.5C 437.651,547.032 441.151,540.032 443.5,532.5 Z"/></g>
<g><path style="opacity:1" fill="#090909" d="M 552.5,532.5 C 554.017,532.511 555.184,533.177 556,534.5C 560.824,547.65 568.99,558.15 580.5,566C 592.204,569.154 602.204,566.32 610.5,557.5C 610.833,557.833 611.167,558.167 611.5,558.5C 607.852,567.632 602.185,575.132 594.5,581C 579.525,586.759 569.025,582.259 563,567.5C 558.804,556.075 555.304,544.408 552.5,532.5 Z"/></g>
<g><path style="opacity:1" fill="#0f0f0f" d="M 698.5,559.5 C 699.586,559.62 700.253,560.287 700.5,561.5C 702.743,574.153 708.743,584.653 718.5,593C 723.779,594.893 729.112,596.727 734.5,598.5C 732.356,601.634 729.356,603.467 725.5,604C 713.376,605.192 705.542,600.025 702,588.5C 699.85,578.949 698.683,569.283 698.5,559.5 Z"/></g>
<g><path style="opacity:1" fill="#0e0e0e" d="M 298.5,561.5 C 299.748,562.334 300.415,563.667 300.5,565.5C 299.449,571.804 298.616,578.138 298,584.5C 296.589,596.578 289.922,603.245 278,604.5C 272.311,604.332 267.478,602.332 263.5,598.5C 278.151,596.672 288.317,589.005 294,575.5C 295.811,570.921 297.311,566.254 298.5,561.5 Z"/></g>
<g><path style="opacity:1" fill="#0d0d0d" d="M 481.5,590.5 C 493.171,590.333 504.838,590.5 516.5,591C 539.98,599.234 552.646,615.901 554.5,641C 554.094,644.845 553.594,648.679 553,652.5C 549.859,660.757 547.026,669.09 544.5,677.5C 557.554,672.98 570.554,668.146 583.5,663C 606.972,655.29 628.305,658.956 647.5,674C 660.117,685.235 667.117,699.235 668.5,716C 675.843,715.444 683.177,714.444 690.5,713C 703.526,710.044 716.193,706.211 728.5,701.5C 728.919,704.325 727.919,706.491 725.5,708C 721.112,710.861 716.446,713.194 711.5,715C 695.609,719.128 679.609,722.794 663.5,726C 554.218,739.75 444.884,739.75 335.5,726C 317.509,722.936 299.843,718.602 282.5,713C 278.658,711.386 275.158,709.219 272,706.5C 271.506,704.866 271.34,703.199 271.5,701.5C 272.873,701.343 274.207,701.51 275.5,702C 280.136,705.102 285.136,707.435 290.5,709C 301.223,711.014 311.89,713.347 322.5,716C 325.993,717.004 329.159,716.504 332,714.5C 333.253,693.92 342.753,678.42 360.5,668C 373.931,660.524 388.265,657.857 403.5,660C 419.511,663.892 434.844,669.559 449.5,677C 451.134,677.494 452.801,677.66 454.5,677.5C 451.71,668.561 448.876,659.561 446,650.5C 443.239,621.667 455.073,601.667 481.5,590.5 Z"/></g>
<g><path style="opacity:1" fill="#f9f9f9" d="M 490.5,600.5 C 519.577,596.487 538.743,608.154 548,635.5C 548.793,652.619 544.959,668.619 536.5,683.5C 537.723,684.614 539.056,684.781 540.5,684C 556.714,675.733 573.714,669.4 591.5,665C 618.637,661.167 638.137,671.667 650,696.5C 652.072,702.692 653.572,709.026 654.5,715.5C 654.291,716.994 653.624,718.161 652.5,719C 615.673,723.868 578.673,726.535 541.5,727C 476.642,729.397 411.975,727.064 347.5,720C 344.651,717.441 343.817,714.274 345,710.5C 350.535,682.458 367.368,666.792 395.5,663.5C 408.651,664.717 421.318,667.884 433.5,673C 443.084,677.434 452.751,681.6 462.5,685.5C 461.164,679.828 458.997,674.495 456,669.5C 454.349,663.569 452.682,657.569 451,651.5C 449.156,632.023 456.323,616.856 472.5,606C 478.369,603.338 484.369,601.505 490.5,600.5 Z"/></g>
<g><path style="opacity:1" fill="#020202" d="M 485.5,611.5 C 496.97,610.876 508.304,611.709 519.5,614C 535.356,623.543 541.523,637.376 538,655.5C 533.418,670.284 526.751,683.951 518,696.5C 517.007,702.502 519.507,704.668 525.5,703C 547.878,691.318 571.211,681.984 595.5,675C 622.823,673.818 638.823,686.651 643.5,713.5C 547.791,722.999 452.125,722.833 356.5,713C 355.941,712.275 355.608,711.442 355.5,710.5C 361.26,688.574 375.426,676.574 398,674.5C 405.058,674.982 411.892,676.482 418.5,679C 437.245,686.209 455.578,694.209 473.5,703C 478.847,704.616 481.68,702.783 482,697.5C 470.259,681.847 462.759,664.347 459.5,645C 461.304,628.377 469.971,617.211 485.5,611.5 Z"/></g>
<g><path style="opacity:1" fill="#0d0d0d" d="M 298.5,730.5 C 305.821,731.319 307.154,734.486 302.5,740C 295.075,739.484 293.742,736.318 298.5,730.5 Z"/></g>
<g><path style="opacity:1" fill="#131313" d="M 696.5,730.5 C 703.821,731.319 705.154,734.486 700.5,740C 693.075,739.484 691.742,736.318 696.5,730.5 Z"/></g>
<g><path style="opacity:1" fill="#0a0a0a" d="M 597.5,744.5 C 604.19,743.196 608.19,745.863 609.5,752.5C 607.969,759.044 603.969,761.211 597.5,759C 592.311,754.247 592.311,749.413 597.5,744.5 Z"/></g>
<g><path style="opacity:1" fill="#0b0b0b" d="M 394.5,744.5 C 402.164,743.666 405.664,747 405,754.5C 400.833,760.759 396.167,761.092 391,755.5C 389.882,751.077 391.049,747.41 394.5,744.5 Z"/></g>
<g><path style="opacity:1" fill="#0a0a0a" d="M 493.5,747.5 C 497.846,747.334 502.179,747.501 506.5,748C 514.5,754.333 514.5,760.667 506.5,767C 502.167,767.667 497.833,767.667 493.5,767C 487.828,764.232 485.994,759.732 488,753.5C 489.36,750.977 491.193,748.977 493.5,747.5 Z"/></g>
<g><path style="opacity:1" fill="#0f0f0f" d="M 271.5,792.5 C 274.919,793.708 278.253,795.208 281.5,797C 305.354,804.038 329.687,809.038 354.5,812C 400.7,816.97 447.034,819.137 493.5,818.5C 560.018,820.073 626.018,815.24 691.5,804C 703.416,801.361 714.916,797.528 726,792.5C 727.5,792.667 728.333,793.5 728.5,795C 726.456,798.71 723.456,801.376 719.5,803C 699.614,809.814 679.281,814.814 658.5,818C 580.757,827.487 502.757,830.154 424.5,826C 396.748,824.16 369.081,821.493 341.5,818C 323.239,815.248 305.239,811.248 287.5,806C 281.619,804.448 276.452,801.615 272,797.5C 271.506,795.866 271.34,794.199 271.5,792.5 Z"/></g>
</svg>
