<?xml version="1.0" encoding="UTF-8"?>
<!DOCTYPE svg PUBLIC "-//W3C//DTD SVG 1.1//EN" "http://www.w3.org/Graphics/SVG/1.1/DTD/svg11.dtd">
<svg xmlns="http://www.w3.org/2000/svg" version="1.1" width="1000px" height="1080px" style="shape-rendering:geometricPrecision; text-rendering:geometricPrecision; image-rendering:optimizeQuality; fill-rule:evenodd; clip-rule:evenodd" xmlns:xlink="http://www.w3.org/1999/xlink">
<g><path style="opacity:0.888" fill="#fbfbfb" d="M 439.5,279.5 C 477.501,279.333 515.501,279.5 553.5,280C 559.49,282.327 565.49,284.661 571.5,287C 578.28,291.39 582.446,297.557 584,305.5C 584.667,311.167 584.667,316.833 584,322.5C 579.638,351.282 574.638,379.948 569,408.5C 564.63,437.012 562.63,465.679 563,494.5C 564.123,497.249 565.623,499.749 567.5,502C 577.833,502.667 588.167,502.667 598.5,502C 599,501.5 599.5,501 600,500.5C 597.813,446.177 595.813,391.844 594,337.5C 598.839,319.664 610.505,310.33 629,309.5C 659.418,314.198 689.918,318.365 720.5,322C 737.501,326.344 746.501,337.344 747.5,355C 740.745,385.854 733.911,416.687 727,447.5C 724.844,460.439 723.844,473.439 724,486.5C 724.833,487.333 725.667,488.167 726.5,489C 735.903,488.879 745.236,487.879 754.5,486C 756.762,485.358 758.929,484.525 761,483.5C 770.36,453.375 777.694,422.708 783,391.5C 788.379,361.095 805.879,349.929 835.5,358C 855.154,363.412 874.488,369.746 893.5,377C 912.75,385.936 919.917,400.769 915,421.5C 911,426.833 906.333,431.5 901,435.5C 897.098,442.072 892.431,448.072 887,453.5C 871.432,479.308 859.099,506.641 850,535.5C 843.143,562.894 837.81,590.561 834,618.5C 833.617,626.008 833.117,633.508 832.5,641C 834.083,646.376 835.583,651.876 837,657.5C 837.879,662.838 837.379,668.004 835.5,673C 839.808,687.101 836.474,699.101 825.5,709C 816.147,714.366 806.813,719.699 797.5,725C 755.423,738.202 712.423,746.869 668.5,751C 554.859,761.971 441.193,762.304 327.5,752C 286.675,748.4 246.675,740.733 207.5,729C 191.297,723.816 176.797,715.65 164,704.5C 156.334,695.172 154.167,684.672 157.5,673C 154.778,662.886 156.112,653.386 161.5,644.5C 159.259,615.933 155.426,587.599 150,559.5C 142.485,527.797 131.151,497.463 116,468.5C 110.241,461.312 105.241,453.645 101,445.5C 93.6667,437.5 86.3333,429.5 79,421.5C 74.9892,406.042 78.8225,392.876 90.5,382C 117.566,370.437 145.399,360.937 174,353.5C 184.627,354.564 193.627,358.897 201,366.5C 203.777,369.718 205.777,373.385 207,377.5C 214.801,412.65 223.135,447.65 232,482.5C 234.758,484.643 237.924,485.81 241.5,486C 250.071,487.977 258.738,488.644 267.5,488C 268,487.5 268.5,487 269,486.5C 268.439,462.569 265.439,438.902 260,415.5C 254.152,395.58 249.319,375.413 245.5,355C 246.567,341.505 252.901,331.505 264.5,325C 266.957,323.438 269.624,322.438 272.5,322C 303.68,316.756 335.013,312.256 366.5,308.5C 380.75,310.601 391.25,317.934 398,330.5C 398.973,332.392 399.64,334.392 400,336.5C 400.667,349.833 400.667,363.167 400,376.5C 396.859,417.768 394.859,459.101 394,500.5C 394.5,501 395,501.5 395.5,502C 405.5,502.667 415.5,502.667 425.5,502C 428.606,498.368 430.773,494.201 432,489.5C 429.06,435.255 421.727,381.589 410,328.5C 407.446,317.594 408.113,306.927 412,296.5C 419.63,288.148 428.797,282.481 439.5,279.5 Z"/></g>
<g><path style="opacity:1" fill="#010101" d="M 687.5,737.5 C 681.583,737.216 675.916,737.883 670.5,739.5C 612.731,746.277 554.731,749.277 496.5,748.5C 439.344,749.156 382.344,746.656 325.5,741C 290.736,736.446 256.403,730.112 222.5,722C 205.528,717.137 189.862,709.803 175.5,700C 167.188,692.349 165.188,683.182 169.5,672.5C 166.192,664.657 167.025,657.324 172,650.5C 170.882,599.166 161.549,549.499 144,501.5C 132.092,468.942 113.759,440.608 89,416.5C 87.0275,403.279 91.8608,393.446 103.5,387C 120.162,382.668 136.495,377.335 152.5,371C 160.121,368.678 167.788,366.511 175.5,364.5C 182.598,365.692 188.431,369.026 193,374.5C 195.157,379.483 197.157,384.483 199,389.5C 204.11,415.686 209.777,441.686 216,467.5C 217.897,475.411 220.563,483.078 224,490.5C 227.532,493.85 231.699,496.016 236.5,497C 243.232,497.566 249.898,498.566 256.5,500C 267.113,503.225 274.947,500.058 280,490.5C 281.484,484.235 281.818,477.902 281,471.5C 275.672,433.204 267.672,395.537 257,358.5C 257.023,344.97 263.523,336.137 276.5,332C 306.038,328.473 335.538,324.64 365,320.5C 376.043,321.878 384.043,327.544 389,337.5C 387.225,387.502 385.058,437.502 382.5,487.5C 383.652,492.504 383.819,497.504 383,502.5C 384.35,507.185 387.183,510.685 391.5,513C 403.442,514.581 415.442,514.915 427.5,514C 429.246,513.529 430.913,512.862 432.5,512C 440.029,504.095 443.696,494.595 443.5,483.5C 441.789,457.755 439.289,432.089 436,406.5C 430.049,374.713 424.549,342.879 419.5,311C 421.875,300.295 428.541,293.962 439.5,292C 477.828,290.029 516.161,290.029 554.5,292C 557.674,293.725 561.007,295.058 564.5,296C 567,298.5 569.5,301 572,303.5C 574.396,313.37 573.729,323.036 570,332.5C 562.624,376.468 556.29,420.468 551,464.5C 550.091,475.892 550.424,487.225 552,498.5C 557.091,511.886 566.758,517.219 581,514.5C 588.545,514.544 596.045,514.044 603.5,513C 608.265,509.469 611.265,504.803 612.5,499C 609.855,454.306 607.355,409.473 605,364.5C 604.333,355.833 604.333,347.167 605,338.5C 610.932,325.245 621.099,319.745 635.5,322C 663.466,325.829 691.466,329.496 719.5,333C 723.852,334.682 727.686,337.182 731,340.5C 732.651,343.802 734.318,347.136 736,350.5C 736.667,353.5 736.667,356.5 736,359.5C 724.592,398.066 716.759,437.399 712.5,477.5C 712.667,481.833 712.833,486.167 713,490.5C 715.5,493.667 718,496.833 720.5,500C 723.269,500.863 726.102,501.363 729,501.5C 740.421,499.907 751.754,497.907 763,495.5C 766.19,494.212 768.857,492.212 771,489.5C 774.083,482.754 776.416,475.754 778,468.5C 784.289,438.72 790.955,409.054 798,379.5C 803.262,368.908 811.762,364.408 823.5,366C 845.279,373.593 867.279,380.593 889.5,387C 901.404,393.308 906.57,403.141 905,416.5C 888.666,431.504 875.332,448.837 865,468.5C 836.335,525.435 822.001,586.101 822,650.5C 826.886,657.526 827.719,665.026 824.5,673C 826.83,679.126 826.997,685.292 825,691.5C 821.841,695.659 818.341,699.492 814.5,703C 796.687,712.456 778.02,719.789 758.5,725C 734.774,729.646 711.107,733.812 687.5,737.5 Z"/></g>
<g><path style="opacity:1" fill="#f9f9f9" d="M 482.5,316.5 C 492.506,316.334 502.506,316.5 512.5,317C 517.548,324.928 522.215,333.094 526.5,341.5C 522.01,349.81 517.343,357.976 512.5,366C 502.167,366.667 491.833,366.667 481.5,366C 476.595,357.939 471.929,349.772 467.5,341.5C 471.784,332.575 476.784,324.242 482.5,316.5 Z"/></g>
<g><path style="opacity:1" fill="#fafafa" d="M 317.5,349.5 C 321.846,349.334 326.179,349.501 330.5,350C 334.956,356.125 339.789,361.958 345,367.5C 345.61,371.236 345.277,374.903 344,378.5C 341.354,384.29 338.854,390.124 336.5,396C 328.019,397.572 319.519,399.072 311,400.5C 309.893,400.415 308.893,400.081 308,399.5C 302.103,392.607 296.603,385.441 291.5,378C 294.701,369.767 298.034,361.6 301.5,353.5C 307.204,353.083 312.537,351.749 317.5,349.5 Z"/></g>
<g><path style="opacity:1" fill="#fafafa" d="M 664.5,348.5 C 673.472,349.805 682.472,350.972 691.5,352C 692,352.5 692.5,353 693,353.5C 694.744,360.563 697.411,367.23 701,373.5C 701.667,376.167 701.667,378.833 701,381.5C 695.476,387.389 690.31,393.556 685.5,400C 676.543,399.337 667.543,398.337 658.5,397C 656.623,394.749 655.123,392.249 654,389.5C 653.108,383.722 651.108,378.389 648,373.5C 647.333,371.833 647.333,370.167 648,368.5C 653.334,361.669 658.834,355.002 664.5,348.5 Z"/></g>
<g><path style="opacity:1" fill="#f8f8f8" d="M 489.5,385.5 C 494.511,385.334 499.511,385.501 504.5,386C 507.28,388.898 509.28,392.232 510.5,396C 507.825,407.198 500.825,410.865 489.5,407C 486.577,403.983 484.577,400.483 483.5,396.5C 484.636,392.364 486.636,388.697 489.5,385.5 Z"/></g>
<g><path style="opacity:1" fill="#fafafa" d="M 153.5,391.5 C 155.527,391.338 157.527,391.505 159.5,392C 165.364,398.199 171.531,404.032 178,409.5C 176.678,418.078 175.345,426.744 174,435.5C 171.518,436.998 169.018,438.498 166.5,440C 160.473,442.216 154.306,444.05 148,445.5C 139.885,441.403 132.885,435.736 127,428.5C 126.833,427 126.667,425.5 126.5,424C 128.129,416.19 129.629,408.357 131,400.5C 138.711,397.806 146.211,394.806 153.5,391.5 Z"/></g>
<g><path style="opacity:1" fill="#fafafa" d="M 835.5,391.5 C 843.341,394.239 851.341,396.739 859.5,399C 860.931,399.465 862.097,400.299 863,401.5C 865.472,410.372 866.805,419.372 867,428.5C 860.833,434 854.667,439.5 848.5,445C 844.087,445.151 839.754,444.484 835.5,443C 830.956,441.029 826.289,439.363 821.5,438C 818.091,428.472 816.257,418.638 816,408.5C 822.478,402.698 828.978,397.031 835.5,391.5 Z"/></g>
<g><path style="opacity:1" fill="#f4f4f4" d="M 328.5,415.5 C 335.429,416.077 340.096,419.744 342.5,426.5C 341.127,430.105 339.461,433.605 337.5,437C 334.167,437.833 330.833,438.667 327.5,439.5C 324.586,437.739 322.086,435.406 320,432.5C 318.075,427.561 318.741,422.894 322,418.5C 324.045,417.074 326.212,416.074 328.5,415.5 Z"/></g>
<g><path style="opacity:1" fill="#f2f2f2" d="M 658.5,415.5 C 670.295,413.801 675.795,418.801 675,430.5C 672.833,433.333 670.667,436.167 668.5,439C 656.868,440.368 651.368,435.201 652,423.5C 654.758,421.249 656.925,418.582 658.5,415.5 Z"/></g>
<g><path style="opacity:1" fill="#f7f7f7" d="M 488.5,424.5 C 494.176,424.334 499.843,424.501 505.5,425C 508.108,428.05 509.775,431.55 510.5,435.5C 509.387,439.06 507.72,442.393 505.5,445.5C 500.198,446.663 494.864,446.829 489.5,446C 481.921,439.13 481.587,431.963 488.5,424.5 Z"/></g>
<g><path style="opacity:1" fill="#f8f8f8" d="M 337.5,453.5 C 338.552,453.351 339.552,453.517 340.5,454C 343.531,457.23 346.197,460.73 348.5,464.5C 347.218,468.228 345.552,471.728 343.5,475C 339.596,476.531 335.596,477.198 331.5,477C 328.107,474.196 325.441,470.863 323.5,467C 325.125,463.754 326.459,460.421 327.5,457C 330.942,455.816 334.275,454.65 337.5,453.5 Z"/></g>
<g><path style="opacity:1" fill="#f6f6f6" d="M 652.5,454.5 C 657.883,454.053 662.717,455.386 667,458.5C 667.2,461.734 668.033,464.734 669.5,467.5C 665.353,478.498 658.52,480.498 649,473.5C 644.839,466.11 646.006,459.777 652.5,454.5 Z"/></g>
<g><path style="opacity:1" fill="#f3f3f3" d="M 170.5,456.5 C 182.432,458.302 186.265,464.969 182,476.5C 178.63,478.143 175.13,479.476 171.5,480.5C 165.923,479.22 162.256,475.887 160.5,470.5C 161,467.5 161.5,464.5 162,461.5C 164.746,459.545 167.58,457.878 170.5,456.5 Z"/></g>
<g><path style="opacity:1" fill="#f5f5f5" d="M 818.5,456.5 C 822.553,457.35 826.553,458.516 830.5,460C 831.126,460.75 831.626,461.584 832,462.5C 832.256,465.557 832.756,468.557 833.5,471.5C 831.016,474.484 828.35,477.318 825.5,480C 812.435,481.256 807.602,475.423 811,462.5C 813.688,460.636 816.188,458.636 818.5,456.5 Z"/></g>
<g><path style="opacity:1" fill="#f4f4f4" d="M 488.5,462.5 C 493.844,462.334 499.177,462.501 504.5,463C 507.339,466.345 509.672,470.011 511.5,474C 509.182,477.656 506.849,481.323 504.5,485C 499.136,485.829 493.802,485.663 488.5,484.5C 486.367,481.065 484.367,477.565 482.5,474C 484.646,470.207 486.646,466.374 488.5,462.5 Z"/></g>
<g><path style="opacity:1" fill="#f6f6f6" d="M 183.5,493.5 C 188.08,493.878 191.913,495.878 195,499.5C 197.926,511.904 193.093,517.404 180.5,516C 179.122,514.287 177.455,512.953 175.5,512C 173.091,507.309 173.091,502.476 175.5,497.5C 178.239,496.163 180.906,494.83 183.5,493.5 Z"/></g>
<g><path style="opacity:1" fill="#f4f4f4" d="M 804.5,493.5 C 809.794,493.364 814.627,494.697 819,497.5C 822.685,511.817 817.185,517.983 802.5,516C 798.48,511.258 796.98,505.758 798,499.5C 800.664,498.002 802.83,496.002 804.5,493.5 Z"/></g>
<g><path style="opacity:1" fill="#fcfcfc" d="M 466.5,546.5 C 485.836,546.333 505.17,546.5 524.5,547C 526.392,547.973 528.392,548.64 530.5,549C 531.701,549.903 532.535,551.069 533,552.5C 533.667,590.833 533.667,629.167 533,667.5C 531.437,670.728 528.937,672.895 525.5,674C 505.833,674.667 486.167,674.667 466.5,674C 463.96,671.795 461.793,669.295 460,666.5C 459.333,629.5 459.333,592.5 460,555.5C 461.439,553.725 462.439,551.725 463,549.5C 464.518,548.837 465.685,547.837 466.5,546.5 Z"/></g>
<g><path style="opacity:1" fill="#fafafa" d="M 364.5,576.5 C 378.837,576.333 393.171,576.5 407.5,577C 408.416,577.374 409.25,577.874 410,578.5C 411.641,606.105 411.974,633.771 411,661.5C 411.466,665.699 409.633,668.199 405.5,669C 391.833,669.667 378.167,669.667 364.5,669C 363,668.167 361.833,667 361,665.5C 360.333,637.5 360.333,609.5 361,581.5C 361.997,579.677 363.164,578.01 364.5,576.5 Z"/></g>
<g><path style="opacity:1" fill="#fbfbfb" d="M 586.5,576.5 C 600.837,576.333 615.171,576.5 629.5,577C 631.049,578.214 632.215,579.714 633,581.5C 633.667,608.833 633.667,636.167 633,663.5C 632.801,665.402 631.967,666.902 630.5,668C 616.235,669.615 601.902,669.948 587.5,669C 585.671,668.727 584.171,667.893 583,666.5C 582.333,638.167 582.333,609.833 583,581.5C 583.669,579.41 584.836,577.743 586.5,576.5 Z"/></g>
<g><path style="opacity:1" fill="#f5f5f5" d="M 203.5,607.5 C 209.21,606.955 212.044,609.621 212,615.5C 219.576,625.407 228.743,633.574 239.5,640C 250.762,645.197 262.095,650.197 273.5,655C 283.446,658.085 293.446,660.585 303.5,662.5C 303.785,664.288 303.452,665.955 302.5,667.5C 274.553,663.845 247.219,657.679 220.5,649C 209.424,645.257 199.924,639.091 192,630.5C 187.948,623.311 189.114,617.144 195.5,612C 198.099,610.205 200.766,608.705 203.5,607.5 Z"/></g>
<g><path style="opacity:1" fill="#f4f4f4" d="M 785.5,607.5 C 788.216,607.678 790.883,608.178 793.5,609C 803.767,613.867 806.267,621.367 801,631.5C 795.597,637.111 789.43,641.611 782.5,645C 748.196,657.986 712.529,665.82 675.5,668.5C 675.5,667.5 675.5,666.5 675.5,665.5C 711.05,660.381 743.383,647.547 772.5,627C 775.305,623.859 778.138,620.692 781,617.5C 781.836,613.809 783.336,610.476 785.5,607.5 Z"/></g>
<g><path style="opacity:1" fill="#f5f5f5" d="M 632.5,702.5 C 638.726,702.612 644.726,701.946 650.5,700.5C 694.525,696.156 737.858,688.323 780.5,677C 793.61,672.272 806.276,666.772 818.5,660.5C 819.25,664.697 817.917,668.03 814.5,670.5C 808.146,676.01 801.146,680.51 793.5,684C 760.738,695.177 727.072,703.177 692.5,708C 563.839,723.316 435.172,723.316 306.5,708C 278.725,704.374 251.392,699.04 224.5,692C 214.247,688.917 204.247,685.25 194.5,681C 187.424,677.25 181.258,672.416 176,666.5C 175.506,664.866 175.34,663.199 175.5,661.5C 177.199,661.34 178.866,661.506 180.5,662C 182.923,664.357 185.59,666.357 188.5,668C 207.583,675.913 227.25,682.247 247.5,687C 265.584,689.903 283.584,693.236 301.5,697C 385.181,706.346 469.181,709.68 553.5,707C 579.855,705.776 606.188,704.276 632.5,702.5 Z"/></g>
<g><path style="opacity:1" fill="#b3b3b3" d="M 650.5,700.5 C 644.726,701.946 638.726,702.612 632.5,702.5C 638.288,701.19 644.288,700.523 650.5,700.5 Z"/></g>
<g><path style="opacity:0.861" fill="#b5b5b5" d="M 687.5,737.5 C 682.056,738.884 676.389,739.55 670.5,739.5C 675.916,737.883 681.583,737.216 687.5,737.5 Z"/></g>
</svg>
