<?xml version="1.0" encoding="UTF-8"?>
<!DOCTYPE svg PUBLIC "-//W3C//DTD SVG 1.1//EN" "http://www.w3.org/Graphics/SVG/1.1/DTD/svg11.dtd">
<svg xmlns="http://www.w3.org/2000/svg" version="1.1" width="1000px" height="1080px" style="shape-rendering:geometricPrecision; text-rendering:geometricPrecision; image-rendering:optimizeQuality; fill-rule:evenodd; clip-rule:evenodd" xmlns:xlink="http://www.w3.org/1999/xlink">
<g><path style="opacity:0.888" fill="#040404" d="M 439.5,279.5 C 477.501,279.333 515.501,279.5 553.5,280C 559.49,282.327 565.49,284.661 571.5,287C 578.28,291.39 582.446,297.557 584,305.5C 584.667,311.167 584.667,316.833 584,322.5C 579.638,351.282 574.638,379.948 569,408.5C 564.63,437.012 562.63,465.679 563,494.5C 564.123,497.249 565.623,499.749 567.5,502C 577.833,502.667 588.167,502.667 598.5,502C 599,501.5 599.5,501 600,500.5C 597.813,446.177 595.813,391.844 594,337.5C 598.839,319.664 610.505,310.33 629,309.5C 659.418,314.198 689.918,318.365 720.5,322C 737.501,326.344 746.501,337.344 747.5,355C 740.745,385.854 733.911,416.687 727,447.5C 724.844,460.439 723.844,473.439 724,486.5C 724.833,487.333 725.667,488.167 726.5,489C 735.903,488.879 745.236,487.879 754.5,486C 756.762,485.358 758.929,484.525 761,483.5C 770.36,453.375 777.694,422.708 783,391.5C 788.379,361.095 805.879,349.929 835.5,358C 855.154,363.412 874.488,369.746 893.5,377C 912.75,385.936 919.917,400.769 915,421.5C 911,426.833 906.333,431.5 901,435.5C 897.098,442.072 892.431,448.072 887,453.5C 871.432,479.308 859.099,506.641 850,535.5C 843.143,562.894 837.81,590.561 834,618.5C 833.617,626.008 833.117,633.508 832.5,641C 834.083,646.376 835.583,651.876 837,657.5C 837.879,662.838 837.379,668.004 835.5,673C 839.808,687.101 836.474,699.101 825.5,709C 816.147,714.366 806.813,719.699 797.5,725C 755.423,738.202 712.423,746.869 668.5,751C 554.859,761.971 441.193,762.304 327.5,752C 286.675,748.4 246.675,740.733 207.5,729C 191.297,723.816 176.797,715.65 164,704.5C 156.334,695.172 154.167,684.672 157.5,673C 154.778,662.886 156.112,653.386 161.5,644.5C 159.259,615.933 155.426,587.599 150,559.5C 142.485,527.797 131.151,497.463 116,468.5C 110.241,461.312 105.241,453.645 101,445.5C 93.6667,437.5 86.3333,429.5 79,421.5C 74.9892,406.042 78.8225,392.876 90.5,382C 117.566,370.437 145.399,360.937 174,353.5C 184.627,354.564 193.627,358.897 201,366.5C 203.777,369.718 205.777,373.385 207,377.5C 214.801,412.65 223.135,447.65 232,482.5C 234.758,484.643 237.924,485.81 241.5,486C 250.071,487.977 258.738,488.644 267.5,488C 268,487.5 268.5,487 269,486.5C 268.439,462.569 265.439,438.902 260,415.5C 254.152,395.58 249.319,375.413 245.5,355C 246.567,341.505 252.901,331.505 264.5,325C 266.957,323.438 269.624,322.438 272.5,322C 303.68,316.756 335.013,312.256 366.5,308.5C 380.75,310.601 391.25,317.934 398,330.5C 398.973,332.392 399.64,334.392 400,336.5C 400.667,349.833 400.667,363.167 400,376.5C 396.859,417.768 394.859,459.101 394,500.5C 394.5,501 395,501.5 395.5,502C 405.5,502.667 415.5,502.667 425.5,502C 428.606,498.368 430.773,494.201 432,489.5C 429.06,435.255 421.727,381.589 410,328.5C 407.446,317.594 408.113,306.927 412,296.5C 419.63,288.148 428.797,282.481 439.5,279.5 Z"/></g>
<g><path style="opacity:1" fill="#fdfdfd" d="M 448.5,290.5 C 483.853,290.093 519.187,290.593 554.5,292C 557.674,293.725 561.007,295.058 564.5,296C 566.973,298.473 569.473,300.973 572,303.5C 573.586,310.057 573.92,316.724 573,323.5C 567.044,351.566 562.044,379.899 558,408.5C 555.595,427.143 553.262,445.81 551,464.5C 550.333,474.5 550.333,484.5 551,494.5C 552.79,499.414 555.124,504.081 558,508.5C 559.745,510.749 561.912,512.416 564.5,513.5C 576.506,514.772 588.506,514.772 600.5,513.5C 606.956,510.782 610.956,505.949 612.5,499C 609.7,449.972 607.034,400.805 604.5,351.5C 603.621,329.878 613.955,320.045 635.5,322C 657.044,325.53 678.711,328.196 700.5,330C 707.848,331.334 715.181,332.668 722.5,334C 732.121,339.741 736.621,348.241 736,359.5C 724.594,398.029 716.761,437.362 712.5,477.5C 712.667,481.833 712.833,486.167 713,490.5C 715.5,493.667 718,496.833 720.5,500C 724.761,501.363 729.095,501.696 733.5,501C 745.073,499.253 756.407,496.587 767.5,493C 768.667,491.833 769.833,490.667 771,489.5C 775.131,478.436 778.464,467.103 781,455.5C 786.663,430.2 792.33,404.867 798,379.5C 805.822,366.336 816.989,362.503 831.5,368C 850.691,374.508 870.024,380.841 889.5,387C 901.417,393.335 906.583,403.168 905,416.5C 887.197,433.297 872.864,452.63 862,474.5C 835.707,529.926 822.374,588.592 822,650.5C 826.999,657.64 827.832,665.306 824.5,673.5C 828.357,683.157 826.69,691.657 819.5,699C 814.638,702.593 809.638,705.927 804.5,709C 787.064,716.684 769.064,722.684 750.5,727C 666.582,742.811 581.749,749.977 496,748.5C 430.239,749.293 364.739,745.793 299.5,738C 273.605,733.776 247.938,728.443 222.5,722C 210.787,718.651 199.454,714.318 188.5,709C 180.274,704.316 173.441,698.149 168,690.5C 165.815,684.288 166.315,678.288 169.5,672.5C 167.491,667.057 166.991,661.391 168,655.5C 171.918,652.083 173.418,647.75 172.5,642.5C 169.747,591.362 159.247,542.029 141,494.5C 129.173,464.85 111.839,438.85 89,416.5C 87.0275,403.279 91.8608,393.446 103.5,387C 123.2,380.655 142.866,374.322 162.5,368C 174.145,362.875 184.311,365.041 193,374.5C 195.208,379.465 197.208,384.465 199,389.5C 204.48,415.59 210.147,441.59 216,467.5C 217.923,474.603 220.256,481.603 223,488.5C 226.605,492.721 231.105,495.554 236.5,497C 243.574,497.481 250.574,498.481 257.5,500C 273.281,502.276 281.281,495.443 281.5,479.5C 279.881,463.425 277.714,447.425 275,431.5C 269.458,406.998 263.458,382.665 257,358.5C 257.038,344.928 263.538,336.095 276.5,332C 306.007,328.199 335.507,324.366 365,320.5C 376.319,321.492 384.319,327.159 389,337.5C 387.61,387.519 385.444,437.519 382.5,487.5C 383.652,492.504 383.819,497.504 383,502.5C 384.35,507.185 387.183,510.685 391.5,513C 403.833,513.667 416.167,513.667 428.5,513C 435.747,509.365 440.247,503.531 442,495.5C 442.667,483.833 442.667,472.167 442,460.5C 439.452,436.659 436.452,412.993 433,389.5C 428.177,362.895 423.677,336.228 419.5,309.5C 421.055,303.106 424.722,298.272 430.5,295C 436.361,292.399 442.361,290.899 448.5,290.5 Z"/></g>
<g><path style="opacity:1" fill="#070707" d="M 482.5,316.5 C 492.172,316.334 501.839,316.5 511.5,317C 512.931,317.465 514.097,318.299 515,319.5C 518.444,326.889 522.278,334.056 526.5,341C 521.84,349.317 517.174,357.651 512.5,366C 502.151,366.832 491.817,366.666 481.5,365.5C 476.397,357.736 471.73,349.736 467.5,341.5C 471.784,332.575 476.784,324.242 482.5,316.5 Z"/></g>
<g><path style="opacity:1" fill="#050505" d="M 317.5,349.5 C 321.846,349.334 326.179,349.501 330.5,350C 334.622,355.791 339.122,361.291 344,366.5C 345.626,370.433 345.626,374.433 344,378.5C 341.298,384.28 338.798,390.113 336.5,396C 327.9,397.472 319.4,398.972 311,400.5C 309.893,400.415 308.893,400.081 308,399.5C 302.103,392.607 296.603,385.441 291.5,378C 294.648,369.376 298.315,361.043 302.5,353C 307.917,353.025 312.917,351.858 317.5,349.5 Z"/></g>
<g><path style="opacity:1" fill="#040404" d="M 664.5,348.5 C 674.053,349.931 683.553,351.597 693,353.5C 696.09,361.359 698.923,369.359 701.5,377.5C 697.373,385.639 692.04,392.973 685.5,399.5C 684.5,399.833 683.5,400.167 682.5,400.5C 674.53,399.136 666.53,397.97 658.5,397C 656.628,394.707 655.128,392.207 654,389.5C 653.108,383.722 651.108,378.389 648,373.5C 647.333,371.833 647.333,370.167 648,368.5C 653.747,361.987 659.247,355.32 664.5,348.5 Z"/></g>
<g><path style="opacity:1" fill="#080808" d="M 489.5,385.5 C 494.511,385.334 499.511,385.501 504.5,386C 506.211,388.589 508.045,391.089 510,393.5C 510.277,398.789 508.444,403.289 504.5,407C 499.5,407.667 494.5,407.667 489.5,407C 486.577,403.983 484.577,400.483 483.5,396.5C 484.636,392.364 486.636,388.697 489.5,385.5 Z"/></g>
<g><path style="opacity:1" fill="#040404" d="M 154.5,391.5 C 156.199,391.34 157.866,391.506 159.5,392C 165.364,398.199 171.531,404.032 178,409.5C 176.896,418.54 175.23,427.54 173,436.5C 164.276,440.955 155.109,443.789 145.5,445C 139.28,439.627 133.113,434.127 127,428.5C 126.333,425.5 126.333,422.5 127,419.5C 128.737,413.266 129.904,406.932 130.5,400.5C 137.98,397.58 145.646,395.08 153.5,393C 154.056,392.617 154.389,392.117 154.5,391.5 Z"/></g>
<g><path style="opacity:1" fill="#050505" d="M 835.5,391.5 C 844.851,394.4 854.018,397.733 863,401.5C 865.469,410.363 866.802,419.363 867,428.5C 860.833,434 854.667,439.5 848.5,445C 841.295,444.449 834.295,442.783 827.5,440C 824.22,439.595 821.72,438.095 820,435.5C 817.919,426.93 816.585,418.263 816,409.5C 822.099,402.902 828.599,396.902 835.5,391.5 Z"/></g>
<g><path style="opacity:1" fill="#090909" d="M 328.5,415.5 C 334.286,415.424 338.453,418.09 341,423.5C 341.671,428.486 340.504,432.986 337.5,437C 333.181,437.905 328.848,438.238 324.5,438C 322.667,435.5 320.833,433 319,430.5C 318.185,422.764 321.352,417.764 328.5,415.5 Z"/></g>
<g><path style="opacity:1" fill="#0c0c0c" d="M 658.5,415.5 C 670.289,413.794 675.789,418.794 675,430.5C 672.833,433.333 670.667,436.167 668.5,439C 656.135,440.301 650.969,434.801 653,422.5C 655.454,420.559 657.287,418.225 658.5,415.5 Z"/></g>
<g><path style="opacity:1" fill="#090909" d="M 488.5,424.5 C 494.176,424.334 499.843,424.501 505.5,425C 507.964,427.928 509.63,431.261 510.5,435C 509.068,438.603 507.401,442.103 505.5,445.5C 500.198,446.663 494.864,446.829 489.5,446C 482.027,439.051 481.694,431.885 488.5,424.5 Z"/></g>
<g><path style="opacity:1" fill="#080808" d="M 337.5,453.5 C 338.552,453.351 339.552,453.517 340.5,454C 343.531,457.23 346.197,460.73 348.5,464.5C 347.112,468.181 345.445,471.681 343.5,475C 339.596,476.531 335.596,477.198 331.5,477C 328.107,474.196 325.441,470.863 323.5,467C 325.046,463.408 326.713,459.908 328.5,456.5C 331.662,455.635 334.662,454.635 337.5,453.5 Z"/></g>
<g><path style="opacity:1" fill="#0a0a0a" d="M 652.5,454.5 C 657.883,454.053 662.717,455.386 667,458.5C 667.148,461.589 667.981,464.422 669.5,467C 665.604,478.446 658.771,480.612 649,473.5C 648.166,470.331 647.332,467.164 646.5,464C 647.612,460.277 649.612,457.111 652.5,454.5 Z"/></g>
<g><path style="opacity:1" fill="#0b0b0b" d="M 170.5,456.5 C 182.432,458.302 186.265,464.969 182,476.5C 177.714,478.848 173.214,480.015 168.5,480C 166.627,477.791 164.46,475.958 162,474.5C 161.333,470.167 161.333,465.833 162,461.5C 164.933,459.92 167.767,458.254 170.5,456.5 Z"/></g>
<g><path style="opacity:1" fill="#080808" d="M 818.5,456.5 C 822.54,457.515 826.54,458.848 830.5,460.5C 831.181,464.25 832.181,467.916 833.5,471.5C 830.707,475.632 827.04,478.632 822.5,480.5C 819.219,479.342 815.886,478.175 812.5,477C 810.586,472.696 810.086,468.196 811,463.5C 813.396,460.933 815.896,458.6 818.5,456.5 Z"/></g>
<g><path style="opacity:1" fill="#0c0c0c" d="M 488.5,462.5 C 493.844,462.334 499.177,462.501 504.5,463C 507.544,466.087 509.544,469.753 510.5,474C 508.965,477.882 506.965,481.548 504.5,485C 499.136,485.829 493.802,485.663 488.5,484.5C 486.716,480.881 484.716,477.381 482.5,474C 484.646,470.207 486.646,466.374 488.5,462.5 Z"/></g>
<g><path style="opacity:1" fill="#090909" d="M 183.5,493.5 C 188.08,493.878 191.913,495.878 195,499.5C 197.92,511.91 193.086,517.41 180.5,516C 179.122,514.287 177.455,512.953 175.5,512C 174.106,511.044 173.439,509.711 173.5,508C 174.093,504.849 174.593,501.682 175,498.5C 177.746,496.545 180.58,494.878 183.5,493.5 Z"/></g>
<g><path style="opacity:1" fill="#0b0b0b" d="M 804.5,493.5 C 809.794,493.364 814.627,494.697 819,497.5C 822.508,511.985 817.008,518.152 802.5,516C 798.31,511.223 796.977,505.723 798.5,499.5C 800.854,497.812 802.854,495.812 804.5,493.5 Z"/></g>
<g><path style="opacity:1" fill="#010101" d="M 466.5,546.5 C 486.169,546.333 505.836,546.5 525.5,547C 528.564,548.064 531.064,549.897 533,552.5C 533.667,590.833 533.667,629.167 533,667.5C 531.116,670.384 528.616,672.551 525.5,674C 505.833,674.667 486.167,674.667 466.5,674C 464.291,672.127 462.458,669.96 461,667.5C 460.333,629.5 460.333,591.5 461,553.5C 462.666,551.004 464.5,548.671 466.5,546.5 Z"/></g>
<g><path style="opacity:1" fill="#060606" d="M 364.5,576.5 C 378.837,576.333 393.171,576.5 407.5,577C 408.416,577.374 409.25,577.874 410,578.5C 411.641,606.105 411.974,633.771 411,661.5C 411.288,665.142 409.788,667.642 406.5,669C 392.5,669.667 378.5,669.667 364.5,669C 363,668.167 361.833,667 361,665.5C 360.333,637.5 360.333,609.5 361,581.5C 361.997,579.677 363.164,578.01 364.5,576.5 Z"/></g>
<g><path style="opacity:1" fill="#020202" d="M 586.5,576.5 C 600.504,576.333 614.504,576.5 628.5,577C 629.931,577.465 631.097,578.299 632,579.5C 632.667,608.5 632.667,637.5 632,666.5C 631.5,667 631,667.5 630.5,668C 616.235,669.615 601.902,669.948 587.5,669C 586.109,667.98 584.609,667.147 583,666.5C 582.333,638.167 582.333,609.833 583,581.5C 583.997,579.677 585.164,578.01 586.5,576.5 Z"/></g>
<g><path style="opacity:1" fill="#0a0a0a" d="M 203.5,607.5 C 205.199,607.34 206.866,607.506 208.5,608C 210.071,611.071 211.571,614.238 213,617.5C 220.609,626.442 229.442,633.942 239.5,640C 259.739,650.62 281.072,658.12 303.5,662.5C 303.785,664.288 303.452,665.955 302.5,667.5C 278.836,664.278 255.503,659.445 232.5,653C 217.415,649.224 204.249,642.058 193,631.5C 187.797,624.22 188.63,617.72 195.5,612C 198.099,610.205 200.766,608.705 203.5,607.5 Z"/></g>
<g><path style="opacity:1" fill="#0a0a0a" d="M 785.5,607.5 C 787.927,607.523 790.26,608.023 792.5,609C 804.129,613.908 806.629,621.741 800,632.5C 790.128,640.375 779.295,646.542 767.5,651C 737.52,659.943 706.853,665.777 675.5,668.5C 675.5,667.5 675.5,666.5 675.5,665.5C 689.614,663.175 703.614,660.009 717.5,656C 718.167,655.333 718.833,654.667 719.5,654C 738.86,648.428 756.526,639.428 772.5,627C 778.686,621.664 783.019,615.164 785.5,607.5 Z"/></g>
<g><path style="opacity:1" fill="#0b0b0b" d="M 176.5,666.5 C 176.5,665.167 176.5,663.833 176.5,662.5C 177.833,662.5 179.167,662.5 180.5,662.5C 182.964,664.57 185.631,666.404 188.5,668C 193.843,670.339 199.177,672.672 204.5,675C 215.878,677.901 227.212,681.234 238.5,685C 277.509,693.126 316.842,699.126 356.5,703C 448.505,708.886 540.505,708.719 632.5,702.5C 638.726,702.612 644.726,701.946 650.5,700.5C 681.387,697.064 712.054,692.564 742.5,687C 769.166,681.826 794.499,672.993 818.5,660.5C 818.662,662.527 818.495,664.527 818,666.5C 811.601,673.574 804.101,679.074 795.5,683C 768.043,692.981 739.71,700.315 710.5,705C 598.024,720.278 485.024,723.612 371.5,715C 323.083,711.107 275.416,703.773 228.5,693C 214.12,689.272 200.453,683.938 187.5,677C 183.305,673.97 179.639,670.47 176.5,666.5 Z"/></g>
<g><path style="opacity:1" fill="#626262" d="M 180.5,662.5 C 179.167,662.5 177.833,662.5 176.5,662.5C 176.5,663.833 176.5,665.167 176.5,666.5C 175.549,665.081 175.216,663.415 175.5,661.5C 177.415,661.216 179.081,661.549 180.5,662.5 Z"/></g>
<g><path style="opacity:1" fill="#484848" d="M 650.5,700.5 C 644.726,701.946 638.726,702.612 632.5,702.5C 638.288,701.19 644.288,700.523 650.5,700.5 Z"/></g>
</svg>
