<?xml version="1.0" encoding="UTF-8"?>
<!DOCTYPE svg PUBLIC "-//W3C//DTD SVG 1.1//EN" "http://www.w3.org/Graphics/SVG/1.1/DTD/svg11.dtd">
<svg xmlns="http://www.w3.org/2000/svg" version="1.1" width="1000px" height="1080px" style="shape-rendering:geometricPrecision; text-rendering:geometricPrecision; image-rendering:optimizeQuality; fill-rule:evenodd; clip-rule:evenodd" xmlns:xlink="http://www.w3.org/1999/xlink">
<g><path style="opacity:0.981" fill="#010101" d="M 480.5,21.5 C 496.17,21.3334 511.837,21.5001 527.5,22C 542,25.8333 551.167,35 555,49.5C 555.5,65.4965 555.667,81.4965 555.5,97.5C 587.041,93.3801 601.708,107.047 599.5,138.5C 601.708,169.953 587.041,183.62 555.5,179.5C 555.5,201.833 555.5,224.167 555.5,246.5C 567.582,244.962 578.915,247.129 589.5,253C 595.333,261.5 602.5,268.667 611,274.5C 613.423,281.034 615.423,287.701 617,294.5C 617.667,305.833 617.667,317.167 617,328.5C 615.307,334.608 613.307,340.608 611,346.5C 605.833,351 600.667,355.5 595.5,360C 599.98,364.811 604.813,369.311 610,373.5C 611.893,376.618 613.226,379.951 614,383.5C 618.667,387.5 623.333,391.5 628,395.5C 629.562,397.957 630.562,400.624 631,403.5C 636.501,405.67 639.834,409.67 641,415.5C 643.667,418.167 646.333,420.833 649,423.5C 652.764,428.927 656.097,434.593 659,440.5C 667.766,450.032 673.933,461.032 677.5,473.5C 680.912,475.745 683.412,478.745 685,482.5C 686.506,489.433 686.839,496.433 686,503.5C 685.144,507.544 683.478,511.211 681,514.5C 628.401,565.932 576.235,617.932 524.5,670.5C 526.483,674.457 529.483,676.957 533.5,678C 536.714,673.118 540.881,669.285 546,666.5C 549,660.833 553.333,656.5 559,653.5C 561.333,648.5 565,644.833 570,642.5C 573.789,636.887 578.456,632.22 584,628.5C 589.529,622.308 595.029,616.141 600.5,610C 607.306,605.439 612.973,599.772 617.5,593C 638.808,573.128 659.474,552.462 679.5,531C 689.167,526.333 698.833,526.333 708.5,531C 709.333,531.833 710.167,532.667 711,533.5C 716.177,546.518 721.511,559.518 727,572.5C 727.351,580.193 729.684,587.193 734,593.5C 735.061,598.104 735.727,602.771 736,607.5C 738.403,609.305 740.07,611.638 741,614.5C 743.618,623.643 745.284,632.977 746,642.5C 747.562,644.957 748.562,647.624 749,650.5C 748.895,658.068 750.062,665.402 752.5,672.5C 752.53,688.454 752.364,704.454 752,720.5C 749.747,730.053 749.08,739.72 750,749.5C 754.832,754.163 757.832,759.83 759,766.5C 759.939,782.887 759.606,799.22 758,815.5C 754.167,826 747,833.167 736.5,837C 717.218,838.283 697.885,838.95 678.5,839C 674.13,838.854 670.464,840.354 667.5,843.5C 666.821,870.877 665.821,898.211 664.5,925.5C 687.836,925.333 711.169,925.5 734.5,926C 748.132,929.969 757.632,938.469 763,951.5C 763.667,977.833 763.667,1004.17 763,1030.5C 760.629,1036.74 758.129,1042.91 755.5,1049C 587.167,1049.67 418.833,1049.67 250.5,1049C 247.871,1042.91 245.371,1036.74 243,1030.5C 242.333,1004.17 242.333,977.833 243,951.5C 248.368,938.469 257.868,929.969 271.5,926C 294.831,925.5 318.164,925.333 341.5,925.5C 340.143,898.212 339.143,870.879 338.5,843.5C 335.536,840.354 331.87,838.854 327.5,839C 308.448,838.949 289.448,838.283 270.5,837C 260,833.167 252.833,826 249,815.5C 247.394,799.22 247.061,782.887 248,766.5C 249.08,760.34 251.747,755.007 256,750.5C 256.941,740.387 256.275,730.387 254,720.5C 253.636,704.454 253.47,688.454 253.5,672.5C 255.938,665.402 257.105,658.068 257,650.5C 257.438,647.624 258.438,644.957 260,642.5C 260.716,632.977 262.382,623.643 265,614.5C 265.792,612.413 266.959,610.579 268.5,609C 267.557,606.2 267.724,603.366 269,600.5C 272.901,590.027 276.234,579.36 279,568.5C 279.93,565.638 281.597,563.305 284,561.5C 286.743,549.682 291.409,538.682 298,528.5C 300.57,519.361 304.236,510.695 309,502.5C 310.684,500.649 312.517,498.982 314.5,497.5C 318.42,488.921 322.253,480.254 326,471.5C 331.189,466.461 334.855,460.461 337,453.5C 338.019,452.313 339.186,451.313 340.5,450.5C 346.336,439.49 353.17,429.157 361,419.5C 362.793,413.372 366.46,408.705 372,405.5C 372.725,403.051 373.725,400.717 375,398.5C 380.667,393.5 386.333,388.5 392,383.5C 393.03,380.05 394.363,376.717 396,373.5C 401.134,369.367 405.968,364.867 410.5,360C 405.667,355.833 400.833,351.667 396,347.5C 393.667,340.5 391.333,333.5 389,326.5C 388.333,315.167 388.333,303.833 389,292.5C 390.946,287.604 392.613,282.604 394,277.5C 394.883,274.898 396.383,272.731 398.5,271C 401.941,269.224 405.108,267.057 408,264.5C 410.955,260.756 413.789,256.922 416.5,253C 427.744,247.004 439.744,244.838 452.5,246.5C 452.5,224.167 452.5,201.833 452.5,179.5C 443.827,179.666 435.16,179.5 426.5,179C 415.918,176.748 408.751,170.581 405,160.5C 403,145.833 403,131.167 405,116.5C 408.751,106.419 415.918,100.252 426.5,98C 435.16,97.5002 443.827,97.3336 452.5,97.5C 452.333,81.4965 452.5,65.4965 453,49.5C 457.016,34.985 466.183,25.6517 480.5,21.5 Z"/></g>
<g><path style="opacity:1" fill="#fdfdfd" d="M 483.5,42.5 C 494.505,42.3335 505.505,42.5002 516.5,43C 523.831,41.7525 529.331,44.2525 533,50.5C 534.194,69.8083 534.861,89.1417 535,108.5C 535.5,114.333 538.667,117.5 544.5,118C 554.857,118.319 565.191,118.985 575.5,120C 576,120.5 576.5,121 577,121.5C 579,132.833 579,144.167 577,155.5C 576.5,156 576,156.5 575.5,157C 565.191,158.015 554.857,158.681 544.5,159C 540.562,159.214 537.728,161.047 536,164.5C 534.723,181.118 533.89,197.785 533.5,214.5C 534.131,228.828 534.631,243.162 535,257.5C 535.214,261.438 537.047,264.272 540.5,266C 543.471,266.794 546.471,267.461 549.5,268C 557.528,268.228 565.528,268.728 573.5,269.5C 580.024,276.523 586.69,283.356 593.5,290C 597.406,304.496 597.239,318.996 593,333.5C 587.13,338.337 581.63,343.504 576.5,349C 527.5,349.667 478.5,349.667 429.5,349C 425.333,343.5 420.5,338.667 415,334.5C 410.418,322.605 408.751,310.272 410,297.5C 411.935,294.448 413.268,291.115 414,287.5C 420.862,281.636 427.362,275.469 433.5,269C 443.515,268.555 453.515,267.888 463.5,267C 467.438,266.786 470.272,264.953 472,261.5C 473.287,245.883 474.12,230.217 474.5,214.5C 474.11,197.785 473.277,181.118 472,164.5C 470.272,161.047 467.438,159.214 463.5,159C 451.471,158.777 439.471,158.11 427.5,157C 427,156.5 426.5,156 426,155.5C 425,144.844 424.667,134.177 425,123.5C 425.465,122.069 426.299,120.903 427.5,120C 439.471,118.89 451.471,118.223 463.5,118C 469.333,117.5 472.5,114.333 473,108.5C 473.483,98.6658 473.983,88.8325 474.5,79C 473.685,69.8387 473.519,60.672 474,51.5C 476.406,47.5915 479.572,44.5915 483.5,42.5 Z"/></g>
<g><path style="opacity:1" fill="#fdfdfd" d="M 423.5,377.5 C 477.168,377.333 530.834,377.5 584.5,378C 589.301,381.799 593.801,385.966 598,390.5C 608.05,402.882 617.717,415.549 627,428.5C 626.77,430.615 626.77,432.615 627,434.5C 598.83,462.687 568.33,487.854 535.5,510C 514.133,523.349 491.466,534.015 467.5,542C 410.203,560.959 351.87,575.792 292.5,586.5C 292.301,583.059 292.801,579.726 294,576.5C 322.932,513.928 357.932,455.262 399,400.5C 406.133,391.527 414.3,383.861 423.5,377.5 Z"/></g>
<g><path style="opacity:1" fill="#fdfdfd" d="M 644.5,457.5 C 650.078,465.634 655.578,473.968 661,482.5C 664.113,489.21 666.78,495.877 669,502.5C 628.529,544.638 587.696,586.471 546.5,628C 532.617,641.719 518.283,654.886 503.5,667.5C 501.845,670.083 501.512,672.75 502.5,675.5C 512.685,684.852 523.018,694.019 533.5,703C 534.167,703.667 534.833,703.667 535.5,703C 586.5,652 637.5,601 688.5,550C 690.355,549.578 692.189,549.078 694,548.5C 695.884,550.45 697.218,552.784 698,555.5C 706.104,579.042 714.771,602.375 724,625.5C 730.676,657.597 732.509,689.931 729.5,722.5C 706.804,730.224 683.471,735.391 659.5,738C 569.985,745.858 480.318,748.191 390.5,745C 352.254,742.041 314.42,736.541 277,728.5C 270.616,690.204 274.45,653.038 288.5,617C 355.364,604.534 421.031,587.534 485.5,566C 517.719,554.396 547.386,538.396 574.5,518C 599.206,499.463 622.54,479.296 644.5,457.5 Z"/></g>
<g><path style="opacity:1" fill="#fefefe" d="M 275.5,750.5 C 425.835,750.167 576.168,750.5 726.5,751.5C 727.439,757.721 730.606,762.388 736,765.5C 736.667,766.833 737.333,768.167 738,769.5C 738.667,779.833 738.667,790.167 738,800.5C 737.857,804.619 737.19,808.619 736,812.5C 734.786,814.049 733.286,815.215 731.5,816C 712.168,816.711 692.835,817.378 673.5,818C 664.154,820.109 655.654,823.942 648,829.5C 647.027,831.392 646.36,833.392 646,835.5C 645.754,861.227 644.588,886.893 642.5,912.5C 549.167,912.5 455.833,912.5 362.5,912.5C 361.974,886.824 361.14,861.157 360,835.5C 359.64,833.392 358.973,831.392 358,829.5C 350.346,823.942 341.846,820.109 332.5,818C 312.724,817.964 293.057,816.964 273.5,815C 271.951,813.786 270.785,812.286 270,810.5C 269.583,799.496 269.083,788.496 268.5,777.5C 268.704,770.015 269.871,762.682 272,755.5C 272.257,753.093 273.424,751.427 275.5,750.5 Z"/></g>
<g><path style="opacity:1" fill="#fefefe" d="M 361.5,939.5 C 455.834,939.333 550.167,939.5 644.5,940C 646.298,943.737 649.298,945.737 653.5,946C 679.179,946.25 704.846,946.917 730.5,948C 734.813,949.306 738.313,951.806 741,955.5C 742.871,979.163 742.871,1002.83 741,1026.5C 739.979,1029.11 739.145,1031.77 738.5,1034.5C 581.503,1036.52 424.503,1036.85 267.5,1035.5C 264.945,1025.39 263.778,1015.06 264,1004.5C 263.333,988.5 263.333,972.5 264,956.5C 267.011,952.48 270.844,949.647 275.5,948C 301.168,947.383 326.835,946.717 352.5,946C 356.981,945.769 359.981,943.603 361.5,939.5 Z"/></g>
</svg>
