<?xml version="1.0" encoding="UTF-8"?>
<!DOCTYPE svg PUBLIC "-//W3C//DTD SVG 1.1//EN" "http://www.w3.org/Graphics/SVG/1.1/DTD/svg11.dtd">
<svg xmlns="http://www.w3.org/2000/svg" version="1.1" width="1000px" height="1080px" style="shape-rendering:geometricPrecision; text-rendering:geometricPrecision; image-rendering:optimizeQuality; fill-rule:evenodd; clip-rule:evenodd" xmlns:xlink="http://www.w3.org/1999/xlink">
<g><path style="opacity:0.964" fill="#050505" d="M 511.5,286.5 C 516.262,286.698 520.428,288.365 524,291.5C 547.84,320.853 563.34,354.186 570.5,391.5C 618.923,387.427 651.757,408.094 669,453.5C 671.466,460.365 673.466,467.365 675,474.5C 686.01,452.489 702.177,435.323 723.5,423C 746.242,414.628 768.242,416.128 789.5,427.5C 800.441,409.384 814.441,393.884 831.5,381C 846.339,372.413 861.339,364.08 876.5,356C 882.6,353.448 888.1,354.281 893,358.5C 894.15,360.754 894.484,363.087 894,365.5C 884.333,392.5 874.667,419.5 865,446.5C 851.536,495.891 837.87,545.224 824,594.5C 809.698,611.112 796.365,628.445 784,646.5C 776.588,660.992 768.921,675.326 761,689.5C 759.058,695.822 757.225,702.156 755.5,708.5C 761.121,708.209 766.621,707.209 772,705.5C 776.069,705.905 778.569,708.071 779.5,712C 778.1,721.152 778.266,730.318 780,739.5C 780.833,740.333 781.667,741.167 782.5,742C 790.136,743.762 797.802,743.928 805.5,742.5C 811.789,745.22 812.955,749.554 809,755.5C 808.667,764.167 808.333,772.833 808,781.5C 807.833,784.333 806.333,785.833 803.5,786C 609.167,786.667 414.833,786.667 220.5,786C 219.234,785.691 218.067,785.191 217,784.5C 215.893,777.91 215.393,771.243 215.5,764.5C 215.393,757.757 215.893,751.09 217,744.5C 218.171,743.107 219.671,742.273 221.5,742C 226.833,741.667 232.167,741.333 237.5,741C 238.931,740.535 240.097,739.701 241,738.5C 242.025,727.859 243.025,717.193 244,706.5C 245.57,705.642 247.237,704.975 249,704.5C 257.314,707.544 265.814,708.544 274.5,707.5C 260.468,675.753 243.634,645.753 224,617.5C 217.333,610.167 210.667,602.833 204,595.5C 189.489,541.789 174.822,488.123 160,434.5C 152.136,412.575 144.469,390.575 137,368.5C 135.095,361.123 137.762,356.79 145,355.5C 174.601,365.792 200.267,382.125 222,404.5C 227.823,411.479 233.156,418.812 238,426.5C 254.418,418.279 271.585,415.779 289.5,419C 306.275,424.299 321.109,432.799 334,444.5C 341.755,455.669 348.755,467.336 355,479.5C 357.137,441.704 374.971,414.204 408.5,397C 413.772,395.131 419.106,393.465 424.5,392C 436.185,391.305 447.852,391.472 459.5,392.5C 459.567,377.293 462.401,362.626 468,348.5C 476.535,331.981 485.869,315.981 496,300.5C 500.14,294.518 505.307,289.851 511.5,286.5 Z M 620.5,484.5 C 636.777,483.059 650.11,488.559 660.5,501C 663.109,502.6 665.776,502.766 668.5,501.5C 671.119,502.985 673.952,503.985 677,504.5C 705.716,494.52 729.716,501.187 749,524.5C 764.555,548.286 763.889,571.619 747,594.5C 739.076,600.546 731.243,606.713 723.5,613C 691.115,627.387 657.449,631.387 622.5,625C 588.244,619.74 566.078,600.573 556,567.5C 551.901,540.462 559.734,517.629 579.5,499C 591.853,490.272 605.52,485.439 620.5,484.5 Z M 398.5,485.5 C 409.619,485.493 420.619,486.66 431.5,489C 442.435,493.938 451.601,501.105 459,510.5C 463.508,517.513 467.508,524.847 471,532.5C 471.928,543.008 472.762,553.508 473.5,564C 472.614,568.151 471.78,572.318 471,576.5C 466.421,586.417 460.254,595.251 452.5,603C 441.259,609.582 429.593,615.248 417.5,620C 385.296,626.464 353.296,625.464 321.5,617C 310.372,611.269 299.372,605.269 288.5,599C 283.287,595.454 279.12,590.954 276,585.5C 263.1,554.003 270.6,528.503 298.5,509C 316.079,500.845 334.245,499.345 353,504.5C 355.7,504.27 358.033,503.27 360,501.5C 362.729,503.788 365.562,503.955 368.5,502C 372.833,498.333 377.167,494.667 381.5,491C 387.238,489.031 392.905,487.197 398.5,485.5 Z"/></g>
<g><path style="opacity:1" fill="#fdfdfd" d="M 512.5,297.5 C 513.552,297.351 514.552,297.517 515.5,298C 539.794,327.76 555.627,361.594 563,399.5C 564.067,400.191 565.234,400.691 566.5,401C 580.224,401.245 593.89,402.245 607.5,404C 612.58,405.804 617.58,407.804 622.5,410C 644.445,425.374 658.278,446.207 664,472.5C 664.667,478.5 664.667,484.5 664,490.5C 658.556,483.863 651.722,479.363 643.5,477C 608.019,469.712 579.185,480.212 557,508.5C 534.971,552.375 542.804,589.875 580.5,621C 601.477,631.994 623.811,637.494 647.5,637.5C 647.5,663.5 647.5,689.5 647.5,715.5C 558.831,715.6 470.165,715.266 381.5,714.5C 381.167,688.158 381.5,661.825 382.5,635.5C 395.222,634.257 407.889,632.424 420.5,630C 433.682,625.076 446.348,619.076 458.5,612C 467.641,603.198 474.807,593.031 480,581.5C 483.958,565.331 484.625,548.998 482,532.5C 463.123,483.145 428.29,465.978 377.5,481C 374,483.833 370.5,486.667 367,489.5C 365.237,478.821 365.57,468.154 368,457.5C 372.318,448.864 376.651,440.198 381,431.5C 390.344,422.253 400.511,414.086 411.5,407C 415.95,404.739 420.617,403.072 425.5,402C 437.223,401.184 448.89,401.684 460.5,403.5C 463.387,403.373 465.887,402.373 468,400.5C 469.79,390.243 471.123,379.91 472,369.5C 473.063,363.978 474.73,358.644 477,353.5C 487.095,333.622 498.929,314.955 512.5,297.5 Z"/></g>
<g><path style="opacity:1" fill="#040404" d="M 512.5,344.5 C 516.043,344.872 518.21,346.872 519,350.5C 525.456,378.11 528.29,406.11 527.5,434.5C 549.241,434.912 570.907,436.412 592.5,439C 609.833,442.333 609.833,445.667 592.5,449C 570.575,451.618 548.575,453.118 526.5,453.5C 527.145,476.29 524.312,498.624 518,520.5C 515.333,525.833 512.667,525.833 510,520.5C 503.688,498.624 500.855,476.29 501.5,453.5C 478.011,453.536 454.677,451.703 431.5,448C 428.285,447.726 425.619,446.393 423.5,444C 424.551,442.615 425.884,441.615 427.5,441C 451.607,436.476 475.941,434.31 500.5,434.5C 499.869,407.198 502.369,380.198 508,353.5C 508.986,350.194 510.486,347.194 512.5,344.5 Z"/></g>
<g><path style="opacity:1" fill="#fdfdfd" d="M 881.5,364.5 C 882.376,364.369 883.043,364.702 883.5,365.5C 874.098,391.538 864.598,417.538 855,443.5C 843.502,487.004 831.502,530.337 819,573.5C 810.611,548.276 803.944,522.61 799,496.5C 797.096,475.474 797.096,454.474 799,433.5C 808.997,415.837 822.164,401.004 838.5,389C 852.896,380.806 867.229,372.639 881.5,364.5 Z"/></g>
<g><path style="opacity:1" fill="#fdfdfd" d="M 146.5,367.5 C 175.24,377.835 199.74,394.835 220,418.5C 224.516,424.868 228.516,431.534 232,438.5C 236.387,471.225 233.387,503.225 223,534.5C 218.53,547.576 213.864,560.576 209,573.5C 196.323,527.486 183.656,481.486 171,435.5C 163.492,412.468 155.326,389.802 146.5,367.5 Z"/></g>
<g><path style="opacity:1" fill="#fdfdfd" d="M 271.5,426.5 C 284.958,428.052 297.624,432.218 309.5,439C 313.5,441.667 317.5,444.333 321.5,447C 332.917,461.152 342.583,476.486 350.5,493C 328.019,488.306 307.019,491.973 287.5,504C 266.639,519.559 257.139,540.392 259,566.5C 261.803,575.242 264.803,583.908 268,592.5C 271.455,598.289 275.955,603.122 281.5,607C 293.601,614.102 305.934,620.769 318.5,627C 336.8,632.016 355.467,634.516 374.5,634.5C 374.5,661.167 374.5,687.833 374.5,714.5C 345.167,714.5 315.833,714.5 286.5,714.5C 285.517,709.046 284.017,703.713 282,698.5C 267.864,667.542 251.197,638.208 232,610.5C 224.605,602.941 217.771,594.941 211.5,586.5C 223.192,557.927 232.358,528.594 239,498.5C 240.614,478.173 240.947,457.84 240,437.5C 242.921,435.288 246.088,433.455 249.5,432C 256.97,430.223 264.303,428.389 271.5,426.5 Z"/></g>
<g><path style="opacity:1" fill="#fdfdfd" d="M 740.5,428.5 C 758.263,426.025 774.597,429.692 789.5,439.5C 790.333,454.822 790.833,470.156 791,485.5C 792.201,497.969 794.201,510.302 797,522.5C 802.595,543.284 808.595,563.951 815,584.5C 815.667,586.167 815.667,587.833 815,589.5C 811.333,593.167 807.667,596.833 804,600.5C 794.912,613.676 785.579,626.676 776,639.5C 768.255,654.659 760.255,669.659 752,684.5C 748.987,694.22 745.82,703.887 742.5,713.5C 742.709,714.086 743.043,714.586 743.5,715C 713.835,715.5 684.169,715.667 654.5,715.5C 654.5,689.5 654.5,663.5 654.5,637.5C 680.293,637.719 704.959,632.552 728.5,622C 735.833,616.667 743.167,611.333 750.5,606C 763.609,591.874 770.609,575.041 771.5,555.5C 768.299,532.249 757.299,513.749 738.5,500C 723.19,491.671 706.857,488.338 689.5,490C 685.263,491.593 681.263,492.76 677.5,493.5C 684.756,475.309 695.256,459.309 709,445.5C 718.133,437.021 728.633,431.355 740.5,428.5 Z"/></g>
<g><path style="opacity:1" fill="#030303" d="M 508.5,620.5 C 518.523,620.667 525.023,625.667 528,635.5C 530.733,646.041 529.399,656.041 524,665.5C 516.333,674.833 508.667,674.833 501,665.5C 494.636,654.138 493.969,642.471 499,630.5C 501.696,626.639 504.863,623.306 508.5,620.5 Z"/></g>
<g><path style="opacity:1" fill="#fcfcfc" d="M 252.5,716.5 C 258.092,717.733 263.759,718.566 269.5,719C 429.832,720.264 590.165,720.598 750.5,720C 756.487,719.002 762.487,718.168 768.5,717.5C 768.334,724.508 768.5,731.508 769,738.5C 769.739,742.062 771.239,745.228 773.5,748C 597.832,748.639 422.165,748.306 246.5,747C 249.634,744.612 251.467,741.446 252,737.5C 252.5,730.508 252.666,723.508 252.5,716.5 Z"/></g>
<g><path style="opacity:1" fill="#fefefe" d="M 225.5,752.5 C 416.499,753.216 607.499,753.55 798.5,753.5C 798.5,761.167 798.5,768.833 798.5,776.5C 607.5,776.5 416.5,776.5 225.5,776.5C 225.5,768.5 225.5,760.5 225.5,752.5 Z"/></g>
</svg>
