<?xml version="1.0" encoding="UTF-8"?>
<!DOCTYPE svg PUBLIC "-//W3C//DTD SVG 1.1//EN" "http://www.w3.org/Graphics/SVG/1.1/DTD/svg11.dtd">
<svg xmlns="http://www.w3.org/2000/svg" version="1.1" width="1000px" height="1080px" style="shape-rendering:geometricPrecision; text-rendering:geometricPrecision; image-rendering:optimizeQuality; fill-rule:evenodd; clip-rule:evenodd" xmlns:xlink="http://www.w3.org/1999/xlink">
<g><path style="opacity:0.981" fill="#fdfdfd" d="M 755.5,1079.5 C 587.167,1079.5 418.833,1079.5 250.5,1079.5C 248.016,1073.19 245.516,1066.86 243,1060.5C 242.333,1034.17 242.333,1007.83 243,981.5C 248.368,968.469 257.868,959.969 271.5,956C 294.831,955.5 318.164,955.333 341.5,955.5C 340.143,928.212 339.143,900.879 338.5,873.5C 335.536,870.354 331.87,868.854 327.5,869C 308.448,868.949 289.448,868.283 270.5,867C 260,863.167 252.833,856 249,845.5C 247.394,829.22 247.061,812.887 248,796.5C 249.08,790.34 251.747,785.007 256,780.5C 256.941,770.387 256.275,760.387 254,750.5C 253.636,734.454 253.47,718.454 253.5,702.5C 255.938,695.402 257.105,688.068 257,680.5C 257.438,677.624 258.438,674.957 260,672.5C 260.716,662.977 262.382,653.643 265,644.5C 265.792,642.413 266.959,640.579 268.5,639C 267.557,636.2 267.724,633.366 269,630.5C 272.901,620.027 276.234,609.36 279,598.5C 279.93,595.638 281.597,593.305 284,591.5C 286.743,579.682 291.409,568.682 298,558.5C 300.57,549.361 304.236,540.695 309,532.5C 310.684,530.649 312.517,528.982 314.5,527.5C 318.42,518.921 322.253,510.254 326,501.5C 331.189,496.461 334.855,490.461 337,483.5C 338.019,482.313 339.186,481.313 340.5,480.5C 346.336,469.49 353.17,459.157 361,449.5C 362.793,443.372 366.46,438.705 372,435.5C 372.725,433.051 373.725,430.717 375,428.5C 380.667,423.5 386.333,418.5 392,413.5C 393.03,410.05 394.363,406.717 396,403.5C 401.134,399.367 405.968,394.867 410.5,390C 405.667,385.833 400.833,381.667 396,377.5C 393.667,370.5 391.333,363.5 389,356.5C 388.333,345.167 388.333,333.833 389,322.5C 390.946,317.604 392.613,312.604 394,307.5C 394.883,304.898 396.383,302.731 398.5,301C 401.941,299.224 405.108,297.057 408,294.5C 410.955,290.756 413.789,286.922 416.5,283C 427.744,277.004 439.744,274.838 452.5,276.5C 452.5,254.167 452.5,231.833 452.5,209.5C 443.827,209.666 435.16,209.5 426.5,209C 415.918,206.748 408.751,200.581 405,190.5C 403,175.833 403,161.167 405,146.5C 408.751,136.419 415.918,130.252 426.5,128C 435.16,127.5 443.827,127.334 452.5,127.5C 441.359,63.1442 467.692,38.3108 531.5,53C 543.936,57.7686 551.77,66.6019 555,79.5C 555.5,95.4965 555.667,111.497 555.5,127.5C 587.041,123.38 601.708,137.047 599.5,168.5C 601.708,199.953 587.041,213.62 555.5,209.5C 555.5,231.833 555.5,254.167 555.5,276.5C 567.582,274.962 578.915,277.129 589.5,283C 595.333,291.5 602.5,298.667 611,304.5C 613.423,311.034 615.423,317.701 617,324.5C 617.667,335.833 617.667,347.167 617,358.5C 615.307,364.608 613.307,370.608 611,376.5C 605.833,381 600.667,385.5 595.5,390C 599.98,394.811 604.813,399.311 610,403.5C 611.893,406.618 613.226,409.951 614,413.5C 618.667,417.5 623.333,421.5 628,425.5C 629.562,427.957 630.562,430.624 631,433.5C 636.501,435.67 639.834,439.67 641,445.5C 643.667,448.167 646.333,450.833 649,453.5C 652.764,458.927 656.097,464.593 659,470.5C 667.766,480.032 673.933,491.032 677.5,503.5C 680.912,505.745 683.412,508.745 685,512.5C 686.506,519.433 686.839,526.433 686,533.5C 685.144,537.544 683.478,541.211 681,544.5C 628.401,595.932 576.235,647.932 524.5,700.5C 526.483,704.457 529.483,706.957 533.5,708C 536.714,703.118 540.881,699.285 546,696.5C 549,690.833 553.333,686.5 559,683.5C 561.333,678.5 565,674.833 570,672.5C 573.789,666.887 578.456,662.22 584,658.5C 589.529,652.308 595.029,646.141 600.5,640C 607.306,635.439 612.973,629.772 617.5,623C 638.808,603.128 659.474,582.462 679.5,561C 689.167,556.333 698.833,556.333 708.5,561C 709.333,561.833 710.167,562.667 711,563.5C 716.177,576.518 721.511,589.518 727,602.5C 727.351,610.193 729.684,617.193 734,623.5C 735.061,628.104 735.727,632.771 736,637.5C 738.403,639.305 740.07,641.638 741,644.5C 743.618,653.643 745.284,662.977 746,672.5C 747.562,674.957 748.562,677.624 749,680.5C 748.895,688.068 750.062,695.402 752.5,702.5C 752.53,718.454 752.364,734.454 752,750.5C 749.747,760.053 749.08,769.72 750,779.5C 754.832,784.163 757.832,789.83 759,796.5C 759.939,812.887 759.606,829.22 758,845.5C 754.167,856 747,863.167 736.5,867C 717.218,868.283 697.885,868.95 678.5,869C 674.13,868.854 670.464,870.354 667.5,873.5C 666.821,900.877 665.821,928.211 664.5,955.5C 687.836,955.333 711.169,955.5 734.5,956C 748.132,959.969 757.632,968.469 763,981.5C 763.667,1007.83 763.667,1034.17 763,1060.5C 760.484,1066.86 757.984,1073.19 755.5,1079.5 Z"/></g>
<g><path style="opacity:1" fill="#010101" d="M 493.5,72.5 C 505.268,72.6373 516.935,73.4706 528.5,75C 530.359,76.5578 531.859,78.3911 533,80.5C 533.325,99.8459 533.992,119.179 535,138.5C 535.5,144.333 538.667,147.5 544.5,148C 554.85,148.422 565.183,149.089 575.5,150C 576.126,150.75 576.626,151.584 577,152.5C 578.725,163.486 578.725,174.486 577,185.5C 576.5,186 576,186.5 575.5,187C 565.183,187.911 554.85,188.578 544.5,189C 538.667,189.5 535.5,192.667 535,198.5C 533.296,228.156 533.296,257.823 535,287.5C 535.5,293.333 538.667,296.5 544.5,297C 554.937,297.572 565.27,298.739 575.5,300.5C 581.044,307.539 587.044,314.039 593.5,320C 597.16,334.484 596.993,348.984 593,363.5C 587.13,368.337 581.63,373.504 576.5,379C 527.5,379.667 478.5,379.667 429.5,379C 425.667,373.833 421.167,369.333 416,365.5C 410.509,353.435 408.509,340.769 410,327.5C 411.935,324.448 413.268,321.115 414,317.5C 421.355,312.811 427.355,306.811 432,299.5C 443.876,298.794 455.71,297.627 467.5,296C 470.953,294.272 472.786,291.438 473,287.5C 473.635,269.337 474.135,251.17 474.5,233C 474.762,220.077 473.928,207.244 472,194.5C 470.272,191.047 467.438,189.214 463.5,189C 454.5,188.667 445.5,188.333 436.5,188C 433.044,187.82 429.711,187.153 426.5,186C 424.947,175.262 424.447,164.429 425,153.5C 425.833,152 427,150.833 428.5,150C 440.134,148.865 451.801,148.199 463.5,148C 469.333,147.5 472.5,144.333 473,138.5C 473.982,119.178 474.649,99.8448 475,80.5C 476.5,77.6667 478.667,75.5 481.5,74C 485.688,73.8238 489.688,73.3238 493.5,72.5 Z"/></g>
<g><path style="opacity:1" fill="#010101" d="M 423.5,407.5 C 477.168,407.333 530.834,407.5 584.5,408C 589.301,411.799 593.801,415.966 598,420.5C 608.05,432.882 617.717,445.549 627,458.5C 626.77,460.615 626.77,462.615 627,464.5C 598.83,492.687 568.33,517.854 535.5,540C 509.439,555.804 481.772,568.137 452.5,577C 400.291,593.572 347.291,606.572 293.5,616C 292.409,613.936 292.242,611.769 293,609.5C 320.99,547.148 355.324,488.815 396,434.5C 401.761,426.735 408.261,419.569 415.5,413C 419.121,412.544 421.788,410.711 423.5,407.5 Z"/></g>
<g><path style="opacity:1" fill="#000000" d="M 644.5,487.5 C 650.44,496.304 656.273,505.304 662,514.5C 664.23,518.962 665.897,523.628 667,528.5C 669.709,529.824 670.042,531.49 668,533.5C 628.863,574.305 589.363,614.805 549.5,655C 534.266,670.237 518.433,684.737 502,698.5C 501.333,700.5 501.333,702.5 502,704.5C 512.15,714.313 522.65,723.813 533.5,733C 534.5,733.667 535.5,733.667 536.5,733C 587.5,682 638.5,631 689.5,580C 694.396,578.05 697.23,579.883 698,585.5C 704.152,605.29 711.485,624.623 720,643.5C 730.175,678.823 733.508,714.823 730,751.5C 729.5,752 729,752.5 728.5,753C 701.518,761.665 673.852,766.998 645.5,769C 560.623,776.086 475.623,778.086 390.5,775C 352.282,771.828 314.449,766.328 277,758.5C 270.797,720.898 274.297,684.232 287.5,648.5C 314.797,642.273 342.131,636.107 369.5,630C 418.289,618.626 465.956,603.626 512.5,585C 537,573.26 560,559.26 581.5,543C 603.287,525.379 624.287,506.879 644.5,487.5 Z"/></g>
<g><path style="opacity:1" fill="#000000" d="M 275.5,780.5 C 425.835,780.167 576.168,780.5 726.5,781.5C 727.21,784.673 728.377,787.673 730,790.5C 733,792.167 735.333,794.5 737,797.5C 739.256,812.607 738.923,827.607 736,842.5C 734.786,844.049 733.286,845.215 731.5,846C 710.815,846.195 690.148,846.861 669.5,848C 661.811,850.927 654.644,854.76 648,859.5C 646.189,863.976 645.189,868.643 645,873.5C 644.996,896.552 644.163,919.552 642.5,942.5C 549.5,942.5 456.5,942.5 363.5,942.5C 361.824,921.557 360.991,900.557 361,879.5C 360.667,874.833 360.333,870.167 360,865.5C 359.64,863.392 358.973,861.392 358,859.5C 350.752,853.183 342.252,849.349 332.5,848C 313.501,847.31 294.501,846.644 275.5,846C 273,844.833 271.167,843 270,840.5C 269.62,829.494 269.12,818.494 268.5,807.5C 268.905,798.974 270.405,790.64 273,782.5C 273.995,781.934 274.828,781.267 275.5,780.5 Z"/></g>
<g><path style="opacity:1" fill="#000000" d="M 361.5,969.5 C 455.834,969.333 550.167,969.5 644.5,970C 646.298,973.737 649.298,975.737 653.5,976C 679.155,977.066 704.822,977.733 730.5,978C 734.813,979.306 738.313,981.806 741,985.5C 742.882,1009.16 742.882,1032.82 741,1056.5C 739.979,1059.11 739.145,1061.77 738.5,1064.5C 581.834,1066.69 425.167,1066.86 268.5,1065C 267.108,1062.28 265.942,1059.44 265,1056.5C 264.555,1033.15 264.222,1009.82 264,986.5C 267.011,982.48 270.844,979.647 275.5,978C 301.154,976.901 326.82,976.234 352.5,976C 356.981,975.769 359.981,973.603 361.5,969.5 Z"/></g>
</svg>
