<?xml version="1.0" encoding="UTF-8"?>
<!DOCTYPE svg PUBLIC "-//W3C//DTD SVG 1.1//EN" "http://www.w3.org/Graphics/SVG/1.1/DTD/svg11.dtd">
<svg xmlns="http://www.w3.org/2000/svg" version="1.1" width="1000px" height="1080px" style="shape-rendering:geometricPrecision; text-rendering:geometricPrecision; image-rendering:optimizeQuality; fill-rule:evenodd; clip-rule:evenodd" xmlns:xlink="http://www.w3.org/1999/xlink">
<g><path style="opacity:0.967" fill="#fcfcfc" d="M 521.5,277.5 C 534.772,278.054 547.772,280.221 560.5,284C 575.917,290.076 585.584,301.076 589.5,317C 588.854,320.812 588.354,324.646 588,328.5C 587.667,327.833 587.333,327.167 587,326.5C 586.86,329.281 585.694,331.447 583.5,333C 583.833,333.333 584.167,333.667 584.5,334C 577.897,342.765 568.897,349.265 557.5,353.5C 557.167,354.167 556.833,354.833 556.5,355.5C 564.75,389.668 575.583,423.002 589,455.5C 590.751,460.008 593.251,464.008 596.5,467.5C 609.79,456.044 622.29,443.71 634,430.5C 650.341,410.798 665.841,391.298 680.5,372C 663.89,361.715 659.223,347.548 666.5,329.5C 674.41,319.424 684.41,312.257 696.5,308C 722.414,299.916 747.414,302.083 771.5,314.5C 777.975,319.14 783.309,324.806 787.5,331.5C 788.646,335.388 789.979,339.221 791.5,343C 789.969,347.673 788.802,352.506 788,357.5C 777.88,371.378 763.713,380.045 745.5,383.5C 744.914,383.291 744.414,382.957 744,382.5C 742.365,399.654 741.199,416.82 740.5,434C 740.067,436.794 740.567,439.627 742,442.5C 742.5,456.163 742.667,469.829 742.5,483.5C 746.127,482.72 749.46,481.22 752.5,479C 783.427,457.746 814.093,436.079 844.5,414C 832.76,409.578 823.426,402.244 816.5,392C 811.233,376.68 814.9,363.846 827.5,353.5C 858.375,334.183 890.041,332.849 922.5,349.5C 924.69,351.524 927.023,353.357 929.5,355C 935.927,360.871 940.26,368.537 942.5,378C 939.468,394.7 930.135,406.366 914.5,413C 906.802,414.873 899.136,416.873 891.5,419C 892.308,419.308 892.975,419.808 893.5,420.5C 874.639,442.816 858.139,467.816 844,495.5C 828.533,527.145 814.033,559.312 800.5,592C 805.597,596.784 809.597,602.451 812.5,609C 809.036,622.963 800.37,631.797 786.5,635.5C 785.749,636.376 785.249,637.376 785,638.5C 784.667,638.167 784.333,637.833 784,637.5C 778.816,656.061 773.316,674.561 767.5,693C 768.775,695.071 770.609,696.571 773,697.5C 780.837,706.764 780.337,715.431 771.5,723.5C 767.669,725.444 763.669,726.777 759.5,727.5C 755.561,745.84 752.561,764.34 750.5,783C 750.654,787.669 752.987,790.835 757.5,792.5C 764.157,800.808 763.824,808.975 756.5,817C 754.833,818.333 753.167,819.667 751.5,821C 747.598,822.02 743.932,823.52 740.5,825.5C 590.501,826.5 440.501,826.833 290.5,826.5C 290.663,824.143 290.497,821.81 290,819.5C 282.866,813.296 280.532,805.629 283,796.5C 283.333,796.833 283.667,797.167 284,797.5C 284.561,795.275 285.561,793.275 287,791.5C 290.377,789.291 293.877,787.291 297.5,785.5C 297.192,784.692 296.692,784.025 296,783.5C 293.651,766.42 290.485,749.42 286.5,732.5C 286.709,731.914 287.043,731.414 287.5,731C 282.573,728.198 277.573,725.365 272.5,722.5C 265.208,716.029 264.041,708.696 269,700.5C 271.833,698.333 274.667,696.167 277.5,694C 271.377,674.346 265.71,654.512 260.5,634.5C 253.766,633.137 247.433,630.637 241.5,627C 230.676,617.762 230.009,607.929 239.5,597.5C 241.731,596.097 244.064,594.93 246.5,594C 241.746,582.306 237.079,570.473 232.5,558.5C 219.439,527.987 203.773,499.487 185.5,473C 185.833,472.667 186.167,472.333 186.5,472C 179.85,462.693 173.183,453.36 166.5,444C 165.852,442.56 165.519,441.06 165.5,439.5C 150.15,439.463 135.483,436.297 121.5,430C 113.05,425.903 106.217,419.403 101,410.5C 96.2254,398.521 98.2254,387.855 107,378.5C 116.175,369.674 127.009,363.84 139.5,361C 167.176,354.503 192.509,359.337 215.5,375.5C 218.726,379.598 221.726,383.931 224.5,388.5C 228.758,401.878 225.425,413.045 214.5,422C 233.43,433.952 251.764,446.619 269.5,460C 280.583,466.959 291.75,473.792 303,480.5C 303.246,477.11 303.746,473.777 304.5,470.5C 304.291,469.914 303.957,469.414 303.5,469C 305.22,465.299 306.22,461.299 306.5,457C 304.067,439.647 302.567,422.147 302,404.5C 300.931,398.593 299.765,392.76 298.5,387C 298.629,385.019 299.296,383.353 300.5,382C 281.731,380.112 265.731,372.612 252.5,359.5C 242.394,342.458 245.061,327.625 260.5,315C 274.989,305.454 291.322,300.288 309.5,299.5C 325.452,300.117 340.452,303.95 354.5,311C 359.25,314.373 363.583,318.206 367.5,322.5C 370.579,328.158 373.246,333.991 375.5,340C 374.117,343.367 373.283,346.867 373,350.5C 370.718,352.366 369.885,354.532 370.5,357C 367.174,359.854 363.507,363.187 359.5,367C 372.507,383.722 385.507,399.889 398.5,415.5C 413.743,432.055 429.41,448.055 445.5,463.5C 446.861,461.972 448.028,460.305 449,458.5C 462.825,423.521 475.658,388.188 487.5,352.5C 483.043,349.099 478.377,345.932 473.5,343C 455.648,325.263 456.315,308.263 475.5,292C 483.215,286.122 491.549,282.455 500.5,281C 507.583,279.443 514.583,278.276 521.5,277.5 Z"/></g>
<g><path style="opacity:1" fill="#030303" d="M 569.5,308.5 C 569.054,311.01 569.72,313.01 571.5,314.5C 572.303,319.342 571.47,324.008 569,328.5C 565.5,333.333 561.333,337.5 556.5,341C 536.267,350.323 515.934,350.656 495.5,342C 489.118,338.405 483.951,333.572 480,327.5C 479.814,324.964 479.314,322.631 478.5,320.5C 478.704,317.482 479.037,314.482 479.5,311.5C 485.717,300.022 495.384,292.855 508.5,290C 523.58,287.552 538.246,288.885 552.5,294C 559.435,297.45 565.102,302.283 569.5,308.5 Z"/></g>
<g><path style="opacity:1" fill="#030303" d="M 356.5,337.5 C 356.5,339.5 356.5,341.5 356.5,343.5C 356.477,345.927 355.977,348.26 355,350.5C 347.577,361.137 337.41,367.637 324.5,370C 307.513,372.713 291.513,370.047 276.5,362C 259.578,348.781 259.245,335.114 275.5,321C 296.272,308.724 317.605,307.724 339.5,318C 345.9,321.066 351.067,325.566 355,331.5C 355.813,333.436 356.313,335.436 356.5,337.5 Z"/></g>
<g><path style="opacity:1" fill="#989898" d="M 569.5,308.5 C 571.074,310.102 571.741,312.102 571.5,314.5C 569.72,313.01 569.054,311.01 569.5,308.5 Z"/></g>
<g><path style="opacity:1" fill="#030303" d="M 681.5,352.5 C 680.384,347.151 680.384,341.817 681.5,336.5C 688.813,324.654 699.48,317.487 713.5,315C 733.514,311.133 751.347,315.633 767,328.5C 770.258,332.943 772.758,337.776 774.5,343C 772.664,352.163 767.997,359.496 760.5,365C 733.806,379.182 708.639,377.015 685,358.5C 683.606,356.612 682.44,354.612 681.5,352.5 Z"/></g>
<g><path style="opacity:1" fill="#686868" d="M 479.5,311.5 C 479.037,314.482 478.704,317.482 478.5,320.5C 477.185,317.373 477.518,314.373 479.5,311.5 Z"/></g>
<g><path style="opacity:1" fill="#585858" d="M 356.5,337.5 C 359.167,339.5 359.167,341.5 356.5,343.5C 356.5,341.5 356.5,339.5 356.5,337.5 Z"/></g>
<g><path style="opacity:1" fill="#656565" d="M 681.5,336.5 C 680.384,341.817 680.384,347.151 681.5,352.5C 680.281,349.579 679.614,346.412 679.5,343C 679.336,340.456 680.003,338.29 681.5,336.5 Z"/></g>
<g><path style="opacity:1" fill="#030303" d="M 832.5,386.5 C 832.058,382.846 831.724,379.179 831.5,375.5C 831.575,372.593 832.409,369.927 834,367.5C 845.213,354.815 859.38,348.481 876.5,348.5C 895.205,348.669 910.705,355.669 923,369.5C 923.33,372.489 924.164,375.322 925.5,378C 921.288,393.475 911.288,403.142 895.5,407C 879.79,410.185 864.457,408.852 849.5,403C 841.941,399.272 836.275,393.772 832.5,386.5 Z"/></g>
<g><path style="opacity:1" fill="#020202" d="M 521.5,363.5 C 525.554,364.496 529.554,364.162 533.5,362.5C 536.167,362.5 538.833,362.5 541.5,362.5C 548.68,393.54 558.18,423.873 570,453.5C 574.071,460.061 577.904,466.728 581.5,473.5C 581.392,474.442 581.059,475.275 580.5,476C 563.848,484.405 549.348,495.572 537,509.5C 528.423,524.342 523.089,540.342 521,557.5C 518.865,542.29 514.865,527.623 509,513.5C 503.916,504.182 497.083,496.349 488.5,490C 479.338,483.585 470.005,477.418 460.5,471.5C 462.988,467.022 464.988,462.355 466.5,457.5C 468.448,455.68 469.448,453.346 469.5,450.5C 482.427,421.311 493.094,391.311 501.5,360.5C 508.122,361.791 514.789,362.791 521.5,363.5 Z"/></g>
<g><path style="opacity:1" fill="#555555" d="M 533.5,362.5 C 529.554,364.162 525.554,364.496 521.5,363.5C 525.466,362.838 529.466,362.505 533.5,362.5 Z"/></g>
<g><path style="opacity:1" fill="#030303" d="M 209.5,399.5 C 208.609,400.261 207.942,401.261 207.5,402.5C 208.363,403.726 208.363,405.06 207.5,406.5C 204.451,412.387 200.118,417.221 194.5,421C 174.841,431.139 154.841,431.806 134.5,423C 127.341,419.335 121.674,414.169 117.5,407.5C 116.384,402.151 116.384,396.817 117.5,391.5C 122.977,380.88 131.644,374.047 143.5,371C 156.111,368.297 168.778,368.297 181.5,371C 192.309,374.404 200.975,380.737 207.5,390C 208.303,392.744 209.303,395.411 210.5,398C 210.43,398.765 210.097,399.265 209.5,399.5 Z"/></g>
<g><path style="opacity:1" fill="#535353" d="M 831.5,375.5 C 831.724,379.179 832.058,382.846 832.5,386.5C 830.559,382.931 830.226,379.265 831.5,375.5 Z"/></g>
<g><path style="opacity:1" fill="#020202" d="M 321.5,468.5 C 322.984,464.946 323.651,461.112 323.5,457C 323.651,452.888 322.984,449.054 321.5,445.5C 321.5,444.5 321.5,443.5 321.5,442.5C 321.457,434.152 321.124,425.819 320.5,417.5C 320.771,412.566 320.104,407.9 318.5,403.5C 318.37,397.307 317.37,391.307 315.5,385.5C 327.111,385.278 338.278,382.945 349,378.5C 349.5,378.833 350,379.167 350.5,379.5C 376.193,412.881 404.193,444.214 434.5,473.5C 420.1,481.74 406.1,490.574 392.5,500C 384.436,506.982 377.936,515.149 373,524.5C 358.085,509.87 341.085,498.203 322,489.5C 321.5,482.508 321.334,475.508 321.5,468.5 Z"/></g>
<g><path style="opacity:1" fill="#020202" d="M 724.5,444.5 C 724.727,459.836 725.06,475.17 725.5,490.5C 703.875,499.555 684.708,512.221 668,528.5C 663.064,519.149 656.564,510.982 648.5,504C 635.03,494.541 621.03,485.874 606.5,478C 620.465,465.032 633.965,451.865 647,438.5C 661.508,419.994 676.008,401.494 690.5,383C 702.44,386.752 714.774,388.919 727.5,389.5C 725.146,407.751 724.146,426.085 724.5,444.5 Z"/></g>
<g><path style="opacity:1" fill="#4c4c4c" d="M 117.5,391.5 C 116.384,396.817 116.384,402.151 117.5,407.5C 114.993,402.139 114.993,396.806 117.5,391.5 Z"/></g>
<g><path style="opacity:1" fill="#939393" d="M 209.5,399.5 C 209.662,401.527 209.495,403.527 209,405.5C 208.617,406.056 208.117,406.389 207.5,406.5C 208.363,405.06 208.363,403.726 207.5,402.5C 207.942,401.261 208.609,400.261 209.5,399.5 Z"/></g>
<g><path style="opacity:1" fill="#787878" d="M 318.5,403.5 C 320.104,407.9 320.771,412.566 320.5,417.5C 320.167,417.5 319.833,417.5 319.5,417.5C 319.002,412.848 318.669,408.181 318.5,403.5 Z"/></g>
<g><path style="opacity:1" fill="#020202" d="M 666.5,594.5 C 658.648,594.825 650.982,594.492 643.5,593.5C 652.038,573.414 662.871,554.748 676,537.5C 694.617,519.689 716.284,507.022 741,499.5C 744.887,497.807 748.721,495.973 752.5,494C 788.542,470.777 823.876,446.611 858.5,421.5C 862.711,422.902 867.045,423.736 871.5,424C 855.535,444.089 841.702,465.589 830,488.5C 821.669,505.486 813.336,522.486 805,539.5C 797.835,558.176 790.001,576.51 781.5,594.5C 743.162,595.756 704.829,595.756 666.5,594.5 Z"/></g>
<g><path style="opacity:1" fill="#010101" d="M 383.5,594.5 C 343.428,594.827 303.428,594.494 263.5,593.5C 261.263,589.466 259.596,585.132 258.5,580.5C 258.448,577.654 257.448,575.32 255.5,573.5C 253.372,569.302 251.705,564.969 250.5,560.5C 250.448,557.654 249.448,555.32 247.5,553.5C 230.381,514.361 209.381,477.361 184.5,442.5C 192.155,439.223 199.989,436.223 208,433.5C 222.766,443.263 237.266,453.429 251.5,464C 267.5,474 283.5,484 299.5,494C 321.146,501.652 340.813,512.652 358.5,527C 366.422,535.02 373.255,543.854 379,553.5C 386.691,566.883 393.858,580.549 400.5,594.5C 394.915,594.791 389.248,594.791 383.5,594.5 Z"/></g>
<g><path style="opacity:1" fill="#bdbdbd" d="M 319.5,417.5 C 319.833,417.5 320.167,417.5 320.5,417.5C 321.124,425.819 321.457,434.152 321.5,442.5C 319.824,434.395 319.157,426.062 319.5,417.5 Z"/></g>
<g><path style="opacity:1" fill="#999999" d="M 321.5,445.5 C 322.984,449.054 323.651,452.888 323.5,457C 323.651,461.112 322.984,464.946 321.5,468.5C 322.751,460.837 322.751,453.171 321.5,445.5 Z"/></g>
<g><path style="opacity:1" fill="#919191" d="M 469.5,450.5 C 469.448,453.346 468.448,455.68 466.5,457.5C 466.759,454.728 467.759,452.395 469.5,450.5 Z"/></g>
<g><path style="opacity:1" fill="#d5d5d5" d="M 724.5,444.5 C 725.268,445.263 725.768,446.263 726,447.5C 726.827,462.006 726.661,476.339 725.5,490.5C 725.06,475.17 724.727,459.836 724.5,444.5 Z"/></g>
<g><path style="opacity:1" fill="#010101" d="M 447.5,480.5 C 466.676,487.852 482.842,499.519 496,515.5C 503.133,530.366 507.3,546.033 508.5,562.5C 488.952,564.773 472.618,573.107 459.5,587.5C 458.167,589.833 456.833,592.167 455.5,594.5C 441.5,595.833 427.5,595.833 413.5,594.5C 404.904,574.641 394.738,555.641 383,537.5C 385.115,527.013 390.282,518.18 398.5,511C 414.226,499.807 430.559,489.64 447.5,480.5 Z"/></g>
<g><path style="opacity:1" fill="#020202" d="M 589.5,484.5 C 608.325,492.582 625.992,502.748 642.5,515C 650.718,522.18 655.885,531.013 658,541.5C 646.641,558.553 637.141,576.553 629.5,595.5C 617.162,595.667 604.829,595.5 592.5,595C 583.41,580.267 570.41,570.601 553.5,566C 547.019,563.737 540.352,562.57 533.5,562.5C 534.367,547.364 538.201,533.03 545,519.5C 549.467,514.032 554.3,508.865 559.5,504C 569.394,497.227 579.394,490.727 589.5,484.5 Z"/></g>
<g><path style="opacity:1" fill="#575757" d="M 247.5,553.5 C 249.448,555.32 250.448,557.654 250.5,560.5C 248.935,558.491 247.935,556.157 247.5,553.5 Z"/></g>
<g><path style="opacity:1" fill="#595959" d="M 255.5,573.5 C 257.448,575.32 258.448,577.654 258.5,580.5C 256.935,578.491 255.935,576.157 255.5,573.5 Z"/></g>
<g><path style="opacity:1" fill="#4c4c4c" d="M 263.5,593.5 C 303.428,594.494 343.428,594.827 383.5,594.5C 363.669,595.167 343.669,595.5 323.5,595.5C 303.155,595.5 283.155,594.833 263.5,593.5 Z"/></g>
<g><path style="opacity:1" fill="#4e4e4e" d="M 643.5,593.5 C 650.982,594.492 658.648,594.825 666.5,594.5C 658.657,595.82 650.657,595.82 642.5,594.5C 642.624,593.893 642.957,593.56 643.5,593.5 Z"/></g>
<g><path style="opacity:1" fill="#717171" d="M 456.5,626.5 C 395.664,626.168 334.998,626.501 274.5,627.5C 273.624,627.631 272.957,627.298 272.5,626.5C 333.999,625.168 395.332,625.168 456.5,626.5 Z"/></g>
<g><path style="opacity:1" fill="#717171" d="M 590.5,626.5 C 652.001,625.168 713.668,625.168 775.5,626.5C 775.043,627.298 774.376,627.631 773.5,627.5C 712.669,626.501 651.669,626.168 590.5,626.5 Z"/></g>
<g><path style="opacity:1" fill="#000000" d="M 456.5,626.5 C 468.001,643.11 484.001,652.943 504.5,656C 532.308,660.711 557.641,655.045 580.5,639C 584.202,635.077 587.536,630.91 590.5,626.5C 651.669,626.168 712.669,626.501 773.5,627.5C 770.922,628.775 769.089,630.775 768,633.5C 763.766,647.188 759.6,660.855 755.5,674.5C 753.918,677.876 753.251,681.542 753.5,685.5C 751.52,687.895 750.187,690.729 749.5,694C 749.808,695.459 750.475,696.626 751.5,697.5C 599.837,699.499 447.837,700.165 295.5,699.5C 295.5,698.5 295.5,697.5 295.5,696.5C 295.142,693.733 294.475,691.067 293.5,688.5C 293.741,686.102 293.074,684.102 291.5,682.5C 290.699,678.765 289.699,675.099 288.5,671.5C 288.741,669.102 288.074,667.102 286.5,665.5C 285.962,663.883 285.629,662.216 285.5,660.5C 285.741,658.102 285.074,656.102 283.5,654.5C 281.333,646.834 279.167,639.168 277,631.5C 275.915,630.264 275.082,628.931 274.5,627.5C 334.998,626.501 395.664,626.168 456.5,626.5 Z"/></g>
<g><path style="opacity:1" fill="#6e6e6e" d="M 283.5,654.5 C 285.074,656.102 285.741,658.102 285.5,660.5C 283.926,658.898 283.259,656.898 283.5,654.5 Z"/></g>
<g><path style="opacity:1" fill="#858585" d="M 286.5,665.5 C 288.074,667.102 288.741,669.102 288.5,671.5C 286.926,669.898 286.259,667.898 286.5,665.5 Z"/></g>
<g><path style="opacity:1" fill="#888888" d="M 755.5,674.5 C 755.354,678.387 754.687,682.054 753.5,685.5C 753.251,681.542 753.918,677.876 755.5,674.5 Z"/></g>
<g><path style="opacity:1" fill="#707070" d="M 291.5,682.5 C 293.074,684.102 293.741,686.102 293.5,688.5C 291.926,686.898 291.259,684.898 291.5,682.5 Z"/></g>
<g><path style="opacity:1" fill="#131313" d="M 295.5,696.5 C 295.5,697.5 295.5,698.5 295.5,699.5C 447.837,700.165 599.837,699.499 751.5,697.5C 752.404,698.209 752.737,699.209 752.5,700.5C 599.5,700.667 446.5,700.5 293.5,700C 294.085,698.698 294.751,697.531 295.5,696.5 Z"/></g>
<g><path style="opacity:1" fill="#c7c7c7" d="M 744.5,722.5 C 744.611,721.883 744.944,721.383 745.5,721C 596.333,720.167 447.333,720.334 298.5,721.5C 297.957,721.44 297.624,721.107 297.5,720.5C 447.165,719.5 596.832,719.167 746.5,719.5C 746.715,721.179 746.048,722.179 744.5,722.5 Z"/></g>
<g><path style="opacity:1" fill="#000000" d="M 298.5,721.5 C 447.333,720.334 596.333,720.167 745.5,721C 744.944,721.383 744.611,721.883 744.5,722.5C 743.883,722.611 743.383,722.944 743,723.5C 742.699,726.974 741.866,730.308 740.5,733.5C 741.709,736.555 741.043,739.222 738.5,741.5C 738.931,742.293 739.265,743.127 739.5,744C 738.35,749.401 737.016,754.734 735.5,760C 736.31,762.783 736.31,765.617 735.5,768.5C 734.503,768.47 733.836,768.97 733.5,770C 734.31,772.783 734.31,775.617 733.5,778.5C 733.5,779.167 733.167,779.5 732.5,779.5C 732.014,781.952 732.014,784.618 732.5,787.5C 593.5,787.5 454.5,787.5 315.5,787.5C 315.737,786.209 315.404,785.209 314.5,784.5C 313.215,781.411 312.549,778.078 312.5,774.5C 312.507,768.521 311.507,762.854 309.5,757.5C 309.5,756.833 309.5,756.167 309.5,755.5C 309.829,752.772 309.163,750.438 307.5,748.5C 306.981,742.056 305.815,735.723 304,729.5C 302.694,726.379 300.86,723.713 298.5,721.5 Z"/></g>
<g><path style="opacity:1" fill="#5c5c5c" d="M 307.5,748.5 C 309.163,750.438 309.829,752.772 309.5,755.5C 308.076,753.485 307.41,751.152 307.5,748.5 Z"/></g>
<g><path style="opacity:1" fill="#ababab" d="M 735.5,768.5 C 735.664,771.187 735.497,773.854 735,776.5C 734.722,777.416 734.222,778.082 733.5,778.5C 734.31,775.617 734.31,772.783 733.5,770C 733.836,768.97 734.503,768.47 735.5,768.5 Z"/></g>
<g><path style="opacity:1" fill="#595959" d="M 309.5,757.5 C 311.507,762.854 312.507,768.521 312.5,774.5C 310.939,769.06 309.939,763.394 309.5,757.5 Z"/></g>
<g><path style="opacity:1" fill="#727272" d="M 732.5,779.5 C 733.657,782.307 733.657,784.974 732.5,787.5C 732.014,784.618 732.014,781.952 732.5,779.5 Z"/></g>
<g><path style="opacity:1" fill="#c3c3c3" d="M 314.5,784.5 C 315.404,785.209 315.737,786.209 315.5,787.5C 454.5,787.5 593.5,787.5 732.5,787.5C 593.334,788.5 454.001,788.833 314.5,788.5C 314.5,787.167 314.5,785.833 314.5,784.5 Z"/></g>
<g><path style="opacity:1" fill="#303030" d="M 732.5,794.5 C 591.126,794.17 449.793,794.503 308.5,795.5C 308.611,794.883 308.944,794.383 309.5,794C 450.667,793.167 591.667,793.334 732.5,794.5 Z"/></g>
<g><path style="opacity:1" fill="#000000" d="M 732.5,794.5 C 736.502,795.702 740.336,797.369 744,799.5C 745.821,804.545 744.654,808.879 740.5,812.5C 739.571,811.311 739.238,809.978 739.5,808.5C 592.83,809.165 446.496,808.498 300.5,806.5C 300.368,803.43 300.701,800.43 301.5,797.5C 303.438,795.837 305.772,795.171 308.5,795.5C 449.793,794.503 591.126,794.17 732.5,794.5 Z"/></g>
<g><path style="opacity:1" fill="#5b5b5b" d="M 301.5,797.5 C 300.701,800.43 300.368,803.43 300.5,806.5C 299.609,805.739 298.942,804.739 298.5,803.5C 298.914,801.081 299.914,799.081 301.5,797.5 Z"/></g>
</svg>
