<?xml version="1.0" encoding="UTF-8"?>
<!DOCTYPE svg PUBLIC "-//W3C//DTD SVG 1.1//EN" "http://www.w3.org/Graphics/SVG/1.1/DTD/svg11.dtd">
<svg xmlns="http://www.w3.org/2000/svg" version="1.1" width="1000px" height="1080px" style="shape-rendering:geometricPrecision; text-rendering:geometricPrecision; image-rendering:optimizeQuality; fill-rule:evenodd; clip-rule:evenodd" xmlns:xlink="http://www.w3.org/1999/xlink">
<g><path style="opacity:0.975" fill="#fdfdfd" d="M 538.5,123.5 C 549.289,124.787 555.789,130.787 558,141.5C 558.818,144.107 559.318,146.774 559.5,149.5C 557.42,162.472 555.754,175.472 554.5,188.5C 554.508,194.784 556.341,200.451 560,205.5C 563.833,209.333 567.667,213.167 571.5,217C 593.658,232.484 614.658,249.484 634.5,268C 670.139,302.639 705.472,337.639 740.5,373C 752.205,383.707 764.205,394.041 776.5,404C 804.435,428.328 807.602,455.495 786,485.5C 771.13,501.369 756.63,517.535 742.5,534C 732.597,541.814 721.93,543.147 710.5,538C 706.5,536 702.5,534 698.5,532C 684.5,522.333 670.5,512.667 656.5,503C 643.898,495.343 630.232,492.176 615.5,493.5C 574.387,501.19 540.554,489.19 514,457.5C 515.664,467.81 519.33,477.477 525,486.5C 532.928,499.359 541.595,511.692 551,523.5C 565.467,539.635 580.3,555.468 595.5,571C 615.333,589.5 635.167,608 655,626.5C 669.284,641.152 678.95,658.485 684,678.5C 686.265,691.981 684.598,704.981 679,717.5C 671.873,733.239 661.706,746.739 648.5,758C 641.5,763.667 634.5,769.333 627.5,775C 632.833,775.333 638.167,775.667 643.5,776C 646.196,776.765 648.696,777.932 651,779.5C 663.302,799.093 677.302,817.426 693,834.5C 695.427,837.975 695.927,841.642 694.5,845.5C 704.995,848.001 710.995,854.667 712.5,865.5C 711.328,872.689 707.995,878.523 702.5,883C 715.774,894.815 715.774,906.482 702.5,918C 715.88,930.447 715.546,942.447 701.5,954C 699.913,954.862 698.246,955.529 696.5,956C 564.167,956.667 431.833,956.667 299.5,956C 289.182,953.38 283.848,946.714 283.5,936C 283.999,928.834 286.999,923.001 292.5,918.5C 280.53,906.703 280.53,894.87 292.5,883C 280.928,871.962 280.594,860.629 291.5,849C 294.309,847.259 297.309,846.092 300.5,845.5C 299.073,841.642 299.573,837.975 302,834.5C 317.197,817.976 330.863,800.309 343,781.5C 345.1,778.533 347.934,776.7 351.5,776C 356.533,775.829 361.533,775.329 366.5,774.5C 359.088,753.665 348.588,734.665 335,717.5C 313.122,693.647 285.955,683.813 253.5,688C 250.506,687.594 248.339,686.094 247,683.5C 244.46,671.98 242.793,660.313 242,648.5C 236.553,595.78 236.22,543.113 241,490.5C 239.833,491.667 238.667,492.833 237.5,494C 224.038,500.897 211.038,508.564 198.5,517C 195.691,518.658 192.691,519.825 189.5,520.5C 184.726,518.947 180.06,517.114 175.5,515C 147.112,500.139 118.445,485.806 89.5,472C 84.6503,462.577 87.4836,456.743 98,454.5C 110.775,454.378 123.775,454.711 137,455.5C 142.446,454.764 147.946,454.097 153.5,453.5C 161.494,454.388 169.994,454.055 179,452.5C 186.015,453.459 193.182,453.459 200.5,452.5C 204.287,453.707 207.954,455.207 211.5,457C 218.833,462.667 226.167,468.333 233.5,474C 237.222,475.1 240.056,477.266 242,480.5C 249.592,418.956 266.426,360.122 292.5,304C 283.901,304.773 275.401,306.273 267,308.5C 266.667,308.167 266.333,307.833 266,307.5C 256.851,309.452 247.684,311.452 238.5,313.5C 236.459,312.764 234.459,311.931 232.5,311C 207.985,285.453 183.819,259.619 160,233.5C 156.375,226.093 158.708,221.426 167,219.5C 200.811,230.993 234.645,242.493 268.5,254C 271.562,255.061 274.062,256.894 276,259.5C 282.579,270.576 289.746,281.242 297.5,291.5C 305.582,276.254 315.416,262.254 327,249.5C 327.939,242.931 331.773,239.431 338.5,239C 366.08,216.184 397.747,207.184 433.5,212C 447.709,210.145 458.876,203.312 467,191.5C 472.063,181.041 477.396,170.708 483,160.5C 489.554,148.279 499.054,139.113 511.5,133C 520.711,130.098 529.711,126.932 538.5,123.5 Z"/></g>
<g><path style="opacity:1" fill="#575757" d="M 535.5,140.5 C 541.128,138.102 543.795,140.102 543.5,146.5C 542.609,144.709 541.609,142.876 540.5,141C 538.866,140.506 537.199,140.34 535.5,140.5 Z"/></g>
<g><path style="opacity:1" fill="#020202" d="M 535.5,140.5 C 537.199,140.34 538.866,140.506 540.5,141C 541.609,142.876 542.609,144.709 543.5,146.5C 542.491,159.057 541.158,171.557 539.5,184C 538.994,193.807 541.161,202.974 546,211.5C 550.467,216.968 555.3,222.135 560.5,227C 570.5,234.333 580.5,241.667 590.5,249C 600.001,257.003 609.334,265.17 618.5,273.5C 619.833,276.833 622.167,279.167 625.5,280.5C 629.5,284.167 633.5,287.833 637.5,291.5C 641.5,297.5 646.5,302.5 652.5,306.5C 674.5,328.167 696.5,349.833 718.5,371.5C 722.5,377.5 727.5,382.5 733.5,386.5C 736.167,388.833 738.833,391.167 741.5,393.5C 742.5,396.5 744.5,398.5 747.5,399.5C 757.425,407.252 766.925,415.586 776,424.5C 784.95,435.981 786.95,448.648 782,462.5C 776.448,474.279 768.948,484.612 759.5,493.5C 753.5,497.5 748.5,502.5 744.5,508.5C 740.402,515.194 735.069,520.694 728.5,525C 724.833,525.667 721.167,525.667 717.5,525C 711.675,522.255 706.008,519.255 700.5,516C 688.444,506.944 676.11,498.278 663.5,490C 647.927,480.765 631.094,476.599 613,477.5C 578.678,485.929 550.012,476.929 527,450.5C 521.667,443.833 516.333,437.167 511,430.5C 504.972,423.686 499.972,424.353 496,432.5C 495.567,455.097 501.234,476.097 513,495.5C 520.608,507.6 528.775,519.266 537.5,530.5C 538.08,532.749 539.413,534.415 541.5,535.5C 545.212,538.211 548.212,541.544 550.5,545.5C 552.094,548.764 554.427,551.431 557.5,553.5C 560.167,555.5 562.5,557.833 564.5,560.5C 566.091,563.431 568.091,566.098 570.5,568.5C 549.341,558.088 528.007,547.921 506.5,538C 491.725,532.89 476.725,528.556 461.5,525C 433.797,519.574 406.464,512.574 379.5,504C 366.725,499.117 355.059,492.451 344.5,484C 334.791,474.083 328.624,462.25 326,448.5C 321.693,415.887 321.36,383.22 325,350.5C 328.194,318.331 333.861,286.664 342,255.5C 366.974,231.123 396.807,221.956 431.5,228C 451.017,225.997 466.517,217.164 478,201.5C 483.447,192.94 488.114,183.94 492,174.5C 497.367,163.804 504.867,154.971 514.5,148C 521.594,145.638 528.594,143.138 535.5,140.5 Z"/></g>
<g><path style="opacity:1" fill="#040404" d="M 190.5,244.5 C 190.56,243.957 190.893,243.624 191.5,243.5C 215.548,251.572 239.548,259.738 263.5,268C 268.253,275.507 273.253,282.84 278.5,290C 265.473,292.67 252.473,295.003 239.5,297C 223.3,279.303 206.967,261.803 190.5,244.5 Z"/></g>
<g><path style="opacity:1" fill="#fafafa" d="M 560.5,267.5 C 572.742,266.035 581.576,270.701 587,281.5C 588.178,296.827 581.012,304.827 565.5,305.5C 552.911,304.892 545.911,298.392 544.5,286C 545.744,276.259 551.077,270.092 560.5,267.5 Z"/></g>
<g><path style="opacity:1" fill="#545454" d="M 618.5,273.5 C 621.167,275.5 623.5,277.833 625.5,280.5C 622.167,279.167 619.833,276.833 618.5,273.5 Z"/></g>
<g><path style="opacity:1" fill="#010101" d="M 617.5,763.5 C 537.874,764.494 458.208,764.828 378.5,764.5C 371.107,745.048 361.107,727.048 348.5,710.5C 344.167,704.167 338.833,698.833 332.5,694.5C 318.453,683.254 302.453,676.254 284.5,673.5C 276.684,672.508 268.684,672.174 260.5,672.5C 260.795,670.265 260.461,668.265 259.5,666.5C 253.52,613.305 252.02,559.972 255,506.5C 259.876,439.997 275.876,376.331 303,315.5C 307.386,305.061 312.553,295.061 318.5,285.5C 318.833,286 319.167,286.5 319.5,287C 310.008,333.375 306.175,380.209 308,427.5C 308.995,447.491 314.328,466.158 324,483.5C 338.996,500.799 357.496,512.966 379.5,520C 411.407,529.649 443.74,537.649 476.5,544C 503.86,552.844 530.193,564.177 555.5,578C 576.833,589.667 598.167,601.333 619.5,613C 635.159,625.986 648.659,640.819 660,657.5C 674.096,682.631 672.43,706.631 655,729.5C 644.176,742.831 631.676,754.165 617.5,763.5 Z"/></g>
<g><path style="opacity:1" fill="#4f4f4f" d="M 637.5,291.5 C 642.833,296.167 647.833,301.167 652.5,306.5C 646.5,302.5 641.5,297.5 637.5,291.5 Z"/></g>
<g><path style="opacity:0.932" fill="#fcfcfc" d="M 107.5,341.5 C 115.145,341.581 123.145,342.248 131.5,343.5C 134.273,342.92 137.107,342.587 140,342.5C 143.333,343.167 146.667,343.833 150,344.5C 152.562,343.913 155.228,343.579 158,343.5C 162.333,344.167 166.667,344.833 171,345.5C 174.933,345.333 178.933,345 183,344.5C 185.333,345.167 187.667,345.833 190,346.5C 198.349,345.938 207.015,345.938 216,346.5C 228.471,354.703 240.138,364.036 251,374.5C 254.211,379.909 253.378,384.743 248.5,389C 231.554,397.608 214.388,405.774 197,413.5C 165.317,395.071 133.817,376.237 102.5,357C 98.2631,349.878 99.9297,344.712 107.5,341.5 Z"/></g>
<g><path style="opacity:1" fill="#7c7c7c" d="M 142.5,359.5 C 140.585,359.216 138.919,359.549 137.5,360.5C 136.711,360.217 136.044,359.717 135.5,359C 138.039,358.204 140.372,358.371 142.5,359.5 Z"/></g>
<g><path style="opacity:1" fill="#050505" d="M 137.5,360.5 C 138.919,359.549 140.585,359.216 142.5,359.5C 166.175,360.429 189.842,361.596 213.5,363C 220.302,367.969 226.635,373.469 232.5,379.5C 221.101,385.282 209.601,390.949 198,396.5C 177.957,384.29 157.79,372.29 137.5,360.5 Z"/></g>
<g><path style="opacity:1" fill="#525252" d="M 718.5,371.5 C 723.833,376.167 728.833,381.167 733.5,386.5C 727.5,382.5 722.5,377.5 718.5,371.5 Z"/></g>
<g><path style="opacity:1" fill="#555555" d="M 741.5,393.5 C 743.833,395.167 745.833,397.167 747.5,399.5C 744.5,398.5 742.5,396.5 741.5,393.5 Z"/></g>
<g><path style="opacity:1" fill="#050505" d="M 125.5,472.5 C 129.5,471.833 133.5,471.167 137.5,470.5C 159.164,469.75 180.83,469.583 202.5,470C 208.655,474.911 214.989,479.577 221.5,484C 210.653,491 199.653,497.833 188.5,504.5C 167.571,493.536 146.571,482.87 125.5,472.5 Z"/></g>
<g><path style="opacity:1" fill="#535353" d="M 137.5,470.5 C 133.5,471.167 129.5,471.833 125.5,472.5C 124.527,472.013 123.527,471.513 122.5,471C 127.489,470.501 132.489,470.334 137.5,470.5 Z"/></g>
<g><path style="opacity:1" fill="#545454" d="M 759.5,493.5 C 754.833,498.833 749.833,503.833 744.5,508.5C 748.5,502.5 753.5,497.5 759.5,493.5 Z"/></g>
<g><path style="opacity:1" fill="#525252" d="M 537.5,530.5 C 539.587,531.585 540.92,533.251 541.5,535.5C 539.413,534.415 538.08,532.749 537.5,530.5 Z"/></g>
<g><path style="opacity:1" fill="#575757" d="M 550.5,545.5 C 553.573,547.569 555.906,550.236 557.5,553.5C 554.427,551.431 552.094,548.764 550.5,545.5 Z"/></g>
<g><path style="opacity:1" fill="#484848" d="M 564.5,560.5 C 568.298,563.796 571.964,567.296 575.5,571C 573.332,571.249 571.665,570.416 570.5,568.5C 568.091,566.098 566.091,563.431 564.5,560.5 Z"/></g>
<g><path style="opacity:1" fill="#b7b7b7" d="M 259.5,666.5 C 260.461,668.265 260.795,670.265 260.5,672.5C 268.684,672.174 276.684,672.508 284.5,673.5C 276.167,673.5 267.833,673.5 259.5,673.5C 259.5,671.167 259.5,668.833 259.5,666.5 Z"/></g>
<g><path style="opacity:1" fill="#5b5b5b" d="M 332.5,694.5 C 338.833,698.833 344.167,704.167 348.5,710.5C 342.833,705.5 337.5,700.167 332.5,694.5 Z"/></g>
<g><path style="opacity:1" fill="#545454" d="M 617.5,763.5 C 617.389,764.117 617.056,764.617 616.5,765C 536.999,765.832 457.666,765.666 378.5,764.5C 458.208,764.828 537.874,764.494 617.5,763.5 Z"/></g>
<g><path style="opacity:1" fill="#010101" d="M 669.5,830.5 C 669.414,831.496 669.748,832.329 670.5,833C 554.666,833.833 438.999,833.666 323.5,832.5C 334.419,819.519 344.752,806.019 354.5,792C 450.168,791.167 545.835,791.333 641.5,792.5C 650.472,805.466 659.805,818.133 669.5,830.5 Z"/></g>
<g><path style="opacity:1" fill="#757575" d="M 669.5,830.5 C 670.962,831.458 672.295,832.624 673.5,834C 556.499,834.833 439.499,834.667 322.5,833.5C 322.624,832.893 322.957,832.56 323.5,832.5C 438.999,833.666 554.666,833.833 670.5,833C 669.748,832.329 669.414,831.496 669.5,830.5 Z"/></g>
<g><path style="opacity:1" fill="#0f0f0f" d="M 300.5,860.5 C 431.834,860.333 563.167,860.5 694.5,861C 697.343,864.619 697.01,867.952 693.5,871C 562.833,871.667 432.167,871.667 301.5,871C 297.935,867.784 297.602,864.284 300.5,860.5 Z"/></g>
<g><path style="opacity:1" fill="#0c0c0c" d="M 300.5,895.5 C 431.834,895.333 563.167,895.5 694.5,896C 696.478,898.497 696.978,901.331 696,904.5C 695.25,905.126 694.416,905.626 693.5,906C 562.833,906.667 432.167,906.667 301.5,906C 297.945,902.828 297.611,899.328 300.5,895.5 Z"/></g>
<g><path style="opacity:1" fill="#010101" d="M 696.5,936.5 C 695.636,937.688 694.636,938.855 693.5,940C 562.834,940.5 432.167,940.667 301.5,940.5C 299.265,939.714 298.265,938.048 298.5,935.5C 298.39,933.626 299.056,932.126 300.5,931C 431.833,930.333 563.167,930.333 694.5,931C 696.155,932.444 696.822,934.278 696.5,936.5 Z"/></g>
<g><path style="opacity:1" fill="#444444" d="M 696.5,936.5 C 696.703,938.39 696.037,939.89 694.5,941C 563.333,941.833 432.333,941.666 301.5,940.5C 432.167,940.667 562.834,940.5 693.5,940C 694.636,938.855 695.636,937.688 696.5,936.5 Z"/></g>
</svg>
