<?xml version="1.0" encoding="UTF-8"?>
<!DOCTYPE svg PUBLIC "-//W3C//DTD SVG 1.1//EN" "http://www.w3.org/Graphics/SVG/1.1/DTD/svg11.dtd">
<svg xmlns="http://www.w3.org/2000/svg" version="1.1" width="1000px" height="1080px" style="shape-rendering:geometricPrecision; text-rendering:geometricPrecision; image-rendering:optimizeQuality; fill-rule:evenodd; clip-rule:evenodd" xmlns:xlink="http://www.w3.org/1999/xlink">
<g><path style="opacity:0.975" fill="#020202" d="M 538.5,123.5 C 549.289,124.787 555.789,130.787 558,141.5C 558.818,144.107 559.318,146.774 559.5,149.5C 557.42,162.472 555.754,175.472 554.5,188.5C 554.508,194.784 556.341,200.451 560,205.5C 563.833,209.333 567.667,213.167 571.5,217C 593.658,232.484 614.658,249.484 634.5,268C 670.139,302.639 705.472,337.639 740.5,373C 752.205,383.707 764.205,394.041 776.5,404C 804.435,428.328 807.602,455.495 786,485.5C 771.13,501.369 756.63,517.535 742.5,534C 732.597,541.814 721.93,543.147 710.5,538C 706.5,536 702.5,534 698.5,532C 684.5,522.333 670.5,512.667 656.5,503C 643.898,495.343 630.232,492.176 615.5,493.5C 574.387,501.19 540.554,489.19 514,457.5C 515.664,467.81 519.33,477.477 525,486.5C 532.928,499.359 541.595,511.692 551,523.5C 565.467,539.635 580.3,555.468 595.5,571C 615.333,589.5 635.167,608 655,626.5C 669.284,641.152 678.95,658.485 684,678.5C 686.265,691.981 684.598,704.981 679,717.5C 671.873,733.239 661.706,746.739 648.5,758C 641.5,763.667 634.5,769.333 627.5,775C 632.833,775.333 638.167,775.667 643.5,776C 646.196,776.765 648.696,777.932 651,779.5C 663.302,799.093 677.302,817.426 693,834.5C 695.427,837.975 695.927,841.642 694.5,845.5C 704.995,848.001 710.995,854.667 712.5,865.5C 711.328,872.689 707.995,878.523 702.5,883C 715.774,894.815 715.774,906.482 702.5,918C 715.88,930.447 715.546,942.447 701.5,954C 699.913,954.862 698.246,955.529 696.5,956C 564.167,956.667 431.833,956.667 299.5,956C 289.182,953.38 283.848,946.714 283.5,936C 283.999,928.834 286.999,923.001 292.5,918.5C 280.53,906.703 280.53,894.87 292.5,883C 280.928,871.962 280.594,860.629 291.5,849C 294.309,847.259 297.309,846.092 300.5,845.5C 299.073,841.642 299.573,837.975 302,834.5C 317.197,817.976 330.863,800.309 343,781.5C 345.1,778.533 347.934,776.7 351.5,776C 356.533,775.829 361.533,775.329 366.5,774.5C 359.088,753.665 348.588,734.665 335,717.5C 313.122,693.647 285.955,683.813 253.5,688C 250.506,687.594 248.339,686.094 247,683.5C 244.46,671.98 242.793,660.313 242,648.5C 236.553,595.78 236.22,543.113 241,490.5C 239.833,491.667 238.667,492.833 237.5,494C 224.038,500.897 211.038,508.564 198.5,517C 195.691,518.658 192.691,519.825 189.5,520.5C 184.726,518.947 180.06,517.114 175.5,515C 147.112,500.139 118.445,485.806 89.5,472C 84.6503,462.577 87.4836,456.743 98,454.5C 110.775,454.378 123.775,454.711 137,455.5C 142.446,454.764 147.946,454.097 153.5,453.5C 161.494,454.388 169.994,454.055 179,452.5C 186.015,453.459 193.182,453.459 200.5,452.5C 204.287,453.707 207.954,455.207 211.5,457C 218.833,462.667 226.167,468.333 233.5,474C 237.222,475.1 240.056,477.266 242,480.5C 249.592,418.956 266.426,360.122 292.5,304C 283.901,304.773 275.401,306.273 267,308.5C 266.667,308.167 266.333,307.833 266,307.5C 256.851,309.452 247.684,311.452 238.5,313.5C 236.459,312.764 234.459,311.931 232.5,311C 207.985,285.453 183.819,259.619 160,233.5C 156.375,226.093 158.708,221.426 167,219.5C 200.811,230.993 234.645,242.493 268.5,254C 271.562,255.061 274.062,256.894 276,259.5C 282.579,270.576 289.746,281.242 297.5,291.5C 305.582,276.254 315.416,262.254 327,249.5C 327.939,242.931 331.773,239.431 338.5,239C 366.08,216.184 397.747,207.184 433.5,212C 447.709,210.145 458.876,203.312 467,191.5C 472.063,181.041 477.396,170.708 483,160.5C 489.554,148.279 499.054,139.113 511.5,133C 520.711,130.098 529.711,126.932 538.5,123.5 Z"/></g>
<g><path style="opacity:1" fill="#fdfdfd" d="M 634.5,288.5 C 639.5,295.5 645.5,301.5 652.5,306.5C 674.527,328.194 696.527,349.861 718.5,371.5C 722.5,377.5 727.5,382.5 733.5,386.5C 747.796,398.959 761.962,411.626 776,424.5C 786.899,440.153 787.232,456.153 777,472.5C 770.048,482.284 762.214,491.284 753.5,499.5C 749.5,501.5 746.5,504.5 744.5,508.5C 740.402,515.194 735.069,520.694 728.5,525C 724.833,525.667 721.167,525.667 717.5,525C 712.608,523.106 707.941,520.772 703.5,518C 690.167,508.667 676.833,499.333 663.5,490C 656.608,486.326 649.608,483.159 642.5,480.5C 639.781,479.087 636.781,478.42 633.5,478.5C 617.322,477.383 601.155,477.717 585,479.5C 567.226,479.577 551.726,473.744 538.5,462C 527.424,450.928 517.09,439.261 507.5,427C 503.445,425.123 499.945,425.956 497,429.5C 494.946,443.866 496.613,457.866 502,471.5C 510.624,492.762 522.291,512.095 537,529.5C 548.337,542.336 559.837,555.003 571.5,567.5C 571.5,568.167 571.5,568.833 571.5,569.5C 550.073,558.453 528.407,547.953 506.5,538C 499.489,535.663 492.489,533.33 485.5,531C 460.812,525.462 436.145,519.795 411.5,514C 390.942,509.262 371.608,501.595 353.5,491C 338.472,481.127 329.306,467.294 326,449.5C 323.057,432.971 321.89,416.304 322.5,399.5C 323.07,350.679 329.57,302.679 342,255.5C 368.605,230.689 400.105,221.189 436.5,227C 453.924,224.223 467.758,215.723 478,201.5C 483.985,190.198 489.985,178.865 496,167.5C 501.611,157.223 509.778,149.723 520.5,145C 522.833,144.667 525.167,144.333 527.5,144C 530.929,141.953 534.596,140.453 538.5,139.5C 539.772,139.57 540.938,139.903 542,140.5C 543.057,143.207 543.557,146.04 543.5,149C 542.457,158.846 541.29,168.679 540,178.5C 537.318,198.124 543.818,213.958 559.5,226C 586.126,244.784 611.126,265.618 634.5,288.5 Z"/></g>
<g><path style="opacity:1" fill="#fbfbfb" d="M 190.5,244.5 C 190.735,243.903 191.235,243.57 192,243.5C 215.833,251.667 239.667,259.833 263.5,268C 268.253,275.507 273.253,282.84 278.5,290C 265.508,292.867 252.508,295.2 239.5,297C 223.3,279.303 206.967,261.803 190.5,244.5 Z"/></g>
<g><path style="opacity:1" fill="#050505" d="M 560.5,267.5 C 571.736,266.038 580.236,270.038 586,279.5C 589.08,290.93 585.247,299.097 574.5,304C 562.184,307.787 552.684,304.287 546,293.5C 543.017,285.659 544.517,278.826 550.5,273C 553.767,270.87 557.1,269.037 560.5,267.5 Z"/></g>
<g><path style="opacity:1" fill="#fdfdfd" d="M 617.5,763.5 C 537.874,764.494 458.208,764.828 378.5,764.5C 371.133,745.104 361.133,727.104 348.5,710.5C 344.167,704.167 338.833,698.833 332.5,694.5C 310.969,678.327 286.636,670.993 259.5,672.5C 255.792,635.261 253.792,597.927 253.5,560.5C 251.918,475.912 268.084,394.912 302,317.5C 307.219,305.395 313.219,293.728 320,282.5C 316.079,304.679 312.746,327.012 310,349.5C 307.142,379.137 306.809,408.804 309,438.5C 312.037,474.113 329.871,498.946 362.5,513C 375.57,518.468 388.903,523.134 402.5,527C 428.484,532.996 454.484,538.996 480.5,545C 508.551,554.523 535.551,566.523 561.5,581C 580.833,591.667 600.167,602.333 619.5,613C 635.159,625.986 648.659,640.819 660,657.5C 674.012,682.605 672.345,706.605 655,729.5C 644.176,742.831 631.676,754.165 617.5,763.5 Z"/></g>
<g><path style="opacity:1" fill="#a8a8a8" d="M 634.5,288.5 C 640.833,294.167 646.833,300.167 652.5,306.5C 645.5,301.5 639.5,295.5 634.5,288.5 Z"/></g>
<g><path style="opacity:0.932" fill="#020202" d="M 107.5,341.5 C 115.145,341.581 123.145,342.248 131.5,343.5C 134.273,342.92 137.107,342.587 140,342.5C 143.333,343.167 146.667,343.833 150,344.5C 152.562,343.913 155.228,343.579 158,343.5C 162.333,344.167 166.667,344.833 171,345.5C 174.933,345.333 178.933,345 183,344.5C 185.333,345.167 187.667,345.833 190,346.5C 198.349,345.938 207.015,345.938 216,346.5C 228.471,354.703 240.138,364.036 251,374.5C 254.211,379.909 253.378,384.743 248.5,389C 231.554,397.608 214.388,405.774 197,413.5C 165.317,395.071 133.817,376.237 102.5,357C 98.2631,349.878 99.9297,344.712 107.5,341.5 Z"/></g>
<g><path style="opacity:1" fill="#828282" d="M 142.5,359.5 C 140.585,359.216 138.919,359.549 137.5,360.5C 136.711,360.217 136.044,359.717 135.5,359C 138.039,358.204 140.372,358.371 142.5,359.5 Z"/></g>
<g><path style="opacity:1" fill="#f9f9f9" d="M 137.5,360.5 C 138.919,359.549 140.585,359.216 142.5,359.5C 166.179,360.405 189.846,361.572 213.5,363C 219.645,367.644 225.645,372.477 231.5,377.5C 232.386,378.325 232.719,379.325 232.5,380.5C 220.931,385.539 209.431,390.873 198,396.5C 177.739,384.621 157.573,372.621 137.5,360.5 Z"/></g>
<g><path style="opacity:1" fill="#aaaaaa" d="M 718.5,371.5 C 723.833,376.167 728.833,381.167 733.5,386.5C 727.5,382.5 722.5,377.5 718.5,371.5 Z"/></g>
<g><path style="opacity:1" fill="#f9f9f9" d="M 125.5,472.5 C 129.5,471.833 133.5,471.167 137.5,470.5C 159.164,469.75 180.83,469.583 202.5,470C 209.011,474.423 215.345,479.089 221.5,484C 210.653,491 199.653,497.833 188.5,504.5C 167.692,493.595 146.692,482.929 125.5,472.5 Z"/></g>
<g><path style="opacity:1" fill="#aaaaaa" d="M 137.5,470.5 C 133.5,471.167 129.5,471.833 125.5,472.5C 124.527,472.013 123.527,471.513 122.5,471C 127.489,470.501 132.489,470.334 137.5,470.5 Z"/></g>
<g><path style="opacity:1" fill="#9c9c9c" d="M 633.5,478.5 C 636.781,478.42 639.781,479.087 642.5,480.5C 639.219,480.58 636.219,479.913 633.5,478.5 Z"/></g>
<g><path style="opacity:1" fill="#a9a9a9" d="M 753.5,499.5 C 750.833,502.833 747.833,505.833 744.5,508.5C 746.5,504.5 749.5,501.5 753.5,499.5 Z"/></g>
<g><path style="opacity:1" fill="#9d9d9d" d="M 571.5,567.5 C 572.962,568.458 574.295,569.624 575.5,571C 573.86,571.348 572.527,570.848 571.5,569.5C 571.5,568.833 571.5,568.167 571.5,567.5 Z"/></g>
<g><path style="opacity:1" fill="#a0a0a0" d="M 332.5,694.5 C 338.833,698.833 344.167,704.167 348.5,710.5C 342.833,705.5 337.5,700.167 332.5,694.5 Z"/></g>
<g><path style="opacity:1" fill="#aaaaaa" d="M 617.5,763.5 C 617.389,764.117 617.056,764.617 616.5,765C 536.999,765.832 457.666,765.666 378.5,764.5C 458.208,764.828 537.874,764.494 617.5,763.5 Z"/></g>
<g><path style="opacity:1" fill="#fdfdfd" d="M 669.5,830.5 C 669.414,831.496 669.748,832.329 670.5,833C 555.167,833.667 439.833,833.667 324.5,833C 325.823,832.184 326.489,831.017 326.5,829.5C 335.862,817.465 344.862,805.132 353.5,792.5C 449.5,791.167 545.5,791.167 641.5,792.5C 650.472,805.466 659.805,818.133 669.5,830.5 Z"/></g>
<g><path style="opacity:1" fill="#898989" d="M 326.5,829.5 C 326.489,831.017 325.823,832.184 324.5,833C 439.833,833.667 555.167,833.667 670.5,833C 669.748,832.329 669.414,831.496 669.5,830.5C 670.962,831.458 672.295,832.624 673.5,834C 556.499,834.833 439.499,834.667 322.5,833.5C 323.521,831.812 324.855,830.479 326.5,829.5 Z"/></g>
<g><path style="opacity:1" fill="#f3f3f3" d="M 300.5,860.5 C 431.834,860.333 563.167,860.5 694.5,861C 697.333,864.663 697,867.996 693.5,871C 562.833,871.667 432.167,871.667 301.5,871C 297.945,867.828 297.611,864.328 300.5,860.5 Z"/></g>
<g><path style="opacity:1" fill="#f5f5f5" d="M 300.5,895.5 C 431.834,895.333 563.167,895.5 694.5,896C 696.478,898.497 696.978,901.331 696,904.5C 695.25,905.126 694.416,905.626 693.5,906C 562.833,906.667 432.167,906.667 301.5,906C 297.945,902.828 297.611,899.328 300.5,895.5 Z"/></g>
<g><path style="opacity:1" fill="#fdfdfd" d="M 696.5,936.5 C 695.636,937.688 694.636,938.855 693.5,940C 562.834,940.5 432.167,940.667 301.5,940.5C 299.265,939.714 298.265,938.048 298.5,935.5C 298.39,933.626 299.056,932.126 300.5,931C 431.833,930.333 563.167,930.333 694.5,931C 696.155,932.444 696.822,934.278 696.5,936.5 Z"/></g>
<g><path style="opacity:1" fill="#bababa" d="M 696.5,936.5 C 696.703,938.39 696.037,939.89 694.5,941C 563.333,941.833 432.333,941.666 301.5,940.5C 432.167,940.667 562.834,940.5 693.5,940C 694.636,938.855 695.636,937.688 696.5,936.5 Z"/></g>
</svg>
