<?xml version="1.0" encoding="UTF-8"?>
<!DOCTYPE svg PUBLIC "-//W3C//DTD SVG 1.1//EN" "http://www.w3.org/Graphics/SVG/1.1/DTD/svg11.dtd">
<svg xmlns="http://www.w3.org/2000/svg" version="1.1" width="1000px" height="1080px" style="shape-rendering:geometricPrecision; text-rendering:geometricPrecision; image-rendering:optimizeQuality; fill-rule:evenodd; clip-rule:evenodd" xmlns:xlink="http://www.w3.org/1999/xlink">
<g><path style="opacity:0.944" fill="#000000" d="M 206.5,81.5 C 269.833,81.5 333.167,81.5 396.5,81.5C 396.5,117.167 396.5,152.833 396.5,188.5C 412.833,188.5 429.167,188.5 445.5,188.5C 445.5,152.833 445.5,117.167 445.5,81.5C 490.167,81.5 534.833,81.5 579.5,81.5C 579.5,117.167 579.5,152.833 579.5,188.5C 593.5,188.5 607.5,188.5 621.5,188.5C 621.5,153.167 621.5,117.833 621.5,82.5C 688.833,82.5 756.167,82.5 823.5,82.5C 823.5,137.5 823.5,192.5 823.5,247.5C 824.833,247.5 826.167,247.5 827.5,247.5C 827.5,294.833 827.5,342.167 827.5,389.5C 826.167,389.5 824.833,389.5 823.5,389.5C 822.873,394.141 822.54,398.807 822.5,403.5C 821.167,403.5 819.833,403.5 818.5,403.5C 818.5,406.5 818.5,409.5 818.5,412.5C 816.833,412.5 815.167,412.5 813.5,412.5C 813.5,415.5 813.5,418.5 813.5,421.5C 809.5,420.833 807.833,422.5 808.5,426.5C 805.05,425.756 803.384,427.09 803.5,430.5C 799.5,429.833 797.833,431.5 798.5,435.5C 796.473,435.338 794.473,435.505 792.5,436C 791.62,437.356 791.286,438.856 791.5,440.5C 789.5,440.5 787.5,440.5 785.5,440.5C 785.5,441.833 785.5,443.167 785.5,444.5C 781.507,444 779.84,445.5 780.5,449C 778.167,449.333 775.833,449.667 773.5,450C 772.167,451 772.167,452 773.5,453C 771.423,453.192 769.423,453.692 767.5,454.5C 766.289,455.72 766.289,456.887 767.5,458C 765.833,458.333 764.167,458.667 762.5,459C 761.663,460.011 761.33,461.178 761.5,462.5C 759.194,462.993 756.861,463.326 754.5,463.5C 754.5,464.833 754.5,466.167 754.5,467.5C 750.062,466.425 748.062,468.092 748.5,472.5C 746.833,472.5 745.167,472.5 743.5,472.5C 743.5,473.833 743.5,475.167 743.5,476.5C 739.164,475.576 736.664,477.243 736,481.5C 735.333,490.5 735.333,499.5 736,508.5C 736.833,509.5 737.667,510.5 738.5,511.5C 739.086,511.291 739.586,510.957 740,510.5C 740.333,523.833 740.667,537.167 741,550.5C 741.667,551.833 742.333,553.167 743,554.5C 743.333,553.833 743.667,553.167 744,552.5C 744.333,565.167 744.667,577.833 745,590.5C 745.923,591.759 746.757,593.092 747.5,594.5C 748.192,593.975 748.692,593.308 749,592.5C 749.333,605.833 749.667,619.167 750,632.5C 751.044,633.623 751.71,634.956 752,636.5C 752.414,636.043 752.914,635.709 753.5,635.5C 753.884,642.585 754.884,649.418 756.5,656C 756.043,656.414 755.709,656.914 755.5,657.5C 756.274,658.711 757.107,658.711 758,657.5C 758.497,659.81 758.663,662.143 758.5,664.5C 763.407,664.533 764.74,666.866 762.5,671.5C 763.655,672.95 765.155,673.95 767,674.5C 767.498,677.482 767.665,680.482 767.5,683.5C 769.167,683.5 770.833,683.5 772.5,683.5C 772.5,686.5 772.5,689.5 772.5,692.5C 773.833,692.5 775.167,692.5 776.5,692.5C 777.235,695.272 777.401,697.939 777,700.5C 778.356,701.38 779.856,701.714 781.5,701.5C 781.336,704.187 781.503,706.854 782,709.5C 783.399,710.227 784.899,710.727 786.5,711C 786.377,713.211 786.377,715.378 786.5,717.5C 787.289,719.488 788.455,719.821 790,718.5C 790.495,720.473 790.662,722.473 790.5,724.5C 792.144,724.286 793.644,724.62 795,725.5C 795.497,728.146 795.664,730.813 795.5,733.5C 796.833,733.5 798.167,733.5 799.5,733.5C 799.5,736.5 799.5,739.5 799.5,742.5C 801.167,742.5 802.833,742.5 804.5,742.5C 804.5,745.5 804.5,748.5 804.5,751.5C 805.978,751.238 807.311,751.571 808.5,752.5C 809.335,755.14 809.502,757.807 809,760.5C 810.356,761.38 811.856,761.714 813.5,761.5C 814.144,764.316 814.477,766.982 814.5,769.5C 815.651,770.731 816.817,770.731 818,769.5C 818.498,772.817 818.665,776.15 818.5,779.5C 819.833,779.5 821.167,779.5 822.5,779.5C 822.5,784.167 822.5,788.833 822.5,793.5C 824.167,793.5 825.833,793.5 827.5,793.5C 827.5,836.167 827.5,878.833 827.5,921.5C 826.167,921.5 824.833,921.5 823.5,921.5C 822.771,926.13 822.437,930.797 822.5,935.5C 820.654,935.222 819.32,935.889 818.5,937.5C 818.838,939.655 818.838,941.989 818.5,944.5C 816.856,944.286 815.356,944.62 814,945.5C 813.503,948.146 813.336,950.813 813.5,953.5C 811.833,953.5 810.167,953.5 808.5,953.5C 809.167,957.5 807.5,959.167 803.5,958.5C 803.5,959.833 803.5,961.167 803.5,962.5C 799.324,961.831 797.991,963.331 799.5,967C 797.5,967.333 795.5,967.667 793.5,968C 792.663,969.011 792.33,970.178 792.5,971.5C 790.143,971.337 787.81,971.503 785.5,972C 784.167,973.333 784.167,974.667 785.5,976C 781.833,976.333 778.167,976.667 774.5,977C 773.663,978.011 773.33,979.178 773.5,980.5C 600.167,980.5 426.833,980.5 253.5,980.5C 253.67,979.178 253.337,978.011 252.5,977C 248.833,976.667 245.167,976.333 241.5,976C 242.833,974.667 242.833,973.333 241.5,972C 239.19,971.503 236.857,971.337 234.5,971.5C 234.67,970.178 234.337,969.011 233.5,968C 231.5,967.667 229.5,967.333 227.5,967C 229.009,963.331 227.676,961.831 223.5,962.5C 223.5,961.167 223.5,959.833 223.5,958.5C 219.5,959.167 217.833,957.5 218.5,953.5C 216.833,953.5 215.167,953.5 213.5,953.5C 213.664,950.813 213.497,948.146 213,945.5C 211.644,944.62 210.144,944.286 208.5,944.5C 208.599,941.327 207.932,938.327 206.5,935.5C 205.914,935.709 205.414,936.043 205,936.5C 204.811,931.749 204.145,927.083 203,922.5C 201.605,921.185 200.605,921.519 200,923.5C 199.5,880.168 199.333,836.835 199.5,793.5C 201.144,793.714 202.644,793.38 204,792.5C 204.499,788.179 204.666,783.846 204.5,779.5C 205.833,779.5 207.167,779.5 208.5,779.5C 208.335,775.818 208.501,772.152 209,768.5C 209.853,770.125 210.853,770.458 212,769.5C 212.822,766.883 213.322,764.216 213.5,761.5C 215.144,761.714 216.644,761.38 218,760.5C 217.187,757.5 217.353,754.5 218.5,751.5C 219.833,751.5 221.167,751.5 222.5,751.5C 222.5,748.5 222.5,745.5 222.5,742.5C 224.167,742.5 225.833,742.5 227.5,742.5C 227.5,739.5 227.5,736.5 227.5,733.5C 228.833,733.5 230.167,733.5 231.5,733.5C 231.5,731.5 231.5,729.5 231.5,727.5C 232.5,727.5 233.5,727.5 234.5,727.5C 235.64,724.975 236.307,722.308 236.5,719.5C 237.822,719.67 238.989,719.337 240,718.5C 240.311,716.444 240.811,714.444 241.5,712.5C 241.291,711.914 240.957,711.414 240.5,711C 242.101,710.727 243.601,710.227 245,709.5C 245.497,706.854 245.664,704.187 245.5,701.5C 247.144,701.714 248.644,701.38 250,700.5C 249.599,697.939 249.765,695.272 250.5,692.5C 251.833,692.5 253.167,692.5 254.5,692.5C 254.5,689.5 254.5,686.5 254.5,683.5C 256.167,683.5 257.833,683.5 259.5,683.5C 259.335,680.482 259.502,677.482 260,674.5C 261.356,673.62 262.856,673.286 264.5,673.5C 263.737,670.859 263.57,668.192 264,665.5C 265.356,664.62 266.856,664.286 268.5,664.5C 268.336,661.813 268.503,659.146 269,656.5C 270.011,655.663 271.178,655.33 272.5,655.5C 272.334,648.825 272.5,642.158 273,635.5C 273.7,633.968 274.866,632.968 276.5,632.5C 277.333,619.179 277.833,605.846 278,592.5C 279.333,591.833 280.667,591.167 282,590.5C 282.5,577.171 282.667,563.837 282.5,550.5C 283.833,550.5 285.167,550.5 286.5,550.5C 286.5,536.833 286.5,523.167 286.5,509.5C 288.144,509.714 289.644,509.38 291,508.5C 291.667,499.5 291.667,490.5 291,481.5C 290.336,477.243 287.836,475.576 283.5,476.5C 283.5,475.167 283.5,473.833 283.5,472.5C 281.473,472.662 279.473,472.495 277.5,472C 278.833,470.667 278.833,469.333 277.5,468C 275.5,467.667 273.5,467.333 271.5,467C 272.833,466 272.833,465 271.5,464C 269.564,463.187 267.564,462.687 265.5,462.5C 265.67,461.178 265.337,460.011 264.5,459C 262.744,458.798 261.078,458.298 259.5,457.5C 260.833,456.5 260.833,455.5 259.5,454.5C 257.577,453.692 255.577,453.192 253.5,453C 254.833,452 254.833,451 253.5,450C 251.167,449.667 248.833,449.333 246.5,449C 247.16,445.5 245.493,444 241.5,444.5C 241.5,443.167 241.5,441.833 241.5,440.5C 239.5,440.5 237.5,440.5 235.5,440.5C 235.714,438.856 235.38,437.356 234.5,436C 232.527,435.505 230.527,435.338 228.5,435.5C 229.167,431.5 227.5,429.833 223.5,430.5C 223.616,427.09 221.95,425.756 218.5,426.5C 219.167,422.5 217.5,420.833 213.5,421.5C 213.5,418.5 213.5,415.5 213.5,412.5C 211.833,412.5 210.167,412.5 208.5,412.5C 208.5,409.5 208.5,406.5 208.5,403.5C 207.167,403.5 205.833,403.5 204.5,403.5C 204.46,398.807 204.127,394.141 203.5,389.5C 202.178,389.33 201.011,389.663 200,390.5C 199.333,342.167 199.333,293.833 200,245.5C 200.605,247.481 201.605,247.815 203,246.5C 204.145,241.917 204.811,237.251 205,232.5C 205.333,232.833 205.667,233.167 206,233.5C 206.5,182.834 206.667,132.168 206.5,81.5 Z"/></g>
<g><path style="opacity:1" fill="#7a7a7a" d="M 267.5,101.5 C 254.344,102.496 241.01,102.829 227.5,102.5C 227.5,114.5 227.5,126.5 227.5,138.5C 226.505,126.345 226.171,114.011 226.5,101.5C 240.167,101.5 253.833,101.5 267.5,101.5 Z"/></g>
<g><path style="opacity:1" fill="#fefefe" d="M 267.5,101.5 C 287.833,101.5 308.167,101.5 328.5,101.5C 343.991,102.496 359.658,102.83 375.5,102.5C 375.171,116.01 375.504,129.344 376.5,142.5C 376.088,159.875 376.588,177.209 378,194.5C 380.167,200.667 384.333,204.833 390.5,207C 410.803,209.872 431.136,209.872 451.5,207C 457.667,204.833 461.833,200.667 464,194.5C 465.277,171.864 466.111,149.197 466.5,126.5C 466.5,118.5 466.5,110.5 466.5,102.5C 473.687,102.825 480.687,102.491 487.5,101.5C 504.5,101.5 521.5,101.5 538.5,101.5C 544.979,102.491 551.646,102.824 558.5,102.5C 558.171,116.01 558.504,129.344 559.5,142.5C 559.088,159.875 559.588,177.209 561,194.5C 563.167,200.667 567.333,204.833 573.5,207C 591.507,210.201 609.507,210.201 627.5,207C 633.667,204.833 637.833,200.667 640,194.5C 641.869,171.217 642.702,147.883 642.5,124.5C 642.5,117.5 642.5,110.5 642.5,103.5C 656.677,103.829 670.677,103.496 684.5,102.5C 706.833,102.5 729.167,102.5 751.5,102.5C 768.325,103.497 785.325,103.83 802.5,103.5C 802.169,128.006 802.502,152.339 803.5,176.5C 803.333,200.169 803.5,223.836 804,247.5C 804.154,251.098 805.154,254.431 807,257.5C 807.167,270.167 807.333,282.833 807.5,295.5C 807.394,326.855 806.727,352.855 805.5,373.5C 610.5,373.5 415.5,373.5 220.5,373.5C 219.804,334.834 219.637,296.168 220,257.5C 223.266,249.845 225.266,241.845 226,233.5C 226.767,201.837 227.267,170.17 227.5,138.5C 227.5,126.5 227.5,114.5 227.5,102.5C 241.01,102.829 254.344,102.496 267.5,101.5 Z"/></g>
<g><path style="opacity:1" fill="#676767" d="M 328.5,101.5 C 344.5,101.5 360.5,101.5 376.5,101.5C 376.5,115.167 376.5,128.833 376.5,142.5C 375.504,129.344 375.171,116.01 375.5,102.5C 359.658,102.83 343.991,102.496 328.5,101.5 Z"/></g>
<g><path style="opacity:1" fill="#676767" d="M 684.5,102.5 C 670.677,103.496 656.677,103.829 642.5,103.5C 642.5,110.5 642.5,117.5 642.5,124.5C 641.508,117.352 641.175,110.019 641.5,102.5C 655.833,102.5 670.167,102.5 684.5,102.5 Z"/></g>
<g><path style="opacity:1" fill="#545454" d="M 751.5,102.5 C 768.833,102.5 786.167,102.5 803.5,102.5C 803.5,127.167 803.5,151.833 803.5,176.5C 802.502,152.339 802.169,128.006 802.5,103.5C 785.325,103.83 768.325,103.497 751.5,102.5 Z"/></g>
<g><path style="opacity:1" fill="#6e6e6e" d="M 487.5,101.5 C 480.687,102.491 473.687,102.825 466.5,102.5C 466.5,110.5 466.5,118.5 466.5,126.5C 465.507,118.35 465.174,110.017 465.5,101.5C 472.833,101.5 480.167,101.5 487.5,101.5 Z"/></g>
<g><path style="opacity:1" fill="#606060" d="M 538.5,101.5 C 545.5,101.5 552.5,101.5 559.5,101.5C 559.5,115.167 559.5,128.833 559.5,142.5C 558.504,129.344 558.171,116.01 558.5,102.5C 551.646,102.824 544.979,102.491 538.5,101.5 Z"/></g>
<g><path style="opacity:1" fill="#fefefe" d="M 230.5,404.5 C 419,403.334 607.666,403.167 796.5,404C 794.593,407.91 791.927,411.244 788.5,414C 772.5,426 756.5,438 740.5,450C 589.167,450.667 437.833,450.667 286.5,450C 270.5,438 254.5,426 238.5,414C 235.217,411.228 232.55,408.061 230.5,404.5 Z"/></g>
<g><path style="opacity:1" fill="#fefefe" d="M 304.5,464.5 C 443.666,463.334 582.999,463.167 722.5,464C 720.014,467.137 718.181,470.637 717,474.5C 713.667,488.167 713.667,501.833 717,515.5C 717.748,517.332 718.748,518.999 720,520.5C 720.333,530.833 720.667,541.167 721,551.5C 721.054,554.861 722.054,557.861 724,560.5C 724.13,572.874 724.797,585.208 726,597.5C 726.748,599.332 727.748,600.999 729,602.5C 729.333,612.833 729.667,623.167 730,633.5C 730.188,637.877 731.521,641.877 734,645.5C 734.403,650.867 735.07,656.201 736,661.5C 739.782,670.231 743.949,678.731 748.5,687C 591.833,687.667 435.167,687.667 278.5,687C 280.458,684.252 282.291,681.418 284,678.5C 285.94,672.683 288.273,667.017 291,661.5C 291.886,656.53 292.552,651.53 293,646.5C 294.917,641.999 296.251,637.332 297,632.5C 298.015,622.191 298.681,611.857 299,601.5C 300.846,598.431 301.846,595.098 302,591.5C 304.208,567.564 306.208,543.564 308,519.5C 313.161,504.756 313.827,489.756 310,474.5C 308.914,470.654 307.081,467.32 304.5,464.5 Z"/></g>
<g><path style="opacity:1" fill="#030303" d="M 492.5,479.5 C 500.167,479.5 507.833,479.5 515.5,479.5C 515.174,488.017 515.507,496.35 516.5,504.5C 517.209,505.404 518.209,505.737 519.5,505.5C 519.179,511.026 519.512,516.36 520.5,521.5C 524.167,521.5 527.833,521.5 531.5,521.5C 532.488,516.36 532.821,511.026 532.5,505.5C 541.5,505.5 550.5,505.5 559.5,505.5C 559.5,513.833 559.5,522.167 559.5,530.5C 552.669,536.178 545.502,541.511 538,546.5C 539.199,561.802 540.366,577.135 541.5,592.5C 517.167,592.5 492.833,592.5 468.5,592.5C 469.538,577.456 470.705,562.456 472,547.5C 464.359,542.35 457.192,536.684 450.5,530.5C 450.5,522.167 450.5,513.833 450.5,505.5C 459.167,505.5 467.833,505.5 476.5,505.5C 476.179,510.695 476.513,515.695 477.5,520.5C 481.298,521.483 485.298,521.817 489.5,521.5C 489.5,515.833 489.5,510.167 489.5,504.5C 490.5,504.5 491.5,504.5 492.5,504.5C 492.5,496.167 492.5,487.833 492.5,479.5 Z"/></g>
<g><path style="opacity:1" fill="#5d5d5d" d="M 492.5,479.5 C 500.316,478.508 508.316,478.174 516.5,478.5C 516.5,487.167 516.5,495.833 516.5,504.5C 515.507,496.35 515.174,488.017 515.5,479.5C 507.833,479.5 500.167,479.5 492.5,479.5 Z"/></g>
<g><path style="opacity:1" fill="#535353" d="M 477.5,520.5 C 476.513,515.695 476.179,510.695 476.5,505.5C 467.833,505.5 459.167,505.5 450.5,505.5C 450.5,513.833 450.5,522.167 450.5,530.5C 449.507,522.016 449.174,513.349 449.5,504.5C 458.833,504.5 468.167,504.5 477.5,504.5C 477.5,509.833 477.5,515.167 477.5,520.5 Z"/></g>
<g><path style="opacity:1" fill="#666666" d="M 559.5,530.5 C 559.5,522.167 559.5,513.833 559.5,505.5C 550.5,505.5 541.5,505.5 532.5,505.5C 532.821,511.026 532.488,516.36 531.5,521.5C 531.5,515.833 531.5,510.167 531.5,504.5C 541.167,504.5 550.833,504.5 560.5,504.5C 560.826,513.349 560.493,522.016 559.5,530.5 Z"/></g>
<g><path style="opacity:1" fill="#626262" d="M 516.5,504.5 C 517.833,504.5 519.167,504.5 520.5,504.5C 520.5,510.167 520.5,515.833 520.5,521.5C 519.512,516.36 519.179,511.026 519.5,505.5C 518.209,505.737 517.209,505.404 516.5,504.5 Z"/></g>
<g><path style="opacity:1" fill="#000000" d="M 559.5,631.5 C 559.5,639.167 559.5,646.833 559.5,654.5C 523.167,654.5 486.833,654.5 450.5,654.5C 450.5,646.833 450.5,639.167 450.5,631.5C 453.913,626.352 457.58,621.352 461.5,616.5C 490.5,615.167 519.5,615.167 548.5,616.5C 551.944,621.745 555.61,626.745 559.5,631.5 Z"/></g>
<g><path style="opacity:1" fill="#545454" d="M 450.5,631.5 C 450.5,639.167 450.5,646.833 450.5,654.5C 486.833,654.5 523.167,654.5 559.5,654.5C 559.5,646.833 559.5,639.167 559.5,631.5C 560.492,639.316 560.826,647.316 560.5,655.5C 523.5,655.5 486.5,655.5 449.5,655.5C 449.174,647.316 449.508,639.316 450.5,631.5 Z"/></g>
<g><path style="opacity:1" fill="#fefefe" d="M 263.5,716.5 C 430.168,716.167 596.835,716.5 763.5,717.5C 766.916,724.671 771.082,731.338 776,737.5C 782.12,749.286 787.786,761.286 793,773.5C 799.512,782.527 803.845,792.527 806,803.5C 807.758,840.163 807.758,876.829 806,913.5C 801.309,936.524 787.809,951.691 765.5,959C 614.501,960.163 463.501,960.496 312.5,960C 295.5,959.667 278.5,959.333 261.5,959C 250.288,955.477 240.788,949.31 233,940.5C 231.086,935.665 228.419,931.331 225,927.5C 224.09,922.704 222.757,918.037 221,913.5C 220.515,877.493 220.182,841.493 220,805.5C 222.562,797.823 225.228,790.156 228,782.5C 229.256,778.984 231.256,775.984 234,773.5C 239.214,761.286 244.88,749.286 251,737.5C 256.197,731.106 260.363,724.106 263.5,716.5 Z"/></g>
<g><path style="opacity:1" fill="#030303" d="M 624.5,735.5 C 632.167,735.5 639.833,735.5 647.5,735.5C 647.174,744.017 647.507,752.35 648.5,760.5C 649.209,761.404 650.209,761.737 651.5,761.5C 651.179,767.026 651.512,772.36 652.5,777.5C 656.167,777.5 659.833,777.5 663.5,777.5C 664.488,772.36 664.821,767.026 664.5,761.5C 673.5,761.5 682.5,761.5 691.5,761.5C 691.5,769.833 691.5,778.167 691.5,786.5C 684.669,792.178 677.502,797.511 670,802.5C 671.199,817.802 672.366,833.135 673.5,848.5C 649.167,848.5 624.833,848.5 600.5,848.5C 601.538,833.456 602.705,818.456 604,803.5C 596.359,798.35 589.192,792.684 582.5,786.5C 582.5,778.167 582.5,769.833 582.5,761.5C 591.167,761.5 599.833,761.5 608.5,761.5C 608.179,766.695 608.513,771.695 609.5,776.5C 613.298,777.483 617.298,777.817 621.5,777.5C 621.5,771.833 621.5,766.167 621.5,760.5C 622.5,760.5 623.5,760.5 624.5,760.5C 624.5,752.167 624.5,743.833 624.5,735.5 Z"/></g>
<g><path style="opacity:1" fill="#030303" d="M 378.5,739.5 C 386.167,739.5 393.833,739.5 401.5,739.5C 401.174,748.017 401.507,756.35 402.5,764.5C 403.209,765.404 404.209,765.737 405.5,765.5C 405.179,771.026 405.512,776.36 406.5,781.5C 410.167,781.5 413.833,781.5 417.5,781.5C 418.488,776.36 418.821,771.026 418.5,765.5C 427.5,765.5 436.5,765.5 445.5,765.5C 445.5,773.833 445.5,782.167 445.5,790.5C 438.669,796.178 431.502,801.511 424,806.5C 425.199,821.802 426.366,837.135 427.5,852.5C 403.167,852.5 378.833,852.5 354.5,852.5C 355.538,837.456 356.705,822.456 358,807.5C 350.359,802.35 343.192,796.684 336.5,790.5C 336.5,782.167 336.5,773.833 336.5,765.5C 345.167,765.5 353.833,765.5 362.5,765.5C 362.179,770.695 362.513,775.695 363.5,780.5C 367.298,781.483 371.298,781.817 375.5,781.5C 375.5,775.833 375.5,770.167 375.5,764.5C 376.5,764.5 377.5,764.5 378.5,764.5C 378.5,756.167 378.5,747.833 378.5,739.5 Z"/></g>
<g><path style="opacity:1" fill="#5d5d5d" d="M 624.5,735.5 C 632.316,734.508 640.316,734.174 648.5,734.5C 648.5,743.167 648.5,751.833 648.5,760.5C 647.507,752.35 647.174,744.017 647.5,735.5C 639.833,735.5 632.167,735.5 624.5,735.5 Z"/></g>
<g><path style="opacity:1" fill="#5d5d5d" d="M 378.5,739.5 C 386.316,738.508 394.316,738.174 402.5,738.5C 402.5,747.167 402.5,755.833 402.5,764.5C 401.507,756.35 401.174,748.017 401.5,739.5C 393.833,739.5 386.167,739.5 378.5,739.5 Z"/></g>
<g><path style="opacity:1" fill="#535353" d="M 609.5,776.5 C 608.513,771.695 608.179,766.695 608.5,761.5C 599.833,761.5 591.167,761.5 582.5,761.5C 582.5,769.833 582.5,778.167 582.5,786.5C 581.507,778.016 581.174,769.349 581.5,760.5C 590.833,760.5 600.167,760.5 609.5,760.5C 609.5,765.833 609.5,771.167 609.5,776.5 Z"/></g>
<g><path style="opacity:1" fill="#666666" d="M 691.5,786.5 C 691.5,778.167 691.5,769.833 691.5,761.5C 682.5,761.5 673.5,761.5 664.5,761.5C 664.821,767.026 664.488,772.36 663.5,777.5C 663.5,771.833 663.5,766.167 663.5,760.5C 673.167,760.5 682.833,760.5 692.5,760.5C 692.826,769.349 692.493,778.016 691.5,786.5 Z"/></g>
<g><path style="opacity:1" fill="#535353" d="M 363.5,780.5 C 362.513,775.695 362.179,770.695 362.5,765.5C 353.833,765.5 345.167,765.5 336.5,765.5C 336.5,773.833 336.5,782.167 336.5,790.5C 335.507,782.016 335.174,773.349 335.5,764.5C 344.833,764.5 354.167,764.5 363.5,764.5C 363.5,769.833 363.5,775.167 363.5,780.5 Z"/></g>
<g><path style="opacity:1" fill="#666666" d="M 445.5,790.5 C 445.5,782.167 445.5,773.833 445.5,765.5C 436.5,765.5 427.5,765.5 418.5,765.5C 418.821,771.026 418.488,776.36 417.5,781.5C 417.5,775.833 417.5,770.167 417.5,764.5C 427.167,764.5 436.833,764.5 446.5,764.5C 446.826,773.349 446.493,782.016 445.5,790.5 Z"/></g>
<g><path style="opacity:1" fill="#626262" d="M 648.5,760.5 C 649.833,760.5 651.167,760.5 652.5,760.5C 652.5,766.167 652.5,771.833 652.5,777.5C 651.512,772.36 651.179,767.026 651.5,761.5C 650.209,761.737 649.209,761.404 648.5,760.5 Z"/></g>
<g><path style="opacity:1" fill="#626262" d="M 402.5,764.5 C 403.833,764.5 405.167,764.5 406.5,764.5C 406.5,770.167 406.5,775.833 406.5,781.5C 405.512,776.36 405.179,771.026 405.5,765.5C 404.209,765.737 403.209,765.404 402.5,764.5 Z"/></g>
<g><path style="opacity:1" fill="#000000" d="M 691.5,910.5 C 655.167,910.5 618.833,910.5 582.5,910.5C 582.5,902.833 582.5,895.167 582.5,887.5C 585.913,882.352 589.58,877.352 593.5,872.5C 622.5,871.167 651.5,871.167 680.5,872.5C 684,877.5 687.5,882.5 691,887.5C 691.5,895.159 691.666,902.826 691.5,910.5 Z"/></g>
<g><path style="opacity:1" fill="#000000" d="M 445.5,914.5 C 409.167,914.5 372.833,914.5 336.5,914.5C 336.5,906.833 336.5,899.167 336.5,891.5C 339.913,886.352 343.58,881.352 347.5,876.5C 376.5,875.167 405.5,875.167 434.5,876.5C 438,881.5 441.5,886.5 445,891.5C 445.5,899.159 445.666,906.826 445.5,914.5 Z"/></g>
<g><path style="opacity:1" fill="#4a4a4a" d="M 582.5,887.5 C 582.5,895.167 582.5,902.833 582.5,910.5C 618.833,910.5 655.167,910.5 691.5,910.5C 655.004,911.498 618.337,911.832 581.5,911.5C 581.174,903.316 581.508,895.316 582.5,887.5 Z"/></g>
<g><path style="opacity:1" fill="#4a4a4a" d="M 336.5,891.5 C 336.5,899.167 336.5,906.833 336.5,914.5C 372.833,914.5 409.167,914.5 445.5,914.5C 409.004,915.498 372.337,915.832 335.5,915.5C 335.174,907.316 335.508,899.316 336.5,891.5 Z"/></g>
</svg>
