<?xml version="1.0" encoding="UTF-8"?>
<!DOCTYPE svg PUBLIC "-//W3C//DTD SVG 1.1//EN" "http://www.w3.org/Graphics/SVG/1.1/DTD/svg11.dtd">
<svg xmlns="http://www.w3.org/2000/svg" version="1.1" width="1000px" height="1080px" style="shape-rendering:geometricPrecision; text-rendering:geometricPrecision; image-rendering:optimizeQuality; fill-rule:evenodd; clip-rule:evenodd" xmlns:xlink="http://www.w3.org/1999/xlink">
<g><path style="opacity:0.964" fill="#fafafa" d="M 511.5,286.5 C 516.262,286.698 520.428,288.365 524,291.5C 547.84,320.853 563.34,354.186 570.5,391.5C 618.923,387.427 651.757,408.094 669,453.5C 671.466,460.365 673.466,467.365 675,474.5C 686.01,452.489 702.177,435.323 723.5,423C 746.242,414.628 768.242,416.128 789.5,427.5C 800.441,409.384 814.441,393.884 831.5,381C 846.339,372.413 861.339,364.08 876.5,356C 882.6,353.448 888.1,354.281 893,358.5C 894.15,360.754 894.484,363.087 894,365.5C 884.333,392.5 874.667,419.5 865,446.5C 851.536,495.891 837.87,545.224 824,594.5C 809.698,611.112 796.365,628.445 784,646.5C 776.588,660.992 768.921,675.326 761,689.5C 759.058,695.822 757.225,702.156 755.5,708.5C 761.121,708.209 766.621,707.209 772,705.5C 776.069,705.905 778.569,708.071 779.5,712C 778.1,721.152 778.266,730.318 780,739.5C 780.833,740.333 781.667,741.167 782.5,742C 790.136,743.762 797.802,743.928 805.5,742.5C 811.789,745.22 812.955,749.554 809,755.5C 808.667,764.167 808.333,772.833 808,781.5C 807.833,784.333 806.333,785.833 803.5,786C 609.167,786.667 414.833,786.667 220.5,786C 219.234,785.691 218.067,785.191 217,784.5C 215.893,777.91 215.393,771.243 215.5,764.5C 215.393,757.757 215.893,751.09 217,744.5C 218.171,743.107 219.671,742.273 221.5,742C 226.833,741.667 232.167,741.333 237.5,741C 238.931,740.535 240.097,739.701 241,738.5C 242.025,727.859 243.025,717.193 244,706.5C 245.57,705.642 247.237,704.975 249,704.5C 257.314,707.544 265.814,708.544 274.5,707.5C 260.468,675.753 243.634,645.753 224,617.5C 217.333,610.167 210.667,602.833 204,595.5C 189.489,541.789 174.822,488.123 160,434.5C 152.136,412.575 144.469,390.575 137,368.5C 135.095,361.123 137.762,356.79 145,355.5C 174.601,365.792 200.267,382.125 222,404.5C 227.823,411.479 233.156,418.812 238,426.5C 254.418,418.279 271.585,415.779 289.5,419C 306.275,424.299 321.109,432.799 334,444.5C 341.755,455.669 348.755,467.336 355,479.5C 357.137,441.704 374.971,414.204 408.5,397C 413.772,395.131 419.106,393.465 424.5,392C 436.185,391.305 447.852,391.472 459.5,392.5C 459.567,377.293 462.401,362.626 468,348.5C 476.535,331.981 485.869,315.981 496,300.5C 500.14,294.518 505.307,289.851 511.5,286.5 Z M 620.5,484.5 C 636.777,483.059 650.11,488.559 660.5,501C 663.109,502.6 665.776,502.766 668.5,501.5C 671.119,502.985 673.952,503.985 677,504.5C 705.716,494.52 729.716,501.187 749,524.5C 764.555,548.286 763.889,571.619 747,594.5C 739.076,600.546 731.243,606.713 723.5,613C 691.115,627.387 657.449,631.387 622.5,625C 588.244,619.74 566.078,600.573 556,567.5C 551.901,540.462 559.734,517.629 579.5,499C 591.853,490.272 605.52,485.439 620.5,484.5 Z M 398.5,485.5 C 409.619,485.493 420.619,486.66 431.5,489C 442.435,493.938 451.601,501.105 459,510.5C 463.508,517.513 467.508,524.847 471,532.5C 471.928,543.008 472.762,553.508 473.5,564C 472.614,568.151 471.78,572.318 471,576.5C 466.421,586.417 460.254,595.251 452.5,603C 441.259,609.582 429.593,615.248 417.5,620C 385.296,626.464 353.296,625.464 321.5,617C 310.372,611.269 299.372,605.269 288.5,599C 283.287,595.454 279.12,590.954 276,585.5C 263.1,554.003 270.6,528.503 298.5,509C 316.079,500.845 334.245,499.345 353,504.5C 355.7,504.27 358.033,503.27 360,501.5C 362.729,503.788 365.562,503.955 368.5,502C 372.833,498.333 377.167,494.667 381.5,491C 387.238,489.031 392.905,487.197 398.5,485.5 Z"/></g>
<g><path style="opacity:1" fill="#010101" d="M 512.5,297.5 C 513.552,297.351 514.552,297.517 515.5,298C 540.173,327.833 555.673,361.666 562,399.5C 563.067,400.191 564.234,400.691 565.5,401C 579.229,401.191 592.896,402.191 606.5,404C 611.833,406 617.167,408 622.5,410C 649.956,429.414 663.79,455.914 664,489.5C 658.185,483.675 651.352,479.509 643.5,477C 617.763,471.669 594.096,476.336 572.5,491C 556.316,505.533 547.15,523.7 545,545.5C 543.115,578.962 556.281,604.796 584.5,623C 604.371,632.718 625.371,637.551 647.5,637.5C 647.5,663.5 647.5,689.5 647.5,715.5C 558.833,715.318 470.166,714.984 381.5,714.5C 381.5,688.167 381.5,661.833 381.5,635.5C 411.787,635.14 438.954,625.806 463,607.5C 466.667,603.167 470.333,598.833 474,594.5C 480.363,583.88 483.53,572.38 483.5,560C 482.965,550.835 482.465,541.669 482,532.5C 463.091,483.129 428.257,465.962 377.5,481C 373.667,484.167 369.833,487.333 366,490.5C 364.028,453.274 379.195,425.44 411.5,407C 415.95,404.739 420.617,403.072 425.5,402C 437.223,401.184 448.89,401.684 460.5,403.5C 463.387,403.373 465.887,402.373 468,400.5C 469.282,390.185 470.615,379.852 472,369.5C 481.11,342.938 494.61,318.938 512.5,297.5 Z"/></g>
<g><path style="opacity:1" fill="#fafafa" d="M 512.5,344.5 C 516.043,344.872 518.21,346.872 519,350.5C 523.79,367.486 526.457,384.819 527,402.5C 527.5,413.161 527.667,423.828 527.5,434.5C 549.242,434.872 570.909,436.372 592.5,439C 609.833,442.333 609.833,445.667 592.5,449C 570.577,451.673 548.577,453.173 526.5,453.5C 527.17,476.308 524.336,498.642 518,520.5C 515.333,525.833 512.667,525.833 510,520.5C 503.919,498.612 501.086,476.279 501.5,453.5C 477.114,453.883 452.948,451.883 429,447.5C 422.942,445.908 422.442,443.742 427.5,441C 451.571,436.224 475.905,434.057 500.5,434.5C 499.957,408.262 502.124,382.262 507,356.5C 508.043,352.085 509.876,348.085 512.5,344.5 Z"/></g>
<g><path style="opacity:1" fill="#010101" d="M 879.5,365.5 C 880.873,365.343 882.207,365.51 883.5,366C 873.612,391.663 864.112,417.496 855,443.5C 843.006,486.818 831.006,530.151 819,573.5C 810.613,548.284 803.946,522.617 799,496.5C 797.487,476.858 797.153,457.191 798,437.5C 800.539,430.756 803.872,424.422 808,418.5C 817.202,407.631 827.368,397.798 838.5,389C 852.555,381.645 866.222,373.812 879.5,365.5 Z"/></g>
<g><path style="opacity:1" fill="#010101" d="M 147.5,367.5 C 175.942,378.445 200.109,395.445 220,418.5C 224.53,424.9 228.53,431.567 232,438.5C 234.502,461.936 233.835,485.269 230,508.5C 224.202,530.56 217.202,552.227 209,573.5C 196.333,527.5 183.667,481.5 171,435.5C 163.258,412.772 155.424,390.106 147.5,367.5 Z"/></g>
<g><path style="opacity:1" fill="#010101" d="M 370.5,634.5 C 371.209,635.404 372.209,635.737 373.5,635.5C 373.175,642.687 373.509,649.687 374.5,656.5C 374.5,675.833 374.5,695.167 374.5,714.5C 345.167,714.5 315.833,714.5 286.5,714.5C 285.517,709.046 284.017,703.713 282,698.5C 267.864,667.542 251.197,638.208 232,610.5C 225.667,603.5 219.333,596.5 213,589.5C 212.333,587.5 212.333,585.5 213,583.5C 222.947,557.659 231.281,531.325 238,504.5C 238.966,498.87 239.633,493.204 240,487.5C 240.499,470.818 240.499,454.151 240,437.5C 243.805,434.681 247.971,432.514 252.5,431C 259.956,429.399 267.456,428.233 275,427.5C 294.544,430.105 311.544,438.105 326,451.5C 335.144,464.79 342.977,478.79 349.5,493.5C 325.292,487.555 303.292,492.055 283.5,507C 265.199,522.549 257.032,542.383 259,566.5C 261.938,578.338 266.605,589.338 273,599.5C 275.537,602.372 278.37,604.872 281.5,607C 289.163,610.829 296.496,615.163 303.5,620C 315.122,626.207 327.455,630.207 340.5,632C 350.485,633.07 360.485,633.904 370.5,634.5 Z"/></g>
<g><path style="opacity:1" fill="#010101" d="M 740.5,428.5 C 758.263,426.025 774.597,429.692 789.5,439.5C 788.107,477.024 792.94,513.691 804,549.5C 808.501,562.329 812.168,575.329 815,588.5C 789.525,617.42 768.525,649.42 752,684.5C 748.731,694.141 745.564,703.808 742.5,713.5C 742.709,714.086 743.043,714.586 743.5,715C 713.835,715.5 684.169,715.667 654.5,715.5C 654.5,689.5 654.5,663.5 654.5,637.5C 680.298,637.717 704.964,632.55 728.5,622C 737.785,615.771 746.618,608.938 755,601.5C 769.007,582.476 773.34,561.476 768,538.5C 755.429,506.947 732.096,490.614 698,489.5C 690.864,489.324 684.198,490.99 678,494.5C 680.527,486.105 684.193,478.105 689,470.5C 698.178,456.323 709.678,444.49 723.5,435C 729.038,432.105 734.705,429.938 740.5,428.5 Z"/></g>
<g><path style="opacity:1" fill="#fbfbfb" d="M 508.5,620.5 C 520.47,620.984 527.303,627.317 529,639.5C 530.132,647.445 529.132,655.111 526,662.5C 518.179,674.979 509.512,675.646 500,664.5C 494.047,652.473 494.047,640.473 500,628.5C 502.579,625.479 505.413,622.812 508.5,620.5 Z"/></g>
<g><path style="opacity:1" fill="#4a4a4a" d="M 370.5,634.5 C 371.833,634.5 373.167,634.5 374.5,634.5C 374.5,641.833 374.5,649.167 374.5,656.5C 373.509,649.687 373.175,642.687 373.5,635.5C 372.209,635.737 371.209,635.404 370.5,634.5 Z"/></g>
<g><path style="opacity:1" fill="#030303" d="M 252.5,716.5 C 258.092,717.733 263.759,718.566 269.5,719C 430.832,720.201 592.165,720.534 753.5,720C 758.501,719.1 763.501,718.266 768.5,717.5C 768.334,724.508 768.5,731.508 769,738.5C 769.739,742.062 771.239,745.228 773.5,748C 597.832,748.639 422.165,748.306 246.5,747C 249.634,744.612 251.467,741.446 252,737.5C 252.5,730.508 252.666,723.508 252.5,716.5 Z"/></g>
<g><path style="opacity:1" fill="#010101" d="M 225.5,752.5 C 416.499,753.216 607.499,753.55 798.5,753.5C 798.5,761.167 798.5,768.833 798.5,776.5C 607.5,776.5 416.5,776.5 225.5,776.5C 225.5,768.5 225.5,760.5 225.5,752.5 Z"/></g>
</svg>
