<?xml version="1.0" encoding="UTF-8"?>
<!DOCTYPE svg PUBLIC "-//W3C//DTD SVG 1.1//EN" "http://www.w3.org/Graphics/SVG/1.1/DTD/svg11.dtd">
<svg xmlns="http://www.w3.org/2000/svg" version="1.1" width="1000px" height="1080px" style="shape-rendering:geometricPrecision; text-rendering:geometricPrecision; image-rendering:optimizeQuality; fill-rule:evenodd; clip-rule:evenodd" xmlns:xlink="http://www.w3.org/1999/xlink">
<g><path style="opacity:0.424" fill="#686868" d="M 519.5,278.5 C 515.036,279.644 510.37,280.31 505.5,280.5C 509.9,278.896 514.566,278.229 519.5,278.5 Z"/></g>
<g><path style="opacity:1" fill="#040404" d="M 548.5,281.5 C 557.843,283.947 566.509,288.114 574.5,294C 580.934,300.832 585.601,308.665 588.5,317.5C 585.413,329.914 578.747,339.914 568.5,347.5C 565.455,348.279 562.789,349.613 560.5,351.5C 557.427,351.453 555.094,352.619 553.5,355C 554.615,357.72 555.949,360.22 557.5,362.5C 561.456,381.589 566.456,400.422 572.5,419C 573.333,421.967 574.666,424.467 576.5,426.5C 579.996,440.154 585.163,453.154 592,465.5C 593.516,468.006 595.682,468.84 598.5,468C 618.164,451.175 635.497,432.342 650.5,411.5C 653.636,408.571 656.303,405.238 658.5,401.5C 661.636,398.571 664.303,395.238 666.5,391.5C 668.262,390.738 669.262,389.404 669.5,387.5C 673.593,382.231 677.926,377.065 682.5,372C 664.725,360.958 660.558,346.125 670,327.5C 676.796,319.697 684.963,313.864 694.5,310C 717.775,302.478 740.775,303.145 763.5,312C 776.212,318.004 784.879,327.504 789.5,340.5C 788.626,351.463 784.292,360.797 776.5,368.5C 773.545,370.122 770.878,372.122 768.5,374.5C 760.318,378.006 751.985,380.673 743.5,382.5C 742.296,400.836 741.296,418.836 740.5,436.5C 739.344,444.323 739.177,452.323 740,460.5C 739.861,468.565 740.695,476.232 742.5,483.5C 743.167,483.5 743.833,483.5 744.5,483.5C 744.56,484.043 744.893,484.376 745.5,484.5C 778.77,463.378 811.103,441.045 842.5,417.5C 844.01,416.164 845.677,414.997 847.5,414C 838.87,410.353 831.037,405.519 824,399.5C 811.923,382.773 813.756,367.606 829.5,354C 833.345,351.637 837.011,349.137 840.5,346.5C 852.418,342.772 864.584,340.106 877,338.5C 883.041,340.209 889.208,340.875 895.5,340.5C 905.155,343.252 914.489,346.918 923.5,351.5C 925.595,352.412 927.595,353.579 929.5,355C 930.823,355.816 931.489,356.983 931.5,358.5C 932.08,360.749 933.413,362.415 935.5,363.5C 937.476,368.188 939.143,373.021 940.5,378C 938.4,389.807 932.4,399.474 922.5,407C 916.111,410.7 909.444,413.534 902.5,415.5C 897.941,415.611 893.608,416.611 889.5,418.5C 890.623,420.482 890.623,422.482 889.5,424.5C 889.5,426.5 888.5,427.5 886.5,427.5C 884.11,428.891 882.443,430.891 881.5,433.5C 878.112,436.597 875.445,440.264 873.5,444.5C 872.206,445.29 871.039,446.29 870,447.5C 854.077,472.684 839.744,498.684 827,525.5C 817.204,547.982 807.704,570.649 798.5,593.5C 804.17,597.341 808.17,602.508 810.5,609C 808.638,614.768 806.305,620.268 803.5,625.5C 800.545,627.122 797.878,629.122 795.5,631.5C 791.197,632.605 787.031,633.938 783,635.5C 780.752,641.671 778.585,647.838 776.5,654C 777.022,654.561 777.355,655.228 777.5,656C 776.168,658.982 774.835,661.982 773.5,665C 774.022,665.561 774.355,666.228 774.5,667C 773.418,670.339 771.752,673.339 769.5,676C 769.587,678.537 769.587,681.037 769.5,683.5C 768.069,686.626 766.736,689.793 765.5,693C 766.829,695.509 768.829,697.342 771.5,698.5C 773.395,702.741 775.395,706.907 777.5,711C 775.364,716.114 772.364,720.614 768.5,724.5C 767.07,725.537 765.403,726.204 763.5,726.5C 761.833,726.5 760.167,726.5 758.5,726.5C 756.61,734.676 754.61,742.842 752.5,751C 752.735,751.873 753.069,752.707 753.5,753.5C 752.114,758.979 750.781,764.479 749.5,770C 750.521,773.901 749.854,777.568 747.5,781C 748.007,783.541 748.674,786.041 749.5,788.5C 750.417,789.127 751.417,789.461 752.5,789.5C 753.833,789.5 754.5,790.167 754.5,791.5C 757.377,794.754 759.71,798.421 761.5,802.5C 759.368,810.459 755.035,816.793 748.5,821.5C 745.815,822.628 743.148,823.962 740.5,825.5C 590.835,826.5 441.168,826.833 291.5,826.5C 291.665,823.482 291.498,820.482 291,817.5C 290,816.833 289,816.167 288,815.5C 286.499,811.494 284.999,807.494 283.5,803.5C 284.938,799.82 286.438,796.153 288,792.5C 289.518,791.837 290.685,790.837 291.5,789.5C 291.973,788.094 292.973,787.427 294.5,787.5C 296.167,787.5 297.833,787.5 299.5,787.5C 296.421,768.575 293.087,749.908 289.5,731.5C 287.758,727.791 284.758,726.124 280.5,726.5C 278.326,726.25 276.659,725.25 275.5,723.5C 270.903,719.384 268.236,714.217 267.5,708C 268.34,702.157 271.673,698.49 277.5,697C 278.167,696 278.833,695 279.5,694C 273.648,673.919 267.648,653.919 261.5,634C 258.937,632.921 256.271,632.421 253.5,632.5C 251.421,630.127 248.754,628.794 245.5,628.5C 239.543,623.951 235.543,617.951 233.5,610.5C 235.679,603.33 240.012,597.997 246.5,594.5C 247.043,594.44 247.376,594.107 247.5,593.5C 246.033,589.931 244.866,586.264 244,582.5C 243.284,580.121 242.117,578.121 240.5,576.5C 238.91,571.559 237.41,566.559 236,561.5C 235.098,559.569 233.931,557.903 232.5,556.5C 229.609,546.052 225.109,536.386 219,527.5C 218.184,523.67 216.851,520.004 215,516.5C 199.426,490.433 183.26,464.767 166.5,439.5C 162.217,438.508 157.884,438.174 153.5,438.5C 141.52,437.948 130.52,434.614 120.5,428.5C 118.882,426.684 116.882,425.351 114.5,424.5C 113.883,424.611 113.383,424.944 113,425.5C 111.361,423.599 109.861,421.599 108.5,419.5C 102.267,411.293 99.6,401.96 100.5,391.5C 108.187,376.351 120.52,366.851 137.5,363C 149.986,359.993 162.653,358.826 175.5,359.5C 177.415,359.216 179.081,359.549 180.5,360.5C 183.544,362.011 186.878,362.678 190.5,362.5C 194.613,363.427 198.279,365.093 201.5,367.5C 203.566,369.199 205.9,370.532 208.5,371.5C 210.23,372.026 211.564,373.026 212.5,374.5C 213.5,376.167 214.833,377.5 216.5,378.5C 217.08,380.749 218.413,382.415 220.5,383.5C 226.621,394.242 226.121,404.575 219,414.5C 216.872,417.63 214.372,420.463 211.5,423C 212.833,423.333 214.167,423.667 215.5,424C 231.342,434.754 247.008,445.754 262.5,457C 264.577,458.705 266.91,459.872 269.5,460.5C 271.629,462.95 274.296,464.617 277.5,465.5C 286.007,470.252 294.34,475.252 302.5,480.5C 303.261,481.391 304.261,482.058 305.5,482.5C 307.854,463.862 308.021,445.195 306,426.5C 304.446,413.287 302.612,400.121 300.5,387C 302.136,384.283 301.803,381.95 299.5,380C 290.234,378.782 281.234,376.615 272.5,373.5C 270.371,371.05 267.704,369.383 264.5,368.5C 262.122,366.122 259.455,364.122 256.5,362.5C 252.016,356.023 249.016,348.857 247.5,341C 250.594,326.902 258.594,316.569 271.5,310C 297.962,298.758 324.295,298.925 350.5,310.5C 353.159,312.164 355.825,313.83 358.5,315.5C 361.802,318.974 364.968,322.641 368,326.5C 370.327,330.82 372.16,335.32 373.5,340C 371.988,342.114 371.654,344.281 372.5,346.5C 369.157,354.657 364.157,361.491 357.5,367C 360.489,371.153 363.822,374.986 367.5,378.5C 374.447,388.722 382.114,398.388 390.5,407.5C 390.833,407.5 391.167,407.5 391.5,407.5C 402.222,421.395 413.889,434.562 426.5,447C 427.094,447.464 427.761,447.631 428.5,447.5C 433.753,454.423 439.753,460.757 446.5,466.5C 446.833,466.167 447.167,465.833 447.5,465.5C 453.228,451.826 459.061,438.16 465,424.5C 467.943,416.277 470.443,407.944 472.5,399.5C 474.862,397.081 475.862,394.081 475.5,390.5C 476.957,388.758 478.124,386.758 479,384.5C 481.645,376.586 483.978,368.586 486,360.5C 487.055,357.296 488.555,354.296 490.5,351.5C 488.978,350.438 487.312,349.771 485.5,349.5C 483.178,347.336 480.511,345.669 477.5,344.5C 458.313,327.627 457.979,310.46 476.5,293C 484.06,288.099 492.06,284.266 500.5,281.5C 501.919,280.549 503.585,280.216 505.5,280.5C 510.37,280.31 515.036,279.644 519.5,278.5C 529.426,277.644 539.093,278.644 548.5,281.5 Z"/></g>
<g><path style="opacity:0.008" fill="#6c6c6c" d="M 500.5,281.5 C 492.06,284.266 484.06,288.099 476.5,293C 457.979,310.46 458.313,327.627 477.5,344.5C 472.432,342.268 468.432,338.768 465.5,334C 461.224,327.077 459.724,319.577 461,311.5C 469.24,294.517 482.407,284.517 500.5,281.5 Z"/></g>
<g><path style="opacity:0.029" fill="#6e6e6e" d="M 548.5,281.5 C 570.102,284.274 583.769,296.108 589.5,317C 588.854,320.812 588.354,324.646 588,328.5C 587.667,327.833 587.333,327.167 587,326.5C 586.86,329.281 585.694,331.447 583.5,333C 583.833,333.333 584.167,333.667 584.5,334C 580.507,338.661 576.507,342.661 572.5,346C 571.255,346.791 569.922,347.291 568.5,347.5C 578.747,339.914 585.413,329.914 588.5,317.5C 585.601,308.665 580.934,300.832 574.5,294C 566.509,288.114 557.843,283.947 548.5,281.5 Z"/></g>
<g><path style="opacity:1" fill="#fcfcfc" d="M 516.5,347.5 C 511.603,346.588 506.603,345.588 501.5,344.5C 492.234,341.215 484.901,335.549 479.5,327.5C 478.384,322.151 478.384,316.817 479.5,311.5C 482.193,304.636 486.859,299.47 493.5,296C 517.816,284.38 541.149,286.047 563.5,301C 575.429,312.975 575.096,324.642 562.5,336C 548.728,346.317 533.395,350.15 516.5,347.5 Z"/></g>
<g><path style="opacity:0.155" fill="#6b6b6b" d="M 350.5,310.5 C 324.295,298.925 297.962,298.758 271.5,310C 258.594,316.569 250.594,326.902 247.5,341C 249.016,348.857 252.016,356.023 256.5,362.5C 247.349,354.606 244.349,344.606 247.5,332.5C 253.265,319.878 262.431,311.545 275,307.5C 298.709,297.372 322.542,297.206 346.5,307C 348.093,307.949 349.426,309.115 350.5,310.5 Z"/></g>
<g><path style="opacity:0.227" fill="#6b6b6b" d="M 789.5,340.5 C 784.879,327.504 776.212,318.004 763.5,312C 740.775,303.145 717.775,302.478 694.5,310C 684.963,313.864 676.796,319.697 670,327.5C 660.558,346.125 664.725,360.958 682.5,372C 677.926,377.065 673.593,382.231 669.5,387.5C 669.421,386.07 669.754,384.736 670.5,383.5C 673.676,379.494 677.009,375.66 680.5,372C 663.89,361.715 659.223,347.548 666.5,329.5C 672.779,320.863 680.779,314.363 690.5,310C 718.203,299.535 745.203,301.035 771.5,314.5C 777.975,319.14 783.309,324.806 787.5,331.5C 788.932,334.327 789.599,337.327 789.5,340.5 Z"/></g>
<g><path style="opacity:1" fill="#fbfbfb" d="M 263.5,344.5 C 263.616,341.14 263.949,337.807 264.5,334.5C 270.604,323.265 279.937,316.098 292.5,313C 315.717,307.049 335.884,312.216 353,328.5C 354.65,332.573 356.484,336.573 358.5,340.5C 355.738,350.429 350.072,358.263 341.5,364C 320.677,373.951 300.01,373.951 279.5,364C 271.253,359.614 265.92,353.114 263.5,344.5 Z"/></g>
<g><path style="opacity:0.408" fill="#6d6d6d" d="M 350.5,310.5 C 354.175,310.5 356.841,312.167 358.5,315.5C 355.825,313.83 353.159,312.164 350.5,310.5 Z"/></g>
<g><path style="opacity:1" fill="#fbfbfb" d="M 771.5,334.5 C 772.194,339.805 772.528,345.138 772.5,350.5C 765.889,362.834 755.556,370.334 741.5,373C 718.847,377.944 699.347,372.444 683,356.5C 676.709,343.293 679.542,332.459 691.5,324C 716.726,309.822 741.393,310.822 765.5,327C 767.334,329.663 769.334,332.163 771.5,334.5 Z"/></g>
<g><path style="opacity:1" fill="#878787" d="M 479.5,311.5 C 478.384,316.817 478.384,322.151 479.5,327.5C 476.993,322.139 476.993,316.806 479.5,311.5 Z"/></g>
<g><path style="opacity:1" fill="#545454" d="M 264.5,334.5 C 263.949,337.807 263.616,341.14 263.5,344.5C 262.844,343.378 262.511,342.045 262.5,340.5C 262.361,338.117 263.028,336.117 264.5,334.5 Z"/></g>
<g><path style="opacity:0.808" fill="#5c5c5c" d="M 895.5,340.5 C 889.208,340.875 883.041,340.209 877,338.5C 864.584,340.106 852.418,342.772 840.5,346.5C 846.41,343.473 852.744,341.307 859.5,340C 865.324,339.094 871.158,338.26 877,337.5C 883.389,337.995 889.555,338.995 895.5,340.5 Z"/></g>
<g><path style="opacity:0.157" fill="#6d6d6d" d="M 789.5,340.5 C 790.649,340.791 791.316,341.624 791.5,343C 789.969,347.673 788.802,352.506 788,357.5C 787.667,357.167 787.333,356.833 787,356.5C 785.188,362.165 781.688,366.165 776.5,368.5C 784.292,360.797 788.626,351.463 789.5,340.5 Z"/></g>
<g><path style="opacity:0.518" fill="#676767" d="M 895.5,340.5 C 906.11,341.47 915.444,345.137 923.5,351.5C 914.489,346.918 905.155,343.252 895.5,340.5 Z"/></g>
<g><path style="opacity:0.235" fill="#6b6b6b" d="M 358.5,315.5 C 359.583,315.539 360.583,315.873 361.5,316.5C 368.596,322.855 373.263,330.688 375.5,340C 374.117,343.367 373.283,346.867 373,350.5C 370.718,352.366 369.885,354.532 370.5,357C 367.174,359.854 363.507,363.187 359.5,367C 360.5,367.833 361.5,368.667 362.5,369.5C 364.235,372.541 365.901,375.541 367.5,378.5C 363.822,374.986 360.489,371.153 357.5,367C 364.157,361.491 369.157,354.657 372.5,346.5C 371.654,344.281 371.988,342.114 373.5,340C 372.16,335.32 370.327,330.82 368,326.5C 364.968,322.641 361.802,318.974 358.5,315.5 Z"/></g>
<g><path style="opacity:1" fill="#999999" d="M 771.5,334.5 C 774.91,339.694 775.244,345.027 772.5,350.5C 772.528,345.138 772.194,339.805 771.5,334.5 Z"/></g>
<g><path style="opacity:1" fill="#aaaaaa" d="M 501.5,344.5 C 506.603,345.588 511.603,346.588 516.5,347.5C 511.073,348.018 506.073,347.018 501.5,344.5 Z"/></g>
<g><path style="opacity:0.357" fill="#646464" d="M 477.5,344.5 C 480.511,345.669 483.178,347.336 485.5,349.5C 482.151,348.831 479.484,347.164 477.5,344.5 Z"/></g>
<g><path style="opacity:1" fill="#fcfcfc" d="M 832.5,387.5 C 832.829,384.772 832.163,382.438 830.5,380.5C 830.5,379.5 830.5,378.5 830.5,377.5C 832.146,374.346 833.479,371.012 834.5,367.5C 839.259,360.628 845.593,355.961 853.5,353.5C 860.158,351.513 866.825,350.179 873.5,349.5C 893.644,347.099 910.144,353.765 923,369.5C 923.33,372.489 924.164,375.322 925.5,378C 922.941,388.222 917.274,396.222 908.5,402C 884.552,413.087 861.552,411.421 839.5,397C 836.55,394.257 834.216,391.09 832.5,387.5 Z"/></g>
<g><path style="opacity:0.141" fill="#6a6a6a" d="M 568.5,347.5 C 566.388,349.771 563.721,351.104 560.5,351.5C 562.789,349.613 565.455,348.279 568.5,347.5 Z"/></g>
<g><path style="opacity:1" fill="#aeaeae" d="M 873.5,349.5 C 866.825,350.179 860.158,351.513 853.5,353.5C 859.63,350.082 866.297,348.749 873.5,349.5 Z"/></g>
<g><path style="opacity:0.027" fill="#696969" d="M 560.5,351.5 C 558.77,352.379 557.437,353.712 556.5,355.5C 557.223,357.782 557.557,360.116 557.5,362.5C 555.949,360.22 554.615,357.72 553.5,355C 555.094,352.619 557.427,351.453 560.5,351.5 Z"/></g>
<g><path style="opacity:0.925" fill="#585858" d="M 175.5,359.5 C 162.653,358.826 149.986,359.993 137.5,363C 120.52,366.851 108.187,376.351 100.5,391.5C 100.433,389.599 100.767,387.766 101.5,386C 110.697,372.483 123.363,364.15 139.5,361C 151.6,357.803 163.6,357.303 175.5,359.5 Z"/></g>
<g><path style="opacity:0.004" fill="#6f6f6f" d="M 931.5,358.5 C 934.292,359.557 935.626,361.224 935.5,363.5C 933.413,362.415 932.08,360.749 931.5,358.5 Z"/></g>
<g><path style="opacity:0.478" fill="#686868" d="M 180.5,360.5 C 184.078,360.549 187.411,361.215 190.5,362.5C 186.878,362.678 183.544,362.011 180.5,360.5 Z"/></g>
<g><path style="opacity:1" fill="#fdfdfd" d="M 520.5,363.5 C 524.894,364.59 529.227,364.256 533.5,362.5C 536.167,362.5 538.833,362.5 541.5,362.5C 542.824,368.112 544.158,373.779 545.5,379.5C 545.749,382.002 546.083,384.502 546.5,387C 546.608,388.681 547.275,389.848 548.5,390.5C 553.162,405.99 558.162,421.49 563.5,437C 568.453,449.7 574.453,461.867 581.5,473.5C 581.392,474.442 581.059,475.275 580.5,476C 563.848,484.405 549.348,495.572 537,509.5C 528.419,524.385 523.086,540.385 521,557.5C 519.07,547.051 516.737,536.717 514,526.5C 509.561,511.442 501.061,499.275 488.5,490C 479.841,483.668 470.841,477.835 461.5,472.5C 460.386,471.277 460.219,469.944 461,468.5C 463.312,465.057 465.146,461.391 466.5,457.5C 469.964,454.375 471.631,450.375 471.5,445.5C 474.105,440.43 476.105,435.097 477.5,429.5C 479.536,427.794 480.536,425.461 480.5,422.5C 482.261,419.804 483.261,416.804 483.5,413.5C 485.285,413.074 486.285,411.908 486.5,410C 488.197,405.26 489.53,400.426 490.5,395.5C 493.058,386.99 495.892,378.657 499,370.5C 499.826,367.207 500.326,363.874 500.5,360.5C 507.186,361.633 513.852,362.633 520.5,363.5 Z"/></g>
<g><path style="opacity:1" fill="#a9a9a9" d="M 533.5,362.5 C 529.227,364.256 524.894,364.59 520.5,363.5C 524.81,362.92 529.143,362.586 533.5,362.5 Z"/></g>
<g><path style="opacity:0.647" fill="#686868" d="M 256.5,362.5 C 259.455,364.122 262.122,366.122 264.5,368.5C 260.954,367.615 258.288,365.615 256.5,362.5 Z"/></g>
<g><path style="opacity:1" fill="#fbfbfb" d="M 117.5,407.5 C 117.589,404.291 117.256,401.125 116.5,398C 117.234,394.499 117.9,390.999 118.5,387.5C 129.67,374.925 143.837,368.592 161,368.5C 180.407,367.424 196.073,374.424 208,389.5C 211.095,400.263 208.262,409.43 199.5,417C 188.004,425.941 174.837,430.108 160,429.5C 145.088,428.536 132.088,423.202 121,413.5C 119.579,411.595 118.412,409.595 117.5,407.5 Z"/></g>
<g><path style="opacity:0.333" fill="#636363" d="M 201.5,367.5 C 204.621,367.736 206.954,369.069 208.5,371.5C 205.9,370.532 203.566,369.199 201.5,367.5 Z"/></g>
<g><path style="opacity:0.294" fill="#6a6a6a" d="M 776.5,368.5 C 774.712,371.615 772.046,373.615 768.5,374.5C 770.878,372.122 773.545,370.122 776.5,368.5 Z"/></g>
<g><path style="opacity:0.22" fill="#6b6b6b" d="M 264.5,368.5 C 267.704,369.383 270.371,371.05 272.5,373.5C 269.151,372.831 266.484,371.164 264.5,368.5 Z"/></g>
<g><path style="opacity:1" fill="#9e9e9e" d="M 834.5,367.5 C 833.479,371.012 832.146,374.346 830.5,377.5C 830.486,373.525 831.819,370.192 834.5,367.5 Z"/></g>
<g><path style="opacity:0.038" fill="#707070" d="M 212.5,374.5 C 215.179,374.525 216.512,375.858 216.5,378.5C 214.833,377.5 213.5,376.167 212.5,374.5 Z"/></g>
<g><path style="opacity:0.316" fill="#6d6d6d" d="M 768.5,374.5 C 760.869,379.6 752.536,382.267 743.5,382.5C 751.985,380.673 760.318,378.006 768.5,374.5 Z"/></g>
<g><path style="opacity:1" fill="#fdfdfd" d="M 321.5,489.5 C 322.427,482.557 322.76,475.557 322.5,468.5C 323.732,460.842 323.732,453.175 322.5,445.5C 322.666,440.156 322.499,434.823 322,429.5C 321.768,428.263 321.268,427.263 320.5,426.5C 320.5,423.5 320.5,420.5 320.5,417.5C 320.468,412.609 319.801,407.943 318.5,403.5C 318.556,398.269 317.889,393.269 316.5,388.5C 315.596,387.791 315.263,386.791 315.5,385.5C 326.867,384.908 337.867,382.575 348.5,378.5C 349.167,378.833 349.833,379.167 350.5,379.5C 376.093,412.871 404.093,444.038 434.5,473C 428.085,478.041 421.085,482.374 413.5,486C 402.005,492.838 391.505,501.004 382,510.5C 379,515.167 376,519.833 373,524.5C 357.969,509.731 340.803,498.065 321.5,489.5 Z"/></g>
<g><path style="opacity:0.192" fill="#6c6c6c" d="M 216.5,378.5 C 218.935,379.27 220.269,380.937 220.5,383.5C 218.413,382.415 217.08,380.749 216.5,378.5 Z"/></g>
<g><path style="opacity:0.086" fill="#696969" d="M 485.5,349.5 C 487.312,349.771 488.978,350.438 490.5,351.5C 488.555,354.296 487.055,357.296 486,360.5C 483.978,368.586 481.645,376.586 479,384.5C 478.124,386.758 476.957,388.758 475.5,390.5C 478.5,379.091 481.667,367.758 485,356.5C 487.854,354.205 488.021,351.872 485.5,349.5 Z"/></g>
<g><path style="opacity:1" fill="#fdfdfd" d="M 724.5,436.5 C 723.601,454.667 723.601,473 724.5,491.5C 703.134,500.045 684.3,512.379 668,528.5C 663.159,519.668 656.993,511.835 649.5,505C 635.699,495.209 621.366,486.209 606.5,478C 621.613,464.221 636.113,449.721 650,434.5C 663.138,417.061 676.638,399.894 690.5,383C 697.512,384.481 704.512,386.147 711.5,388C 716.834,388.567 722.167,389.067 727.5,389.5C 725.951,405.116 724.951,420.783 724.5,436.5 Z"/></g>
<g><path style="opacity:0.02" fill="#6e6e6e" d="M 367.5,378.5 C 373.166,383.976 378.5,389.809 383.5,396C 383.167,396.333 382.833,396.667 382.5,397C 386.022,399.892 388.689,403.392 390.5,407.5C 382.114,398.388 374.447,388.722 367.5,378.5 Z"/></g>
<g><path style="opacity:1" fill="#868686" d="M 830.5,380.5 C 832.163,382.438 832.829,384.772 832.5,387.5C 831.076,385.485 830.41,383.152 830.5,380.5 Z"/></g>
<g><path style="opacity:1" fill="#b2b2b2" d="M 545.5,379.5 C 547.258,382.854 548.258,386.521 548.5,390.5C 547.275,389.848 546.608,388.681 546.5,387C 546.083,384.502 545.749,382.002 545.5,379.5 Z"/></g>
<g><path style="opacity:0.227" fill="#707070" d="M 669.5,387.5 C 669.262,389.404 668.262,390.738 666.5,391.5C 666.389,390.883 666.056,390.383 665.5,390C 666.736,388.915 668.069,388.082 669.5,387.5 Z"/></g>
<g><path style="opacity:0.039" fill="#686868" d="M 840.5,346.5 C 837.011,349.137 833.345,351.637 829.5,354C 813.756,367.606 811.923,382.773 824,399.5C 831.037,405.519 838.87,410.353 847.5,414C 845.677,414.997 844.01,416.164 842.5,417.5C 842.511,415.983 843.177,414.816 844.5,414C 832.76,409.578 823.426,402.244 816.5,392C 811.233,376.68 814.9,363.846 827.5,353.5C 831.438,350.313 835.772,347.979 840.5,346.5 Z"/></g>
<g><path style="opacity:0.151" fill="#6c6c6c" d="M 475.5,390.5 C 475.862,394.081 474.862,397.081 472.5,399.5C 472.59,397.304 472.923,395.137 473.5,393C 473.684,391.624 474.351,390.791 475.5,390.5 Z"/></g>
<g><path style="opacity:0.426" fill="#646464" d="M 272.5,373.5 C 281.234,376.615 290.234,378.782 299.5,380C 301.803,381.95 302.136,384.283 300.5,387C 302.612,400.121 304.446,413.287 306,426.5C 308.021,445.195 307.854,463.862 305.5,482.5C 304.261,482.058 303.261,481.391 302.5,480.5C 302.729,472.695 304.062,464.862 306.5,457C 304.067,439.647 302.567,422.147 302,404.5C 300.931,398.593 299.765,392.76 298.5,387C 298.629,385.019 299.296,383.353 300.5,382C 290.495,380.977 281.162,378.144 272.5,373.5 Z"/></g>
<g><path style="opacity:1" fill="#646464" d="M 316.5,388.5 C 317.889,393.269 318.556,398.269 318.5,403.5C 317.111,398.731 316.444,393.731 316.5,388.5 Z"/></g>
<g><path style="opacity:0.22" fill="#6f6f6f" d="M 666.5,391.5 C 664.303,395.238 661.636,398.571 658.5,401.5C 658.389,400.883 658.056,400.383 657.5,400C 660.409,396.957 663.409,394.124 666.5,391.5 Z"/></g>
<g><path style="opacity:0.42" fill="#5e5e5e" d="M 100.5,391.5 C 99.6,401.96 102.267,411.293 108.5,419.5C 106.922,418.934 105.588,417.934 104.5,416.5C 102.119,413.071 100.285,409.404 99,405.5C 98.3333,401.167 98.3333,396.833 99,392.5C 99.3826,391.944 99.8826,391.611 100.5,391.5 Z"/></g>
<g><path style="opacity:1" fill="#adadad" d="M 118.5,387.5 C 117.9,390.999 117.234,394.499 116.5,398C 117.256,401.125 117.589,404.291 117.5,407.5C 114.519,400.65 114.852,393.984 118.5,387.5 Z"/></g>
<g><path style="opacity:0.023" fill="#6e6e6e" d="M 935.5,363.5 C 937.357,364.602 938.691,366.269 939.5,368.5C 940.026,371.814 941.026,374.981 942.5,378C 939.468,394.7 930.135,406.366 914.5,413C 910.622,414.47 906.622,415.303 902.5,415.5C 909.444,413.534 916.111,410.7 922.5,407C 932.4,399.474 938.4,389.807 940.5,378C 939.143,373.021 937.476,368.188 935.5,363.5 Z"/></g>
<g><path style="opacity:1" fill="#919191" d="M 490.5,395.5 C 489.53,400.426 488.197,405.26 486.5,410C 486.285,411.908 485.285,413.074 483.5,413.5C 485.095,407.094 487.428,401.094 490.5,395.5 Z"/></g>
<g><path style="opacity:0.22" fill="#6d6d6d" d="M 658.5,401.5 C 656.303,405.238 653.636,408.571 650.5,411.5C 651.378,408.944 652.711,406.61 654.5,404.5C 655.588,403.066 656.922,402.066 658.5,401.5 Z"/></g>
<g><path style="opacity:1" fill="#797979" d="M 318.5,403.5 C 319.801,407.943 320.468,412.609 320.5,417.5C 319.028,413.081 318.362,408.414 318.5,403.5 Z"/></g>
<g><path style="opacity:0.275" fill="#686868" d="M 557.5,362.5 C 558.117,362.611 558.617,362.944 559,363.5C 564.411,384.659 570.244,405.659 576.5,426.5C 574.666,424.467 573.333,421.967 572.5,419C 566.456,400.422 561.456,381.589 557.5,362.5 Z"/></g>
<g><path style="opacity:0.753" fill="#5c5c5c" d="M 902.5,415.5 C 898.999,416.8 895.333,417.966 891.5,419C 892.308,419.308 892.975,419.808 893.5,420.5C 892.39,422.2 891.057,423.534 889.5,424.5C 890.623,422.482 890.623,420.482 889.5,418.5C 893.608,416.611 897.941,415.611 902.5,415.5 Z"/></g>
<g><path style="opacity:0.145" fill="#6a6a6a" d="M 472.5,399.5 C 470.443,407.944 467.943,416.277 465,424.5C 459.061,438.16 453.228,451.826 447.5,465.5C 447.167,465.833 446.833,466.167 446.5,466.5C 439.753,460.757 433.753,454.423 428.5,447.5C 434.601,451.864 439.934,457.03 444.5,463C 445.332,463.688 445.998,463.521 446.5,462.5C 455.598,441.503 464.265,420.503 472.5,399.5 Z"/></g>
<g><path style="opacity:1" fill="#fcfcfc" d="M 666.5,594.5 C 658.648,594.825 650.982,594.492 643.5,593.5C 652.038,573.414 662.871,554.748 676,537.5C 692.701,522.151 711.535,509.984 732.5,501C 740.849,499.769 748.516,496.769 755.5,492C 790.324,468.849 824.824,445.349 859,421.5C 863.192,422.003 867.359,422.669 871.5,423.5C 866.667,429.833 861.833,436.167 857,442.5C 848.898,454.37 841.564,466.704 835,479.5C 815.82,517.491 797.987,555.991 781.5,595C 743.157,595.763 704.824,595.596 666.5,594.5 Z"/></g>
<g><path style="opacity:0.184" fill="#717171" d="M 114.5,424.5 C 116.882,425.351 118.882,426.684 120.5,428.5C 117.733,428.13 115.733,426.796 114.5,424.5 Z"/></g>
<g><path style="opacity:1" fill="#5e5e5e" d="M 480.5,422.5 C 480.536,425.461 479.536,427.794 477.5,429.5C 477.759,426.728 478.759,424.395 480.5,422.5 Z"/></g>
<g><path style="opacity:0.396" fill="#6e6e6e" d="M 650.5,411.5 C 635.497,432.342 618.164,451.175 598.5,468C 595.682,468.84 593.516,468.006 592,465.5C 585.163,453.154 579.996,440.154 576.5,426.5C 581.106,435.837 585.272,445.504 589,455.5C 590.751,460.008 593.251,464.008 596.5,467.5C 614.911,451.595 631.578,433.929 646.5,414.5C 647.588,413.066 648.922,412.066 650.5,411.5 Z"/></g>
<g><path style="opacity:0.247" fill="#686868" d="M 886.5,427.5 C 885.903,430.427 884.236,432.427 881.5,433.5C 882.443,430.891 884.11,428.891 886.5,427.5 Z"/></g>
<g><path style="opacity:1" fill="#fdfdfd" d="M 384.5,594.5 C 344.094,594.827 303.761,594.494 263.5,593.5C 262.326,592.486 261.66,591.153 261.5,589.5C 261.482,586.264 260.482,583.597 258.5,581.5C 256.638,577.25 254.972,572.917 253.5,568.5C 253.536,565.539 252.536,563.206 250.5,561.5C 242.717,541.938 233.884,522.938 224,504.5C 211.192,482.509 197.692,461.175 183.5,440.5C 192.397,438.803 201.064,436.637 209.5,434C 237.566,454.547 266.566,473.881 296.5,492C 316.318,499.908 334.985,509.908 352.5,522C 361.841,529.53 369.674,538.363 376,548.5C 384.945,563.389 393.112,578.722 400.5,594.5C 395.248,594.818 389.914,594.818 384.5,594.5 Z"/></g>
<g><path style="opacity:0.059" fill="#6e6e6e" d="M 391.5,407.5 C 403.89,420.885 416.223,434.219 428.5,447.5C 427.761,447.631 427.094,447.464 426.5,447C 413.889,434.562 402.222,421.395 391.5,407.5 Z"/></g>
<g><path style="opacity:0.42" fill="#626262" d="M 881.5,433.5 C 881.611,434.117 881.944,434.617 882.5,435C 879.415,438.224 876.415,441.391 873.5,444.5C 875.445,440.264 878.112,436.597 881.5,433.5 Z"/></g>
<g><path style="opacity:1" fill="#a9a9a9" d="M 320.5,426.5 C 321.268,427.263 321.768,428.263 322,429.5C 322.499,434.823 322.666,440.156 322.5,445.5C 322.167,445.5 321.833,445.5 321.5,445.5C 321.347,439.155 321.014,432.822 320.5,426.5 Z"/></g>
<g><path style="opacity:0.035" fill="#6e6e6e" d="M 740.5,436.5 C 740.687,438.564 741.187,440.564 742,442.5C 742.5,456.163 742.667,469.829 742.5,483.5C 740.695,476.232 739.861,468.565 740,460.5C 739.177,452.323 739.344,444.323 740.5,436.5 Z"/></g>
<g><path style="opacity:0.165" fill="#6b6b6b" d="M 220.5,383.5 C 222.357,384.602 223.691,386.269 224.5,388.5C 228.758,401.878 225.425,413.045 214.5,422C 233.613,433.983 251.946,446.816 269.5,460.5C 266.91,459.872 264.577,458.705 262.5,457C 247.008,445.754 231.342,434.754 215.5,424C 214.167,423.667 212.833,423.333 211.5,423C 214.372,420.463 216.872,417.63 219,414.5C 226.121,404.575 226.621,394.242 220.5,383.5 Z"/></g>
<g><path style="opacity:1" fill="#ababab" d="M 471.5,445.5 C 471.631,450.375 469.964,454.375 466.5,457.5C 468.082,453.376 469.748,449.376 471.5,445.5 Z"/></g>
<g><path style="opacity:1" fill="#636363" d="M 321.5,445.5 C 321.833,445.5 322.167,445.5 322.5,445.5C 323.732,453.175 323.732,460.842 322.5,468.5C 322.167,468.5 321.833,468.5 321.5,468.5C 322.833,460.833 322.833,453.167 321.5,445.5 Z"/></g>
<g><path style="opacity:0.357" fill="#686868" d="M 269.5,460.5 C 272.704,461.383 275.371,463.05 277.5,465.5C 274.296,464.617 271.629,462.95 269.5,460.5 Z"/></g>
<g><path style="opacity:1" fill="#b3b3b3" d="M 724.5,436.5 C 725.155,455.003 725.155,473.337 724.5,491.5C 723.601,473 723.601,454.667 724.5,436.5 Z"/></g>
<g><path style="opacity:0.533" fill="#696969" d="M 842.5,417.5 C 811.103,441.045 778.77,463.378 745.5,484.5C 744.893,484.376 744.56,484.043 744.5,483.5C 775.269,463.934 805.269,443.101 834.5,421C 837.11,419.519 839.777,418.352 842.5,417.5 Z"/></g>
<g><path style="opacity:1" fill="#fdfdfd" d="M 447.5,480.5 C 450.425,480.46 453.091,481.293 455.5,483C 469.903,490.785 482.736,500.618 494,512.5C 502.553,528.04 507.387,544.707 508.5,562.5C 489.284,565.274 472.951,573.608 459.5,587.5C 458.167,589.833 456.833,592.167 455.5,594.5C 441.5,595.833 427.5,595.833 413.5,594.5C 404.875,574.578 394.708,555.578 383,537.5C 384.888,526.908 390.055,518.075 398.5,511C 414.226,499.807 430.559,489.64 447.5,480.5 Z"/></g>
<g><path style="opacity:0.116" fill="#696969" d="M 873.5,444.5 C 873.611,445.117 873.944,445.617 874.5,446C 873.019,446.98 871.685,448.147 870.5,449.5C 857.154,471.707 844.654,494.374 833,517.5C 821.503,541.899 810.669,566.732 800.5,592C 805.597,596.784 809.597,602.451 812.5,609C 811.159,613.736 809.326,618.236 807,622.5C 806.241,624.063 805.074,625.063 803.5,625.5C 806.305,620.268 808.638,614.768 810.5,609C 808.17,602.508 804.17,597.341 798.5,593.5C 807.704,570.649 817.204,547.982 827,525.5C 839.744,498.684 854.077,472.684 870,447.5C 871.039,446.29 872.206,445.29 873.5,444.5 Z"/></g>
<g><path style="opacity:1" fill="#fdfdfd" d="M 589.5,484.5 C 593.105,484.799 596.439,485.965 599.5,488C 612.764,495.603 625.764,503.603 638.5,512C 649.138,519.267 655.638,529.101 658,541.5C 646.959,558.243 637.459,575.91 629.5,594.5C 616.833,595.833 604.167,595.833 591.5,594.5C 582.503,580.365 569.836,570.865 553.5,566C 546.941,564.088 540.275,562.922 533.5,562.5C 534.279,546.047 538.779,530.713 547,516.5C 559.495,503.514 573.662,492.848 589.5,484.5 Z"/></g>
<g><path style="opacity:1" fill="#c8c8c8" d="M 321.5,468.5 C 321.833,468.5 322.167,468.5 322.5,468.5C 322.76,475.557 322.427,482.557 321.5,489.5C 320.862,482.677 320.862,475.677 321.5,468.5 Z"/></g>
<g><path style="opacity:0.157" fill="#676767" d="M 153.5,438.5 C 157.884,438.174 162.217,438.508 166.5,439.5C 183.26,464.767 199.426,490.433 215,516.5C 216.851,520.004 218.184,523.67 219,527.5C 225.109,536.386 229.609,546.052 232.5,556.5C 225.57,544.139 219.237,531.306 213.5,518C 198.901,492.603 183.234,467.937 166.5,444C 165.852,442.56 165.519,441.06 165.5,439.5C 161.298,439.817 157.298,439.483 153.5,438.5 Z"/></g>
<g><path style="opacity:1" fill="#949494" d="M 250.5,561.5 C 252.536,563.206 253.536,565.539 253.5,568.5C 251.935,566.491 250.935,564.157 250.5,561.5 Z"/></g>
<g><path style="opacity:0.267" fill="#666666" d="M 232.5,556.5 C 233.931,557.903 235.098,559.569 236,561.5C 237.41,566.559 238.91,571.559 240.5,576.5C 238.718,574.977 237.385,572.977 236.5,570.5C 234.574,565.988 233.241,561.321 232.5,556.5 Z"/></g>
<g><path style="opacity:1" fill="#959595" d="M 258.5,581.5 C 260.482,583.597 261.482,586.264 261.5,589.5C 259.733,587.208 258.733,584.542 258.5,581.5 Z"/></g>
<g><path style="opacity:0.125" fill="#656565" d="M 240.5,576.5 C 242.117,578.121 243.284,580.121 244,582.5C 244.866,586.264 246.033,589.931 247.5,593.5C 247.376,594.107 247.043,594.44 246.5,594.5C 243.41,588.958 241.41,582.958 240.5,576.5 Z"/></g>
<g><path style="opacity:1" fill="#b1b1b1" d="M 263.5,593.5 C 303.761,594.494 344.094,594.827 384.5,594.5C 364.503,595.167 344.336,595.5 324,595.5C 303.489,595.5 283.322,594.833 263.5,593.5 Z"/></g>
<g><path style="opacity:1" fill="#b0b0b0" d="M 643.5,593.5 C 650.982,594.492 658.648,594.825 666.5,594.5C 658.657,595.82 650.657,595.82 642.5,594.5C 642.624,593.893 642.957,593.56 643.5,593.5 Z"/></g>
<g><path style="opacity:1" fill="#8d8d8d" d="M 456.5,626.5 C 395.664,626.168 334.998,626.501 274.5,627.5C 273.624,627.631 272.957,627.298 272.5,626.5C 333.999,625.168 395.332,625.168 456.5,626.5 Z"/></g>
<g><path style="opacity:1" fill="#8d8d8d" d="M 590.5,626.5 C 652.001,625.168 713.668,625.168 775.5,626.5C 775.043,627.298 774.376,627.631 773.5,627.5C 712.669,626.501 651.669,626.168 590.5,626.5 Z"/></g>
<g><path style="opacity:0.478" fill="#676767" d="M 246.5,594.5 C 240.012,597.997 235.679,603.33 233.5,610.5C 235.543,617.951 239.543,623.951 245.5,628.5C 237.152,625.347 232.819,619.181 232.5,610C 234.236,602.101 238.902,596.935 246.5,594.5 Z"/></g>
<g><path style="opacity:1" fill="#fefefe" d="M 456.5,626.5 C 468.5,642.674 484.5,652.508 504.5,656C 530.297,660.307 554.297,655.64 576.5,642C 581.77,637.238 586.436,632.071 590.5,626.5C 651.669,626.168 712.669,626.501 773.5,627.5C 768.711,631.344 765.877,636.344 765,642.5C 760.719,660.044 755.552,677.21 749.5,694C 749.808,695.459 750.475,696.626 751.5,697.5C 599.837,699.499 447.837,700.165 295.5,699.5C 295.5,698.5 295.5,697.5 295.5,696.5C 294.629,693.888 293.963,691.221 293.5,688.5C 293.741,686.102 293.074,684.102 291.5,682.5C 290.699,678.765 289.699,675.099 288.5,671.5C 288.741,669.102 288.074,667.102 286.5,665.5C 285.962,663.883 285.629,662.216 285.5,660.5C 285.741,658.102 285.074,656.102 283.5,654.5C 281.357,649.734 280.023,644.734 279.5,639.5C 279.51,635.525 278.177,632.191 275.5,629.5C 274.662,629.158 274.328,628.492 274.5,627.5C 334.998,626.501 395.664,626.168 456.5,626.5 Z"/></g>
<g><path style="opacity:0.306" fill="#686868" d="M 803.5,625.5 C 801.712,628.615 799.046,630.615 795.5,631.5C 797.878,629.122 800.545,627.122 803.5,625.5 Z"/></g>
<g><path style="opacity:0.459" fill="#666666" d="M 245.5,628.5 C 248.754,628.794 251.421,630.127 253.5,632.5C 250.515,631.674 247.849,630.341 245.5,628.5 Z"/></g>
<g><path style="opacity:0.231" fill="#666666" d="M 253.5,632.5 C 256.271,632.421 258.937,632.921 261.5,634C 267.648,653.919 273.648,673.919 279.5,694C 278.833,695 278.167,696 277.5,697C 271.673,698.49 268.34,702.157 267.5,708C 268.236,714.217 270.903,719.384 275.5,723.5C 272.969,722.97 270.969,721.636 269.5,719.5C 264.492,713.201 264.326,706.868 269,700.5C 271.833,698.333 274.667,696.167 277.5,694C 271.377,674.346 265.71,654.512 260.5,634.5C 257.848,634.59 255.515,633.924 253.5,632.5 Z"/></g>
<g><path style="opacity:1" fill="#b4b4b4" d="M 275.5,629.5 C 278.177,632.191 279.51,635.525 279.5,639.5C 278.249,637.618 277.082,635.618 276,633.5C 275.51,632.207 275.343,630.873 275.5,629.5 Z"/></g>
<g><path style="opacity:1" fill="#8e8e8e" d="M 283.5,654.5 C 285.074,656.102 285.741,658.102 285.5,660.5C 283.926,658.898 283.259,656.898 283.5,654.5 Z"/></g>
<g><path style="opacity:1" fill="#777777" d="M 286.5,665.5 C 288.074,667.102 288.741,669.102 288.5,671.5C 286.926,669.898 286.259,667.898 286.5,665.5 Z"/></g>
<g><path style="opacity:0.288" fill="#6a6a6a" d="M 795.5,631.5 C 794.942,632.79 793.942,633.623 792.5,634C 788.798,633.71 786.298,635.21 785,638.5C 784.667,638.167 784.333,637.833 784,637.5C 778.816,656.061 773.316,674.561 767.5,693C 770.271,695.154 772.771,697.654 775,700.5C 781.212,710.948 779.045,718.948 768.5,724.5C 772.364,720.614 775.364,716.114 777.5,711C 775.395,706.907 773.395,702.741 771.5,698.5C 768.829,697.342 766.829,695.509 765.5,693C 766.736,689.793 768.069,686.626 769.5,683.5C 769.587,681.037 769.587,678.537 769.5,676C 771.752,673.339 773.418,670.339 774.5,667C 774.355,666.228 774.022,665.561 773.5,665C 774.835,661.982 776.168,658.982 777.5,656C 777.355,655.228 777.022,654.561 776.5,654C 778.585,647.838 780.752,641.671 783,635.5C 787.031,633.938 791.197,632.605 795.5,631.5 Z"/></g>
<g><path style="opacity:1" fill="#8c8c8c" d="M 291.5,682.5 C 293.074,684.102 293.741,686.102 293.5,688.5C 291.926,686.898 291.259,684.898 291.5,682.5 Z"/></g>
<g><path style="opacity:1" fill="#ebebeb" d="M 295.5,696.5 C 295.5,697.5 295.5,698.5 295.5,699.5C 447.837,700.165 599.837,699.499 751.5,697.5C 752.404,698.209 752.737,699.209 752.5,700.5C 599.166,700.667 445.833,700.5 292.5,700C 293.814,699.015 294.814,697.848 295.5,696.5 Z"/></g>
<g><path style="opacity:1" fill="#373737" d="M 745.5,720.5 C 596.332,720.167 447.332,720.5 298.5,721.5C 297.957,721.44 297.624,721.107 297.5,720.5C 446.999,719.167 596.333,719.167 745.5,720.5 Z"/></g>
<g><path style="opacity:1" fill="#fefefe" d="M 298.5,721.5 C 447.332,720.5 596.332,720.167 745.5,720.5C 744.199,721.882 743.366,723.548 743,725.5C 741.032,736.987 738.532,748.321 735.5,759.5C 736.022,760.607 736.355,761.774 736.5,763C 733.973,771.092 732.973,779.259 733.5,787.5C 593.833,787.5 454.167,787.5 314.5,787.5C 313.575,783.21 312.909,778.876 312.5,774.5C 312.932,771.123 312.265,768.123 310.5,765.5C 309.817,759.438 308.817,753.438 307.5,747.5C 307.001,743.51 306.501,739.51 306,735.5C 305.722,734.584 305.222,733.918 304.5,733.5C 304.067,728.633 302.067,724.633 298.5,721.5 Z"/></g>
<g><path style="opacity:0.302" fill="#696969" d="M 763.5,726.5 C 762.432,727.434 761.099,727.768 759.5,727.5C 757.396,741.402 754.896,755.069 752,768.5C 751.533,773.337 751.033,778.17 750.5,783C 750.338,785.502 751.005,787.669 752.5,789.5C 751.417,789.461 750.417,789.127 749.5,788.5C 748.674,786.041 748.007,783.541 747.5,781C 749.854,777.568 750.521,773.901 749.5,770C 750.781,764.479 752.114,758.979 753.5,753.5C 753.069,752.707 752.735,751.873 752.5,751C 754.61,742.842 756.61,734.676 758.5,726.5C 760.167,726.5 761.833,726.5 763.5,726.5 Z"/></g>
<g><path style="opacity:1" fill="#7f7f7f" d="M 304.5,733.5 C 305.222,733.918 305.722,734.584 306,735.5C 306.501,739.51 307.001,743.51 307.5,747.5C 305.77,743.117 304.77,738.45 304.5,733.5 Z"/></g>
<g><path style="opacity:1" fill="#999999" d="M 310.5,765.5 C 312.265,768.123 312.932,771.123 312.5,774.5C 311.343,771.727 310.676,768.727 310.5,765.5 Z"/></g>
<g><path style="opacity:0.384" fill="#5f5f5f" d="M 280.5,726.5 C 284.758,726.124 287.758,727.791 289.5,731.5C 293.087,749.908 296.421,768.575 299.5,787.5C 297.833,787.5 296.167,787.5 294.5,787.5C 295.398,786.842 296.398,786.176 297.5,785.5C 297.192,784.692 296.692,784.025 296,783.5C 293.651,766.42 290.485,749.42 286.5,732.5C 286.709,731.914 287.043,731.414 287.5,731C 285.392,729.07 283.059,727.57 280.5,726.5 Z"/></g>
<g><path style="opacity:1" fill="#cecece" d="M 732.5,794.5 C 591.833,794.333 451.166,794.5 310.5,795C 308.323,796.202 305.989,796.702 303.5,796.5C 305.277,795.4 307.277,794.566 309.5,794C 450.667,793.167 591.667,793.334 732.5,794.5 Z"/></g>
<g><path style="opacity:1" fill="#fefefe" d="M 732.5,794.5 C 745.664,796.147 748.33,802.147 740.5,812.5C 739.571,811.311 739.238,809.978 739.5,808.5C 593.167,808.5 446.833,808.5 300.5,808.5C 300.672,806.508 300.005,804.842 298.5,803.5C 299.934,801.78 300.767,799.78 301,797.5C 301.671,796.748 302.504,796.414 303.5,796.5C 305.989,796.702 308.323,796.202 310.5,795C 451.166,794.5 591.833,794.333 732.5,794.5 Z"/></g>
<g><path style="opacity:0.025" fill="#6d6d6d" d="M 291.5,789.5 C 290.685,790.837 289.518,791.837 288,792.5C 286.438,796.153 284.938,799.82 283.5,803.5C 284.999,807.494 286.499,811.494 288,815.5C 289,816.167 290,816.833 291,817.5C 291.498,820.482 291.665,823.482 291.5,826.5C 290.686,824.369 290.186,822.036 290,819.5C 282.866,813.296 280.532,805.629 283,796.5C 283.333,796.833 283.667,797.167 284,797.5C 284.933,793.258 287.433,790.592 291.5,789.5 Z"/></g>
<g><path style="opacity:0.142" fill="#6e6e6e" d="M 754.5,791.5 C 760.839,794.445 763.339,799.445 762,806.5C 760.399,814.261 755.899,819.261 748.5,821.5C 755.035,816.793 759.368,810.459 761.5,802.5C 759.71,798.421 757.377,794.754 754.5,791.5 Z"/></g>
</svg>
