<?xml version="1.0" encoding="UTF-8"?>
<!DOCTYPE svg PUBLIC "-//W3C//DTD SVG 1.1//EN" "http://www.w3.org/Graphics/SVG/1.1/DTD/svg11.dtd">
<svg xmlns="http://www.w3.org/2000/svg" version="1.1" width="1000px" height="1080px" style="shape-rendering:geometricPrecision; text-rendering:geometricPrecision; image-rendering:optimizeQuality; fill-rule:evenodd; clip-rule:evenodd" xmlns:xlink="http://www.w3.org/1999/xlink">
<g><path style="opacity:0.981" fill="#020202" d="M 520.5,55.5 C 586.713,51.4034 644.713,70.9034 694.5,114C 730.89,148.452 751.224,190.786 755.5,241C 756.142,248.505 753.809,254.838 748.5,260C 733.842,268.081 718.675,274.914 703,280.5C 699.284,279.958 695.784,278.791 692.5,277C 686.29,270.455 679.79,264.289 673,258.5C 664.668,265.999 656.502,273.665 648.5,281.5C 679.293,311.792 709.959,342.292 740.5,373C 755.369,386.871 770.536,400.371 786,413.5C 800.145,429.555 803.478,447.555 796,467.5C 792.675,475.493 788.341,482.826 783,489.5C 768.762,503.735 755.262,518.568 742.5,534C 734.711,540.115 726.044,542.115 716.5,540C 710.264,537.883 704.264,535.216 698.5,532C 684.5,522.333 670.5,512.667 656.5,503C 648.871,498.017 640.537,495.017 631.5,494C 616.495,493.438 601.495,493.604 586.5,494.5C 562.838,494.45 542.504,486.283 525.5,470C 521.55,465.928 517.717,461.762 514,457.5C 515.664,467.81 519.33,477.477 525,486.5C 532.928,499.359 541.595,511.692 551,523.5C 565.467,539.635 580.3,555.468 595.5,571C 615.333,589.5 635.167,608 655,626.5C 669.284,641.152 678.95,658.485 684,678.5C 686.265,691.981 684.598,704.981 679,717.5C 671.873,733.239 661.706,746.739 648.5,758C 641.5,763.667 634.5,769.333 627.5,775C 632.833,775.333 638.167,775.667 643.5,776C 646.196,776.765 648.696,777.932 651,779.5C 663.302,799.093 677.302,817.426 693,834.5C 695.427,837.975 695.927,841.642 694.5,845.5C 704.995,848.001 710.995,854.667 712.5,865.5C 711.328,872.689 707.995,878.523 702.5,883C 715.774,894.815 715.774,906.482 702.5,918C 715.88,930.447 715.546,942.447 701.5,954C 699.913,954.862 698.246,955.529 696.5,956C 564.167,956.667 431.833,956.667 299.5,956C 289.182,953.38 283.848,946.714 283.5,936C 283.999,928.834 286.999,923.001 292.5,918.5C 280.53,906.703 280.53,894.87 292.5,883C 280.928,871.962 280.594,860.629 291.5,849C 294.309,847.259 297.309,846.092 300.5,845.5C 299.073,841.642 299.573,837.975 302,834.5C 317.197,817.976 330.863,800.309 343,781.5C 345.1,778.533 347.934,776.7 351.5,776C 356.533,775.829 361.533,775.329 366.5,774.5C 359.088,753.665 348.588,734.665 335,717.5C 313.122,693.647 285.955,683.813 253.5,688C 249,687.5 246.5,685 246,680.5C 237.059,617.284 235.393,553.95 241,490.5C 239.291,493.712 237.791,493.878 236.5,491C 237.422,486.894 238.256,482.727 239,478.5C 240.558,477.655 241.558,478.321 242,480.5C 251.089,411.685 269.922,348.352 298.5,290.5C 305.265,276.626 313.765,263.96 324,252.5C 329.374,168.142 370.541,108.642 447.5,74C 471.103,64.4523 495.437,58.2856 520.5,55.5 Z"/></g>
<g><path style="opacity:1" fill="#fefefe" d="M 527.5,70.5 C 591.618,68.0276 646.452,89.0276 692,133.5C 721.801,165.219 737.801,202.885 740,246.5C 727.609,252.946 715.109,259.279 702.5,265.5C 693.167,255.5 683.5,245.833 673.5,236.5C 661.15,248.018 648.65,259.351 636,270.5C 614.88,250.208 592.38,231.708 568.5,215C 557.851,207.369 553.184,197.036 554.5,184C 555.475,174.507 556.641,165.007 558,155.5C 559.637,144.944 556.804,135.777 549.5,128C 546.263,126.032 542.763,124.865 539,124.5C 530.835,127.175 522.669,129.675 514.5,132C 502.542,137.29 493.042,145.457 486,156.5C 479.064,168.705 472.398,181.039 466,193.5C 457.596,205.29 446.096,211.79 431.5,213C 397.543,207.861 367.376,216.027 341,237.5C 345.394,193.546 363.561,156.379 395.5,126C 433.092,92.4094 477.092,73.9094 527.5,70.5 Z"/></g>
<g><path style="opacity:1" fill="#fdfdfd" d="M 635.5,289.5 C 640.167,296.167 645.833,301.833 652.5,306.5C 674.527,328.194 696.527,349.861 718.5,371.5C 722.5,377.5 727.5,382.5 733.5,386.5C 747.796,398.959 761.962,411.626 776,424.5C 786.899,440.153 787.232,456.153 777,472.5C 770.048,482.284 762.214,491.284 753.5,499.5C 749.5,501.5 746.5,504.5 744.5,508.5C 740.402,515.194 735.069,520.694 728.5,525C 724.833,525.667 721.167,525.667 717.5,525C 712.608,523.106 707.941,520.772 703.5,518C 690.167,508.667 676.833,499.333 663.5,490C 656.608,486.326 649.608,483.159 642.5,480.5C 639.781,479.087 636.781,478.42 633.5,478.5C 617.322,477.383 601.155,477.717 585,479.5C 567.226,479.577 551.726,473.744 538.5,462C 520.512,443.023 503.678,423.189 488,402.5C 486.535,386.198 485.368,369.865 484.5,353.5C 484.82,350.102 484.487,346.768 483.5,343.5C 482.614,344.325 482.281,345.325 482.5,346.5C 480.181,357.596 478.181,368.763 476.5,380C 477.969,394.22 479.802,408.386 482,422.5C 485.966,427.467 490.299,432.134 495,436.5C 496.712,460.914 504.379,483.248 518,503.5C 533.786,526.461 551.619,547.794 571.5,567.5C 571.5,568.167 571.5,568.833 571.5,569.5C 550.073,558.453 528.407,547.953 506.5,538C 493.087,533.126 479.42,529.126 465.5,526C 446.436,522.121 427.436,518.121 408.5,514C 395.722,510.851 383.222,507.017 371,502.5C 365.636,490.736 360.469,478.902 355.5,467C 363.825,428.865 371.659,390.698 379,352.5C 356.409,401.35 334.076,450.35 312,499.5C 310.432,522.812 309.765,546.145 310,569.5C 328.917,598.998 347.583,628.665 366,658.5C 358.444,625.031 350.61,591.531 342.5,558C 350.116,548.714 358.116,539.714 366.5,531C 385.158,531.111 403.825,531.444 422.5,532C 449.29,536.854 475.624,543.521 501.5,552C 542.026,570.261 581.359,590.595 619.5,613C 633.406,624.904 645.906,638.071 657,652.5C 675.611,681.946 673.278,709.612 650,735.5C 639.884,745.791 629.051,755.124 617.5,763.5C 537.874,764.494 458.208,764.828 378.5,764.5C 371.133,745.104 361.133,727.104 348.5,710.5C 344.167,704.167 338.833,698.833 332.5,694.5C 310.969,678.327 286.636,670.993 259.5,672.5C 257.374,648.532 255.541,624.532 254,600.5C 247.851,507.611 261.851,417.944 296,331.5C 303.667,314.5 311.333,297.5 319,280.5C 327.403,272.767 335.07,264.434 342,255.5C 368.605,230.689 400.105,221.189 436.5,227C 453.924,224.223 467.758,215.723 478,201.5C 483.985,190.198 489.985,178.865 496,167.5C 501.611,157.223 509.778,149.723 520.5,145C 522.833,144.667 525.167,144.333 527.5,144C 530.929,141.953 534.596,140.453 538.5,139.5C 539.772,139.57 540.938,139.903 542,140.5C 543.057,143.207 543.557,146.04 543.5,149C 542.457,158.846 541.29,168.679 540,178.5C 537.318,198.124 543.818,213.958 559.5,226C 586.46,245.119 611.794,266.286 635.5,289.5 Z"/></g>
<g><path style="opacity:1" fill="#070707" d="M 555.5,288.5 C 571.658,287.504 587.991,287.17 604.5,287.5C 603.001,301.158 601.501,314.824 600,328.5C 585.296,314.959 570.463,301.626 555.5,288.5 Z"/></g>
<g><path style="opacity:1" fill="#aaaaaa" d="M 635.5,289.5 C 641.5,294.833 647.167,300.5 652.5,306.5C 645.833,301.833 640.167,296.167 635.5,289.5 Z"/></g>
<g><path style="opacity:1" fill="#959595" d="M 484.5,353.5 C 483.833,351.167 483.167,348.833 482.5,346.5C 482.281,345.325 482.614,344.325 483.5,343.5C 484.487,346.768 484.82,350.102 484.5,353.5 Z"/></g>
<g><path style="opacity:1" fill="#aaaaaa" d="M 718.5,371.5 C 723.833,376.167 728.833,381.167 733.5,386.5C 727.5,382.5 722.5,377.5 718.5,371.5 Z"/></g>
<g><path style="opacity:1" fill="#9c9c9c" d="M 633.5,478.5 C 636.781,478.42 639.781,479.087 642.5,480.5C 639.219,480.58 636.219,479.913 633.5,478.5 Z"/></g>
<g><path style="opacity:1" fill="#a9a9a9" d="M 753.5,499.5 C 750.833,502.833 747.833,505.833 744.5,508.5C 746.5,504.5 749.5,501.5 753.5,499.5 Z"/></g>
<g><path style="opacity:1" fill="#9d9d9d" d="M 571.5,567.5 C 572.962,568.458 574.295,569.624 575.5,571C 573.86,571.348 572.527,570.848 571.5,569.5C 571.5,568.833 571.5,568.167 571.5,567.5 Z"/></g>
<g><path style="opacity:1" fill="#a0a0a0" d="M 332.5,694.5 C 338.833,698.833 344.167,704.167 348.5,710.5C 342.833,705.5 337.5,700.167 332.5,694.5 Z"/></g>
<g><path style="opacity:1" fill="#aaaaaa" d="M 617.5,763.5 C 617.389,764.117 617.056,764.617 616.5,765C 536.999,765.832 457.666,765.666 378.5,764.5C 458.208,764.828 537.874,764.494 617.5,763.5 Z"/></g>
<g><path style="opacity:1" fill="#fdfdfd" d="M 669.5,830.5 C 669.414,831.496 669.748,832.329 670.5,833C 555.167,833.667 439.833,833.667 324.5,833C 325.823,832.184 326.489,831.017 326.5,829.5C 335.862,817.465 344.862,805.132 353.5,792.5C 449.5,791.167 545.5,791.167 641.5,792.5C 650.472,805.466 659.805,818.133 669.5,830.5 Z"/></g>
<g><path style="opacity:1" fill="#898989" d="M 326.5,829.5 C 326.489,831.017 325.823,832.184 324.5,833C 439.833,833.667 555.167,833.667 670.5,833C 669.748,832.329 669.414,831.496 669.5,830.5C 670.962,831.458 672.295,832.624 673.5,834C 556.499,834.833 439.499,834.667 322.5,833.5C 323.521,831.812 324.855,830.479 326.5,829.5 Z"/></g>
<g><path style="opacity:1" fill="#f3f3f3" d="M 300.5,860.5 C 431.834,860.333 563.167,860.5 694.5,861C 697.333,864.663 697,867.996 693.5,871C 562.833,871.667 432.167,871.667 301.5,871C 297.945,867.828 297.611,864.328 300.5,860.5 Z"/></g>
<g><path style="opacity:1" fill="#f5f5f5" d="M 300.5,895.5 C 431.834,895.333 563.167,895.5 694.5,896C 696.478,898.497 696.978,901.331 696,904.5C 695.25,905.126 694.416,905.626 693.5,906C 562.833,906.667 432.167,906.667 301.5,906C 297.945,902.828 297.611,899.328 300.5,895.5 Z"/></g>
<g><path style="opacity:1" fill="#fdfdfd" d="M 696.5,936.5 C 695.636,937.688 694.636,938.855 693.5,940C 562.834,940.5 432.167,940.667 301.5,940.5C 299.265,939.714 298.265,938.048 298.5,935.5C 298.39,933.626 299.056,932.126 300.5,931C 431.833,930.333 563.167,930.333 694.5,931C 696.155,932.444 696.822,934.278 696.5,936.5 Z"/></g>
<g><path style="opacity:1" fill="#bababa" d="M 696.5,936.5 C 696.703,938.39 696.037,939.89 694.5,941C 563.333,941.833 432.333,941.666 301.5,940.5C 432.167,940.667 562.834,940.5 693.5,940C 694.636,938.855 695.636,937.688 696.5,936.5 Z"/></g>
</svg>
