<?xml version="1.0" encoding="UTF-8"?>
<!DOCTYPE svg PUBLIC "-//W3C//DTD SVG 1.1//EN" "http://www.w3.org/Graphics/SVG/1.1/DTD/svg11.dtd">
<svg xmlns="http://www.w3.org/2000/svg" version="1.1" width="1000px" height="1080px" style="shape-rendering:geometricPrecision; text-rendering:geometricPrecision; image-rendering:optimizeQuality; fill-rule:evenodd; clip-rule:evenodd" xmlns:xlink="http://www.w3.org/1999/xlink">
<g><path style="opacity:0.981" fill="#fcfcfc" d="M 520.5,55.5 C 586.713,51.4034 644.713,70.9034 694.5,114C 730.89,148.452 751.224,190.786 755.5,241C 756.142,248.505 753.809,254.838 748.5,260C 733.842,268.081 718.675,274.914 703,280.5C 699.284,279.958 695.784,278.791 692.5,277C 686.29,270.455 679.79,264.289 673,258.5C 664.668,265.999 656.502,273.665 648.5,281.5C 679.293,311.792 709.959,342.292 740.5,373C 755.369,386.871 770.536,400.371 786,413.5C 800.145,429.555 803.478,447.555 796,467.5C 792.675,475.493 788.341,482.826 783,489.5C 768.762,503.735 755.262,518.568 742.5,534C 734.711,540.115 726.044,542.115 716.5,540C 710.264,537.883 704.264,535.216 698.5,532C 684.5,522.333 670.5,512.667 656.5,503C 648.871,498.017 640.537,495.017 631.5,494C 616.495,493.438 601.495,493.604 586.5,494.5C 562.838,494.45 542.504,486.283 525.5,470C 521.55,465.928 517.717,461.762 514,457.5C 515.664,467.81 519.33,477.477 525,486.5C 532.928,499.359 541.595,511.692 551,523.5C 565.467,539.635 580.3,555.468 595.5,571C 615.333,589.5 635.167,608 655,626.5C 669.284,641.152 678.95,658.485 684,678.5C 686.265,691.981 684.598,704.981 679,717.5C 671.873,733.239 661.706,746.739 648.5,758C 641.5,763.667 634.5,769.333 627.5,775C 632.833,775.333 638.167,775.667 643.5,776C 646.196,776.765 648.696,777.932 651,779.5C 663.302,799.093 677.302,817.426 693,834.5C 695.427,837.975 695.927,841.642 694.5,845.5C 704.995,848.001 710.995,854.667 712.5,865.5C 711.328,872.689 707.995,878.523 702.5,883C 715.774,894.815 715.774,906.482 702.5,918C 715.88,930.447 715.546,942.447 701.5,954C 699.913,954.862 698.246,955.529 696.5,956C 564.167,956.667 431.833,956.667 299.5,956C 289.182,953.38 283.848,946.714 283.5,936C 283.999,928.834 286.999,923.001 292.5,918.5C 280.53,906.703 280.53,894.87 292.5,883C 280.928,871.962 280.594,860.629 291.5,849C 294.309,847.259 297.309,846.092 300.5,845.5C 299.073,841.642 299.573,837.975 302,834.5C 317.197,817.976 330.863,800.309 343,781.5C 345.1,778.533 347.934,776.7 351.5,776C 356.533,775.829 361.533,775.329 366.5,774.5C 359.088,753.665 348.588,734.665 335,717.5C 313.122,693.647 285.955,683.813 253.5,688C 249,687.5 246.5,685 246,680.5C 237.059,617.284 235.393,553.95 241,490.5C 239.291,493.712 237.791,493.878 236.5,491C 237.422,486.894 238.256,482.727 239,478.5C 240.558,477.655 241.558,478.321 242,480.5C 251.089,411.685 269.922,348.352 298.5,290.5C 305.265,276.626 313.765,263.96 324,252.5C 329.374,168.142 370.541,108.642 447.5,74C 471.103,64.4523 495.437,58.2856 520.5,55.5 Z"/></g>
<g><path style="opacity:1" fill="#000000" d="M 527.5,70.5 C 591.005,68.1979 645.505,88.8645 691,132.5C 721.503,164.324 737.837,202.324 740,246.5C 727.667,252.833 715.333,259.167 703,265.5C 693.319,255.652 683.486,245.986 673.5,236.5C 661.15,248.018 648.65,259.351 636,270.5C 614.732,249.637 591.899,230.804 567.5,214C 558.176,207.186 553.843,198.019 554.5,186.5C 555.255,176.123 556.422,165.789 558,155.5C 559.981,144.779 557.147,135.613 549.5,128C 546.263,126.032 542.763,124.865 539,124.5C 530.835,127.175 522.669,129.675 514.5,132C 501.492,138.008 491.325,147.174 484,159.5C 477.985,170.865 471.985,182.198 466,193.5C 458.664,203.588 448.83,209.755 436.5,212C 406.947,207.984 379.28,213.318 353.5,228C 349.049,230.783 344.883,233.95 341,237.5C 345.306,194.056 363.139,157.223 394.5,127C 432.227,92.8083 476.56,73.975 527.5,70.5 Z"/></g>
<g><path style="opacity:1" fill="#575757" d="M 535.5,140.5 C 541.128,138.102 543.795,140.102 543.5,146.5C 542.609,144.709 541.609,142.876 540.5,141C 538.866,140.506 537.199,140.34 535.5,140.5 Z"/></g>
<g><path style="opacity:1" fill="#020202" d="M 535.5,140.5 C 537.199,140.34 538.866,140.506 540.5,141C 541.609,142.876 542.609,144.709 543.5,146.5C 542.491,159.057 541.158,171.557 539.5,184C 538.994,193.807 541.161,202.974 546,211.5C 550.467,216.968 555.3,222.135 560.5,227C 570.5,234.333 580.5,241.667 590.5,249C 600.001,257.003 609.334,265.17 618.5,273.5C 619.833,276.833 622.167,279.167 625.5,280.5C 629.5,284.167 633.5,287.833 637.5,291.5C 641.5,297.5 646.5,302.5 652.5,306.5C 674.5,328.167 696.5,349.833 718.5,371.5C 722.5,377.5 727.5,382.5 733.5,386.5C 736.167,388.833 738.833,391.167 741.5,393.5C 742.5,396.5 744.5,398.5 747.5,399.5C 757.425,407.252 766.925,415.586 776,424.5C 784.95,435.981 786.95,448.648 782,462.5C 776.448,474.279 768.948,484.612 759.5,493.5C 753.5,497.5 748.5,502.5 744.5,508.5C 740.402,515.194 735.069,520.694 728.5,525C 724.833,525.667 721.167,525.667 717.5,525C 711.675,522.255 706.008,519.255 700.5,516C 688.444,506.944 676.11,498.278 663.5,490C 647.927,480.765 631.094,476.599 613,477.5C 578.678,485.929 550.012,476.929 527,450.5C 513.458,434.907 500.458,418.907 488,402.5C 486.501,385.862 485.335,369.195 484.5,352.5C 484.892,349.278 484.392,346.278 483,343.5C 482.536,344.094 482.369,344.761 482.5,345.5C 480.583,356.671 478.583,367.837 476.5,379C 477.968,393.88 479.801,408.714 482,423.5C 486.333,427.833 490.667,432.167 495,436.5C 496.362,457.585 502.362,477.252 513,495.5C 520.608,507.6 528.775,519.266 537.5,530.5C 538.08,532.749 539.413,534.415 541.5,535.5C 545.212,538.211 548.212,541.544 550.5,545.5C 552.094,548.764 554.427,551.431 557.5,553.5C 560.167,555.5 562.5,557.833 564.5,560.5C 566.091,563.431 568.091,566.098 570.5,568.5C 550.886,559.027 531.219,549.527 511.5,540C 477.878,528.453 443.545,519.787 408.5,514C 395.805,510.556 383.305,506.722 371,502.5C 365.97,490.941 360.804,479.441 355.5,468C 363.73,428.433 371.897,388.933 380,349.5C 357.333,399.5 334.667,449.5 312,499.5C 310.604,522.819 309.937,546.152 310,569.5C 328.417,599.335 347.083,629.002 366,658.5C 358.741,624.958 350.908,591.458 342.5,558C 350.116,548.714 358.116,539.714 366.5,531C 385.167,530.869 403.834,531.202 422.5,532C 443.938,536.62 465.271,541.62 486.5,547C 499.173,551.17 511.507,556.17 523.5,562C 556.134,577.981 588.134,594.981 619.5,613C 635.159,625.986 648.659,640.819 660,657.5C 674.096,682.631 672.43,706.631 655,729.5C 644.176,742.831 631.676,754.165 617.5,763.5C 537.874,764.494 458.208,764.828 378.5,764.5C 371.107,745.048 361.107,727.048 348.5,710.5C 344.167,704.167 338.833,698.833 332.5,694.5C 318.453,683.254 302.453,676.254 284.5,673.5C 276.684,672.508 268.684,672.174 260.5,672.5C 260.795,670.265 260.461,668.265 259.5,666.5C 253.524,613.303 252.024,559.97 255,506.5C 259.58,446.013 273.246,387.679 296,331.5C 303.535,315.216 310.868,298.883 318,282.5C 328.203,271.966 338.036,261.132 347.5,250C 371.99,229.876 399.99,222.542 431.5,228C 451.017,225.997 466.517,217.164 478,201.5C 483.447,192.94 488.114,183.94 492,174.5C 497.367,163.804 504.867,154.971 514.5,148C 521.594,145.638 528.594,143.138 535.5,140.5 Z"/></g>
<g><path style="opacity:1" fill="#545454" d="M 618.5,273.5 C 621.167,275.5 623.5,277.833 625.5,280.5C 622.167,279.167 619.833,276.833 618.5,273.5 Z"/></g>
<g><path style="opacity:1" fill="#f7f7f7" d="M 555.5,288.5 C 571.658,287.504 587.991,287.17 604.5,287.5C 603.57,301.226 602.07,314.893 600,328.5C 585.296,314.959 570.463,301.626 555.5,288.5 Z"/></g>
<g><path style="opacity:1" fill="#4f4f4f" d="M 637.5,291.5 C 642.833,296.167 647.833,301.167 652.5,306.5C 646.5,302.5 641.5,297.5 637.5,291.5 Z"/></g>
<g><path style="opacity:1" fill="#757575" d="M 484.5,352.5 C 483.833,350.167 483.167,347.833 482.5,345.5C 482.369,344.761 482.536,344.094 483,343.5C 484.392,346.278 484.892,349.278 484.5,352.5 Z"/></g>
<g><path style="opacity:1" fill="#525252" d="M 718.5,371.5 C 723.833,376.167 728.833,381.167 733.5,386.5C 727.5,382.5 722.5,377.5 718.5,371.5 Z"/></g>
<g><path style="opacity:1" fill="#555555" d="M 741.5,393.5 C 743.833,395.167 745.833,397.167 747.5,399.5C 744.5,398.5 742.5,396.5 741.5,393.5 Z"/></g>
<g><path style="opacity:1" fill="#545454" d="M 759.5,493.5 C 754.833,498.833 749.833,503.833 744.5,508.5C 748.5,502.5 753.5,497.5 759.5,493.5 Z"/></g>
<g><path style="opacity:1" fill="#525252" d="M 537.5,530.5 C 539.587,531.585 540.92,533.251 541.5,535.5C 539.413,534.415 538.08,532.749 537.5,530.5 Z"/></g>
<g><path style="opacity:1" fill="#575757" d="M 550.5,545.5 C 553.573,547.569 555.906,550.236 557.5,553.5C 554.427,551.431 552.094,548.764 550.5,545.5 Z"/></g>
<g><path style="opacity:1" fill="#484848" d="M 564.5,560.5 C 568.298,563.796 571.964,567.296 575.5,571C 573.332,571.249 571.665,570.416 570.5,568.5C 568.091,566.098 566.091,563.431 564.5,560.5 Z"/></g>
<g><path style="opacity:1" fill="#b7b7b7" d="M 259.5,666.5 C 260.461,668.265 260.795,670.265 260.5,672.5C 268.684,672.174 276.684,672.508 284.5,673.5C 276.167,673.5 267.833,673.5 259.5,673.5C 259.5,671.167 259.5,668.833 259.5,666.5 Z"/></g>
<g><path style="opacity:1" fill="#5b5b5b" d="M 332.5,694.5 C 338.833,698.833 344.167,704.167 348.5,710.5C 342.833,705.5 337.5,700.167 332.5,694.5 Z"/></g>
<g><path style="opacity:1" fill="#545454" d="M 617.5,763.5 C 617.389,764.117 617.056,764.617 616.5,765C 536.999,765.832 457.666,765.666 378.5,764.5C 458.208,764.828 537.874,764.494 617.5,763.5 Z"/></g>
<g><path style="opacity:1" fill="#010101" d="M 669.5,830.5 C 669.414,831.496 669.748,832.329 670.5,833C 554.666,833.833 438.999,833.666 323.5,832.5C 334.419,819.519 344.752,806.019 354.5,792C 450.168,791.167 545.835,791.333 641.5,792.5C 650.472,805.466 659.805,818.133 669.5,830.5 Z"/></g>
<g><path style="opacity:1" fill="#757575" d="M 669.5,830.5 C 670.962,831.458 672.295,832.624 673.5,834C 556.499,834.833 439.499,834.667 322.5,833.5C 322.624,832.893 322.957,832.56 323.5,832.5C 438.999,833.666 554.666,833.833 670.5,833C 669.748,832.329 669.414,831.496 669.5,830.5 Z"/></g>
<g><path style="opacity:1" fill="#0f0f0f" d="M 300.5,860.5 C 431.834,860.333 563.167,860.5 694.5,861C 697.343,864.619 697.01,867.952 693.5,871C 562.833,871.667 432.167,871.667 301.5,871C 297.935,867.784 297.602,864.284 300.5,860.5 Z"/></g>
<g><path style="opacity:1" fill="#0c0c0c" d="M 300.5,895.5 C 431.834,895.333 563.167,895.5 694.5,896C 696.478,898.497 696.978,901.331 696,904.5C 695.25,905.126 694.416,905.626 693.5,906C 562.833,906.667 432.167,906.667 301.5,906C 297.945,902.828 297.611,899.328 300.5,895.5 Z"/></g>
<g><path style="opacity:1" fill="#010101" d="M 696.5,936.5 C 695.636,937.688 694.636,938.855 693.5,940C 562.834,940.5 432.167,940.667 301.5,940.5C 299.265,939.714 298.265,938.048 298.5,935.5C 298.39,933.626 299.056,932.126 300.5,931C 431.833,930.333 563.167,930.333 694.5,931C 696.155,932.444 696.822,934.278 696.5,936.5 Z"/></g>
<g><path style="opacity:1" fill="#444444" d="M 696.5,936.5 C 696.703,938.39 696.037,939.89 694.5,941C 563.333,941.833 432.333,941.666 301.5,940.5C 432.167,940.667 562.834,940.5 693.5,940C 694.636,938.855 695.636,937.688 696.5,936.5 Z"/></g>
</svg>
