<svg width="38" height="47" viewBox="0 0 38 47" fill="none" xmlns="http://www.w3.org/2000/svg">
<g clip-path="url(#clip0_38_179)">
<path fill-rule="evenodd" clip-rule="evenodd" d="M25.1097 31.8636L20.2517 31.8354L16.2033 31.8119L13.7743 31.7978L12.5922 31.7908L12.5273 31.732L11.7345 31.0177L11.5375 30.8414L12.9382 29.7463C12.7772 29.6546 12.6331 29.563 12.5033 29.4713C12.0012 29.1141 11.7201 28.7522 11.5855 28.4044C11.5687 28.3621 11.5543 28.3198 11.5423 28.2775C11.2203 27.1683 12.3279 26.2471 12.3279 26.2471C14.2548 24.5551 13.8512 23.0958 13.8512 23.0958C13.8512 23.0958 13.7719 23.084 13.707 23.0464C13.7022 23.0441 13.6974 23.0394 13.6926 23.037C13.671 23.0229 13.6518 23.0041 13.6398 22.9806C13.6349 22.9736 13.6325 22.9665 13.6301 22.9571C13.6253 22.9383 13.6253 22.9195 13.6301 22.896V22.8913C13.6325 22.8819 13.6349 22.8725 13.6398 22.8631V22.8608C13.6398 22.8584 13.6422 22.8561 13.6446 22.8537V22.8514C13.6446 22.849 13.647 22.8467 13.647 22.8443H13.6494V22.842C13.6518 22.8396 13.6518 22.8373 13.6518 22.8349H13.6542V22.8326C13.6614 22.8208 13.6686 22.8091 13.6782 22.7973C13.683 22.7926 13.6878 22.7856 13.6926 22.7785C13.6998 22.7691 13.707 22.7597 13.7166 22.7503C13.719 22.748 13.719 22.748 13.7214 22.7456L13.7262 22.7409C13.7286 22.7386 13.7286 22.7386 13.7286 22.7362H13.731V22.7339L13.7335 22.7315H13.7359V22.7292C13.7479 22.7174 13.7599 22.7057 13.7743 22.6939C13.7839 22.6845 13.7959 22.6751 13.8055 22.6657H13.8079V22.6634L13.8127 22.661C13.8223 22.6516 13.8344 22.6446 13.844 22.6352C14.3389 22.2474 13.9257 21.8926 13.9257 21.8926C13.0199 21.0254 12.8061 20.0925 12.9598 19.2089C12.9959 18.9974 13.0535 18.7906 13.128 18.5861C13.2313 18.2994 13.3683 18.0198 13.5244 17.7542C13.5653 17.6837 13.6085 17.6132 13.6542 17.5427C13.7911 17.3289 13.9401 17.1244 14.0938 16.9294C14.1059 16.9153 14.1155 16.9012 14.1275 16.8871C14.2981 16.6756 14.4735 16.4782 14.644 16.2972C14.6681 16.2714 14.6921 16.2479 14.7161 16.222C14.757 16.1797 14.7954 16.1398 14.8362 16.0998C14.8987 16.0387 14.9588 15.9776 15.0188 15.9212C15.0885 15.8554 15.1558 15.792 15.2207 15.7332C15.2423 15.7144 15.2615 15.6956 15.2831 15.6768C15.3168 15.6463 15.3504 15.6157 15.384 15.5875C15.4273 15.5499 15.4657 15.517 15.5042 15.4841C15.7108 15.3079 15.8429 15.2115 15.8429 15.2115C18.2167 13.6958 18.7429 10.9557 18.7429 10.9557C18.5531 10.7418 18.3536 10.5867 18.147 10.481C17.9019 10.3541 17.6497 10.2953 17.3974 10.2883H17.3109C17.0154 10.2953 16.7199 10.3729 16.4364 10.4904C16.3571 10.5233 16.2802 10.5585 16.2033 10.5985C15.8838 10.7606 15.5834 10.9651 15.324 11.1742C15.2255 11.2518 15.1318 11.3317 15.0477 11.4069C14.6368 11.7711 14.3773 12.0837 14.3773 12.0837C14.3581 12.1025 14.3389 12.1189 14.3221 12.1354L14.3173 12.1401L14.3125 12.1448L14.3077 12.1495C14.2909 12.1636 14.2764 12.1777 14.2596 12.1918L14.2548 12.1965C14.2284 12.22 14.1996 12.2435 14.1731 12.267C14.1635 12.274 14.1539 12.2834 14.1467 12.2905H14.1443V12.2928C14.1419 12.2928 14.1419 12.2952 14.1395 12.2952C14.1299 12.3022 14.1203 12.3093 14.1107 12.3187C14.101 12.3257 14.0914 12.3351 14.0818 12.3422C14.065 12.3539 14.0506 12.368 14.0338 12.3798C14.0266 12.3845 14.0218 12.3892 14.0146 12.3939C14.0073 12.4009 13.9977 12.4056 13.9905 12.4127C13.9833 12.4174 13.9785 12.4221 13.9713 12.4268C13.9641 12.4315 13.9593 12.4362 13.9521 12.4409C13.9449 12.4456 13.9401 12.4503 13.9329 12.455C13.9064 12.4738 13.8776 12.4926 13.8512 12.5114C13.8464 12.5137 13.8416 12.5184 13.8392 12.5208C13.8344 12.5231 13.8296 12.5255 13.8272 12.5302H13.8247C13.8199 12.5325 13.8151 12.5349 13.8103 12.5396C13.8055 12.5419 13.8007 12.5466 13.7959 12.549C13.7911 12.5513 13.7863 12.556 13.7815 12.5584C13.7695 12.5654 13.7551 12.5748 13.7431 12.5819C13.7359 12.5866 13.7262 12.5913 13.719 12.596C13.7118 12.6007 13.7046 12.6054 13.695 12.6101C13.6926 12.6124 13.6902 12.6124 13.6878 12.6148H13.6854C13.6782 12.6195 13.6686 12.6242 13.6614 12.6289C13.647 12.6359 13.6325 12.6453 13.6181 12.6524C13.6157 12.6547 13.6109 12.6547 13.6085 12.6571C13.6061 12.6594 13.6037 12.6594 13.5989 12.6618L13.5893 12.6665C13.5869 12.6688 13.5845 12.6688 13.5821 12.6712H13.5797C13.5773 12.6735 13.5749 12.6735 13.5725 12.6759H13.5701C13.5677 12.6782 13.5653 12.6782 13.5629 12.6806H13.5605C13.5581 12.6829 13.5557 12.6829 13.5533 12.6853H13.5509C13.5485 12.6876 13.546 12.6876 13.5412 12.69C13.5388 12.6923 13.534 12.6923 13.5316 12.6947C13.5148 12.7017 13.4956 12.7111 13.4788 12.7182C13.4716 12.7205 13.4644 12.7252 13.4572 12.7276H13.4548C13.4475 12.7299 13.4403 12.7346 13.4331 12.737H13.4307C13.4235 12.7393 13.4163 12.7417 13.4091 12.7464H13.4067C13.3899 12.7534 13.3707 12.7581 13.3538 12.7652C13.349 12.7675 13.3442 12.7675 13.3394 12.7699C13.3346 12.7722 13.3298 12.7722 13.325 12.7746C13.3202 12.7769 13.3154 12.7769 13.3106 12.7793H13.3058C13.301 12.7816 13.2962 12.7816 13.2938 12.784C13.2673 12.791 13.2433 12.7981 13.2193 12.8028H13.2169C13.2097 12.8051 13.2025 12.8051 13.1953 12.8075H13.1929C13.1857 12.8098 13.176 12.8098 13.1688 12.8122C13.1472 12.8169 13.1232 12.8192 13.1016 12.8216H13.092C13.0727 12.8239 13.0511 12.8239 13.0319 12.8263H12.9694C12.9502 12.8263 12.9286 12.8239 12.9094 12.8216H12.8998C12.8709 12.8192 12.8445 12.8145 12.8181 12.8075H12.8157C12.7964 12.8028 12.7796 12.7981 12.7628 12.7934C12.758 12.791 12.7532 12.791 12.7484 12.7887H12.746C12.7412 12.7863 12.7364 12.7863 12.734 12.784H12.7316C12.7268 12.7816 12.7244 12.7816 12.7196 12.7793C12.7027 12.7746 12.6883 12.7675 12.6715 12.7605C12.6451 12.7487 12.6211 12.737 12.597 12.7229C12.5538 12.6994 12.5153 12.6735 12.4793 12.643C12.4697 12.6359 12.4601 12.6265 12.4505 12.6195C12.4144 12.5889 12.3808 12.556 12.3496 12.5208C12.3135 12.4808 12.2823 12.4409 12.2535 12.3986C12.1261 12.2129 12.0733 12.0367 12.0733 12.0367C12.8637 10.7794 11.2155 11.4233 11.2155 11.4233C11.1915 11.4233 11.1699 11.4233 11.1483 11.4233V11.421H11.1266C11.1122 11.421 11.0954 11.4186 11.081 11.4163C11.0738 11.4163 11.0642 11.4139 11.057 11.4116H11.0498C11.045 11.4116 11.0377 11.4092 11.0329 11.4092V11.4069H11.0257C11.0209 11.4045 11.0137 11.4045 11.0089 11.4022H11.0065C10.9849 11.3975 10.9657 11.3904 10.9464 11.3857V11.3834H10.9416C10.9392 11.381 10.9344 11.381 10.932 11.381V11.3787H10.9296C10.9224 11.3763 10.9152 11.374 10.908 11.3693H10.9056C10.8864 11.3622 10.8672 11.3528 10.8503 11.3434V11.3411H10.8479C10.8455 11.3387 10.8431 11.3387 10.8407 11.3387H10.8383C10.8359 11.3364 10.8335 11.3364 10.8311 11.334C10.8287 11.334 10.8287 11.3317 10.8263 11.3317V11.3293H10.8239C10.8215 11.327 10.8191 11.327 10.8167 11.3246C10.8071 11.3176 10.7975 11.3129 10.7879 11.3058C10.7807 11.3011 10.7759 11.2964 10.7687 11.2917C10.7662 11.2917 10.7662 11.2894 10.7638 11.2894V11.287H10.7614C10.7542 11.2823 10.747 11.2753 10.7398 11.2682C10.7374 11.2659 10.7374 11.2659 10.735 11.2635H10.7326C10.7158 11.2471 10.6966 11.2306 10.6822 11.2142V11.2118H10.6798L10.6774 11.2095V11.2071H10.675C10.675 11.2048 10.6725 11.2048 10.6725 11.2024C10.6701 11.2001 10.6701 11.2001 10.6677 11.1977C10.6605 11.1883 10.6509 11.1789 10.6437 11.1695C10.6365 11.1601 10.6269 11.1484 10.6197 11.139C10.6173 11.1343 10.6149 11.1319 10.6101 11.1272V11.1249H10.6077C10.6053 11.1202 10.6029 11.1155 10.6005 11.1131V11.1108C10.5933 11.1014 10.5885 11.092 10.5812 11.0826C10.574 11.0708 10.5692 11.0614 10.562 11.0497C10.5596 11.0473 10.5596 11.045 10.5572 11.0426V11.0403C10.5548 11.0379 10.5548 11.0356 10.5524 11.0332V11.0309C10.55 11.0285 10.55 11.0262 10.5476 11.0238V11.0215C10.5404 11.0074 10.5308 10.9909 10.5236 10.9745C10.5188 10.9651 10.514 10.9533 10.5092 10.9439V10.9416C10.5068 10.9345 10.5044 10.9275 10.4996 10.9204V10.9181C10.49 10.8946 10.4803 10.8687 10.4707 10.8429C10.4683 10.8382 10.4683 10.8335 10.4659 10.8288C10.4563 10.8029 10.4491 10.7771 10.4419 10.7512C10.4395 10.7465 10.4395 10.7395 10.4371 10.7348V10.7324C10.4347 10.7277 10.4347 10.723 10.4323 10.7183V10.716C10.4299 10.7113 10.4299 10.7042 10.4275 10.6995V10.6972C10.4251 10.6925 10.4251 10.6854 10.4227 10.6807V10.6784C10.4203 10.6643 10.4155 10.6502 10.4131 10.6361C10.4107 10.629 10.4107 10.622 10.4083 10.6149V10.6126C10.4059 10.6055 10.4059 10.5985 10.4035 10.5914C10.3987 10.5656 10.3938 10.5374 10.389 10.5092V10.5068C10.3866 10.4974 10.3866 10.488 10.3842 10.4786V10.4739C10.3818 10.4645 10.3818 10.4528 10.3794 10.4434V10.441C10.377 10.4152 10.3722 10.3893 10.3698 10.3611V10.3564C10.3674 10.3423 10.3674 10.3259 10.365 10.3118V10.3094C10.3626 10.2906 10.3626 10.2718 10.3602 10.2507V10.2483C10.3578 10.2225 10.3578 10.199 10.3554 10.1731V10.1684C10.353 10.1214 10.3506 10.0744 10.3506 10.0274V10.0227C10.3482 9.88879 10.353 9.75484 10.3602 9.6256V9.62325C10.3626 9.59974 10.3626 9.57389 10.365 9.5504C10.3698 9.47519 10.377 9.40234 10.3842 9.33184C10.3866 9.30129 10.3914 9.2731 10.3938 9.24255C10.3962 9.21434 10.4011 9.1885 10.4035 9.16265C10.4467 8.81015 10.502 8.55869 10.502 8.55869C12.0516 8.20384 13.6325 5.20524 13.6325 5.20524C13.6349 5.19819 13.6373 5.18879 13.6373 5.18174C13.6397 5.17469 13.6397 5.16999 13.6422 5.16294V5.16059C13.6542 5.11594 13.6686 5.07129 13.6854 5.02664C13.6878 5.02194 13.6878 5.01724 13.6902 5.01254C13.695 4.99609 13.7022 4.98199 13.7094 4.96554V4.96319C13.7118 4.95614 13.7166 4.94909 13.719 4.94204C13.7335 4.91149 13.7479 4.88094 13.7623 4.84804C13.7647 4.84569 13.7647 4.84099 13.7671 4.83864L13.7719 4.82924C13.7791 4.81749 13.7839 4.80339 13.7911 4.79164C13.8007 4.77049 13.8127 4.75169 13.8247 4.73054C13.8368 4.70939 13.8488 4.68824 13.8632 4.66474C13.868 4.65769 13.8728 4.65064 13.8776 4.64124C13.8896 4.62009 13.9016 4.60129 13.916 4.58014C13.9425 4.53784 13.9713 4.49554 14.0025 4.45324C14.0674 4.36159 14.1395 4.27229 14.2116 4.18299C14.2356 4.15479 14.2596 4.12659 14.2836 4.09839C14.2933 4.08664 14.3029 4.07724 14.3125 4.06549C14.3365 4.03964 14.3605 4.01144 14.3846 3.98559C14.4494 3.91274 14.5191 3.84224 14.5864 3.77644C14.6416 3.72239 14.6945 3.66834 14.7497 3.61664C15.1846 3.20304 15.5786 2.91399 15.5786 2.91399C15.4705 2.78004 15.3696 2.65079 15.2759 2.52859C15.2711 2.52154 15.2663 2.51684 15.2615 2.50979C15.2375 2.47924 15.2134 2.44634 15.1894 2.41579C15.1702 2.39229 15.1534 2.36879 15.1366 2.34529C15.1053 2.30534 15.0741 2.26304 15.0453 2.22309C15.0044 2.16904 14.9684 2.11734 14.9299 2.06329C14.8891 2.00689 14.8531 1.95284 14.8146 1.89879C14.7882 1.86119 14.7618 1.82359 14.7377 1.78599C14.7041 1.73664 14.6729 1.68729 14.6416 1.64029C14.6224 1.61209 14.6056 1.58389 14.5888 1.55569C14.5647 1.51574 14.5407 1.47579 14.5167 1.43819C14.5095 1.42644 14.5047 1.41704 14.4975 1.40529C14.4903 1.39354 14.4855 1.38414 14.4783 1.37239C14.471 1.36064 14.4662 1.35124 14.459 1.33949C14.435 1.29719 14.4134 1.25724 14.3918 1.21729C13.6662 -0.141007 14.5984 -0.0752065 15.6964 0.324294C15.7805 0.354844 15.867 0.387744 15.9534 0.422994C15.9991 0.441794 16.0447 0.460594 16.0928 0.479394C16.1264 0.493494 16.1601 0.507594 16.1937 0.521694C16.2201 0.533444 16.2442 0.542844 16.2706 0.554594C16.2994 0.566344 16.3283 0.580444 16.3571 0.592194C16.5301 0.669744 16.7007 0.747294 16.864 0.824844L16.8736 0.829544C16.9433 0.862444 17.0082 0.895344 17.0731 0.928244C17.1331 0.958794 17.1932 0.986994 17.2508 1.01754C17.3662 1.07629 17.4719 1.13034 17.5656 1.18204C17.6401 1.22199 17.7073 1.25724 17.765 1.29014C17.8107 1.31599 17.8515 1.33714 17.8851 1.35594C17.9308 1.38179 17.9644 1.40059 17.986 1.41234C18.0029 1.42174 18.0125 1.42879 18.0125 1.42879C18.0221 1.42879 18.0293 1.42879 18.0389 1.42644H18.0437C18.0773 1.42409 18.1086 1.42409 18.1422 1.42174H18.1446C18.2551 1.41704 18.3681 1.41704 18.4786 1.42174H18.4858C18.5242 1.42409 18.5603 1.42409 18.5987 1.42644C18.6227 1.42879 18.6468 1.42879 18.6708 1.43114H18.678C18.6996 1.43349 18.7212 1.43349 18.7429 1.43584H18.7453C18.7645 1.43819 18.7813 1.43819 18.8005 1.44054H18.8029C18.8197 1.44289 18.8366 1.44289 18.8534 1.44524C18.8702 1.44759 18.8846 1.44759 18.9014 1.44994C18.9158 1.45229 18.9303 1.45229 18.9447 1.45464H18.9471C18.9615 1.45699 18.9735 1.45699 18.9879 1.45934H18.9903C19.0288 1.46404 19.0648 1.46874 19.1032 1.47344H19.1056C19.1489 1.47814 19.1945 1.48519 19.2378 1.49224C19.269 1.49694 19.2979 1.50164 19.3267 1.50634C19.3627 1.51339 19.4012 1.51809 19.4372 1.52514C19.454 1.52749 19.4708 1.53219 19.4901 1.53454C19.4973 1.53689 19.5069 1.53689 19.5141 1.53924H19.5165C19.5718 1.54864 19.627 1.56039 19.6823 1.57214C19.7039 1.57684 19.7255 1.58154 19.7495 1.58624C19.764 1.58859 19.7784 1.59329 19.7928 1.59564C19.8481 1.60739 19.9009 1.61914 19.9538 1.63324C19.973 1.63794 19.9922 1.64264 20.0114 1.64734C20.0186 1.64969 20.0234 1.64969 20.0306 1.65204L20.0499 1.65674C20.0811 1.66379 20.1099 1.67319 20.1412 1.68024C20.2229 1.70139 20.3045 1.72489 20.379 1.74604C20.4127 1.75544 20.4439 1.76484 20.4751 1.77424C20.5448 1.79539 20.6097 1.81419 20.6721 1.83534L20.6866 1.84004C20.7058 1.84709 20.725 1.85179 20.7442 1.85884L20.7586 1.86354C21.0638 1.96459 21.2488 2.04214 21.2488 2.04214C21.2536 2.04919 21.2608 2.05624 21.2656 2.06329C21.2704 2.06799 21.2752 2.07504 21.28 2.07974V2.08209C21.2824 2.08444 21.2824 2.08444 21.2824 2.08679C21.2872 2.09384 21.292 2.09854 21.2968 2.10559C21.3256 2.14319 21.3521 2.18079 21.3785 2.22074V2.22309C21.3809 2.22779 21.3833 2.23249 21.3881 2.23719C21.4025 2.26069 21.4169 2.28184 21.4314 2.30769C21.4386 2.31944 21.4434 2.32884 21.4506 2.34059C21.4866 2.40404 21.5227 2.47219 21.5563 2.54034C21.5635 2.55679 21.5731 2.57324 21.5803 2.58969C21.5875 2.60379 21.5923 2.61789 21.5995 2.63199C21.6116 2.66019 21.626 2.69074 21.638 2.72129C21.6404 2.72834 21.6452 2.73774 21.6476 2.74479C21.6596 2.77299 21.6692 2.80119 21.6812 2.82939C21.6884 2.84584 21.6932 2.86229 21.7004 2.87874V2.88109C21.7077 2.89754 21.7125 2.91634 21.7197 2.93279C21.7485 3.01269 21.7749 3.09259 21.8014 3.17484C21.8062 3.19129 21.811 3.20539 21.8158 3.22184C21.8278 3.26414 21.8422 3.30879 21.8542 3.35109V3.35344C21.859 3.36989 21.8638 3.38634 21.8686 3.40279C21.8758 3.42629 21.8806 3.44979 21.8879 3.47329L21.8927 3.49209C21.8951 3.49679 21.8951 3.50384 21.8975 3.50854V3.51089C21.8999 3.51559 21.8999 3.52264 21.9023 3.52734V3.52969C21.9143 3.58139 21.9287 3.63074 21.9407 3.68244V3.68479C21.9431 3.69184 21.9431 3.69654 21.9455 3.70359C21.9479 3.71769 21.9527 3.73179 21.9551 3.74589C21.9623 3.77409 21.9671 3.80229 21.9743 3.83049C21.9792 3.85164 21.984 3.87279 21.9888 3.89629C22.0032 3.96679 22.0176 4.03729 22.032 4.10544C22.0464 4.18299 22.0608 4.26289 22.0753 4.33809C22.0777 4.34749 22.0777 4.35689 22.0801 4.36629C22.0825 4.37569 22.0825 4.38509 22.0849 4.39449L22.0897 4.42269C22.0969 4.46264 22.1017 4.50024 22.1089 4.54019C22.1233 4.62714 22.1353 4.71409 22.1473 4.79634C22.1497 4.81984 22.1545 4.84334 22.1569 4.86449C22.2482 5.54599 22.2723 6.06769 22.2723 6.06769C22.8321 4.84334 22.6351 2.90929 22.6351 2.90929C23.7763 3.28529 24.1151 4.61539 24.1559 5.92199C24.1751 6.57764 24.1199 7.22859 24.0502 7.75029C23.9637 8.41534 23.8556 8.87124 23.8556 8.87124C24.8767 8.00174 25.4052 5.61649 25.4052 5.61649L25.6047 5.97839L25.7632 6.26274L26.4936 7.58109C26.4912 7.60224 26.4888 7.62339 26.4864 7.64689V7.65394C26.484 7.66569 26.484 7.67744 26.4816 7.6892V7.69859C26.4816 7.70799 26.4792 7.71739 26.4792 7.72679H26.4768V7.73854C26.4744 7.74794 26.4744 7.75734 26.472 7.76674V7.7738C26.4696 7.7832 26.4696 7.79494 26.4672 7.80434V7.80904C26.4624 7.85134 26.4552 7.89599 26.448 7.93829V7.94064C26.4456 7.95005 26.4456 7.95944 26.4432 7.9665V7.97119C26.4408 7.97824 26.4408 7.98764 26.4384 7.99469V8.00174L26.436 8.02289V8.02994C26.4336 8.03699 26.4336 8.04404 26.4312 8.05109V8.05579C26.4288 8.06284 26.4288 8.07225 26.4263 8.0793V8.08399C26.4239 8.09105 26.4239 8.10044 26.4215 8.10749V8.10984C26.4191 8.11924 26.4191 8.12629 26.4167 8.13569C26.4095 8.17564 26.4023 8.21324 26.3927 8.25084V8.25554C26.3903 8.2626 26.3903 8.26729 26.3879 8.27434V8.27904C26.3855 8.28609 26.3855 8.2908 26.3831 8.29784V8.30255C26.3807 8.3096 26.3807 8.31429 26.3783 8.32134V8.32369C26.3759 8.32839 26.3759 8.33545 26.3735 8.34015V8.34484C26.3711 8.35189 26.3711 8.3566 26.3687 8.36364V8.36599C26.3663 8.37304 26.3663 8.38009 26.3639 8.38714C26.3543 8.42709 26.3447 8.46704 26.3351 8.507C26.3326 8.51404 26.3326 8.51874 26.3302 8.52579C26.3278 8.53049 26.3278 8.53754 26.3254 8.54224V8.54459C26.323 8.54929 26.323 8.55634 26.3206 8.56104V8.56339C26.3182 8.56809 26.3182 8.57514 26.3158 8.57984V8.5822C26.3134 8.58689 26.3134 8.59159 26.311 8.59865V8.60099C26.3086 8.60569 26.3086 8.61274 26.3062 8.61744V8.61979C26.3038 8.62449 26.3038 8.63155 26.3014 8.63624C26.2918 8.6762 26.2798 8.71614 26.2678 8.75844C26.2654 8.7702 26.2606 8.77959 26.2582 8.79134V8.79369C26.2558 8.80309 26.251 8.81484 26.2486 8.82424V8.8266C26.2462 8.83599 26.2438 8.84774 26.2389 8.85714V8.8595C26.2365 8.86419 26.2365 8.86654 26.2341 8.87124V8.87595C26.2317 8.88064 26.2317 8.88535 26.2293 8.89005C26.2269 8.89474 26.2269 8.89944 26.2245 8.90414V8.9065C26.2221 8.9159 26.2173 8.92764 26.2149 8.93704C26.2101 8.95349 26.2053 8.9676 26.2005 8.98405C26.1885 9.01929 26.1789 9.05219 26.1669 9.08744C26.1645 9.09214 26.1645 9.09684 26.1621 9.10154C26.1597 9.10625 26.1597 9.11094 26.1573 9.11565V9.11799C26.1549 9.12269 26.1549 9.12739 26.1525 9.12974V9.1321C26.1501 9.1368 26.1501 9.13914 26.1476 9.14384V9.14619C26.1452 9.15089 26.1452 9.15559 26.1428 9.15794V9.16029C26.1404 9.16499 26.1404 9.16969 26.138 9.17204C26.1356 9.17674 26.1356 9.18145 26.1332 9.18379L26.1284 9.1979L26.1236 9.212C26.1212 9.21669 26.1212 9.22139 26.1188 9.22609C26.1068 9.25664 26.0972 9.2872 26.0852 9.3201C26.0804 9.33184 26.0756 9.34594 26.0708 9.35769V9.36005C26.0684 9.36475 26.0684 9.36709 26.066 9.37179C26.0636 9.3765 26.0636 9.3812 26.0612 9.38354C26.0588 9.39059 26.0564 9.39999 26.0515 9.40704V9.4094C26.0491 9.41409 26.0491 9.41644 26.0467 9.42114C26.0419 9.43289 26.0371 9.44464 26.0323 9.45875C26.0275 9.4705 26.0227 9.48224 26.0179 9.49634C25.9987 9.54805 25.9771 9.59974 25.9578 9.6491V9.65144C25.9554 9.65615 25.9554 9.65849 25.953 9.66319C25.9506 9.66554 25.9506 9.67025 25.9482 9.6726V9.67494C25.9458 9.68199 25.9434 9.68904 25.9386 9.69609V9.69845C25.9362 9.70549 25.9314 9.71255 25.929 9.71959L25.9194 9.74074C25.9026 9.78069 25.8858 9.82064 25.8665 9.86059V9.86295C25.8617 9.87234 25.8569 9.88409 25.8521 9.89349V9.89585C25.8473 9.90524 25.8425 9.917 25.8377 9.9264C25.8305 9.9405 25.8257 9.95459 25.8185 9.96634C25.7993 10.011 25.7776 10.0556 25.756 10.1003L25.7512 10.1097C25.744 10.1261 25.7344 10.1426 25.7272 10.159C25.7248 10.1614 25.7248 10.1661 25.7224 10.1684L25.7176 10.1778V10.1802C25.7056 10.2037 25.696 10.2248 25.6839 10.2483L25.6791 10.2577C25.6239 10.3682 25.5686 10.4786 25.511 10.5844C25.4965 10.6102 25.4821 10.6384 25.4677 10.6643V10.6666C25.4653 10.669 25.4653 10.6713 25.4629 10.6737C25.4509 10.6948 25.4413 10.7136 25.4293 10.7348C25.4101 10.77 25.3908 10.8029 25.3716 10.8382C25.3644 10.8523 25.3548 10.8664 25.3476 10.8805C25.3404 10.8946 25.3308 10.9087 25.3236 10.9228C25.3164 10.9345 25.3115 10.9439 25.3043 10.9557C25.2779 11.0003 25.2539 11.0426 25.2275 11.0849C25.2227 11.092 25.2178 11.1014 25.213 11.1084C25.201 11.1272 25.1914 11.146 25.1794 11.1648C25.1746 11.1719 25.1698 11.1813 25.165 11.1883C25.1458 11.2189 25.1265 11.2494 25.1073 11.2823C25.0953 11.3035 25.0833 11.3223 25.0689 11.3434C25.0641 11.3505 25.0593 11.3575 25.0545 11.3669C25.0184 11.4233 24.9848 11.4774 24.9488 11.5314C24.9367 11.5479 24.9271 11.5643 24.9151 11.5831C24.9007 11.6043 24.8863 11.6278 24.8719 11.6489C24.8166 11.7312 24.7638 11.8111 24.7085 11.8863C24.6917 11.9121 24.6725 11.9356 24.6556 11.9615C24.6412 11.9826 24.6268 12.0014 24.6124 12.0226C24.6004 12.039 24.5908 12.0531 24.5788 12.0696C24.5715 12.0813 24.5619 12.0907 24.5547 12.1025C24.5043 12.1706 24.4562 12.2388 24.4058 12.3022C24.3841 12.3328 24.3601 12.361 24.3385 12.3915C24.3337 12.3986 24.3289 12.4033 24.3241 12.4103C24.2328 12.5278 24.1463 12.6383 24.067 12.737C24.0598 12.744 24.055 12.7534 24.0478 12.7605C24.0406 12.7675 24.0358 12.7769 24.0286 12.784L24.0093 12.8075C23.9877 12.8333 23.9685 12.8592 23.9469 12.8827C23.9156 12.9203 23.8844 12.9555 23.8556 12.9908C23.8484 13.0002 23.8388 13.0096 23.8316 13.019C23.7306 13.1365 23.6466 13.2305 23.5841 13.2986C23.5024 13.3879 23.4567 13.4349 23.4567 13.4349C25.0713 12.9179 26.9501 10.4363 26.9501 10.4363L27.3465 13.4655C27.2889 13.5947 27.2096 13.731 27.1135 13.872C26.9309 14.1399 26.6882 14.429 26.4071 14.7274C25.1121 16.0975 23.0291 17.6297 22.587 17.9493C22.5317 17.9892 22.5029 18.0104 22.5029 18.0104C24.3145 17.8811 26.9189 16.3348 26.9189 16.3348C26.9237 16.3795 26.9237 16.4312 26.9237 16.4923V16.4946C26.9213 16.5534 26.9165 16.6215 26.9093 16.6944V16.6967C26.9021 16.7672 26.8925 16.8448 26.8804 16.9247C26.8708 16.9928 26.8588 17.0633 26.8468 17.1338L26.842 17.162C26.8348 17.1973 26.83 17.2325 26.8228 17.2701C26.7819 17.4887 26.7339 17.719 26.6834 17.9469C26.5176 18.6966 26.3254 19.3992 26.3254 19.3992L23.4087 20.8492C24.1511 20.8492 25.8641 20.5272 25.8641 20.5272L25.3212 21.8644C22.8825 21.8479 25.2058 22.9924 25.2058 22.9924C24.9752 24.5387 26.9189 26.4257 26.9189 26.4257C26.9261 26.4304 26.9309 26.4375 26.9357 26.4422C26.9381 26.4445 26.9381 26.4445 26.9405 26.4469L26.9453 26.4516C26.9621 26.468 26.9813 26.4821 26.9958 26.4986C26.9982 26.5009 26.9982 26.5009 27.0006 26.5033C27.003 26.5056 27.003 26.5056 27.0054 26.508C27.0078 26.5103 27.0078 26.5103 27.0102 26.5127C27.0126 26.515 27.0126 26.515 27.015 26.5174C27.0174 26.5197 27.0174 26.5197 27.0198 26.5221C27.0222 26.5244 27.0222 26.5244 27.0246 26.5268C27.027 26.5291 27.027 26.5291 27.0294 26.5315L27.0342 26.5362L27.039 26.5409L27.0438 26.5456L27.0486 26.5503L27.0534 26.555C27.0702 26.5714 27.0847 26.5855 27.0991 26.602C27.1111 26.6161 27.1255 26.6278 27.1375 26.6419V26.6443H27.1399L27.1423 26.6466V26.649H27.1447L27.1471 26.6513V26.6537H27.1495C27.1495 26.656 27.1519 26.656 27.1519 26.6584C27.1543 26.6607 27.1543 26.6607 27.1567 26.6631C27.1591 26.6654 27.1591 26.6654 27.1615 26.6678C27.1663 26.6725 27.1712 26.6795 27.176 26.6842V26.6866H27.1784L27.1808 26.6889V26.6913H27.1832C27.1832 26.6936 27.1856 26.6936 27.1856 26.696L27.1904 26.7007C27.2 26.7124 27.2096 26.7218 27.2192 26.7336C27.2312 26.75 27.2456 26.7641 27.2576 26.7806C27.2625 26.7853 27.2673 26.7923 27.2721 26.797V26.7994H27.2745C27.2745 26.8017 27.2769 26.8017 27.2769 26.8041C27.2793 26.8088 27.2841 26.8111 27.2865 26.8158V26.8182H27.2889C27.2889 26.8205 27.2913 26.8205 27.2913 26.8229C27.2937 26.8276 27.2961 26.8299 27.3009 26.8346V26.837H27.3033C27.3033 26.8393 27.3057 26.8393 27.3057 26.8417C27.3081 26.8464 27.3129 26.8511 27.3153 26.8534V26.8558C27.3201 26.8628 27.3249 26.8675 27.3273 26.8746C27.3393 26.891 27.3489 26.9051 27.361 26.9216C27.3634 26.9263 27.3682 26.931 27.3706 26.9357C27.3754 26.9427 27.3802 26.9498 27.385 26.9568V26.9592H27.3874C27.3898 26.9639 27.3922 26.9686 27.3946 26.9709V26.9733C27.397 26.9756 27.397 26.978 27.3994 26.978V26.9803H27.4018C27.4018 26.9827 27.4042 26.9827 27.4042 26.985C27.4066 26.9874 27.4066 26.9897 27.409 26.9921V26.9944H27.4114C27.4138 26.9991 27.4162 27.0038 27.4186 27.0085C27.421 27.0109 27.421 27.0132 27.4234 27.0156V27.0179C27.4282 27.025 27.433 27.032 27.4378 27.0391C27.4426 27.0461 27.4475 27.0555 27.4523 27.0626C27.4547 27.0649 27.4547 27.0696 27.4571 27.072C27.4595 27.0743 27.4595 27.0767 27.4619 27.0814C27.4643 27.0837 27.4643 27.0861 27.4667 27.0884V27.0908L27.4715 27.0978V27.1002C27.4739 27.1025 27.4739 27.1049 27.4763 27.1072V27.1096C27.4787 27.1119 27.4787 27.1143 27.4811 27.1166V27.119H27.4835C27.4835 27.1213 27.4859 27.1237 27.4859 27.126V27.1284H27.4883C27.4883 27.1307 27.4907 27.1331 27.4907 27.1354V27.1378H27.4931C27.4931 27.1401 27.4955 27.1425 27.4955 27.1448V27.1472C27.4979 27.1495 27.4979 27.1519 27.4979 27.1542V27.1566C27.5003 27.1589 27.5003 27.1613 27.5027 27.166C27.5051 27.1683 27.5051 27.173 27.5075 27.1754C27.5171 27.1965 27.5267 27.2177 27.5363 27.2388C27.5388 27.2459 27.5436 27.2529 27.546 27.2623C27.5484 27.267 27.5484 27.2694 27.5508 27.2741V27.2764H27.5532C27.5532 27.2788 27.5556 27.2811 27.5556 27.2858V27.2905H27.558C27.558 27.2929 27.5604 27.2952 27.5604 27.2976V27.2999C27.5628 27.3046 27.5628 27.307 27.5652 27.3117V27.314C27.5676 27.3187 27.5676 27.3211 27.57 27.3258V27.3281C27.5772 27.3469 27.582 27.3657 27.5892 27.3845C27.5916 27.3892 27.5916 27.3939 27.594 27.401V27.4033C27.5964 27.408 27.5964 27.4127 27.5988 27.4174V27.4221H27.6012C27.6012 27.4268 27.6036 27.4292 27.6036 27.4339V27.4409H27.606C27.606 27.4456 27.6084 27.448 27.6084 27.4527V27.4597H27.6108C27.6108 27.4644 27.6132 27.4691 27.6132 27.4738C27.6204 27.5044 27.6276 27.5373 27.6325 27.5678V27.5725C27.6349 27.5796 27.6349 27.589 27.6373 27.596V27.6054H27.6397C27.6421 27.6148 27.6421 27.6242 27.6421 27.636V27.6383C27.6445 27.6524 27.6445 27.6642 27.6469 27.6783V27.6806C27.6493 27.7112 27.6517 27.7441 27.6517 27.7746V27.8028C27.6517 27.8122 27.6517 27.8216 27.6517 27.831V27.8357C27.6517 27.8616 27.6493 27.8851 27.6469 27.9109V27.9227C27.6445 27.9509 27.6421 27.9767 27.6373 28.0049V28.0096C27.6373 28.0167 27.6349 28.0261 27.6349 28.0331H27.6325V28.0425C27.6301 28.0496 27.63 28.059 27.6276 28.066V28.0684C27.6252 28.0778 27.6252 28.0848 27.6228 28.0942C27.6204 28.1083 27.618 28.1224 27.6132 28.1365V28.1389C27.6108 28.1436 27.6108 28.1506 27.6084 28.1553V28.16C27.6084 28.1647 27.606 28.1694 27.606 28.1741H27.6036V28.1788C27.6036 28.1835 27.6012 28.1882 27.5988 28.1929V28.1976C27.5964 28.2023 27.5964 28.207 27.594 28.2117V28.2141C27.5892 28.2305 27.5844 28.247 27.5796 28.2634C27.5772 28.2681 27.5772 28.2728 27.5748 28.2775C27.5724 28.2822 27.5724 28.2869 27.57 28.2916V28.294C27.5676 28.2987 27.5676 28.301 27.5652 28.3057V28.3081C27.5628 28.3128 27.5628 28.3151 27.5604 28.3198V28.3222C27.558 28.3269 27.558 28.3292 27.5556 28.3339V28.3363C27.5532 28.341 27.5532 28.3457 27.5508 28.348C27.5412 28.3762 27.5291 28.4044 27.5171 28.4326V28.435C27.5147 28.442 27.5099 28.4491 27.5075 28.4561C27.5027 28.4679 27.4979 28.4773 27.4931 28.489C27.4835 28.5125 27.4715 28.536 27.4595 28.5595C27.4571 28.5619 27.4571 28.5666 27.4547 28.5689C27.4523 28.5713 27.4523 28.5736 27.4499 28.5783C27.4475 28.5807 27.4475 28.5854 27.4451 28.5877C27.433 28.6112 27.421 28.6347 27.4066 28.6582C27.3994 28.67 27.3946 28.6794 27.3874 28.6911V28.6935L27.3826 28.7005C27.3778 28.7076 27.373 28.717 27.3682 28.724C27.3562 28.7452 27.3441 28.764 27.3297 28.7851C27.3177 28.8016 27.3081 28.818 27.2961 28.8368C27.2937 28.8415 27.2889 28.8462 27.2865 28.8509C27.2841 28.8556 27.2793 28.8603 27.2769 28.865C27.2649 28.8815 27.2552 28.8956 27.2432 28.912C27.2312 28.9285 27.2192 28.9473 27.2048 28.9637C27.1952 28.9755 27.1856 28.9896 27.176 29.0013C27.1639 29.0154 27.1543 29.0295 27.1423 29.0436C27.1351 29.0507 27.1303 29.0601 27.1231 29.0671C27.1063 29.0859 27.0919 29.1047 27.0751 29.1235C27.0414 29.1635 27.0054 29.2034 26.9693 29.241C26.9357 29.2763 26.9021 29.3115 26.8684 29.3444L26.8636 29.3491L26.8588 29.3538C26.8516 29.3609 26.8468 29.3656 26.8396 29.3726C26.7723 29.4384 26.7051 29.4972 26.645 29.5512C26.4552 29.7134 26.3158 29.8027 26.3158 29.8027L27.4354 30.9636L26.5465 31.8495L25.1049 31.8401L25.1097 31.8636Z" fill="white"/>
<path fill-rule="evenodd" clip-rule="evenodd" d="M25.1097 31.8636L20.2517 31.8354L16.2033 31.8119L13.7743 31.7978L12.5922 31.7908L12.5273 31.732L11.7345 31.0176L11.5375 30.8414L12.9382 29.7463C12.7772 29.6546 12.6331 29.563 12.5033 29.4713C12.0012 29.1141 11.7201 28.7522 11.5855 28.4044C11.5687 28.3621 11.5543 28.3198 11.5423 28.2775C11.2203 27.1683 12.3279 26.2471 12.3279 26.2471C14.2548 24.5551 13.8512 23.0958 13.8512 23.0958C13.8512 23.0958 13.7719 23.084 13.707 23.0464C13.7022 23.0441 13.6974 23.0394 13.6926 23.037C13.671 23.0229 13.6518 23.0041 13.6398 22.9806C13.6349 22.9736 13.6325 22.9665 13.6301 22.9571C13.6253 22.9383 13.6253 22.9195 13.6301 22.896V22.8913C13.6325 22.8819 13.6349 22.8725 13.6398 22.8631V22.8608C13.6398 22.8584 13.6422 22.8561 13.6446 22.8537V22.8514C13.6446 22.849 13.647 22.8467 13.647 22.8443H13.6494V22.842C13.6518 22.8396 13.6518 22.8373 13.6518 22.8349H13.6542V22.8326C13.6614 22.8208 13.6686 22.8091 13.6782 22.7973C13.683 22.7926 13.6878 22.7856 13.6926 22.7785C13.6998 22.7691 13.707 22.7597 13.7166 22.7503C13.719 22.748 13.719 22.748 13.7214 22.7456L13.7262 22.7409C13.7286 22.7386 13.7286 22.7386 13.7286 22.7362H13.731V22.7339L13.7335 22.7315H13.7359V22.7292C13.7479 22.7174 13.7599 22.7057 13.7743 22.6939C13.7839 22.6845 13.7959 22.6751 13.8055 22.6657H13.8079V22.6634L13.8127 22.661C13.8223 22.6516 13.8344 22.6446 13.844 22.6352C14.3389 22.2474 13.9257 21.8926 13.9257 21.8926C13.0199 21.0254 12.806 20.0925 12.9598 19.2089C12.9959 18.9974 13.0535 18.7906 13.128 18.5861C13.2313 18.2994 13.3683 18.0198 13.5244 17.7542C13.5653 17.6837 13.6085 17.6132 13.6542 17.5427C13.7911 17.3289 13.9401 17.1244 14.0938 16.9294C14.1059 16.9153 14.1155 16.9012 14.1275 16.8871C14.2981 16.6756 14.4735 16.4782 14.644 16.2972C14.6681 16.2714 14.6921 16.2479 14.7161 16.222C14.757 16.1797 14.7954 16.1398 14.8362 16.0998C14.8987 16.0387 14.9588 15.9776 15.0188 15.9212C15.0885 15.8554 15.1558 15.792 15.2207 15.7332C15.2423 15.7144 15.2615 15.6956 15.2831 15.6768C15.3168 15.6463 15.3504 15.6157 15.384 15.5875C15.4273 15.5499 15.4657 15.517 15.5042 15.4841C15.7108 15.3079 15.8429 15.2115 15.8429 15.2115C18.2167 13.6958 18.7429 10.9557 18.7429 10.9557C18.5531 10.7418 18.3536 10.5867 18.147 10.481C17.9019 10.3541 17.6497 10.2953 17.3974 10.2883H17.3109C17.0154 10.2953 16.7199 10.3729 16.4364 10.4904C16.3571 10.5233 16.2802 10.5585 16.2033 10.5985C15.8838 10.7606 15.5834 10.9651 15.324 11.1742C15.2255 11.2518 15.1318 11.3317 15.0477 11.4069C14.6368 11.7711 14.3773 12.0837 14.3773 12.0837C14.3581 12.1025 14.3389 12.1189 14.3221 12.1354L14.3173 12.1401L14.3125 12.1448L14.3077 12.1495C14.2909 12.1636 14.2764 12.1777 14.2596 12.1918L14.2548 12.1965C14.2284 12.22 14.1996 12.2435 14.1731 12.267C14.1635 12.274 14.1539 12.2834 14.1467 12.2905H14.1443V12.2928C14.1419 12.2928 14.1419 12.2952 14.1395 12.2952C14.1299 12.3022 14.1203 12.3093 14.1107 12.3187C14.101 12.3257 14.0914 12.3351 14.0818 12.3422C14.065 12.3539 14.0506 12.368 14.0338 12.3798C14.0266 12.3845 14.0218 12.3892 14.0146 12.3939C14.0073 12.4009 13.9977 12.4056 13.9905 12.4127C13.9833 12.4174 13.9785 12.4221 13.9713 12.4268C13.9641 12.4315 13.9593 12.4362 13.9521 12.4409C13.9449 12.4456 13.9401 12.4503 13.9329 12.455C13.9064 12.4738 13.8776 12.4926 13.8512 12.5114C13.8464 12.5137 13.8416 12.5184 13.8392 12.5208C13.8344 12.5231 13.8296 12.5255 13.8272 12.5302H13.8247C13.8199 12.5325 13.8151 12.5349 13.8103 12.5396C13.8055 12.5419 13.8007 12.5466 13.7959 12.549C13.7911 12.5513 13.7863 12.556 13.7815 12.5584C13.7695 12.5654 13.7551 12.5748 13.7431 12.5819C13.7359 12.5866 13.7262 12.5913 13.719 12.596C13.7118 12.6007 13.7046 12.6054 13.695 12.6101C13.6926 12.6124 13.6902 12.6124 13.6878 12.6148H13.6854C13.6782 12.6195 13.6686 12.6242 13.6614 12.6289C13.647 12.6359 13.6325 12.6453 13.6181 12.6524C13.6157 12.6547 13.6109 12.6547 13.6085 12.6571C13.6061 12.6594 13.6037 12.6594 13.5989 12.6618L13.5893 12.6665C13.5869 12.6688 13.5845 12.6688 13.5821 12.6712H13.5797C13.5773 12.6735 13.5749 12.6735 13.5725 12.6759H13.5701C13.5677 12.6782 13.5653 12.6782 13.5629 12.6806H13.5605C13.5581 12.6829 13.5557 12.6829 13.5533 12.6853H13.5509C13.5485 12.6876 13.546 12.6876 13.5412 12.69C13.5388 12.6923 13.534 12.6923 13.5316 12.6947C13.5148 12.7017 13.4956 12.7111 13.4788 12.7182C13.4716 12.7205 13.4644 12.7252 13.4572 12.7276H13.4548C13.4475 12.7299 13.4403 12.7346 13.4331 12.737H13.4307C13.4235 12.7393 13.4163 12.7417 13.4091 12.7464H13.4067C13.3899 12.7534 13.3707 12.7581 13.3538 12.7652C13.349 12.7675 13.3442 12.7675 13.3394 12.7699C13.3346 12.7722 13.3298 12.7722 13.325 12.7746C13.3202 12.7769 13.3154 12.7769 13.3106 12.7793H13.3058C13.301 12.7816 13.2962 12.7816 13.2938 12.784C13.2673 12.791 13.2433 12.7981 13.2193 12.8028H13.2169C13.2097 12.8051 13.2025 12.8051 13.1953 12.8075H13.1929C13.1857 12.8098 13.176 12.8098 13.1688 12.8122C13.1472 12.8169 13.1232 12.8192 13.1016 12.8216H13.092C13.0727 12.8239 13.0511 12.8239 13.0319 12.8263H12.9694C12.9502 12.8263 12.9286 12.8239 12.9094 12.8216H12.8998C12.8709 12.8192 12.8445 12.8145 12.8181 12.8075H12.8157C12.7964 12.8028 12.7796 12.7981 12.7628 12.7934C12.758 12.791 12.7532 12.791 12.7484 12.7887H12.746C12.7412 12.7863 12.7364 12.7863 12.734 12.784H12.7316C12.7268 12.7816 12.7244 12.7816 12.7196 12.7793C12.7027 12.7746 12.6883 12.7675 12.6715 12.7605C12.6451 12.7487 12.6211 12.737 12.597 12.7229C12.5538 12.6994 12.5153 12.6735 12.4793 12.643C12.4697 12.6359 12.4601 12.6265 12.4505 12.6195C12.4144 12.5889 12.3808 12.556 12.3496 12.5208C12.3135 12.4808 12.2823 12.4409 12.2535 12.3986C12.1261 12.2129 12.0733 12.0367 12.0733 12.0367C12.8637 10.7794 11.2155 11.4233 11.2155 11.4233C11.1915 11.4233 11.1699 11.4233 11.1483 11.4233V11.421H11.1266C11.1122 11.421 11.0954 11.4186 11.081 11.4163C11.0738 11.4163 11.0642 11.4139 11.057 11.4116H11.0498C11.045 11.4116 11.0377 11.4092 11.0329 11.4092V11.4069H11.0257C11.0209 11.4045 11.0137 11.4045 11.0089 11.4022H11.0065C10.9849 11.3975 10.9657 11.3904 10.9464 11.3857V11.3834H10.9416C10.9392 11.381 10.9344 11.381 10.932 11.381V11.3787H10.9296C10.9224 11.3763 10.9152 11.374 10.908 11.3693H10.9056C10.8864 11.3622 10.8672 11.3528 10.8503 11.3434V11.3411H10.8479C10.8455 11.3387 10.8431 11.3387 10.8407 11.3387H10.8383C10.8359 11.3364 10.8335 11.3364 10.8311 11.334C10.8287 11.334 10.8287 11.3317 10.8263 11.3317V11.3293H10.8239C10.8215 11.327 10.8191 11.327 10.8167 11.3246C10.8071 11.3176 10.7975 11.3129 10.7879 11.3058C10.7807 11.3011 10.7759 11.2964 10.7687 11.2917C10.7662 11.2917 10.7662 11.2894 10.7638 11.2894V11.287H10.7614C10.7542 11.2823 10.747 11.2753 10.7398 11.2682C10.7374 11.2659 10.7374 11.2659 10.735 11.2635H10.7326C10.7158 11.2471 10.6966 11.2306 10.6822 11.2142V11.2118H10.6798L10.6774 11.2095V11.2071H10.675C10.675 11.2048 10.6725 11.2048 10.6725 11.2024C10.6701 11.2001 10.6701 11.2001 10.6677 11.1977C10.6605 11.1883 10.6509 11.1789 10.6437 11.1695C10.6365 11.1601 10.6269 11.1484 10.6197 11.139C10.6173 11.1343 10.6149 11.1319 10.6101 11.1272V11.1249H10.6077C10.6053 11.1202 10.6029 11.1155 10.6005 11.1131V11.1108C10.5933 11.1014 10.5885 11.092 10.5812 11.0826C10.574 11.0708 10.5692 11.0614 10.562 11.0497C10.5596 11.0473 10.5596 11.045 10.5572 11.0426V11.0403C10.5548 11.0379 10.5548 11.0356 10.5524 11.0332V11.0309C10.55 11.0285 10.55 11.0262 10.5476 11.0238V11.0215C10.5404 11.0074 10.5308 10.9909 10.5236 10.9745C10.5188 10.9651 10.514 10.9533 10.5092 10.9439V10.9416C10.5068 10.9345 10.5044 10.9275 10.4996 10.9204V10.9181C10.49 10.8946 10.4803 10.8687 10.4707 10.8429C10.4683 10.8382 10.4683 10.8335 10.4659 10.8288C10.4563 10.8029 10.4491 10.7771 10.4419 10.7512C10.4395 10.7465 10.4395 10.7395 10.4371 10.7348V10.7324C10.4347 10.7277 10.4347 10.723 10.4323 10.7183V10.716C10.4299 10.7113 10.4299 10.7042 10.4275 10.6995V10.6972C10.4251 10.6925 10.4251 10.6854 10.4227 10.6807V10.6784C10.4203 10.6643 10.4155 10.6502 10.4131 10.6361C10.4107 10.629 10.4107 10.622 10.4083 10.6149V10.6126C10.4059 10.6055 10.4059 10.5985 10.4035 10.5914C10.3987 10.5656 10.3938 10.5374 10.389 10.5092V10.5068C10.3866 10.4974 10.3866 10.488 10.3842 10.4786V10.4739C10.3818 10.4645 10.3818 10.4528 10.3794 10.4434V10.441C10.377 10.4152 10.3722 10.3893 10.3698 10.3611V10.3564C10.3674 10.3423 10.3674 10.3259 10.365 10.3118V10.3094C10.3626 10.2906 10.3626 10.2718 10.3602 10.2507V10.2483C10.3578 10.2225 10.3578 10.199 10.3554 10.1731V10.1684C10.353 10.1214 10.3506 10.0744 10.3506 10.0274V10.0227C10.3482 9.8888 10.353 9.75484 10.3602 9.62559V9.62325C10.3626 9.59975 10.3626 9.57389 10.365 9.55039C10.3698 9.47519 10.377 9.40234 10.3842 9.33184C10.3866 9.30129 10.3914 9.2731 10.3938 9.24255C10.3962 9.21435 10.4011 9.1885 10.4035 9.16265C10.4467 8.81015 10.502 8.55869 10.502 8.55869C12.0516 8.20384 13.6325 5.20524 13.6325 5.20524C13.6349 5.19819 13.6373 5.18879 13.6373 5.18174C13.6397 5.17469 13.6397 5.16999 13.6422 5.16294V5.16059C13.6542 5.11594 13.6686 5.07129 13.6854 5.02664C13.6878 5.02194 13.6878 5.01724 13.6902 5.01254C13.695 4.99609 13.7022 4.98199 13.7094 4.96554V4.96319C13.7118 4.95614 13.7166 4.94909 13.719 4.94204C13.7335 4.91149 13.7479 4.88094 13.7623 4.84804C13.7647 4.84569 13.7647 4.84099 13.7671 4.83864L13.7719 4.82924C13.7791 4.81749 13.7839 4.80339 13.7911 4.79164C13.8007 4.77049 13.8127 4.75169 13.8247 4.73054C13.8368 4.70939 13.8488 4.68824 13.8632 4.66474C13.868 4.65769 13.8728 4.65064 13.8776 4.64124C13.8896 4.62009 13.9016 4.60129 13.916 4.58014C13.9425 4.53784 13.9713 4.49554 14.0025 4.45324C14.0674 4.36159 14.1395 4.27229 14.2116 4.18299C14.2356 4.15479 14.2596 4.12659 14.2836 4.09839C14.2933 4.08664 14.3029 4.07724 14.3125 4.06549C14.3365 4.03964 14.3605 4.01144 14.3846 3.98559C14.4494 3.91274 14.5191 3.84224 14.5864 3.77644C14.6416 3.72239 14.6945 3.66834 14.7497 3.61664C15.1846 3.20304 15.5786 2.91399 15.5786 2.91399C15.4705 2.78004 15.3696 2.65079 15.2759 2.52859C15.2711 2.52154 15.2663 2.51684 15.2615 2.50979C15.2375 2.47924 15.2134 2.44634 15.1894 2.41579C15.1702 2.39229 15.1534 2.36879 15.1366 2.34529C15.1053 2.30534 15.0741 2.26304 15.0453 2.22309C15.0044 2.16904 14.9684 2.11734 14.9299 2.06329C14.8891 2.00689 14.8531 1.95284 14.8146 1.89879C14.7882 1.86119 14.7618 1.82359 14.7377 1.78599C14.7041 1.73664 14.6729 1.68729 14.6416 1.64029C14.6224 1.61209 14.6056 1.58389 14.5888 1.55569C14.5647 1.51574 14.5407 1.47579 14.5167 1.43819C14.5095 1.42644 14.5047 1.41704 14.4975 1.40529C14.4903 1.39354 14.4855 1.38414 14.4783 1.37239C14.471 1.36064 14.4662 1.35124 14.459 1.33949C14.435 1.29719 14.4134 1.25724 14.3918 1.21729C13.6662 -0.141007 14.5984 -0.0752065 15.6964 0.324294C15.7805 0.354844 15.867 0.387744 15.9534 0.422994C15.9991 0.441794 16.0447 0.460594 16.0928 0.479394C16.1264 0.493494 16.1601 0.507594 16.1937 0.521694C16.2201 0.533444 16.2442 0.542844 16.2706 0.554594C16.2994 0.566344 16.3283 0.580444 16.3571 0.592194C16.5301 0.669744 16.7007 0.747294 16.864 0.824844L16.8736 0.829544C16.9433 0.862444 17.0082 0.895344 17.0731 0.928244C17.1331 0.958794 17.1932 0.986994 17.2508 1.01754C17.3662 1.07629 17.4719 1.13034 17.5656 1.18204C17.6401 1.22199 17.7073 1.25724 17.765 1.29014C17.8107 1.31599 17.8515 1.33714 17.8851 1.35594C17.9308 1.38179 17.9644 1.40059 17.986 1.41234C18.0029 1.42174 18.0125 1.42879 18.0125 1.42879C18.0221 1.42879 18.0293 1.42879 18.0389 1.42644H18.0437C18.0773 1.42409 18.1086 1.42409 18.1422 1.42174H18.1446C18.2551 1.41704 18.3681 1.41704 18.4786 1.42174H18.4858C18.5242 1.42409 18.5603 1.42409 18.5987 1.42644C18.6227 1.42879 18.6468 1.42879 18.6708 1.43114H18.678C18.6996 1.43349 18.7212 1.43349 18.7429 1.43584H18.7453C18.7645 1.43819 18.7813 1.43819 18.8005 1.44054H18.8029C18.8197 1.44289 18.8366 1.44289 18.8534 1.44524C18.8702 1.44759 18.8846 1.44759 18.9014 1.44994C18.9158 1.45229 18.9303 1.45229 18.9447 1.45464H18.9471C18.9615 1.45699 18.9735 1.45699 18.9879 1.45934H18.9903C19.0288 1.46404 19.0648 1.46874 19.1032 1.47344H19.1056C19.1489 1.47814 19.1945 1.48519 19.2378 1.49224C19.269 1.49694 19.2979 1.50164 19.3267 1.50634C19.3627 1.51339 19.4012 1.51809 19.4372 1.52514C19.454 1.52749 19.4708 1.53219 19.4901 1.53454C19.4973 1.53689 19.5069 1.53689 19.5141 1.53924H19.5165C19.5718 1.54864 19.627 1.56039 19.6823 1.57214C19.7039 1.57684 19.7255 1.58154 19.7495 1.58624C19.764 1.58859 19.7784 1.59329 19.7928 1.59564C19.848 1.60739 19.9009 1.61914 19.9538 1.63324C19.973 1.63794 19.9922 1.64264 20.0114 1.64734C20.0186 1.64969 20.0234 1.64969 20.0306 1.65204L20.0499 1.65674C20.0811 1.66379 20.1099 1.67319 20.1412 1.68024C20.2229 1.70139 20.3045 1.72489 20.379 1.74604C20.4127 1.75544 20.4439 1.76484 20.4751 1.77424C20.5448 1.79539 20.6097 1.81419 20.6721 1.83534L20.6866 1.84004C20.7058 1.84709 20.725 1.85179 20.7442 1.85884L20.7586 1.86354C21.0638 1.96459 21.2488 2.04214 21.2488 2.04214C21.2536 2.04919 21.2608 2.05624 21.2656 2.06329C21.2704 2.06799 21.2752 2.07504 21.28 2.07974V2.08209C21.2824 2.08444 21.2824 2.08444 21.2824 2.08679C21.2872 2.09384 21.292 2.09854 21.2968 2.10559C21.3256 2.14319 21.3521 2.18079 21.3785 2.22074V2.22309C21.3809 2.22779 21.3833 2.23249 21.3881 2.23719C21.4025 2.26069 21.4169 2.28184 21.4314 2.30769C21.4386 2.31944 21.4434 2.32884 21.4506 2.34059C21.4866 2.40404 21.5227 2.47219 21.5563 2.54034C21.5635 2.55679 21.5731 2.57324 21.5803 2.58969C21.5875 2.60379 21.5923 2.61789 21.5995 2.63199C21.6116 2.66019 21.626 2.69074 21.638 2.72129C21.6404 2.72834 21.6452 2.73774 21.6476 2.74479C21.6596 2.77299 21.6692 2.80119 21.6812 2.82939C21.6884 2.84584 21.6932 2.86229 21.7004 2.87874V2.88109C21.7077 2.89754 21.7125 2.91634 21.7197 2.93279C21.7485 3.01269 21.7749 3.09259 21.8014 3.17484C21.8062 3.19129 21.811 3.20539 21.8158 3.22184C21.8278 3.26414 21.8422 3.30879 21.8542 3.35109V3.35344C21.859 3.36989 21.8638 3.38634 21.8686 3.40279C21.8758 3.42629 21.8806 3.44979 21.8879 3.47329L21.8927 3.49209C21.8951 3.49679 21.8951 3.50384 21.8975 3.50854V3.51089C21.8999 3.51559 21.8999 3.52264 21.9023 3.52734V3.52969C21.9143 3.58139 21.9287 3.63074 21.9407 3.68244V3.68479C21.9431 3.69184 21.9431 3.69654 21.9455 3.70359C21.9479 3.71769 21.9527 3.73179 21.9551 3.74589C21.9623 3.77409 21.9671 3.80229 21.9743 3.83049C21.9792 3.85164 21.984 3.87279 21.9888 3.89629C22.0032 3.96679 22.0176 4.03729 22.032 4.10544C22.0464 4.18299 22.0608 4.26289 22.0753 4.33809C22.0777 4.34749 22.0777 4.35689 22.0801 4.36629C22.0825 4.37569 22.0825 4.38509 22.0849 4.39449L22.0897 4.42269C22.0969 4.46264 22.1017 4.50024 22.1089 4.54019C22.1233 4.62714 22.1353 4.71409 22.1473 4.79634C22.1497 4.81984 22.1545 4.84334 22.1569 4.86449C22.2482 5.54599 22.2723 6.06769 22.2723 6.06769C22.8321 4.84334 22.6351 2.90929 22.6351 2.90929C23.7763 3.28529 24.1151 4.61539 24.1559 5.92199C24.1751 6.57764 24.1199 7.22859 24.0502 7.75029C23.9637 8.41534 23.8556 8.87124 23.8556 8.87124C24.8767 8.00174 25.4052 5.61649 25.4052 5.61649L25.6047 5.97839L25.7632 6.26274L26.4936 7.58109C26.4912 7.60224 26.4888 7.62339 26.4864 7.64689V7.65394C26.484 7.66569 26.484 7.67744 26.4816 7.68919V7.69859C26.4816 7.70799 26.4792 7.71739 26.4792 7.72679H26.4768V7.73854C26.4744 7.74794 26.4744 7.75734 26.472 7.76674V7.7738C26.4696 7.7832 26.4696 7.79494 26.4672 7.80434V7.80904C26.4624 7.85134 26.4552 7.89599 26.448 7.93829V7.94064C26.4456 7.95004 26.4456 7.95945 26.4432 7.9665V7.97119C26.4408 7.97824 26.4408 7.98764 26.4384 7.99469V8.00174L26.436 8.02289V8.02994C26.4336 8.03699 26.4336 8.04404 26.4312 8.05109V8.05579C26.4288 8.06284 26.4288 8.07224 26.4263 8.07929V8.084C26.4239 8.09105 26.4239 8.10044 26.4215 8.10749V8.10984C26.4191 8.11924 26.4191 8.12629 26.4167 8.13569C26.4095 8.17564 26.4023 8.21324 26.3927 8.25084V8.25554C26.3903 8.26259 26.3903 8.26729 26.3879 8.27434V8.27904C26.3855 8.28609 26.3855 8.2908 26.3831 8.29785V8.30255C26.3807 8.3096 26.3807 8.31429 26.3783 8.32134V8.32369C26.3759 8.32839 26.3759 8.33545 26.3735 8.34015V8.34484C26.3711 8.35189 26.3711 8.35659 26.3687 8.36364V8.36599C26.3663 8.37304 26.3663 8.38009 26.3639 8.38714C26.3543 8.42709 26.3447 8.46704 26.3351 8.50699C26.3326 8.51404 26.3326 8.51874 26.3302 8.52579C26.3278 8.53049 26.3278 8.53754 26.3254 8.54224V8.54459C26.323 8.54929 26.323 8.55634 26.3206 8.56104V8.56339C26.3182 8.56809 26.3182 8.57514 26.3158 8.57984V8.58219C26.3134 8.58689 26.3134 8.59159 26.311 8.59864V8.60099C26.3086 8.60569 26.3086 8.61274 26.3062 8.61744V8.61979C26.3038 8.62449 26.3038 8.63154 26.3014 8.63624C26.2918 8.67619 26.2798 8.71614 26.2678 8.75844C26.2654 8.77019 26.2606 8.77959 26.2582 8.79134V8.79369C26.2558 8.80309 26.251 8.81484 26.2486 8.82424V8.8266C26.2462 8.836 26.2438 8.84774 26.2389 8.85714V8.85949C26.2365 8.86419 26.2365 8.86654 26.2341 8.87124V8.87594C26.2317 8.88064 26.2317 8.88535 26.2293 8.89005C26.2269 8.89475 26.2269 8.89944 26.2245 8.90414V8.9065C26.2221 8.9159 26.2173 8.92764 26.2149 8.93704C26.2101 8.95349 26.2053 8.96759 26.2005 8.98404C26.1885 9.01929 26.1789 9.05219 26.1669 9.08744C26.1645 9.09214 26.1645 9.09684 26.1621 9.10154C26.1597 9.10624 26.1597 9.11095 26.1573 9.11565V9.11799C26.1549 9.12269 26.1549 9.12739 26.1525 9.12974V9.13209C26.1501 9.13679 26.1501 9.13914 26.1476 9.14384V9.14619C26.1452 9.15089 26.1452 9.1556 26.1428 9.15795V9.16029C26.1404 9.16499 26.1404 9.16969 26.138 9.17204C26.1356 9.17674 26.1356 9.18145 26.1332 9.1838L26.1284 9.19789L26.1236 9.212C26.1212 9.2167 26.1212 9.22139 26.1188 9.22609C26.1068 9.25664 26.0972 9.28719 26.0852 9.32009C26.0804 9.33184 26.0756 9.34594 26.0708 9.35769V9.36005C26.0684 9.36475 26.0684 9.3671 26.066 9.3718C26.0636 9.3765 26.0636 9.38119 26.0612 9.38354C26.0588 9.39059 26.0564 9.39999 26.0515 9.40704V9.4094C26.0491 9.4141 26.0491 9.41644 26.0467 9.42114C26.0419 9.43289 26.0371 9.44464 26.0323 9.45874C26.0275 9.47049 26.0227 9.48224 26.0179 9.49634C25.9987 9.54804 25.9771 9.59975 25.9578 9.6491V9.65144C25.9554 9.65614 25.9554 9.65849 25.953 9.66319C25.9506 9.66554 25.9506 9.67024 25.9482 9.67259V9.67494C25.9458 9.68199 25.9434 9.68904 25.9386 9.69609V9.69844C25.9362 9.70549 25.9314 9.71255 25.929 9.7196L25.9194 9.74075C25.9026 9.7807 25.8858 9.82064 25.8665 9.86059V9.86295C25.8617 9.87235 25.8569 9.88409 25.8521 9.89349V9.89585C25.8473 9.90525 25.8425 9.917 25.8377 9.9264C25.8305 9.9405 25.8257 9.95459 25.8185 9.96634C25.7993 10.011 25.7776 10.0556 25.756 10.1003L25.7512 10.1097C25.744 10.1261 25.7344 10.1426 25.7272 10.159C25.7248 10.1614 25.7248 10.1661 25.7224 10.1684L25.7176 10.1778V10.1802C25.7056 10.2037 25.696 10.2248 25.6839 10.2483L25.6791 10.2577C25.6239 10.3682 25.5686 10.4786 25.511 10.5844C25.4965 10.6102 25.4821 10.6384 25.4677 10.6643V10.6666C25.4653 10.669 25.4653 10.6713 25.4629 10.6737C25.4509 10.6948 25.4413 10.7136 25.4293 10.7348C25.4101 10.77 25.3908 10.8029 25.3716 10.8382C25.3644 10.8523 25.3548 10.8664 25.3476 10.8805C25.3404 10.8946 25.3308 10.9087 25.3236 10.9228C25.3164 10.9345 25.3115 10.9439 25.3043 10.9557C25.2779 11.0003 25.2539 11.0426 25.2275 11.0849C25.2227 11.092 25.2178 11.1014 25.213 11.1084C25.201 11.1272 25.1914 11.146 25.1794 11.1648C25.1746 11.1719 25.1698 11.1813 25.165 11.1883C25.1458 11.2189 25.1265 11.2494 25.1073 11.2823C25.0953 11.3035 25.0833 11.3223 25.0689 11.3434C25.0641 11.3505 25.0593 11.3575 25.0545 11.3669C25.0184 11.4233 24.9848 11.4774 24.9488 11.5314C24.9367 11.5479 24.9271 11.5643 24.9151 11.5831C24.9007 11.6043 24.8863 11.6278 24.8719 11.6489C24.8166 11.7312 24.7638 11.8111 24.7085 11.8863C24.6917 11.9121 24.6725 11.9356 24.6556 11.9615C24.6412 11.9826 24.6268 12.0014 24.6124 12.0226C24.6004 12.039 24.5908 12.0531 24.5788 12.0696C24.5715 12.0813 24.5619 12.0907 24.5547 12.1025C24.5043 12.1706 24.4562 12.2388 24.4058 12.3022C24.3841 12.3328 24.3601 12.361 24.3385 12.3915C24.3337 12.3986 24.3289 12.4033 24.3241 12.4103C24.2328 12.5278 24.1463 12.6383 24.067 12.737C24.0598 12.744 24.055 12.7534 24.0478 12.7605C24.0406 12.7675 24.0358 12.7769 24.0286 12.784L24.0093 12.8075C23.9877 12.8333 23.9685 12.8592 23.9469 12.8827C23.9156 12.9203 23.8844 12.9555 23.8556 12.9908C23.8484 13.0002 23.8388 13.0096 23.8316 13.019C23.7306 13.1365 23.6466 13.2305 23.5841 13.2986C23.5024 13.3879 23.4567 13.4349 23.4567 13.4349C25.0713 12.9179 26.9501 10.4363 26.9501 10.4363L27.3465 13.4655C27.2889 13.5947 27.2096 13.731 27.1135 13.872C26.9309 14.1399 26.6882 14.429 26.4071 14.7274C25.1121 16.0975 23.0291 17.6297 22.587 17.9493C22.5317 17.9892 22.5029 18.0104 22.5029 18.0104C24.3145 17.8811 26.9189 16.3348 26.9189 16.3348C26.9237 16.3795 26.9237 16.4312 26.9237 16.4923V16.4946C26.9213 16.5534 26.9165 16.6215 26.9093 16.6944V16.6967C26.9021 16.7672 26.8925 16.8448 26.8804 16.9247C26.8708 16.9928 26.8588 17.0633 26.8468 17.1338L26.842 17.162C26.8348 17.1973 26.83 17.2325 26.8228 17.2701C26.7819 17.4887 26.7339 17.719 26.6834 17.9469C26.5176 18.6966 26.3254 19.3992 26.3254 19.3992L23.4087 20.8492C24.1511 20.8492 25.8641 20.5272 25.8641 20.5272L25.3212 21.8644C22.8825 21.8479 25.2058 22.9924 25.2058 22.9924C24.9752 24.5387 26.9189 26.4257 26.9189 26.4257C26.9261 26.4304 26.9309 26.4375 26.9357 26.4422C26.9381 26.4445 26.9381 26.4445 26.9405 26.4469L26.9453 26.4516C26.9621 26.468 26.9813 26.4821 26.9958 26.4986C26.9982 26.5009 26.9982 26.5009 27.0006 26.5033C27.003 26.5056 27.003 26.5056 27.0054 26.508C27.0078 26.5103 27.0078 26.5103 27.0102 26.5127C27.0126 26.515 27.0126 26.515 27.015 26.5174C27.0174 26.5197 27.0174 26.5197 27.0198 26.5221C27.0222 26.5244 27.0222 26.5244 27.0246 26.5268C27.027 26.5291 27.027 26.5291 27.0294 26.5315L27.0342 26.5362L27.039 26.5409L27.0438 26.5456L27.0486 26.5503L27.0534 26.555C27.0702 26.5714 27.0847 26.5855 27.0991 26.602C27.1111 26.6161 27.1255 26.6278 27.1375 26.6419V26.6443H27.1399L27.1423 26.6466V26.649H27.1447L27.1471 26.6513V26.6537H27.1495C27.1495 26.656 27.1519 26.656 27.1519 26.6584C27.1543 26.6607 27.1543 26.6607 27.1567 26.6631C27.1591 26.6654 27.1591 26.6654 27.1615 26.6678C27.1663 26.6725 27.1712 26.6795 27.176 26.6842V26.6866H27.1784L27.1808 26.6889V26.6913H27.1832C27.1832 26.6936 27.1856 26.6936 27.1856 26.696L27.1904 26.7007C27.2 26.7124 27.2096 26.7218 27.2192 26.7336C27.2312 26.75 27.2456 26.7641 27.2576 26.7806C27.2625 26.7853 27.2673 26.7923 27.2721 26.797V26.7994H27.2745C27.2745 26.8017 27.2769 26.8017 27.2769 26.8041C27.2793 26.8088 27.2841 26.8111 27.2865 26.8158V26.8182H27.2889C27.2889 26.8205 27.2913 26.8205 27.2913 26.8229C27.2937 26.8276 27.2961 26.8299 27.3009 26.8346V26.837H27.3033C27.3033 26.8393 27.3057 26.8393 27.3057 26.8417C27.3081 26.8464 27.3129 26.8511 27.3153 26.8534V26.8558C27.3201 26.8628 27.3249 26.8675 27.3273 26.8746C27.3393 26.891 27.3489 26.9051 27.361 26.9216C27.3634 26.9263 27.3682 26.931 27.3706 26.9357C27.3754 26.9427 27.3802 26.9498 27.385 26.9568V26.9592H27.3874C27.3898 26.9639 27.3922 26.9686 27.3946 26.9709V26.9733C27.397 26.9756 27.397 26.978 27.3994 26.978V26.9803H27.4018C27.4018 26.9827 27.4042 26.9827 27.4042 26.985C27.4066 26.9874 27.4066 26.9897 27.409 26.9921V26.9944H27.4114C27.4138 26.9991 27.4162 27.0038 27.4186 27.0085C27.421 27.0109 27.421 27.0132 27.4234 27.0156V27.0179C27.4282 27.025 27.433 27.032 27.4378 27.0391C27.4426 27.0461 27.4475 27.0555 27.4523 27.0626C27.4547 27.0649 27.4547 27.0696 27.4571 27.072C27.4595 27.0743 27.4595 27.0767 27.4619 27.0814C27.4643 27.0837 27.4643 27.0861 27.4667 27.0884V27.0908L27.4715 27.0978V27.1002C27.4739 27.1025 27.4739 27.1049 27.4763 27.1072V27.1096C27.4787 27.1119 27.4787 27.1143 27.4811 27.1166V27.119H27.4835C27.4835 27.1213 27.4859 27.1237 27.4859 27.126V27.1284H27.4883C27.4883 27.1307 27.4907 27.1331 27.4907 27.1354V27.1378H27.4931C27.4931 27.1401 27.4955 27.1425 27.4955 27.1448V27.1472C27.4979 27.1495 27.4979 27.1519 27.4979 27.1542V27.1566C27.5003 27.1589 27.5003 27.1613 27.5027 27.166C27.5051 27.1683 27.5051 27.173 27.5075 27.1754C27.5171 27.1965 27.5267 27.2177 27.5363 27.2388C27.5388 27.2459 27.5436 27.2529 27.546 27.2623C27.5484 27.267 27.5484 27.2694 27.5508 27.2741V27.2764H27.5532C27.5532 27.2788 27.5556 27.2811 27.5556 27.2858V27.2905H27.558C27.558 27.2929 27.5604 27.2952 27.5604 27.2976V27.2999C27.5628 27.3046 27.5628 27.307 27.5652 27.3117V27.314C27.5676 27.3187 27.5676 27.3211 27.57 27.3258V27.3281C27.5772 27.3469 27.582 27.3657 27.5892 27.3845C27.5916 27.3892 27.5916 27.3939 27.594 27.401V27.4033C27.5964 27.408 27.5964 27.4127 27.5988 27.4174V27.4221H27.6012C27.6012 27.4268 27.6036 27.4292 27.6036 27.4339V27.4409H27.606C27.606 27.4456 27.6084 27.448 27.6084 27.4527V27.4597H27.6108C27.6108 27.4644 27.6132 27.4691 27.6132 27.4738C27.6204 27.5044 27.6276 27.5373 27.6325 27.5678V27.5725C27.6349 27.5796 27.6349 27.589 27.6373 27.596V27.6054H27.6397C27.6421 27.6148 27.6421 27.6242 27.6421 27.636V27.6383C27.6445 27.6524 27.6445 27.6642 27.6469 27.6783V27.6806C27.6493 27.7112 27.6517 27.7441 27.6517 27.7746V27.8028C27.6517 27.8122 27.6517 27.8216 27.6517 27.831V27.8357C27.6517 27.8616 27.6493 27.8851 27.6469 27.9109V27.9227C27.6445 27.9509 27.6421 27.9767 27.6373 28.0049V28.0096C27.6373 28.0167 27.6349 28.0261 27.6349 28.0331H27.6325V28.0425C27.63 28.0496 27.63 28.059 27.6276 28.066V28.0684C27.6252 28.0778 27.6252 28.0848 27.6228 28.0942C27.6204 28.1083 27.618 28.1224 27.6132 28.1365V28.1389C27.6108 28.1436 27.6108 28.1506 27.6084 28.1553V28.16C27.6084 28.1647 27.606 28.1694 27.606 28.1741H27.6036V28.1788C27.6036 28.1835 27.6012 28.1882 27.5988 28.1929V28.1976C27.5964 28.2023 27.5964 28.207 27.594 28.2117V28.2141C27.5892 28.2305 27.5844 28.247 27.5796 28.2634C27.5772 28.2681 27.5772 28.2728 27.5748 28.2775C27.5724 28.2822 27.5724 28.2869 27.57 28.2916V28.294C27.5676 28.2987 27.5676 28.301 27.5652 28.3057V28.3081C27.5628 28.3128 27.5628 28.3151 27.5604 28.3198V28.3222C27.558 28.3269 27.558 28.3292 27.5556 28.3339V28.3363C27.5532 28.341 27.5532 28.3457 27.5508 28.348C27.5412 28.3762 27.5291 28.4044 27.5171 28.4326V28.435C27.5147 28.442 27.5099 28.4491 27.5075 28.4561C27.5027 28.4679 27.4979 28.4773 27.4931 28.489C27.4835 28.5125 27.4715 28.536 27.4595 28.5595C27.4571 28.5619 27.4571 28.5666 27.4547 28.5689C27.4523 28.5713 27.4523 28.5736 27.4499 28.5783C27.4475 28.5807 27.4475 28.5854 27.4451 28.5877C27.433 28.6112 27.421 28.6347 27.4066 28.6582C27.3994 28.67 27.3946 28.6794 27.3874 28.6911V28.6935L27.3826 28.7005C27.3778 28.7076 27.373 28.717 27.3682 28.724C27.3562 28.7452 27.3441 28.764 27.3297 28.7851C27.3177 28.8016 27.3081 28.818 27.2961 28.8368C27.2937 28.8415 27.2889 28.8462 27.2865 28.8509C27.2841 28.8556 27.2793 28.8603 27.2769 28.865C27.2649 28.8815 27.2552 28.8956 27.2432 28.912C27.2312 28.9285 27.2192 28.9473 27.2048 28.9637C27.1952 28.9755 27.1856 28.9896 27.176 29.0013C27.1639 29.0154 27.1543 29.0295 27.1423 29.0436C27.1351 29.0507 27.1303 29.0601 27.1231 29.0671C27.1063 29.0859 27.0919 29.1047 27.0751 29.1235C27.0414 29.1635 27.0054 29.2034 26.9693 29.241C26.9357 29.2763 26.9021 29.3115 26.8684 29.3444L26.8636 29.3491L26.8588 29.3538C26.8516 29.3609 26.8468 29.3656 26.8396 29.3726C26.7723 29.4384 26.7051 29.4972 26.645 29.5512C26.4552 29.7134 26.3158 29.8027 26.3158 29.8027L27.4354 30.9636L26.5465 31.8495L25.1049 31.8401L25.1097 31.8636Z" stroke="white" stroke-width="0.662339" stroke-miterlimit="2.61313" stroke-linecap="round" stroke-linejoin="round"/>
<path d="M1.46346 34.2889H6.32871L7.43631 35.3722V37.4966L6.99183 37.9407L7.77988 38.721V40.7044L6.58339 41.8747H1.46106V34.2841L1.46346 34.2889ZM5.55508 37.466L5.95391 37.076V35.9056L5.56469 35.5273H2.93865V37.4684H5.55508V37.466ZM5.82177 40.6432L6.29748 40.1779V39.1157L5.82177 38.6504H2.93865V40.6456H5.82177V40.6432Z" fill="white"/>
<path d="M8.7793 40.6315V35.5344L10.0551 34.2865H14.0458L15.3216 35.5344V40.6315L14.0458 41.8794H10.0551L8.7793 40.6315ZM13.2457 40.6198L13.8103 40.0675V36.0984L13.2457 35.5461H10.8503L10.2857 36.0984V40.0675L10.8503 40.6198H13.2457Z" fill="white"/>
<path d="M18.2455 35.5367H15.9294V34.2888H22.0705V35.5367H19.7544V41.8793H18.2455V35.5367Z" fill="white"/>
<path d="M22.957 34.2888H24.4659V37.466H27.7478V34.2888H29.2542V41.8793H27.7478V38.7233H24.4659V41.8793H22.957V34.2888Z" fill="white"/>
<path d="M30.53 40.7067V39.6233H32.0148V40.2625L32.38 40.6197H34.6745L35.0517 40.2531V38.9935L34.6865 38.6363H31.7481L30.5517 37.466V35.4591L31.7481 34.2888H35.2511L36.45 35.4591V36.5542H34.9628V35.9033L34.5976 35.5461H32.4016L32.0365 35.9033V37.0219L32.4016 37.3791H35.34L36.5365 38.5494V40.6855L35.3184 41.8793H31.7265L30.53 40.7067Z" fill="white"/>
<path d="M37.9108 31.8707H0.0915527V32.0892H37.9108V31.8707Z" fill="white" stroke="white" stroke-width="0.662339" stroke-miterlimit="2.61313" stroke-linecap="round" stroke-linejoin="round"/>
<path fill-rule="evenodd" clip-rule="evenodd" d="M0.0915527 43.8839H37.9108L18.9111 46.9107L0.0915527 43.8839Z" fill="white" stroke="white" stroke-width="0.662339" stroke-miterlimit="2.61313" stroke-linecap="round" stroke-linejoin="round"/>
</g>
<defs>
<clipPath id="clip0_38_179">
<rect width="38" height="47" fill="white"/>
</clipPath>
</defs>
</svg>
