<?xml version="1.0" standalone="no"?>
<!DOCTYPE svg PUBLIC "-//W3C//DTD SVG 20010904//EN"
 "http://www.w3.org/TR/2001/REC-SVG-20010904/DTD/svg10.dtd">
<svg version="1.0" xmlns="http://www.w3.org/2000/svg"
 width="132.000000pt" height="300.000000pt" viewBox="0 0 132.000000 300.000000"
 preserveAspectRatio="xMidYMid meet">
<metadata>
Created by potrace 1.10, written by Peter Selinger 2001-2011
</metadata>
<g transform="translate(0.000000,300.000000) scale(0.100000,-0.100000)"
fill="#000000" stroke="none">
<path d="M525 2236 c-27 -13 -60 -34 -72 -47 -87 -97 -89 -239 -4 -325 l31
-31 -87 -5 c-74 -4 -89 -8 -105 -27 -22 -28 -24 -89 -4 -117 12 -16 25 -19 91
-17 l77 2 -6 -61 c-9 -72 -44 -214 -87 -349 l-31 -96 -50 -6 c-87 -11 -112
-57 -62 -117 24 -28 26 -36 20 -83 -12 -96 -22 -113 -91 -156 -35 -22 -70 -50
-79 -63 -30 -43 -11 -136 31 -152 14 -6 9 -12 -24 -32 -23 -13 -45 -33 -48
-44 -4 -11 -11 -20 -16 -20 -5 0 -9 -14 -9 -32 0 -17 3 -29 6 -25 7 6 34 -16
34 -28 0 -3 -9 -3 -20 0 -16 5 -20 2 -20 -14 l0 -21 660 0 c580 0 660 2 660
15 0 8 -7 15 -15 15 -19 0 -19 9 1 31 11 13 14 27 10 45 -10 39 -69 94 -100
94 -33 0 -33 5 0 34 21 17 28 34 32 75 4 45 1 55 -19 77 -13 15 -50 39 -81 55
-66 33 -72 42 -88 127 -9 53 -9 66 5 84 8 13 15 37 15 55 0 39 -32 64 -93 73
l-41 5 -47 145 c-39 119 -72 260 -82 350 -2 12 9 14 53 12 100 -6 141 29 123
105 -11 46 -45 62 -142 62 l-65 1 31 33 c49 51 67 95 67 162 0 95 -60 184
-150 221 -53 22 -151 18 -209 -10z m205 -38 c25 -13 59 -42 77 -66 29 -38 33
-51 33 -103 0 -71 -27 -131 -71 -158 -22 -14 -53 -18 -132 -20 -93 -2 -106 1
-137 21 -95 64 -94 230 2 301 70 52 156 61 228 25z m138 -406 c47 -5 76 -13
82 -22 14 -22 12 -60 -2 -61 -7 -1 -152 -2 -321 -3 l-308 -1 -5 22 c-3 12 -1
30 4 40 20 35 320 49 550 25z m-82 -207 c19 -131 67 -298 119 -418 7 -17 -5
-18 -264 -15 -149 2 -271 5 -271 8 0 3 16 51 35 107 34 102 85 326 85 377 l0
27 142 -3 142 -3 12 -80z m217 -476 c29 -8 37 -15 37 -33 0 -43 -16 -46 -156
-34 -111 9 -563 6 -602 -4 -8 -1 -23 9 -35 24 -46 61 -8 66 468 60 138 -2 267
-8 288 -13z m-85 -106 c84 -5 93 -8 96 -27 28 -146 38 -162 122 -205 58 -28
74 -47 74 -84 0 -42 -20 -70 -64 -91 -32 -15 -72 -16 -393 -11 -197 4 -411 3
-476 -2 l-119 -8 -34 37 c-32 36 -46 88 -24 88 6 0 10 -5 10 -10 0 -7 6 -7 19
-1 10 6 38 15 62 21 72 17 458 29 704 21 127 -4 234 -4 239 0 4 4 -2 13 -14
19 -17 9 -131 12 -419 12 -404 1 -511 -7 -559 -38 -38 -25 -40 -4 -2 25 77 59
118 106 124 144 3 20 8 52 11 71 l6 34 72 6 c40 4 92 8 117 10 53 5 316 -2
448 -11z m308 -475 c46 -25 59 -72 28 -102 -14 -14 -81 -16 -590 -16 -561 0
-574 0 -594 20 -26 26 -25 43 3 76 20 23 33 27 108 34 46 4 293 7 549 6 419
-1 468 -3 496 -18z"/>
</g>
</svg>
