<?xml version="1.0" standalone="no"?>
<!DOCTYPE svg PUBLIC "-//W3C//DTD SVG 20010904//EN"
 "http://www.w3.org/TR/2001/REC-SVG-20010904/DTD/svg10.dtd">
<svg version="1.0" xmlns="http://www.w3.org/2000/svg"
 width="137.000000pt" height="300.000000pt" viewBox="0 0 137.000000 300.000000"
 preserveAspectRatio="xMidYMid meet">
<metadata>
Created by potrace 1.10, written by Peter Selinger 2001-2011
</metadata>
<g transform="translate(0.000000,300.000000) scale(0.100000,-0.100000)"
fill="#000000" stroke="none">
<path d="M644 2882 c-38 -25 -40 -93 -4 -112 20 -11 19 -13 -17 -54 -85 -97
-178 -321 -189 -458 -7 -83 7 -166 38 -223 16 -31 17 -40 7 -44 -20 -6 -99
-90 -99 -104 0 -7 -13 -20 -30 -29 -32 -18 -46 -54 -36 -94 7 -25 8 -25 87
-22 l81 3 -7 -60 c-9 -81 -67 -304 -101 -390 -23 -57 -41 -83 -100 -140 -40
-38 -79 -83 -87 -100 -36 -74 -33 -159 9 -221 14 -20 24 -37 22 -38 -43 -26
-109 -94 -118 -122 -12 -35 -10 -94 4 -126 6 -13 2 -19 -18 -24 -53 -13 -107
-107 -72 -126 20 -11 21 -28 1 -28 -8 0 -15 -7 -15 -15 0 -13 83 -15 685 -15
l685 0 -1 58 c0 31 -3 51 -6 43 -4 -9 -10 -2 -17 20 -6 20 -24 42 -43 54 -21
13 -30 25 -26 35 3 8 8 36 11 63 6 61 -17 122 -62 166 -34 33 -34 33 -20 73
42 120 0 234 -114 307 -57 36 -86 84 -132 219 -29 85 -80 309 -80 351 0 16 9
17 86 13 97 -5 104 -1 104 60 0 26 -6 42 -23 55 -13 10 -23 20 -23 23 -1 19
-28 50 -45 50 -11 0 -24 10 -30 24 -7 14 -23 27 -36 31 -19 4 -23 10 -18 23
42 100 47 129 43 222 -6 105 -34 202 -96 325 -42 84 -107 182 -124 187 -9 3
-4 15 14 37 23 27 26 36 17 58 -6 15 -15 33 -21 40 -11 14 -66 17 -84 5z m60
-35 c16 -11 17 -17 7 -36 -14 -25 -38 -25 -54 1 -8 12 -7 21 2 32 16 19 22 20
45 3z m21 -174 c21 -27 59 -93 86 -148 83 -170 108 -318 74 -433 -15 -51 -27
-60 -53 -43 -10 6 -11 18 -3 52 15 64 13 214 -4 286 -16 69 -65 196 -72 189
-3 -2 9 -46 26 -96 39 -117 55 -238 41 -324 -16 -100 -5 -93 -148 -99 -70 -3
-135 -7 -146 -9 -46 -7 -66 183 -32 312 30 114 158 360 187 360 5 0 24 -21 44
-47z m99 -659 c42 -16 3 -22 -139 -20 -142 1 -177 6 -142 19 18 8 262 8 281 1z
m55 -63 c14 -4 26 -11 28 -16 2 -6 -77 -9 -214 -7 -205 2 -257 9 -181 23 45 9
337 9 367 0z m78 -63 c24 -11 -15 -14 -242 -18 -258 -5 -309 -1 -275 20 23 15
483 13 517 -2z m70 -70 c9 -10 15 -20 12 -22 -4 -4 -613 -9 -683 -6 -22 1 29
39 58 43 17 2 158 4 313 3 253 -1 284 -3 300 -18z m-172 -176 c26 -159 89
-366 131 -430 9 -13 14 -25 12 -26 -2 -1 -41 1 -88 5 -126 11 -470 10 -509 -1
-19 -5 -36 -8 -38 -7 -2 2 10 28 26 58 40 73 96 262 118 395 l17 109 157 0
157 0 17 -103z m-5 -483 c178 -11 222 -23 273 -75 48 -48 59 -80 55 -155 -2
-38 -8 -72 -13 -77 -6 -4 -118 -4 -250 0 -221 7 -564 -2 -643 -18 -27 -6 -31
-3 -52 41 -18 37 -21 57 -17 97 21 174 171 218 647 187z m100 -339 c107 -6
199 -15 204 -20 5 -5 -140 -8 -355 -7 -200 1 -409 -2 -464 -6 -129 -10 -106 7
30 22 187 21 340 23 585 11z m234 -68 c55 -15 85 -120 57 -195 l-11 -28 -534
4 c-409 2 -538 6 -550 16 -24 20 -28 64 -11 108 20 50 77 84 149 89 28 2 85 8
126 13 89 11 732 6 774 -7z m91 -258 c8 -4 22 -19 31 -35 16 -33 7 -61 -26
-79 -12 -6 -224 -10 -604 -10 -573 0 -586 0 -606 20 -32 32 -20 82 23 100 25
10 1156 14 1182 4z"/>
<path d="M308 1105 c-41 -28 -77 -81 -88 -131 -12 -51 3 -41 23 15 12 34 33
63 68 95 56 50 55 60 -3 21z"/>
<path d="M249 696 c-24 -18 -52 -49 -62 -67 l-18 -34 28 32 c16 18 47 48 68
67 51 45 41 46 -16 2z"/>
<path d="M1351 1921 c-11 -7 -11 -13 0 -32 11 -20 14 -21 17 -6 6 29 -2 47
-17 38z"/>
</g>
</svg>
