<?xml version="1.0" standalone="no"?>
<!DOCTYPE svg PUBLIC "-//W3C//DTD SVG 20010904//EN"
 "http://www.w3.org/TR/2001/REC-SVG-20010904/DTD/svg10.dtd">
<svg version="1.0" xmlns="http://www.w3.org/2000/svg"
 width="153.000000pt" height="300.000000pt" viewBox="0 0 153.000000 300.000000"
 preserveAspectRatio="xMidYMid meet">
<metadata>
Created by potrace 1.10, written by Peter Selinger 2001-2011
</metadata>
<g transform="translate(0.000000,300.000000) scale(0.100000,-0.100000)"
fill="#000000" stroke="none">
<path d="M631 2656 c-17 -20 -41 -102 -41 -137 0 -22 -6 -29 -30 -34 -49 -11
-169 -96 -268 -189 -102 -98 -114 -121 -55 -110 33 6 36 5 29 -12 -22 -53 -28
-96 -23 -168 4 -61 2 -85 -10 -103 -23 -34 -5 -66 87 -158 44 -44 80 -85 80
-91 0 -6 -9 -14 -20 -17 -28 -7 -25 -29 3 -25 14 2 22 -2 22 -12 0 -8 -10 -16
-22 -18 -27 -4 -30 -17 -6 -30 15 -9 14 -12 -9 -35 -30 -30 -87 -44 -116 -28
-32 17 -42 13 -42 -16 0 -65 76 -137 138 -130 17 1 32 1 32 -2 0 -3 -13 -19
-29 -36 -16 -16 -43 -56 -60 -89 -27 -50 -31 -69 -31 -133 0 -92 30 -162 94
-221 l44 -40 -49 -46 c-64 -60 -82 -97 -77 -155 3 -25 8 -53 11 -61 5 -11 -3
-21 -27 -34 -53 -28 -70 -81 -40 -124 15 -21 14 -22 -15 -22 -21 0 -31 -5 -31
-15 0 -13 82 -15 680 -15 598 0 680 2 680 15 0 8 -7 15 -17 15 -15 0 -15 1 0
18 10 10 17 25 17 33 0 28 -41 80 -75 96 -25 12 -34 21 -29 32 33 80 21 147
-37 205 l-40 39 55 48 c66 59 106 134 106 198 0 61 -40 143 -120 249 -34 46
-61 84 -59 86 2 2 18 11 34 20 17 8 41 25 53 36 l24 20 -47 52 c-64 73 -158
268 -129 268 3 0 17 -9 31 -20 31 -24 99 -27 130 -5 12 8 24 28 28 44 3 17 14
31 26 34 19 5 27 27 9 27 -16 0 -12 57 5 64 21 8 19 25 -4 34 -10 4 -34 27
-53 52 -30 40 -44 49 -123 76 -88 30 -144 59 -245 127 l-50 34 44 17 c77 30
101 80 32 69 -27 -4 -43 2 -85 30 -46 32 -121 57 -171 57 -15 0 -17 -6 -13
-42 7 -65 9 -68 50 -68 36 0 37 1 16 15 -25 17 -37 55 -18 55 30 0 45 -13 45
-40 0 -16 7 -30 15 -34 11 -4 15 2 15 25 0 26 2 28 18 19 9 -6 34 -22 56 -34
23 -14 34 -26 27 -30 -6 -4 -49 -8 -95 -8 -80 -1 -87 1 -145 37 -53 33 -66 47
-90 99 -28 60 -61 173 -61 212 0 10 -4 25 -9 32 -6 10 -10 10 -20 -2z m55
-256 c25 -57 26 -62 11 -78 -24 -23 -33 -9 -57 82 -21 84 -24 116 -13 156 5
19 9 12 19 -38 7 -34 25 -89 40 -122z m-56 -92 c0 -18 -17 -5 -43 32 -19 26
-36 40 -51 40 -29 0 -114 -43 -148 -75 -15 -14 -37 -25 -49 -25 -29 0 126 123
196 156 l50 24 22 -73 c13 -39 23 -75 23 -79z m-52 -18 c52 -60 73 -63 130
-15 l41 36 52 -33 c39 -24 68 -33 112 -36 53 -4 68 -11 136 -59 93 -67 150
-97 261 -137 75 -28 87 -36 107 -71 13 -22 23 -56 23 -76 0 -32 -3 -37 -28
-42 -32 -7 -99 6 -115 22 -13 13 -27 14 -27 2 0 -18 68 -51 104 -51 29 0 36
-4 36 -20 0 -13 -10 -24 -25 -30 -35 -13 -81 7 -122 54 -30 35 -34 36 -100 36
-37 0 -73 4 -79 8 -6 4 -28 41 -48 82 -47 94 -49 96 -116 130 -77 39 -116 45
-165 25 -29 -13 -62 -16 -129 -14 -61 3 -90 0 -93 -8 -10 -29 174 -36 235 -9
40 18 43 18 89 1 101 -38 91 -22 321 -495 49 -102 114 -218 143 -259 110 -150
119 -166 119 -196 -1 -68 -57 -149 -155 -225 l-55 -42 -332 -3 c-183 -1 -366
-6 -406 -10 l-73 -8 -49 51 c-36 38 -53 66 -66 108 -34 118 2 206 147 358 106
111 138 166 139 234 0 68 -23 106 -119 199 -112 107 -134 148 -135 252 -1 67
3 85 35 152 30 62 45 81 84 107 27 18 56 32 64 32 9 0 35 -23 59 -50z m-220
-52 c-3 -8 -26 -14 -53 -16 -43 -3 -47 -1 -36 12 17 20 95 22 89 4z m-45 -100
c-19 -68 -10 -166 19 -227 13 -27 59 -83 114 -136 109 -106 126 -143 104 -222
-18 -64 -119 -168 -173 -178 -45 -9 -90 8 -111 40 -14 22 -14 23 19 28 70 11
124 53 129 99 1 3 4 10 9 14 4 4 7 31 7 61 l0 53 -90 94 c-85 90 -97 106 -85
118 8 8 215 -201 225 -228 15 -37 12 -81 -6 -117 -32 -62 -68 -89 -154 -113
l-45 -12 39 -1 c83 -2 188 81 201 159 12 72 -6 107 -119 220 -120 121 -131
145 -124 275 4 78 21 125 44 125 8 0 7 -16 -3 -52z m868 -308 c36 0 39 -2 39
-29 0 -77 75 -236 147 -313 l25 -26 -40 -21 -41 -21 -19 28 c-35 48 -182 362
-182 387 0 4 7 4 16 1 9 -3 33 -6 55 -6z m299 -768 c0 -60 -42 -135 -100 -181
-53 -42 -61 -45 -93 -32 -16 6 -13 11 22 35 77 54 151 154 151 206 0 12 5 18
10 15 6 -3 10 -23 10 -43z m-306 -232 c55 -5 108 -12 118 -16 27 -8 22 -28 -4
-20 -47 14 -524 18 -678 7 -85 -6 -168 -14 -185 -17 -28 -6 -29 -5 -10 9 18
13 129 33 230 41 97 7 439 5 529 -4z m52 -59 c50 -5 106 -16 123 -25 58 -30
74 -98 42 -178 l-11 -28 -515 0 c-499 0 -516 1 -535 20 -27 27 -34 63 -20 104
21 64 76 88 240 106 96 11 571 11 676 1z m228 -286 c26 -24 30 -35 26 -65 -4
-39 -13 -40 -617 -40 -570 0 -583 0 -603 20 -27 27 -25 56 5 85 l24 25 569 0
569 0 27 -25z"/>
<path d="M1327 1953 c-13 -12 -7 -42 11 -52 28 -15 75 -17 79 -4 10 30 -68 78
-90 56z"/>
</g>
</svg>
