<?xml version="1.0" standalone="no"?>
<!DOCTYPE svg PUBLIC "-//W3C//DTD SVG 20010904//EN"
 "http://www.w3.org/TR/2001/REC-SVG-20010904/DTD/svg10.dtd">
<svg version="1.0" xmlns="http://www.w3.org/2000/svg"
 width="142.000000pt" height="300.000000pt" viewBox="0 0 142.000000 300.000000"
 preserveAspectRatio="xMidYMid meet">
<metadata>
Created by potrace 1.10, written by Peter Selinger 2001-2011
</metadata>
<g transform="translate(0.000000,300.000000) scale(0.100000,-0.100000)"
fill="#000000" stroke="none">
<path d="M870 2644 c0 -41 -39 -183 -63 -231 -32 -62 -138 -124 -222 -131 -33
-2 -75 0 -93 5 l-34 8 49 32 48 32 3 -25 c5 -33 16 -30 27 8 6 20 18 34 29 36
19 4 19 -6 1 -50 -5 -14 -2 -18 12 -18 23 0 43 38 43 82 l0 30 -47 -7 c-28 -4
-76 -23 -115 -47 -54 -32 -73 -39 -98 -33 -32 7 -35 4 -20 -24 10 -20 78 -51
110 -51 36 0 21 -15 -60 -64 -101 -60 -190 -100 -265 -120 -45 -11 -67 -24
-87 -48 -52 -62 -55 -65 -69 -70 -11 -4 -11 -11 4 -36 21 -37 22 -52 2 -52
-22 0 -18 -31 5 -37 11 -3 20 -14 20 -25 0 -30 45 -68 80 -68 39 0 92 22 120
50 12 12 24 19 27 16 10 -10 -16 -127 -39 -172 -12 -25 -47 -72 -77 -106 l-55
-60 25 -19 c13 -10 39 -21 57 -25 18 -3 34 -9 36 -13 2 -3 -28 -52 -68 -108
-117 -165 -140 -252 -90 -351 25 -51 86 -114 131 -134 24 -11 41 -40 19 -32
-19 7 -83 -69 -97 -115 -9 -30 -9 -51 -1 -83 8 -31 8 -44 0 -47 -21 -7 -88
-73 -88 -87 0 -26 -19 -14 -23 13 -3 20 -4 16 -6 -13 -1 -29 4 -44 14 -48 19
-7 19 -26 0 -26 -8 0 -15 -7 -15 -15 0 -13 82 -15 698 -13 456 2 697 6 697 13
0 6 -15 11 -33 13 -33 3 -33 4 -17 22 13 14 16 28 11 52 -7 35 -51 88 -74 88
-9 0 -12 6 -8 16 32 83 12 159 -60 231 l-54 54 30 25 c16 14 44 54 61 89 28
58 31 71 27 137 -4 86 -29 143 -91 214 -40 45 -40 47 -15 41 59 -15 118 29
148 110 22 60 18 84 -10 58 -25 -23 -128 -17 -144 8 -9 14 -7 20 7 28 26 15
21 39 -8 39 -16 0 -25 6 -25 15 0 10 10 15 30 15 17 0 30 5 30 10 0 6 -13 10
-30 10 -48 0 -49 -2 93 158 44 48 48 58 42 86 -4 17 -7 68 -6 113 2 73 -7 129
-26 180 -5 12 1 14 30 12 20 -2 39 0 43 3 9 10 -127 145 -206 204 -36 27 -93
62 -126 78 -58 27 -62 32 -68 70 -15 91 -76 172 -76 100z m40 -123 c0 -60 -32
-201 -45 -201 -2 0 -15 5 -28 11 l-24 11 29 57 c16 31 34 87 41 124 6 37 15
67 19 67 4 0 8 -31 8 -69z m108 -90 c32 -16 81 -48 110 -70 28 -23 55 -41 60
-41 15 0 34 -28 24 -34 -13 -8 -52 5 -52 18 0 19 -116 76 -154 76 -31 0 -40
-6 -62 -40 -15 -22 -31 -40 -35 -40 -12 0 -12 -3 11 63 11 31 20 66 20 77 0
27 10 25 78 -9z m53 -112 c45 -32 96 -94 114 -142 23 -61 18 -195 -10 -252
-11 -22 -61 -80 -111 -130 -51 -49 -98 -103 -103 -118 -17 -45 -13 -127 9
-175 11 -25 63 -88 119 -145 142 -147 179 -231 147 -341 -11 -36 -31 -70 -60
-102 l-43 -48 -389 3 -389 3 -50 30 c-83 50 -134 97 -165 151 -40 70 -38 100
11 172 173 255 166 243 342 620 81 173 112 214 182 241 41 15 47 15 91 0 70
-24 224 -17 224 10 0 9 -31 14 -112 17 -62 3 -127 8 -145 12 -68 15 -181 -65
-221 -155 -37 -85 -41 -87 -148 -95 -85 -7 -97 -10 -111 -31 -36 -56 -131 -84
-152 -45 -13 23 -5 31 32 31 35 0 107 38 107 57 0 9 -11 7 -39 -8 -22 -11 -59
-21 -83 -22 -42 -2 -43 -1 -46 30 -2 19 7 51 22 82 25 49 28 51 98 72 123 36
275 114 346 176 12 11 48 26 80 32 32 6 80 25 106 41 26 17 50 30 53 30 3 0
30 -18 60 -41 65 -49 81 -46 130 22 38 54 50 56 104 18z m203 -79 c17 -17 -3
-23 -45 -14 -24 5 -44 15 -47 23 -4 11 4 13 39 7 24 -4 48 -11 53 -16z m-24
-76 c10 -19 15 -60 15 -124 0 -85 -3 -100 -27 -140 -14 -25 -60 -76 -102 -113
-103 -93 -128 -146 -106 -226 14 -53 48 -92 107 -122 40 -21 55 -24 87 -17 48
10 58 2 27 -23 -15 -13 -39 -19 -71 -19 -109 0 -217 140 -196 253 6 30 29 61
110 146 125 131 140 165 134 299 -3 48 -8 95 -13 106 -14 32 18 14 35 -20z
m34 -283 c7 -11 -54 -90 -109 -141 -63 -60 -82 -122 -51 -165 8 -11 12 -25 9
-31 -14 -36 53 -84 117 -84 18 0 29 -4 25 -10 -3 -5 -24 -10 -47 -10 -107 0
-191 101 -168 203 7 33 26 57 104 131 53 50 96 97 96 104 0 14 16 16 24 3z
m-844 -44 c0 -13 -117 -271 -147 -323 l-38 -66 -39 7 c-22 3 -43 8 -48 11 -5
3 11 27 35 52 59 64 97 145 109 236 11 74 11 75 42 79 45 6 86 7 86 4z m-302
-845 c36 -46 84 -84 136 -108 45 -22 45 -31 0 -40 -44 -8 -72 6 -131 65 -47
48 -80 133 -67 173 6 19 8 18 19 -15 7 -19 26 -53 43 -75z m897 -163 c50 -6
101 -17 115 -25 22 -11 15 -12 -60 -6 -111 9 -652 9 -758 0 -47 -4 -80 -4 -77
1 5 8 91 26 170 35 76 8 530 5 610 -5z m-64 -54 c182 -5 224 -16 257 -65 19
-29 23 -44 20 -87 -8 -90 36 -83 -542 -83 -281 0 -516 4 -522 8 -20 13 -34 50
-34 88 0 29 8 44 37 74 31 30 51 39 103 50 73 14 335 28 450 23 41 -1 145 -5
231 -8z m324 -290 c29 -28 32 -61 8 -87 -15 -17 -48 -18 -624 -18 l-609 0 -6
24 c-8 32 10 63 49 86 31 19 55 20 595 20 l563 0 24 -25z"/>
<path d="M122 1948 c-16 -16 -16 -68 1 -68 25 0 78 41 75 58 -4 21 -58 28 -76
10z"/>
</g>
</svg>
