<?xml version="1.0" standalone="no"?>
<!DOCTYPE svg PUBLIC "-//W3C//DTD SVG 20010904//EN"
 "http://www.w3.org/TR/2001/REC-SVG-20010904/DTD/svg10.dtd">
<svg version="1.0" xmlns="http://www.w3.org/2000/svg"
 width="143.000000pt" height="300.000000pt" viewBox="0 0 143.000000 300.000000"
 preserveAspectRatio="xMidYMid meet">
<metadata>
Created by potrace 1.10, written by Peter Selinger 2001-2011
</metadata>
<g transform="translate(0.000000,300.000000) scale(0.100000,-0.100000)"
fill="#000000" stroke="none">
<path d="M681 2948 c-15 -46 -174 -340 -223 -413 -22 -33 -56 -76 -75 -97
l-35 -36 23 -15 c13 -9 37 -21 52 -28 19 -9 26 -17 21 -28 -20 -49 -26 -108
-15 -155 7 -28 8 -52 4 -53 -41 -14 -78 -41 -81 -60 -2 -13 -14 -25 -32 -31
-20 -7 -36 -26 -55 -63 -45 -91 -27 -109 130 -124 38 -3 70 -7 72 -8 1 -2 -2
-21 -7 -42 -5 -22 -20 -95 -35 -162 -14 -68 -42 -166 -62 -219 -31 -82 -42
-100 -75 -121 -29 -20 -38 -32 -38 -54 0 -19 -12 -42 -34 -66 -58 -65 -71 -99
-71 -188 0 -72 3 -86 32 -139 32 -58 32 -59 13 -73 -11 -8 -20 -20 -20 -26 0
-7 -15 -19 -32 -27 -57 -27 -89 -137 -54 -185 12 -17 10 -20 -17 -34 -17 -9
-34 -23 -38 -31 -34 -72 -33 -69 -14 -90 16 -18 16 -20 2 -20 -10 0 -17 -7
-17 -15 0 -13 86 -15 715 -15 629 0 715 2 715 15 0 8 -7 15 -17 15 -15 0 -14
2 2 20 16 17 16 23 4 52 -7 18 -24 43 -37 55 -22 20 -23 25 -11 56 24 68 -11
137 -105 202 l-29 21 26 66 c49 121 32 245 -44 331 -21 25 -39 55 -39 66 0 21
-18 44 -57 71 -20 14 -55 109 -97 260 -16 58 -56 251 -56 269 0 6 20 11 48 12
26 0 70 6 97 12 48 11 50 14 53 48 2 25 -3 40 -18 54 -11 10 -20 27 -20 37 0
11 -15 27 -35 39 -19 12 -35 27 -35 33 0 18 -31 43 -62 51 -24 6 -27 10 -20
34 9 34 9 139 -1 171 -7 23 -2 28 44 53 l51 28 -39 42 c-72 78 -186 263 -292
475 -17 34 -35 62 -40 62 -5 0 -14 -15 -20 -32z m79 -153 c68 -130 139 -248
195 -324 25 -34 45 -63 45 -66 0 -2 -18 -14 -39 -24 -37 -20 -42 -20 -112 -5
-81 17 -252 14 -321 -6 -33 -10 -42 -8 -70 12 -18 13 -34 24 -36 24 -2 1 19
33 46 70 27 38 62 91 76 119 14 27 26 42 26 32 0 -29 -26 -82 -67 -139 -50
-68 -56 -78 -45 -78 13 0 104 130 118 170 7 19 13 48 14 64 0 24 109 261 116
253 1 -1 26 -47 54 -102z m113 -462 c45 -12 61 -22 68 -41 13 -33 7 -37 -28
-19 -83 44 -289 48 -392 8 -30 -11 -57 -19 -59 -16 -3 2 2 15 11 29 40 61 250
81 400 39z m2 -81 c55 -16 88 -43 72 -58 -3 -4 -28 -1 -54 7 -73 21 -336 19
-385 -3 l-38 -17 0 24 c0 64 253 94 405 47z m-35 -72 c25 -6 55 -12 68 -15 12
-3 22 -12 22 -20 0 -12 -6 -14 -27 -8 -16 5 -117 8 -225 8 -109 -1 -198 3
-198 7 0 6 29 16 95 31 38 9 220 6 265 -3z m98 -93 c86 -24 90 -40 7 -30 -88
10 -409 10 -495 0 -64 -7 -65 -7 -35 10 17 9 57 22 90 29 81 17 362 12 433 -9z
m-93 -48 c134 -11 231 -34 239 -56 5 -12 -5 -13 -67 -6 -105 12 -604 9 -655
-4 -48 -12 -64 -1 -30 20 32 20 110 37 215 46 129 12 165 12 298 0z m-363
-124 c-2 -16 -6 -32 -7 -34 -2 -2 -45 0 -94 4 -67 5 -91 11 -91 21 0 15 14 19
100 33 85 14 96 11 92 -24z m188 20 c-9 -11 -33 -15 -86 -15 -68 0 -85 6 -67
23 3 4 42 7 86 7 69 0 78 -2 67 -15z m84 -10 c39 -36 62 -94 95 -242 51 -226
111 -342 198 -383 52 -24 58 -45 11 -34 -51 12 -614 8 -687 -6 -34 -6 -65 -9
-67 -7 -2 2 23 21 56 41 116 72 175 173 234 399 38 147 68 220 101 243 26 18
28 18 59 -11z m166 0 c0 -14 0 -28 0 -31 0 -3 -25 -7 -55 -8 -30 -2 -55 -2
-55 0 0 1 -2 8 -5 16 -4 10 7 12 51 10 39 -3 54 -1 50 7 -4 6 -35 11 -71 11
-35 0 -67 5 -70 10 -4 6 23 10 74 10 80 0 81 0 81 -25z m120 10 c115 -15 115
-41 -1 -56 -80 -10 -89 -6 -89 44 0 22 4 27 18 23 9 -2 42 -8 72 -11z m-402
-37 c-3 -8 -28 -14 -66 -16 -51 -2 -62 0 -62 13 0 12 13 15 66 15 48 0 65 -3
62 -12z m-18 -45 c0 -9 -18 -13 -55 -13 -48 0 -65 7 -51 21 2 2 27 4 55 4 34
0 51 -4 51 -12z m310 7 c0 -5 -16 -11 -35 -12 -19 -1 -42 -2 -52 -2 -9 -1 -18
5 -20 12 -4 9 11 12 51 12 31 0 56 -4 56 -10z m0 -40 c0 -17 -7 -20 -44 -20
-29 0 -46 5 -49 14 -5 12 5 16 41 19 26 2 48 4 50 5 1 1 2 -7 2 -18z m-327 -5
c-2 -5 -25 -11 -53 -13 -46 -3 -60 4 -43 22 11 11 98 2 96 -9z m-5 -37 c-3 -8
-26 -14 -56 -16 -43 -3 -51 -1 -46 12 8 20 108 23 102 4z m342 -3 c0 -11 -12
-15 -44 -15 -30 0 -46 5 -50 15 -4 12 4 15 44 15 38 0 50 -4 50 -15z m-360
-40 c0 -11 -12 -15 -45 -15 -33 0 -45 4 -45 15 0 11 12 15 45 15 33 0 45 -4
45 -15z m370 -10 c0 -11 -12 -15 -45 -15 -33 0 -45 4 -45 15 0 11 12 15 45 15
33 0 45 -4 45 -15z m-372 -27 c-5 -15 -98 -24 -98 -10 0 17 14 22 58 22 30 0
42 -4 40 -12z m382 -13 c0 -11 -12 -15 -44 -15 -30 0 -46 5 -50 15 -4 12 4 15
44 15 38 0 50 -4 50 -15z m-396 -30 c-7 -16 -94 -22 -94 -7 0 17 14 22 56 22
34 0 42 -3 38 -15z m404 -18 c3 -14 -5 -17 -41 -17 -59 0 -74 27 -19 33 50 5
56 3 60 -16z m-414 -20 c-5 -15 -94 -21 -94 -8 0 16 15 21 56 21 32 0 42 -3
38 -13z m426 -22 c0 -9 -9 -15 -22 -15 -13 0 -33 -3 -45 -6 -19 -5 -23 -2 -23
15 0 18 6 21 45 21 33 0 45 -4 45 -15z m-440 -20 c0 -11 -12 -15 -45 -15 -35
0 -43 3 -39 15 4 10 20 15 45 15 28 0 39 -4 39 -15z m448 -27 c4 -21 -75 -31
-83 -10 -7 20 -7 20 23 25 42 7 57 3 60 -15z m-461 -11 c-4 -12 -76 -31 -85
-23 -2 3 -2 11 1 18 6 16 90 21 84 5z m473 -36 c0 -27 -67 -35 -81 -10 -7 15
-4 18 19 22 56 8 62 7 62 -12z m-494 -7 c-3 -9 -6 -18 -6 -20 0 -2 -16 -4 -35
-4 -46 0 -48 27 -2 33 17 2 36 5 41 5 4 1 5 -5 2 -14z m496 -52 c-19 -15 -54
-12 -59 4 -5 15 60 34 69 20 4 -6 0 -17 -10 -24z m-526 -1 c-25 -27 -66 -34
-66 -10 0 17 17 24 64 28 18 1 18 0 2 -18z m554 -26 c0 -9 -7 -18 -15 -21 -23
-9 -18 -24 7 -21 17 1 24 -4 26 -20 6 -38 -17 -28 -67 29 l-24 28 24 9 c35 14
49 13 49 -4z m-607 -37 c-33 -33 -49 -34 -37 -4 6 16 36 34 59 35 5 1 -5 -13
-22 -31z m668 -188 c54 -61 109 -173 109 -220 0 -31 -7 -44 -37 -72 -91 -81
-71 -78 -435 -77 l-326 0 -20 47 c-32 75 -44 132 -44 209 0 40 -4 71 -8 68
-27 -17 -14 -173 23 -265 l24 -58 -30 -6 c-65 -13 -95 -7 -117 23 -29 42 -50
106 -50 155 0 95 98 219 181 230 24 3 55 8 69 10 14 2 159 3 324 2 l298 -1 39
-45z m69 -19 c62 -66 86 -120 73 -163 l-10 -33 -12 45 c-15 54 -51 118 -93
165 -47 54 -10 41 42 -14z m100 -197 c0 -18 -33 -129 -43 -145 -9 -15 -24 -19
-64 -19 -29 0 -53 3 -53 8 0 4 19 18 41 32 42 25 99 93 99 117 0 7 5 13 10 13
6 0 10 -3 10 -6z m-325 -184 c210 -9 265 -15 265 -29 0 -3 -197 -6 -437 -6
-241 0 -464 -3 -496 -8 -34 -4 -56 -4 -53 2 12 19 107 34 256 41 227 10 226
10 465 0z m74 -60 c216 -13 274 -27 308 -79 24 -35 30 -94 14 -120 -11 -17 41
-16 -642 -13 l-557 2 -17 36 c-35 74 11 133 119 154 144 27 490 36 775 20z
m335 -261 c36 -17 50 -56 31 -85 l-15 -24 -643 0 c-487 0 -646 3 -655 12 -30
30 -6 92 41 103 71 17 1203 11 1241 -6z"/>
</g>
</svg>
