<?xml version="1.0" standalone="no"?>
<!DOCTYPE svg PUBLIC "-//W3C//DTD SVG 20010904//EN"
 "http://www.w3.org/TR/2001/REC-SVG-20010904/DTD/svg10.dtd">
<svg version="1.0" xmlns="http://www.w3.org/2000/svg"
 width="186.000000pt" height="300.000000pt" viewBox="0 0 186.000000 300.000000"
 preserveAspectRatio="xMidYMid meet">
<metadata>
Created by potrace 1.10, written by Peter Selinger 2001-2011
</metadata>
<g transform="translate(0.000000,300.000000) scale(0.100000,-0.100000)"
fill="#000000" stroke="none">
<path d="M945 2873 c-65 -17 -106 -87 -86 -145 6 -18 20 -42 31 -53 l20 -22
-26 -59 c-14 -32 -48 -115 -76 -184 -27 -69 -51 -127 -53 -129 -6 -6 -65 129
-82 189 -10 34 -28 67 -48 87 -28 28 -40 33 -79 33 -85 0 -136 -47 -136 -125
0 -40 11 -66 46 -108 38 -45 91 -227 104 -355 12 -125 9 -148 -21 -157 -25 -8
-59 -62 -59 -93 0 -53 60 -112 115 -112 28 0 54 -94 69 -247 l5 -53 -44 0
c-24 0 -55 -4 -69 -10 -23 -8 -26 -15 -26 -55 0 -40 3 -47 26 -55 14 -6 46
-10 70 -10 l46 0 -7 -32 c-41 -207 -107 -401 -151 -449 -13 -14 -24 -32 -24
-40 0 -8 -34 -47 -75 -87 -41 -39 -85 -91 -97 -114 -30 -59 -30 -139 0 -197
l23 -44 -30 -31 c-35 -37 -51 -74 -51 -122 l0 -34 740 0 740 0 0 28 c0 52 -22
107 -56 139 -19 18 -30 34 -24 38 23 14 50 86 50 131 0 68 -29 119 -116 204
-133 130 -198 252 -250 467 -34 144 -35 139 33 147 70 8 83 18 83 67 0 48 -24
63 -91 57 l-49 -5 0 41 c0 48 24 188 40 232 8 23 19 33 41 38 34 7 75 46 81
79 8 39 -11 86 -47 114 -31 25 -35 34 -35 73 0 151 57 384 115 470 70 104 25
210 -88 210 -65 0 -107 -32 -132 -102 -35 -99 -80 -208 -85 -208 -3 1 -29 62
-59 138 -30 75 -65 161 -79 190 l-25 53 21 22 c76 81 -12 218 -123 190z m91
-57 c56 -47 28 -130 -47 -142 -50 -8 -99 33 -99 82 0 75 88 111 146 60z m-92
-218 c-8 -22 -12 -43 -10 -45 2 -3 7 4 10 15 9 28 56 77 56 59 0 -16 49 -127
55 -127 6 0 -10 42 -30 80 -16 32 -21 70 -6 55 5 -6 46 -99 90 -208 68 -165
81 -203 73 -225 -5 -15 -12 -26 -17 -25 -4 1 -47 85 -95 186 l-86 185 -94
-188 c-90 -180 -94 -187 -107 -163 -11 22 -5 42 68 221 45 108 83 203 86 210
3 6 9 12 14 12 4 0 2 -19 -7 -42z m-337 -73 c42 -48 33 -55 -73 -55 -72 0 -95
3 -91 13 3 8 26 11 78 10 51 -2 69 0 59 7 -8 5 -42 10 -75 10 l-60 1 29 25
c25 22 36 25 70 21 27 -4 49 -15 63 -32z m864 25 c16 -9 49 -58 49 -74 0 -2
-43 -5 -95 -5 -108 -1 -118 8 -66 60 31 31 75 38 112 19z m-357 -337 l36 -73
-169 0 -170 0 36 72 c19 40 58 120 85 177 l49 106 48 -105 c26 -58 64 -138 85
-177z m-496 236 c-2 -6 -7 -10 -11 -10 -4 1 -43 1 -87 1 -47 0 -80 4 -80 10 0
6 37 10 91 10 60 0 89 -4 87 -11z m902 1 c0 -6 -35 -10 -86 -10 -54 0 -83 -4
-79 -10 3 -5 37 -10 75 -10 56 0 68 -3 64 -14 -13 -35 -115 -24 -146 16 -10
13 -18 26 -18 31 0 4 43 7 95 7 57 0 95 -4 95 -10z m-933 -47 c-18 -18 -124
-32 -114 -15 4 5 0 13 -9 16 -33 13 -3 21 66 18 66 -3 71 -5 57 -19z m73 2 c0
-9 13 -42 30 -75 l30 -59 -88 -3 c-48 -2 -91 0 -96 4 -6 5 12 9 40 10 l49 1
-50 7 c-49 7 -48 7 23 8 52 2 71 5 66 13 -5 8 -29 10 -75 6 -56 -5 -69 -3 -69
9 0 11 16 14 76 14 53 0 73 3 68 11 -4 7 -23 9 -53 5 l-46 -6 38 25 c20 14 37
30 37 35 0 6 5 10 10 10 6 0 10 -7 10 -15z m667 -8 c4 -8 17 -19 28 -25 18
-10 16 -11 -17 -12 -21 0 -38 -4 -38 -10 0 -6 32 -10 75 -10 103 0 97 -19 -7
-22 l-83 -2 78 -3 c42 -2 77 -8 77 -13 0 -6 -37 -11 -82 -12 l-83 -2 78 -3
c110 -5 97 -23 -17 -23 l-94 0 31 75 c33 77 40 85 54 62z m-597 -152 c0 -6
-37 -10 -90 -11 -92 0 -125 12 -47 18 78 6 137 3 137 -7z m690 -5 c0 -6 -39
-11 -92 -12 l-93 -2 90 -6 c108 -7 102 -12 -15 -12 -75 0 -80 -1 -40 -8 25 -5
67 -9 94 -9 27 -1 46 -4 42 -8 -4 -5 -48 -6 -97 -4 -60 2 -89 -1 -89 -8 0 -7
33 -11 93 -12 82 -2 87 -2 42 -9 -50 -8 -165 -13 -165 -7 0 2 9 22 20 45 11
22 20 46 20 52 0 6 35 10 95 10 57 0 95 -4 95 -10z m-680 -30 c0 -6 -37 -10
-90 -10 -53 0 -90 4 -90 10 0 6 37 10 90 10 53 0 90 -4 90 -10z m28 -40 l23
-30 -106 0 c-128 0 -142 18 -17 23 l87 3 -92 2 c-52 1 -93 6 -93 12 0 5 39 11
88 13 48 1 87 4 88 5 0 1 10 -11 22 -28z m615 -57 c-5 -2 -52 -8 -104 -12
l-94 -9 98 1 c53 1 97 -1 97 -5 0 -3 -39 -9 -87 -13 -122 -9 -125 -13 -9 -14
125 -1 118 -19 -9 -24 l-90 -3 93 -2 c125 -3 121 -22 -5 -23 -64 0 -91 -3 -78
-9 11 -5 55 -9 98 -9 114 -1 97 -21 -20 -23 l-98 -2 90 -3 c127 -5 134 -23 9
-23 -67 0 -94 -3 -84 -10 8 -5 52 -10 98 -10 53 0 81 -4 77 -10 -4 -6 -143
-10 -386 -10 -246 0 -379 4 -379 10 0 6 28 10 63 11 34 0 80 4 102 8 32 7 19
9 -62 10 -61 1 -103 5 -103 11 0 6 42 11 103 11 l102 2 -85 8 c-47 4 -93 5
-102 3 -11 -3 -18 0 -18 8 0 10 21 12 91 9 58 -2 95 1 102 8 8 8 -16 11 -90
11 -141 0 -146 19 -6 22 l108 2 -107 3 c-134 4 -145 23 -14 23 57 0 97 4 101
11 5 7 -24 9 -93 7 -94 -3 -101 -2 -104 17 -4 20 1 20 400 20 222 1 400 -1
395 -2z m-13 -243 c0 -6 -135 -10 -385 -10 -250 0 -385 4 -385 10 0 6 135 10
385 10 250 0 385 -4 385 -10z m20 -39 c0 -5 9 -13 20 -16 11 -3 20 -9 20 -13
0 -4 -202 -7 -450 -7 -263 0 -445 4 -440 9 5 5 197 12 427 16 l418 8 -412 -2
c-226 0 -406 2 -400 6 18 11 817 10 817 -1z m50 -66 c7 -8 9 -16 4 -16 -5 -1
-215 -2 -466 -3 -443 -1 -478 1 -451 27 3 4 208 7 453 7 386 0 449 -2 460 -15z
m-2 -47 c-8 -24 -102 -29 -494 -26 -359 3 -395 5 -411 21 -16 16 5 17 446 17
364 0 462 -3 459 -12z m-108 -89 c0 -8 -24 -10 -80 -7 -43 3 -77 1 -74 -4 3
-4 37 -8 75 -8 51 0 70 -3 67 -12 -3 -8 -21 -11 -49 -10 -24 2 -55 -1 -69 -7
-20 -8 -13 -10 43 -10 85 -1 89 -20 5 -23 l-63 -2 63 -3 c79 -5 81 -23 2 -23
-33 0 -60 -4 -60 -10 0 -5 25 -10 55 -10 73 0 71 -20 -2 -22 l-58 -1 55 -6
c63 -7 67 -25 6 -29 -63 -5 -67 -10 -8 -11 28 -1 52 -5 52 -11 0 -5 -22 -10
-50 -10 -27 0 -50 -4 -50 -10 0 -5 23 -10 50 -10 28 0 50 -4 50 -10 0 -5 -22
-10 -50 -10 -30 0 -50 -4 -50 -11 0 -8 17 -10 50 -7 38 4 50 2 50 -8 0 -12
-54 -14 -294 -14 -186 0 -297 4 -301 10 -4 6 16 10 54 10 33 0 63 5 66 10 4 6
-17 10 -54 10 -34 0 -61 4 -61 10 0 6 27 10 60 10 33 0 60 3 60 8 0 4 -27 5
-60 4 -39 -3 -60 0 -60 7 0 6 20 11 48 12 82 1 96 18 15 18 -42 1 -73 5 -73
11 0 6 28 10 64 10 38 0 68 5 72 11 5 9 -12 11 -65 7 -39 -3 -71 -2 -71 2 0 4
33 12 73 17 l72 10 -72 2 c-95 1 -108 21 -14 21 38 0 73 5 76 10 4 6 -22 10
-69 10 -44 0 -76 4 -76 10 0 6 34 10 81 10 57 0 78 3 73 11 -4 8 -32 10 -80 7
-58 -4 -74 -2 -74 9 0 9 16 13 53 14 28 1 102 5 162 9 89 6 78 7 -57 3 -115
-3 -168 -1 -168 6 0 8 104 11 330 11 238 0 330 -3 330 -11z m95 -352 c0 -18
-95 -24 -365 -26 -195 -1 -485 13 -499 25 -18 15 67 19 436 16 330 -2 428 -5
428 -15z m-720 -27 l60 -7 -80 -1 c-44 0 -89 3 -100 8 -25 11 33 11 120 0z
m583 -57 c2 -9 -11 -13 -47 -13 -32 0 -51 -4 -51 -11 0 -8 16 -10 50 -6 39 5
50 3 50 -8 0 -10 -16 -15 -52 -18 l-53 -3 58 -2 c73 -3 75 -22 2 -22 -30 0
-55 -4 -55 -10 0 -6 27 -10 60 -10 80 0 78 -20 -2 -22 l-63 -1 63 -6 c79 -8
85 -25 10 -29 -79 -4 -73 -22 7 -22 87 0 84 -19 -2 -22 l-68 -2 69 -5 c95 -8
103 -31 10 -31 -83 0 -80 -7 6 -13 92 -7 91 -27 -2 -28 -55 -1 -65 -3 -43 -9
17 -4 54 -8 83 -9 83 -2 61 -21 -25 -21 -95 0 -92 -7 7 -13 102 -7 104 -26 3
-29 l-78 -2 84 -5 c47 -3 86 -10 88 -16 2 -7 -136 -10 -402 -10 -266 0 -404 3
-402 10 2 6 48 13 103 16 l99 5 -92 2 c-75 2 -93 5 -93 17 0 12 18 15 93 17
l92 2 -87 3 c-109 5 -117 23 -10 23 42 0 84 5 92 10 10 7 -12 10 -72 10 -52 0
-88 4 -88 10 0 6 33 10 79 10 44 0 83 5 86 10 4 6 -22 10 -69 10 -44 0 -76 4
-76 10 0 6 31 10 74 10 43 0 78 5 82 11 4 7 -17 10 -70 7 -56 -2 -76 0 -76 10
0 8 21 12 69 12 40 0 73 5 77 11 4 7 -16 10 -65 7 -52 -2 -71 0 -71 10 0 8 21
12 70 12 45 0 70 4 70 11 0 8 -23 10 -70 7 -46 -2 -69 0 -67 7 2 5 34 11 71
13 36 2 64 7 61 12 -3 4 -33 6 -66 3 -50 -5 -61 -3 -57 8 3 9 27 16 69 20 l64
6 -63 1 c-45 1 -62 6 -60 14 3 8 22 11 55 9 28 -1 54 2 58 8 4 7 -13 11 -49
11 -63 0 -76 17 -18 23 20 2 151 3 291 3 194 -1 255 -4 259 -13z m2 -452 c76
-5 135 -13 150 -22 22 -12 -32 -15 -435 -19 -253 -3 -462 -4 -464 -3 -3 2 3
11 12 20 13 13 43 19 129 23 168 10 466 10 608 1z m193 -95 c33 -16 16 -26
-35 -21 -29 3 -82 2 -118 -3 -61 -9 -57 -10 65 -11 72 -1 137 -6 145 -11 10
-7 -28 -10 -117 -10 -82 0 -133 -4 -133 -10 0 -6 56 -10 147 -10 80 0 144 -2
141 -5 -3 -3 -70 -9 -149 -14 l-144 -8 163 -2 c216 -1 216 -20 0 -24 l-163 -3
178 -2 c110 -1 177 -6 177 -12 0 -6 -43 -10 -107 -11 -60 -1 -137 -5 -173 -9
-44 -6 -7 -7 118 -5 100 2 182 0 182 -5 0 -4 -75 -11 -167 -15 -93 -4 -175
-11 -183 -15 -8 -5 72 -6 178 -3 142 5 192 3 192 -5 0 -8 -33 -12 -108 -12
-124 0 -262 -10 -262 -19 0 -3 83 -5 185 -3 124 2 185 -1 185 -8 0 -6 -51 -10
-142 -11 -79 0 -163 -4 -188 -9 -30 -5 15 -8 138 -7 100 1 182 -1 182 -4 0 -7
-155 -19 -254 -19 -39 0 -78 -5 -86 -10 -10 -7 41 -8 160 -4 122 4 172 3 165
-4 -6 -6 -103 -15 -230 -21 -279 -14 -796 -20 -770 -10 11 4 -50 8 -136 8
-122 1 -159 4 -168 15 -10 12 14 13 169 9 132 -5 180 -3 180 5 0 8 -32 12
-102 12 -134 0 -268 11 -268 21 0 5 87 6 193 3 137 -4 188 -3 177 5 -8 6 -60
11 -116 11 -126 0 -254 10 -254 21 0 4 89 6 198 4 130 -3 180 -1 147 5 -27 4
-99 9 -160 10 -96 1 -209 14 -180 20 20 4 282 -1 333 -6 32 -4 52 -2 52 4 0 6
-72 13 -185 17 -108 4 -185 11 -185 17 0 6 69 8 188 5 189 -6 155 3 -71 18
-54 4 -95 11 -91 16 3 5 15 7 27 5 55 -12 319 -17 312 -7 -4 7 -52 11 -123 12
-200 1 -221 16 -27 19 l170 3 -152 10 c-84 5 -151 13 -148 17 3 4 72 5 155 2
109 -3 150 -2 150 7 0 8 -42 11 -141 11 -91 0 -138 4 -134 10 4 6 67 11 148
12 l142 2 -130 6 c-134 5 -154 18 -50 31 71 10 886 5 908 -5z m-1003 -367
c-64 -11 -110 -11 -110 1 0 6 32 9 78 9 71 -1 73 -2 32 -10z m1145 2 c-6 -5
-65 -6 -140 -2 l-130 8 140 1 c83 1 135 -2 130 -7z m-53 -36 c11 -7 -177 -10
-578 -11 -327 -1 -592 1 -589 5 15 15 160 19 640 17 320 -1 516 -5 527 -11z
m82 -36 c14 -14 -221 -20 -752 -19 -309 1 -562 4 -562 6 0 3 9 8 19 12 24 8
1287 10 1295 1z m31 -38 c-2 -4 -70 -8 -152 -9 -81 -1 -195 -7 -253 -13 -137
-14 -960 2 -960 19 0 4 308 7 685 8 376 0 682 -2 680 -5z m10 -31 c4 -7 -70
-9 -217 -8 l-223 2 215 6 c118 3 216 7 217 8 1 1 5 -2 8 -8z m-1215 -10 c-91
-3 -169 -2 -174 3 -6 4 69 6 165 5 l174 -2 -165 -6z m948 -17 c150 -3 272 -10
272 -15 0 -4 -315 -8 -700 -8 -448 0 -700 4 -700 10 0 16 686 24 1128 13z"/>
<path d="M485 2530 c-4 -6 9 -10 32 -10 28 0 34 3 23 10 -20 13 -47 13 -55 0z"/>
<path d="M1378 2503 c17 -2 47 -2 65 0 17 2 3 4 -33 4 -36 0 -50 -2 -32 -4z"/>
<path d="M605 2100 c-4 -6 21 -10 66 -10 40 0 70 2 68 4 -11 9 -129 15 -134 6z"/>
</g>
</svg>
