<?xml version="1.0" standalone="no"?>
<!DOCTYPE svg PUBLIC "-//W3C//DTD SVG 20010904//EN"
 "http://www.w3.org/TR/2001/REC-SVG-20010904/DTD/svg10.dtd">
<svg version="1.0" xmlns="http://www.w3.org/2000/svg"
 width="300.000000pt" height="362.000000pt" viewBox="0 0 300.000000 362.000000"
 preserveAspectRatio="xMidYMid meet">
<metadata>
Created by potrace 1.10, written by Peter Selinger 2001-2011
</metadata>
<g transform="translate(0.000000,362.000000) scale(0.100000,-0.100000)"
fill="#000000" stroke="none">
<path d="M1405 3446 c-64 -28 -114 -121 -99 -183 10 -41 31 -79 57 -103 21
-20 21 -22 6 -48 -9 -15 -67 -112 -128 -216 -61 -104 -113 -191 -115 -194 -3
-2 -33 17 -68 43 -35 26 -98 68 -140 93 -43 24 -78 46 -78 48 0 2 16 24 35 49
80 105 52 245 -62 312 -41 24 -59 28 -123 28 -64 0 -82 -4 -122 -28 -153 -89
-168 -274 -48 -562 23 -55 58 -138 77 -185 19 -47 59 -153 88 -236 43 -123 52
-160 48 -193 -5 -33 -1 -46 14 -64 43 -46 46 -65 19 -92 -14 -14 -30 -34 -36
-45 -25 -47 2 -126 48 -136 75 -16 76 -18 94 -84 42 -154 44 -327 7 -501 l-11
-51 -52 4 -51 3 -5 -100 c-6 -98 -7 -103 -63 -213 -32 -62 -68 -130 -81 -151
-83 -130 -151 -307 -158 -409 l-3 -43 1049 1 c578 0 1052 3 1055 6 9 9 -29
174 -56 241 -14 35 -64 128 -110 206 -141 235 -146 247 -152 362 l-6 100 -56
-3 -56 -4 -19 74 c-27 103 -25 372 2 473 l19 70 50 8 c70 12 95 38 95 99 0 40
-5 54 -30 79 -32 34 -31 41 12 100 17 23 18 31 8 66 -11 37 -9 49 25 149 21
60 69 186 108 279 143 352 169 470 131 591 -38 123 -125 189 -249 189 -56 0
-79 -5 -115 -25 -62 -35 -102 -96 -108 -164 -6 -69 10 -114 54 -159 32 -32 38
-57 14 -57 -16 0 -112 -61 -197 -126 -58 -45 -84 -59 -90 -51 -5 7 -24 41 -43
77 -29 55 -158 279 -200 347 -12 19 -11 25 18 57 49 56 56 158 15 215 -43 59
-150 87 -218 57z m151 -80 c29 -29 34 -41 34 -80 0 -36 -6 -52 -29 -78 -25
-28 -35 -32 -80 -32 -42 0 -56 5 -81 29 -39 38 -47 83 -24 132 22 44 54 63
108 63 30 0 45 -7 72 -34z m-781 -175 c94 -54 101 -182 15 -255 -70 -58 -186
-16 -210 76 -16 57 2 112 40 128 33 14 31 30 -4 30 -37 0 -66 -41 -73 -102
-11 -106 36 -171 159 -217 151 -57 332 -168 444 -274 36 -33 105 -111 154
-173 l90 -114 -326 2 -326 3 -37 100 c-21 55 -68 173 -104 262 -80 194 -97
255 -97 347 0 81 25 144 68 172 68 45 146 50 207 15z m1602 -7 c64 -31 94 -84
100 -183 7 -94 -13 -168 -121 -439 -51 -130 -96 -245 -100 -254 -5 -17 -30
-18 -337 -18 -264 0 -329 3 -322 13 140 182 185 232 288 317 117 96 249 176
370 224 92 36 133 69 157 124 23 51 20 127 -7 168 -18 28 -61 42 -78 25 -8 -8
-8 -11 1 -11 7 0 24 -11 37 -25 34 -33 36 -119 3 -160 -43 -55 -123 -70 -178
-32 -109 74 -85 240 40 275 44 13 82 7 147 -24z m-816 -149 c49 -75 239 -411
239 -424 0 -4 -11 -18 -24 -30 l-24 -22 -57 108 c-70 132 -206 363 -214 363
-3 0 -23 -30 -43 -68 -30 -53 -107 -185 -216 -371 -6 -11 -13 -7 -31 17 l-22
32 86 152 c48 83 112 189 142 235 51 79 57 84 86 81 27 -3 39 -14 78 -73z m38
-273 c56 -100 107 -193 113 -206 9 -22 1 -37 -89 -158 -55 -73 -108 -146 -118
-161 l-18 -28 -18 31 c-17 27 -93 128 -191 253 -28 36 -36 53 -29 65 10 18
117 205 191 330 23 40 46 70 50 65 4 -4 53 -90 109 -191z m-155 -552 l36 -50
-351 2 -352 3 -13 45 c-8 25 -14 46 -14 47 0 1 148 2 329 3 l329 0 36 -50z
m787 43 c4 -2 1 -22 -6 -45 l-12 -43 -357 -3 c-286 -2 -356 0 -350 10 4 7 21
30 37 52 l30 38 326 -3 c179 -2 329 -4 332 -6z m-91 -162 c36 -3 65 -10 65
-16 0 -30 -1403 -28 -1412 2 -4 10 36 13 164 16 327 5 1119 5 1183 -2z m-12
-74 c51 -2 61 -5 55 -17 -3 -8 -8 -34 -11 -58 -3 -35 1 -50 24 -83 54 -79 99
-74 -699 -77 -698 -2 -706 -2 -717 18 -12 23 -4 45 29 74 23 21 29 88 11 116
-17 26 284 39 795 33 248 -3 478 -5 513 -6z m-637 -297 c326 0 589 -4 589 -9
0 -12 -1162 -11 -1177 1 -7 6 -13 16 -12 22 0 7 2 6 6 -1 4 -10 132 -13 594
-13z m367 -38 c152 -1 211 -5 206 -13 -4 -8 -57 -9 -173 -5 -91 3 -350 5 -574
6 -225 0 -406 3 -403 8 4 7 489 9 944 4z m20 -39 c100 -3 182 -10 182 -15 0
-4 -93 -8 -206 -8 -134 0 -203 -3 -199 -10 4 -6 82 -10 201 -10 123 0 194 -4
194 -10 0 -6 -62 -10 -165 -10 -103 0 -165 -4 -165 -10 0 -6 60 -10 160 -10
136 0 160 -2 160 -15 0 -13 -22 -15 -141 -15 -91 0 -138 -4 -134 -10 4 -6 62
-10 141 -10 104 0 135 -3 131 -12 -2 -7 -13 -12 -23 -10 -34 4 -217 -10 -206
-17 6 -3 58 -6 116 -6 78 0 106 -3 106 -12 0 -10 -25 -13 -89 -13 -50 0 -93
-4 -96 -10 -4 -6 28 -10 89 -10 79 0 96 -3 96 -15 0 -12 -16 -15 -82 -16 -98
-1 -80 -17 20 -18 34 -1 62 -5 62 -11 0 -6 -28 -10 -62 -10 -35 0 -70 -5 -78
-10 -10 -7 11 -10 68 -10 66 0 82 -3 82 -15 0 -12 -14 -15 -67 -15 -38 0 -75
-5 -83 -10 -10 -7 11 -10 68 -10 66 0 82 -3 82 -15 0 -12 -15 -15 -74 -15 -41
0 -78 -4 -81 -10 -4 -6 25 -10 79 -10 69 0 86 -3 86 -15 0 -10 -10 -14 -32
-13 -76 4 -149 -2 -143 -13 4 -6 41 -9 93 -8 74 2 87 -1 90 -14 2 -12 -1 -15
-13 -11 -20 8 -186 -6 -181 -15 2 -3 49 -6 103 -6 88 1 112 -5 113 -26 0 -11
-592 -20 -880 -13 -279 7 -287 8 -282 27 5 18 12 19 109 15 57 -3 106 -2 108
2 6 10 -159 23 -184 15 -15 -5 -21 -2 -21 9 0 14 16 16 100 16 57 0 100 4 100
10 0 14 -66 23 -131 17 -47 -4 -59 -2 -59 9 0 11 19 14 89 14 50 0 93 5 96 10
4 6 -27 10 -84 10 -74 0 -91 3 -91 15 0 12 16 15 85 15 54 0 85 4 85 11 0 7
-29 9 -85 7 -77 -3 -85 -1 -85 15 0 14 5 17 21 12 12 -4 51 -4 88 1 l66 7 -50
9 c-27 5 -67 6 -88 3 -32 -5 -38 -3 -35 11 3 15 15 17 86 15 52 -1 82 2 82 8
0 7 -32 11 -85 11 -69 0 -85 3 -85 15 0 12 18 15 100 15 60 0 100 4 100 10 0
6 -40 10 -100 10 -84 0 -100 2 -100 16 0 9 8 14 18 13 9 -1 60 0 112 1 87 2
91 3 50 11 -25 5 -75 8 -113 7 -54 -2 -67 0 -67 12 0 13 19 15 120 12 70 -2
127 1 137 7 13 8 -22 10 -124 11 -120 0 -143 2 -143 15 0 13 24 15 154 15 93
0 157 4 161 10 4 7 -52 10 -160 10 -117 0 -166 3 -163 11 2 7 65 11 191 12
104 0 190 4 193 9 5 8 -87 12 -285 13 -74 0 -106 4 -109 13 -3 9 81 12 386 12
214 0 471 -3 570 -7z m-958 -572 c0 -6 -5 -13 -10 -16 -15 -9 -43 3 -35 15 8
13 45 13 45 1z m1184 3 c27 -10 18 -23 -14 -21 -31 2 -39 12 -17 20 6 3 13 6
14 6 1 1 8 -2 17 -5z m-24 -60 l105 -6 0 -29 0 -30 -145 8 c-183 10 -1003 10
-1132 -1 l-98 -7 3 32 2 33 260 4 c143 2 262 6 265 9 6 6 584 -4 740 -13z
m-91 -109 c124 -8 208 -18 215 -25 8 -9 -32 -10 -169 -5 -103 4 -176 4 -172
-1 5 -5 88 -13 185 -19 241 -14 241 -32 0 -29 -211 3 -169 -11 65 -22 75 -3
137 -10 137 -15 0 -5 -77 -9 -172 -9 -112 0 -169 -3 -162 -10 5 -5 88 -11 183
-12 129 -2 175 -6 179 -15 3 -10 -36 -13 -170 -15 -152 -1 -163 -2 -88 -9 47
-4 129 -7 183 -8 73 -1 97 -4 97 -14 0 -9 -10 -12 -30 -9 -32 5 -304 -8 -298
-14 2 -1 82 -6 178 -9 233 -7 237 -25 6 -25 -111 0 -176 -4 -176 -10 0 -6 68
-10 184 -10 151 0 186 -3 196 -15 11 -13 -4 -15 -121 -16 -74 -1 -159 -4 -189
-8 -48 -6 -38 -7 75 -14 72 -4 158 -7 192 -7 53 0 64 -3 77 -22 9 -12 16 -27
16 -33 0 -7 -292 -10 -905 -10 -613 0 -905 3 -905 10 0 6 7 21 16 33 14 20 24
22 112 23 53 1 135 4 182 8 l85 7 -96 8 c-53 5 -133 7 -178 5 -52 -3 -80 0
-78 6 5 14 97 23 244 24 77 1 124 5 129 12 5 8 -43 10 -170 8 -232 -5 -229 13
5 26 l174 10 -106 9 c-59 4 -132 5 -164 1 -47 -6 -57 -5 -53 6 4 14 112 24
292 28 33 0 57 3 54 6 -3 3 -78 6 -167 6 -137 1 -160 3 -150 15 9 11 46 14
158 15 80 0 155 4 166 9 12 5 -42 9 -142 9 -90 1 -163 5 -163 10 0 10 119 21
239 22 47 0 95 5 106 10 13 6 -41 8 -153 6 -123 -3 -172 -1 -169 7 2 7 66 15
170 21 91 6 169 14 174 19 4 5 -66 5 -161 1 -140 -6 -168 -5 -164 6 3 10 37
16 124 22 416 26 693 27 1073 2z m426 -487 c26 -116 35 -155 35 -165 0 -10
-198 -13 -956 -13 -905 0 -955 1 -950 18 3 9 12 50 21 91 8 40 17 76 19 80 2
3 414 8 915 9 l910 4 6 -24z m83 -106 c12 -54 14 -86 3 -77 -6 6 -14 33 -17
60 -6 46 4 58 14 17z"/>
</g>
</svg>
